%TF.GenerationSoftware,KiCad,Pcbnew,7.0.8*%
%TF.CreationDate,2024-04-26T14:47:40-04:00*%
%TF.ProjectId,PD Charger,50442043-6861-4726-9765-722e6b696361,rev?*%
%TF.SameCoordinates,Original*%
%TF.FileFunction,Copper,L4,Bot*%
%TF.FilePolarity,Positive*%
%FSLAX46Y46*%
G04 Gerber Fmt 4.6, Leading zero omitted, Abs format (unit mm)*
G04 Created by KiCad (PCBNEW 7.0.8) date 2024-04-26 14:47:40*
%MOMM*%
%LPD*%
G01*
G04 APERTURE LIST*
G04 Aperture macros list*
%AMRoundRect*
0 Rectangle with rounded corners*
0 $1 Rounding radius*
0 $2 $3 $4 $5 $6 $7 $8 $9 X,Y pos of 4 corners*
0 Add a 4 corners polygon primitive as box body*
4,1,4,$2,$3,$4,$5,$6,$7,$8,$9,$2,$3,0*
0 Add four circle primitives for the rounded corners*
1,1,$1+$1,$2,$3*
1,1,$1+$1,$4,$5*
1,1,$1+$1,$6,$7*
1,1,$1+$1,$8,$9*
0 Add four rect primitives between the rounded corners*
20,1,$1+$1,$2,$3,$4,$5,0*
20,1,$1+$1,$4,$5,$6,$7,0*
20,1,$1+$1,$6,$7,$8,$9,0*
20,1,$1+$1,$8,$9,$2,$3,0*%
%AMFreePoly0*
4,1,19,0.500000,-0.750000,0.000000,-0.750000,0.000000,-0.744911,-0.071157,-0.744911,-0.207708,-0.704816,-0.327430,-0.627875,-0.420627,-0.520320,-0.479746,-0.390866,-0.500000,-0.250000,-0.500000,0.250000,-0.479746,0.390866,-0.420627,0.520320,-0.327430,0.627875,-0.207708,0.704816,-0.071157,0.744911,0.000000,0.744911,0.000000,0.750000,0.500000,0.750000,0.500000,-0.750000,0.500000,-0.750000,
$1*%
%AMFreePoly1*
4,1,19,0.000000,0.744911,0.071157,0.744911,0.207708,0.704816,0.327430,0.627875,0.420627,0.520320,0.479746,0.390866,0.500000,0.250000,0.500000,-0.250000,0.479746,-0.390866,0.420627,-0.520320,0.327430,-0.627875,0.207708,-0.704816,0.071157,-0.744911,0.000000,-0.744911,0.000000,-0.750000,-0.500000,-0.750000,-0.500000,0.750000,0.000000,0.750000,0.000000,0.744911,0.000000,0.744911,
$1*%
G04 Aperture macros list end*
%TA.AperFunction,ComponentPad*%
%ADD10O,2.100000X1.000000*%
%TD*%
%TA.AperFunction,ComponentPad*%
%ADD11O,1.800000X1.000000*%
%TD*%
%TA.AperFunction,ComponentPad*%
%ADD12R,2.000000X0.900000*%
%TD*%
%TA.AperFunction,ComponentPad*%
%ADD13RoundRect,1.025000X1.025000X-1.025000X1.025000X1.025000X-1.025000X1.025000X-1.025000X-1.025000X0*%
%TD*%
%TA.AperFunction,ComponentPad*%
%ADD14C,4.100000*%
%TD*%
%TA.AperFunction,SMDPad,CuDef*%
%ADD15RoundRect,0.250000X-0.700000X1.950000X-0.700000X-1.950000X0.700000X-1.950000X0.700000X1.950000X0*%
%TD*%
%TA.AperFunction,SMDPad,CuDef*%
%ADD16RoundRect,0.250000X0.475000X-0.250000X0.475000X0.250000X-0.475000X0.250000X-0.475000X-0.250000X0*%
%TD*%
%TA.AperFunction,SMDPad,CuDef*%
%ADD17RoundRect,0.225000X0.250000X-0.225000X0.250000X0.225000X-0.250000X0.225000X-0.250000X-0.225000X0*%
%TD*%
%TA.AperFunction,SMDPad,CuDef*%
%ADD18FreePoly0,0.000000*%
%TD*%
%TA.AperFunction,SMDPad,CuDef*%
%ADD19FreePoly1,0.000000*%
%TD*%
%TA.AperFunction,SMDPad,CuDef*%
%ADD20RoundRect,0.225000X-0.225000X-0.250000X0.225000X-0.250000X0.225000X0.250000X-0.225000X0.250000X0*%
%TD*%
%TA.AperFunction,SMDPad,CuDef*%
%ADD21RoundRect,0.250000X-0.250000X-0.475000X0.250000X-0.475000X0.250000X0.475000X-0.250000X0.475000X0*%
%TD*%
%TA.AperFunction,SMDPad,CuDef*%
%ADD22R,3.825000X12.320000*%
%TD*%
%TA.AperFunction,SMDPad,CuDef*%
%ADD23RoundRect,0.225000X0.225000X0.250000X-0.225000X0.250000X-0.225000X-0.250000X0.225000X-0.250000X0*%
%TD*%
%TA.AperFunction,ViaPad*%
%ADD24C,0.650000*%
%TD*%
%TA.AperFunction,Conductor*%
%ADD25C,0.250000*%
%TD*%
%TA.AperFunction,Conductor*%
%ADD26C,0.300000*%
%TD*%
G04 APERTURE END LIST*
D10*
%TO.P,J1,S1,SHIELD*%
%TO.N,GND*%
X80145000Y-29320000D03*
D11*
X84325000Y-29320000D03*
D10*
X80145000Y-20680000D03*
D11*
X84325000Y-20680000D03*
%TD*%
D12*
%TO.P,J3,*%
%TO.N,*%
X14750000Y-31750000D03*
X14750000Y-18250000D03*
D13*
%TO.P,J3,1,Pin_1*%
%TO.N,GND*%
X20750000Y-28600000D03*
D14*
%TO.P,J3,2,Pin_2*%
%TO.N,VS*%
X20750000Y-21400000D03*
%TD*%
D15*
%TO.P,C2,1*%
%TO.N,IS*%
X57000000Y-20650000D03*
%TO.P,C2,2*%
%TO.N,GND*%
X57000000Y-29350000D03*
%TD*%
%TO.P,C1,1*%
%TO.N,VS*%
X25000000Y-20650000D03*
%TO.P,C1,2*%
%TO.N,GND*%
X25000000Y-29350000D03*
%TD*%
D16*
%TO.P,C22,1*%
%TO.N,GND*%
X74000000Y-25950000D03*
%TO.P,C22,2*%
%TO.N,/VBUS*%
X74000000Y-24050000D03*
%TD*%
D17*
%TO.P,C26,1*%
%TO.N,/VREF+*%
X72000000Y-45775000D03*
%TO.P,C26,2*%
%TO.N,GND*%
X72000000Y-44225000D03*
%TD*%
D18*
%TO.P,JP4,1,A*%
%TO.N,/USB_DP*%
X76700000Y-41450000D03*
D19*
%TO.P,JP4,2,B*%
%TO.N,/USB_DN*%
X78000000Y-41450000D03*
%TD*%
D20*
%TO.P,C12,1*%
%TO.N,+3V3*%
X67625000Y-40400000D03*
%TO.P,C12,2*%
%TO.N,GND*%
X69175000Y-40400000D03*
%TD*%
%TO.P,C13,1*%
%TO.N,+3V3*%
X67625000Y-38800000D03*
%TO.P,C13,2*%
%TO.N,GND*%
X69175000Y-38800000D03*
%TD*%
%TO.P,C11,1*%
%TO.N,/~{RST}*%
X67625000Y-43000000D03*
%TO.P,C11,2*%
%TO.N,GND*%
X69175000Y-43000000D03*
%TD*%
D17*
%TO.P,C25,1*%
%TO.N,+3V3*%
X73600000Y-45775000D03*
%TO.P,C25,2*%
%TO.N,GND*%
X73600000Y-44225000D03*
%TD*%
D21*
%TO.P,C30,1*%
%TO.N,GND*%
X15850000Y-44800000D03*
%TO.P,C30,2*%
%TO.N,VS*%
X17750000Y-44800000D03*
%TD*%
D22*
%TO.P,L1,1,1*%
%TO.N,LS*%
X32877500Y-25000000D03*
%TO.P,L1,2,2*%
%TO.N,SW2*%
X49122500Y-25000000D03*
%TD*%
D17*
%TO.P,C24,1*%
%TO.N,+3V3*%
X75200000Y-45775000D03*
%TO.P,C24,2*%
%TO.N,GND*%
X75200000Y-44225000D03*
%TD*%
D21*
%TO.P,C31,1*%
%TO.N,GND*%
X15850000Y-50000000D03*
%TO.P,C31,2*%
%TO.N,VS*%
X17750000Y-50000000D03*
%TD*%
D23*
%TO.P,C23,1*%
%TO.N,+3V3*%
X74975000Y-39400000D03*
%TO.P,C23,2*%
%TO.N,GND*%
X73425000Y-39400000D03*
%TD*%
D24*
%TO.N,SW1*%
X31600000Y-37800000D03*
X35400000Y-40000000D03*
X40800000Y-23600000D03*
%TO.N,SW2*%
X45200000Y-25400000D03*
X44600000Y-24600000D03*
X46400000Y-25400000D03*
X42800000Y-25400000D03*
X44000000Y-25400000D03*
X42400000Y-28000000D03*
X48200000Y-37800000D03*
X45800000Y-24600000D03*
X46600000Y-23600000D03*
X42200000Y-24600000D03*
X42200000Y-21800000D03*
X42400000Y-29600000D03*
X47000000Y-24600000D03*
X46600000Y-26400000D03*
X42200000Y-20200000D03*
%TO.N,GND*%
X29250000Y-28000000D03*
X75200000Y-47400000D03*
X67250000Y-33750000D03*
X59000000Y-31500000D03*
X55250000Y-28000000D03*
X23250000Y-34000000D03*
X31400000Y-47200000D03*
X83250000Y-31750000D03*
X79250000Y-35750000D03*
X75200000Y-35800000D03*
X13600000Y-48800000D03*
X15250000Y-34000000D03*
X53250000Y-34000000D03*
X55250000Y-34000000D03*
X79250000Y-31750000D03*
X59000000Y-35000000D03*
X17250000Y-36000000D03*
X13250000Y-36000000D03*
X17250000Y-28000000D03*
X53250000Y-30000000D03*
X27250000Y-30000000D03*
X43250000Y-32000000D03*
X23250000Y-32000000D03*
X15250000Y-30000000D03*
X69000000Y-26600000D03*
X55250000Y-32000000D03*
X73250000Y-31750000D03*
X13600000Y-46600000D03*
X37250000Y-34000000D03*
X27250000Y-26000000D03*
X23250000Y-28000000D03*
X77500000Y-21750000D03*
X69800000Y-42370000D03*
X13250000Y-30000000D03*
X29250000Y-30000000D03*
X27250000Y-34000000D03*
X85250000Y-33750000D03*
X81250000Y-35750000D03*
X19250000Y-32000000D03*
X43250000Y-34000000D03*
X15250000Y-28000000D03*
X85250000Y-35750000D03*
X31250000Y-32000000D03*
X59000000Y-30250000D03*
X71250000Y-31750000D03*
X71725000Y-44225000D03*
X25250000Y-34000000D03*
X20400000Y-45000000D03*
X62000000Y-31500000D03*
X21250000Y-34000000D03*
X65250000Y-35750000D03*
X21250000Y-32000000D03*
X18775500Y-46101019D03*
X77250000Y-33750000D03*
X55250000Y-30000000D03*
X27250000Y-28000000D03*
X77000000Y-29250000D03*
X25250000Y-32000000D03*
X47500000Y-34000000D03*
X23250000Y-36000000D03*
X77250000Y-35750000D03*
X75500000Y-28500000D03*
X33250000Y-34000000D03*
X85250000Y-31750000D03*
X20400000Y-50024500D03*
X19250000Y-36000000D03*
X77200000Y-46000000D03*
X35250000Y-32500000D03*
X53250000Y-32000000D03*
X23250000Y-26000000D03*
X83250000Y-35750000D03*
X19250000Y-34000000D03*
X37250000Y-32000000D03*
X78500000Y-21750000D03*
X25250000Y-26000000D03*
X77250000Y-31750000D03*
X21250000Y-26000000D03*
X62000000Y-33750000D03*
X77500000Y-20750000D03*
X27250000Y-32000000D03*
X17250000Y-26000000D03*
X17250000Y-32000000D03*
X13250000Y-28000000D03*
X77200000Y-44000000D03*
X81250000Y-31750000D03*
X51250000Y-32000000D03*
X83250000Y-33750000D03*
X23250000Y-30000000D03*
X20400000Y-43400000D03*
X20400000Y-50800000D03*
X75250000Y-33750000D03*
X69250000Y-31750000D03*
X62000000Y-35000000D03*
X67250000Y-35750000D03*
X15250000Y-36000000D03*
X29250000Y-32000000D03*
X31400000Y-48800000D03*
X18775500Y-48775500D03*
X79250000Y-33750000D03*
X42000000Y-49800000D03*
X71800000Y-26600000D03*
X77200000Y-38000000D03*
X65250000Y-33750000D03*
X71250000Y-33750000D03*
X67250000Y-31750000D03*
X78000000Y-29250000D03*
X65250000Y-31750000D03*
X69250000Y-33750000D03*
X13600000Y-50400000D03*
X15250000Y-26000000D03*
X21250000Y-36000000D03*
X25250000Y-30000000D03*
X81250000Y-33750000D03*
X29250000Y-26000000D03*
X59037500Y-32600000D03*
X71725000Y-40200000D03*
X73250000Y-33750000D03*
X53250000Y-28000000D03*
X35250000Y-34000000D03*
X41250000Y-34000000D03*
X77500000Y-28500000D03*
X13250000Y-34000000D03*
X45500000Y-34000000D03*
X73600000Y-42370000D03*
X20400000Y-44200000D03*
X75250000Y-31750000D03*
X17250000Y-34000000D03*
X78000000Y-21250000D03*
X45500000Y-32000000D03*
X78500000Y-20750000D03*
X61962500Y-32600000D03*
X41250000Y-32000000D03*
X70405000Y-25000000D03*
X19250000Y-26000000D03*
X62000000Y-30250000D03*
X67600000Y-22449500D03*
X25250000Y-28000000D03*
X13250000Y-26000000D03*
X59000000Y-33750000D03*
X76500000Y-28500000D03*
X17250000Y-30000000D03*
X25250000Y-36000000D03*
%TO.N,/VCTRLI*%
X67400000Y-45400000D03*
X34400000Y-48950500D03*
%TO.N,/~{RST}*%
X66959266Y-41640734D03*
%TO.N,+3V3*%
X66600000Y-38000000D03*
X73600000Y-46943156D03*
X83450000Y-41525000D03*
X76200000Y-40000000D03*
X23400000Y-44200000D03*
X72551394Y-25035923D03*
X74400000Y-46943156D03*
X23400000Y-50600000D03*
X23400000Y-47400000D03*
X69000000Y-23400000D03*
%TO.N,LS*%
X41400000Y-25400000D03*
X40200000Y-28600000D03*
X41400000Y-31000000D03*
X40800000Y-26400000D03*
X40200000Y-27400000D03*
X40800000Y-30400000D03*
X41400000Y-28600000D03*
X40200000Y-25400000D03*
X40800000Y-29200000D03*
X40800000Y-28000000D03*
X40200000Y-31000000D03*
X41400000Y-29800000D03*
X40200000Y-29800000D03*
X35400000Y-41000000D03*
X41400000Y-27400000D03*
%TO.N,/G1*%
X35400000Y-31200000D03*
X27000000Y-36800000D03*
%TO.N,VS*%
X17990734Y-45609266D03*
X31250000Y-17750000D03*
X13250000Y-21750000D03*
X15250000Y-15750000D03*
X35250000Y-17750000D03*
X13250000Y-23750000D03*
X17250000Y-17750000D03*
X37250000Y-13750000D03*
X15250000Y-21750000D03*
X31250000Y-13750000D03*
X21250000Y-15750000D03*
X15250000Y-19750000D03*
X19250000Y-13750000D03*
X27250000Y-21750000D03*
X21250000Y-23750000D03*
X31250000Y-15750000D03*
X33250000Y-15750000D03*
X35250000Y-13750000D03*
X19250000Y-23750000D03*
X35250000Y-15750000D03*
X13250000Y-15750000D03*
X33250000Y-13750000D03*
X23250000Y-23750000D03*
X37250000Y-17750000D03*
X25250000Y-17750000D03*
X17250000Y-19750000D03*
X27400000Y-40400000D03*
X33250000Y-17750000D03*
X37250000Y-15750000D03*
X29250000Y-17750000D03*
X29250000Y-13750000D03*
X39250000Y-15750000D03*
X28400000Y-41400000D03*
X21250000Y-13750000D03*
X15250000Y-13750000D03*
X17250000Y-23750000D03*
X25250000Y-15750000D03*
X17200000Y-45600000D03*
X19250000Y-17750000D03*
X39250000Y-17750000D03*
X27250000Y-17750000D03*
X29250000Y-21750000D03*
X27250000Y-13750000D03*
X17250000Y-21750000D03*
X27250000Y-19750000D03*
X23250000Y-21750000D03*
X29250000Y-19750000D03*
X25250000Y-13750000D03*
X17250000Y-15750000D03*
X17250000Y-13750000D03*
X27250000Y-15750000D03*
X29250000Y-15750000D03*
X18000000Y-49200000D03*
X15250000Y-23750000D03*
X23250000Y-17750000D03*
X23250000Y-13750000D03*
X23250000Y-19750000D03*
X17200000Y-49200000D03*
X23250000Y-15750000D03*
X13250000Y-19750000D03*
X19250000Y-15750000D03*
X13250000Y-13750000D03*
X35400000Y-42000000D03*
X39250000Y-13750000D03*
X21250000Y-17750000D03*
%TO.N,/G2*%
X27000000Y-38600000D03*
X35314500Y-24200000D03*
%TO.N,/G3*%
X52600000Y-36800000D03*
X42400000Y-31200000D03*
%TO.N,IS*%
X45000000Y-15750000D03*
X59250000Y-13750000D03*
X55250000Y-15750000D03*
X55250000Y-19750000D03*
X55250000Y-21750000D03*
X49250000Y-17750000D03*
X43000000Y-17750000D03*
X51250000Y-15750000D03*
X57250000Y-15750000D03*
X57250000Y-13750000D03*
X43000000Y-15750000D03*
X55250000Y-17750000D03*
X59000000Y-17500000D03*
X51250000Y-13750000D03*
X35750000Y-46750000D03*
X43000000Y-13750000D03*
X45000000Y-13750000D03*
X45000000Y-17750000D03*
X47000000Y-13750000D03*
X53250000Y-15750000D03*
X49250000Y-13750000D03*
X53250000Y-21750000D03*
X59250000Y-15750000D03*
X51250000Y-17750000D03*
X53250000Y-17750000D03*
X53250000Y-19750000D03*
X47000000Y-15750000D03*
X47000000Y-17750000D03*
X53250000Y-13750000D03*
X49250000Y-15750000D03*
X55250000Y-13750000D03*
%TO.N,/G4*%
X52600000Y-38600000D03*
X43400000Y-24600000D03*
%TO.N,VD*%
X43940734Y-45940734D03*
X61250000Y-19750000D03*
X62000000Y-17500000D03*
X63250000Y-15750000D03*
X67500000Y-13750000D03*
X62250000Y-20750000D03*
X63250000Y-19750000D03*
X61250000Y-15750000D03*
X67500000Y-15750000D03*
X61250000Y-13750000D03*
X63250000Y-17750000D03*
X44400000Y-40000000D03*
X65250000Y-15750000D03*
X65250000Y-13750000D03*
X63250000Y-13750000D03*
X62250000Y-18750000D03*
%TO.N,/FB*%
X60100500Y-26100000D03*
X44400000Y-43035750D03*
%TO.N,/CC1*%
X70600000Y-34400000D03*
X72750500Y-26000000D03*
%TO.N,/USB_DP*%
X77150000Y-40000000D03*
X78200000Y-24600000D03*
%TO.N,/CC2*%
X72692734Y-24198261D03*
X72600000Y-34400000D03*
%TO.N,/INT_N*%
X67600000Y-25000000D03*
X67600000Y-37600000D03*
%TO.N,/SCL*%
X68600000Y-37200000D03*
X67600000Y-26000000D03*
%TO.N,/SDA*%
X69734082Y-36781593D03*
X67600000Y-27000000D03*
%TO.N,/VIN_SENSE*%
X65950500Y-42600000D03*
X24800000Y-43400000D03*
%TO.N,/VOUT_SENSE*%
X63000000Y-25200000D03*
X65949500Y-43580680D03*
%TO.N,/VCTRLV*%
X37475500Y-47860120D03*
X66581114Y-44381114D03*
%TO.N,/VADJ*%
X70012679Y-47008592D03*
X45462786Y-51274500D03*
%TO.N,/~{RUN}*%
X68600000Y-46600000D03*
X43000000Y-50400000D03*
%TO.N,/OUTDIS*%
X65710206Y-23950500D03*
X74157591Y-37724500D03*
%TO.N,/LOADEN*%
X73228835Y-37724500D03*
X65572700Y-26200000D03*
%TO.N,/ISMON*%
X43975500Y-45000000D03*
X71800000Y-47000000D03*
%TO.N,/SYNC*%
X70915982Y-46965485D03*
X44400000Y-41086750D03*
%TO.N,/COM_S*%
X70250000Y-19000000D03*
X70250000Y-17750000D03*
X70250000Y-16500000D03*
X70250000Y-20250000D03*
%TO.N,/VBUS*%
X77500000Y-22750000D03*
X78500000Y-17750000D03*
X82500000Y-13750000D03*
X72500000Y-13750000D03*
X82500000Y-17750000D03*
X80500000Y-17750000D03*
X75500000Y-23500000D03*
X78250000Y-27250000D03*
X78500000Y-15750000D03*
X76500000Y-13750000D03*
X80500000Y-15750000D03*
X75500000Y-24250000D03*
X76500000Y-22750000D03*
X76500000Y-23500000D03*
X74500000Y-15750000D03*
X84500000Y-15750000D03*
X76500000Y-15750000D03*
X84500000Y-13750000D03*
X76500000Y-27250000D03*
X84500000Y-17750000D03*
X82500000Y-15750000D03*
X80500000Y-13750000D03*
X74500000Y-13750000D03*
X75500000Y-22750000D03*
X75500000Y-27250000D03*
X72500000Y-15750000D03*
X78500000Y-13750000D03*
%TO.N,/USB_DN*%
X78050000Y-40000000D03*
X78200000Y-25600000D03*
%TO.N,/VREF+*%
X72677536Y-46974580D03*
%TD*%
D25*
%TO.N,/~{RST}*%
X67625000Y-43000000D02*
X67625000Y-42306468D01*
X67625000Y-42306468D02*
X66959266Y-41640734D01*
D26*
%TO.N,+3V3*%
X73600000Y-46943156D02*
X73600000Y-45775000D01*
X76200000Y-40004595D02*
X76200000Y-40000000D01*
X76200000Y-40000000D02*
X75575000Y-40000000D01*
X74400000Y-46575000D02*
X75200000Y-45775000D01*
X75575000Y-40000000D02*
X74975000Y-39400000D01*
X67625000Y-38800000D02*
X67400000Y-38800000D01*
X74400000Y-46943156D02*
X74400000Y-46575000D01*
X67400000Y-38800000D02*
X66600000Y-38000000D01*
X67625000Y-40400000D02*
X67625000Y-38800000D01*
D25*
%TO.N,/USB_DP*%
X76700000Y-41450000D02*
X76700000Y-40450000D01*
X76700000Y-40450000D02*
X77150000Y-40000000D01*
D26*
%TO.N,/OUTDIS*%
X66400000Y-24640294D02*
X65710206Y-23950500D01*
X74157591Y-37698661D02*
X73458930Y-37000000D01*
X73458930Y-37000000D02*
X71510954Y-37000000D01*
X71510954Y-37000000D02*
X68352000Y-33841046D01*
X68352000Y-33841046D02*
X68352000Y-28706595D01*
X74157591Y-37724500D02*
X74157591Y-37698661D01*
X66400000Y-26754595D02*
X66400000Y-24640294D01*
X68352000Y-28706595D02*
X66400000Y-26754595D01*
%TO.N,/LOADEN*%
X65572700Y-26200000D02*
X65572700Y-26572700D01*
X65572700Y-26572700D02*
X67925000Y-28925000D01*
X67925000Y-34017916D02*
X71631584Y-37724500D01*
X67925000Y-28925000D02*
X67925000Y-34017916D01*
X71631584Y-37724500D02*
X73228835Y-37724500D01*
D25*
%TO.N,/ISMON*%
X47947444Y-48035592D02*
X70764408Y-48035592D01*
X71800000Y-47000000D02*
X70800000Y-48000000D01*
X43975500Y-45000000D02*
X44911852Y-45000000D01*
X47947444Y-48035592D02*
X44911852Y-45000000D01*
X70800000Y-48000000D02*
X70764408Y-48035592D01*
%TO.N,/SYNC*%
X70915982Y-46965485D02*
X70915982Y-47024528D01*
X43750000Y-43304989D02*
X43750000Y-41736750D01*
X48103603Y-47658592D02*
X43750000Y-43304989D01*
X43750000Y-41736750D02*
X44400000Y-41086750D01*
X48103603Y-47658592D02*
X70281918Y-47658592D01*
X70915982Y-47024528D02*
X70281918Y-47658592D01*
%TO.N,/USB_DN*%
X78000000Y-41450000D02*
X78000000Y-40050000D01*
X78000000Y-40050000D02*
X78050000Y-40000000D01*
%TO.N,/VREF+*%
X72677536Y-46452536D02*
X72000000Y-45775000D01*
X72677536Y-46974580D02*
X72677536Y-46452536D01*
%TD*%
%TA.AperFunction,Conductor*%
%TO.N,GND*%
G36*
X86654569Y-19826317D02*
G01*
X86694165Y-19880817D01*
X86699500Y-19914500D01*
X86699500Y-51590500D01*
X86678683Y-51654569D01*
X86624183Y-51694165D01*
X86590500Y-51699500D01*
X46018238Y-51699500D01*
X45954169Y-51678683D01*
X45914573Y-51624183D01*
X45914573Y-51556817D01*
X45919295Y-51546209D01*
X45919076Y-51546119D01*
X45974759Y-51411685D01*
X45974761Y-51411678D01*
X45992821Y-51274502D01*
X45992821Y-51274497D01*
X45974761Y-51137321D01*
X45974759Y-51137314D01*
X45921809Y-51009481D01*
X45837581Y-50899714D01*
X45837580Y-50899713D01*
X45837577Y-50899709D01*
X45837572Y-50899705D01*
X45837571Y-50899704D01*
X45727804Y-50815476D01*
X45727800Y-50815474D01*
X45599971Y-50762526D01*
X45599964Y-50762524D01*
X45462789Y-50744465D01*
X45462783Y-50744465D01*
X45325607Y-50762524D01*
X45325600Y-50762526D01*
X45197767Y-50815476D01*
X45088000Y-50899704D01*
X45087990Y-50899714D01*
X45003762Y-51009481D01*
X44950812Y-51137314D01*
X44950810Y-51137321D01*
X44932751Y-51274497D01*
X44932751Y-51274502D01*
X44950810Y-51411678D01*
X44950812Y-51411685D01*
X45006496Y-51546119D01*
X45004092Y-51547114D01*
X45015737Y-51601892D01*
X44988338Y-51663434D01*
X44929998Y-51697118D01*
X44907334Y-51699500D01*
X12409500Y-51699500D01*
X12345431Y-51678683D01*
X12305835Y-51624183D01*
X12300500Y-51590500D01*
X12300500Y-50675999D01*
X16594500Y-50675999D01*
X16599196Y-50719677D01*
X16599196Y-50719681D01*
X16610403Y-50771196D01*
X16612890Y-50781374D01*
X16612890Y-50781375D01*
X16655897Y-50862080D01*
X16655900Y-50862085D01*
X16688505Y-50899714D01*
X16701655Y-50914889D01*
X16719246Y-50932843D01*
X16799063Y-50977490D01*
X16866102Y-50997175D01*
X16924000Y-51005500D01*
X16924006Y-51005500D01*
X18276000Y-51005500D01*
X18319684Y-51000803D01*
X18358317Y-50992398D01*
X18371196Y-50989597D01*
X18373683Y-50988989D01*
X18381373Y-50987110D01*
X18462085Y-50944100D01*
X18499787Y-50911430D01*
X18514886Y-50898348D01*
X18515932Y-50897322D01*
X18532843Y-50880754D01*
X18577490Y-50800937D01*
X18597175Y-50733898D01*
X18605500Y-50676000D01*
X18605500Y-50600002D01*
X22869965Y-50600002D01*
X22888024Y-50737178D01*
X22888026Y-50737185D01*
X22940974Y-50865014D01*
X22940976Y-50865018D01*
X23001658Y-50944100D01*
X23025209Y-50974791D01*
X23134982Y-51059024D01*
X23198899Y-51085499D01*
X23262814Y-51111973D01*
X23262821Y-51111975D01*
X23399997Y-51130035D01*
X23400000Y-51130035D01*
X23400003Y-51130035D01*
X23537178Y-51111975D01*
X23537180Y-51111974D01*
X23537183Y-51111974D01*
X23665018Y-51059024D01*
X23774791Y-50974791D01*
X23859024Y-50865018D01*
X23911974Y-50737183D01*
X23912407Y-50733898D01*
X23930035Y-50600002D01*
X23930035Y-50599997D01*
X23911975Y-50462821D01*
X23911973Y-50462814D01*
X23885955Y-50400002D01*
X42469965Y-50400002D01*
X42488024Y-50537178D01*
X42488026Y-50537185D01*
X42540974Y-50665014D01*
X42540976Y-50665018D01*
X42622449Y-50771195D01*
X42625209Y-50774791D01*
X42734982Y-50859024D01*
X42787444Y-50880754D01*
X42862814Y-50911973D01*
X42862821Y-50911975D01*
X42999997Y-50930035D01*
X43000000Y-50930035D01*
X43000003Y-50930035D01*
X43137178Y-50911975D01*
X43137180Y-50911974D01*
X43137183Y-50911974D01*
X43265018Y-50859024D01*
X43374791Y-50774791D01*
X43459024Y-50665018D01*
X43511974Y-50537183D01*
X43521765Y-50462821D01*
X43530035Y-50400002D01*
X43530035Y-50399997D01*
X43511975Y-50262821D01*
X43511973Y-50262814D01*
X43461506Y-50140976D01*
X43459024Y-50134983D01*
X43459023Y-50134982D01*
X43459023Y-50134981D01*
X43374795Y-50025214D01*
X43374794Y-50025213D01*
X43374791Y-50025209D01*
X43374786Y-50025205D01*
X43374785Y-50025204D01*
X43265018Y-49940976D01*
X43265014Y-49940974D01*
X43137185Y-49888026D01*
X43137178Y-49888024D01*
X43000003Y-49869965D01*
X42999997Y-49869965D01*
X42862821Y-49888024D01*
X42862814Y-49888026D01*
X42734981Y-49940976D01*
X42625214Y-50025204D01*
X42625204Y-50025214D01*
X42540976Y-50134981D01*
X42488026Y-50262814D01*
X42488024Y-50262821D01*
X42469965Y-50399997D01*
X42469965Y-50400002D01*
X23885955Y-50400002D01*
X23859023Y-50334981D01*
X23774795Y-50225214D01*
X23774794Y-50225213D01*
X23774791Y-50225209D01*
X23774786Y-50225205D01*
X23774785Y-50225204D01*
X23665018Y-50140976D01*
X23665014Y-50140974D01*
X23537185Y-50088026D01*
X23537178Y-50088024D01*
X23400003Y-50069965D01*
X23399997Y-50069965D01*
X23262821Y-50088024D01*
X23262814Y-50088026D01*
X23134981Y-50140976D01*
X23025214Y-50225204D01*
X23025204Y-50225214D01*
X22940976Y-50334981D01*
X22888026Y-50462814D01*
X22888024Y-50462821D01*
X22869965Y-50599997D01*
X22869965Y-50600002D01*
X18605500Y-50600002D01*
X18605500Y-49187179D01*
X18604892Y-49172584D01*
X18591244Y-49107036D01*
X18566049Y-49041868D01*
X18537408Y-48990870D01*
X18506432Y-48950502D01*
X33869965Y-48950502D01*
X33888024Y-49087678D01*
X33888026Y-49087685D01*
X33940974Y-49215514D01*
X33940976Y-49215518D01*
X34025209Y-49325291D01*
X34134982Y-49409524D01*
X34198899Y-49435999D01*
X34262814Y-49462473D01*
X34262821Y-49462475D01*
X34399997Y-49480535D01*
X34400000Y-49480535D01*
X34400003Y-49480535D01*
X34537178Y-49462475D01*
X34537180Y-49462474D01*
X34537183Y-49462474D01*
X34665018Y-49409524D01*
X34774791Y-49325291D01*
X34859024Y-49215518D01*
X34911974Y-49087683D01*
X34930035Y-48950500D01*
X34928242Y-48936881D01*
X34911975Y-48813321D01*
X34911973Y-48813314D01*
X34859023Y-48685481D01*
X34774795Y-48575714D01*
X34774794Y-48575713D01*
X34774791Y-48575709D01*
X34774786Y-48575705D01*
X34774785Y-48575704D01*
X34665018Y-48491476D01*
X34665014Y-48491474D01*
X34537185Y-48438526D01*
X34537178Y-48438524D01*
X34400003Y-48420465D01*
X34399997Y-48420465D01*
X34262821Y-48438524D01*
X34262814Y-48438526D01*
X34134981Y-48491476D01*
X34025214Y-48575704D01*
X34025204Y-48575714D01*
X33940976Y-48685481D01*
X33888026Y-48813314D01*
X33888024Y-48813321D01*
X33869965Y-48950497D01*
X33869965Y-48950502D01*
X18506432Y-48950502D01*
X18504715Y-48948265D01*
X18490488Y-48923623D01*
X18469227Y-48872295D01*
X18461863Y-48844809D01*
X18457717Y-48813321D01*
X18454611Y-48789725D01*
X18454610Y-48761280D01*
X18461864Y-48706177D01*
X18469224Y-48678713D01*
X18490490Y-48627369D01*
X18504712Y-48602736D01*
X18540019Y-48556726D01*
X18548423Y-48544773D01*
X18577490Y-48484476D01*
X18597175Y-48417437D01*
X18605500Y-48359539D01*
X18605500Y-47400002D01*
X22869965Y-47400002D01*
X22888024Y-47537178D01*
X22888026Y-47537185D01*
X22940974Y-47665014D01*
X22940976Y-47665018D01*
X22985422Y-47722941D01*
X23025209Y-47774791D01*
X23134982Y-47859024D01*
X23137633Y-47860122D01*
X23262814Y-47911973D01*
X23262821Y-47911975D01*
X23399997Y-47930035D01*
X23400000Y-47930035D01*
X23400003Y-47930035D01*
X23537178Y-47911975D01*
X23537180Y-47911974D01*
X23537183Y-47911974D01*
X23662367Y-47860122D01*
X36945465Y-47860122D01*
X36963524Y-47997298D01*
X36963526Y-47997305D01*
X37016474Y-48125134D01*
X37016476Y-48125138D01*
X37081614Y-48210027D01*
X37100709Y-48234911D01*
X37210482Y-48319144D01*
X37249110Y-48335144D01*
X37338314Y-48372093D01*
X37338321Y-48372095D01*
X37475497Y-48390155D01*
X37475500Y-48390155D01*
X37475503Y-48390155D01*
X37612678Y-48372095D01*
X37612680Y-48372094D01*
X37612683Y-48372094D01*
X37740518Y-48319144D01*
X37850291Y-48234911D01*
X37934524Y-48125138D01*
X37987474Y-47997303D01*
X37996331Y-47930035D01*
X38005535Y-47860122D01*
X38005535Y-47860117D01*
X37987475Y-47722941D01*
X37987473Y-47722934D01*
X37934523Y-47595101D01*
X37850295Y-47485334D01*
X37850294Y-47485333D01*
X37850291Y-47485329D01*
X37850286Y-47485325D01*
X37850285Y-47485324D01*
X37740518Y-47401096D01*
X37740514Y-47401094D01*
X37612685Y-47348146D01*
X37612678Y-47348144D01*
X37475503Y-47330085D01*
X37475497Y-47330085D01*
X37338321Y-47348144D01*
X37338314Y-47348146D01*
X37210481Y-47401096D01*
X37100714Y-47485324D01*
X37100704Y-47485334D01*
X37016476Y-47595101D01*
X36963526Y-47722934D01*
X36963524Y-47722941D01*
X36945465Y-47860117D01*
X36945465Y-47860122D01*
X23662367Y-47860122D01*
X23665018Y-47859024D01*
X23774791Y-47774791D01*
X23859024Y-47665018D01*
X23911974Y-47537183D01*
X23912916Y-47530034D01*
X23930035Y-47400002D01*
X23930035Y-47399997D01*
X23911975Y-47262821D01*
X23911973Y-47262814D01*
X23863184Y-47145026D01*
X23859024Y-47134983D01*
X23859023Y-47134982D01*
X23859023Y-47134981D01*
X23774795Y-47025214D01*
X23774794Y-47025213D01*
X23774791Y-47025209D01*
X23774786Y-47025205D01*
X23774785Y-47025204D01*
X23665018Y-46940976D01*
X23665014Y-46940974D01*
X23537185Y-46888026D01*
X23537178Y-46888024D01*
X23400003Y-46869965D01*
X23399997Y-46869965D01*
X23262821Y-46888024D01*
X23262814Y-46888026D01*
X23134981Y-46940976D01*
X23025214Y-47025204D01*
X23025204Y-47025214D01*
X22940976Y-47134981D01*
X22888026Y-47262814D01*
X22888024Y-47262821D01*
X22869965Y-47399997D01*
X22869965Y-47400002D01*
X18605500Y-47400002D01*
X18605500Y-46750002D01*
X35219965Y-46750002D01*
X35238024Y-46887178D01*
X35238026Y-46887185D01*
X35290974Y-47015014D01*
X35290976Y-47015018D01*
X35368482Y-47116025D01*
X35375209Y-47124791D01*
X35484982Y-47209024D01*
X35500501Y-47215452D01*
X35612814Y-47261973D01*
X35612821Y-47261975D01*
X35749997Y-47280035D01*
X35750000Y-47280035D01*
X35750003Y-47280035D01*
X35887178Y-47261975D01*
X35887180Y-47261974D01*
X35887183Y-47261974D01*
X36015018Y-47209024D01*
X36124791Y-47124791D01*
X36209024Y-47015018D01*
X36261974Y-46887183D01*
X36264051Y-46871413D01*
X36280035Y-46750002D01*
X36280035Y-46749997D01*
X36261975Y-46612821D01*
X36261973Y-46612814D01*
X36217920Y-46506461D01*
X36209024Y-46484983D01*
X36209023Y-46484982D01*
X36209023Y-46484981D01*
X36124795Y-46375214D01*
X36124794Y-46375213D01*
X36124791Y-46375209D01*
X36124786Y-46375205D01*
X36124785Y-46375204D01*
X36015018Y-46290976D01*
X36015014Y-46290974D01*
X35887185Y-46238026D01*
X35887178Y-46238024D01*
X35750003Y-46219965D01*
X35749997Y-46219965D01*
X35612821Y-46238024D01*
X35612814Y-46238026D01*
X35484981Y-46290976D01*
X35375214Y-46375204D01*
X35375204Y-46375214D01*
X35290976Y-46484981D01*
X35238026Y-46612814D01*
X35238024Y-46612821D01*
X35219965Y-46749997D01*
X35219965Y-46750002D01*
X18605500Y-46750002D01*
X18605500Y-46512698D01*
X18604892Y-46498103D01*
X18591244Y-46432555D01*
X18566049Y-46367387D01*
X18547851Y-46334983D01*
X18537409Y-46316390D01*
X18504716Y-46273785D01*
X18490488Y-46249142D01*
X18480575Y-46225209D01*
X18469226Y-46197811D01*
X18461863Y-46170328D01*
X18457998Y-46140974D01*
X18454611Y-46115244D01*
X18454610Y-46086799D01*
X18461864Y-46031696D01*
X18469224Y-46004232D01*
X18490490Y-45952888D01*
X18497506Y-45940736D01*
X43410699Y-45940736D01*
X43428758Y-46077912D01*
X43428760Y-46077919D01*
X43481708Y-46205748D01*
X43481710Y-46205752D01*
X43547105Y-46290976D01*
X43565943Y-46315525D01*
X43675716Y-46399758D01*
X43707425Y-46412892D01*
X43803548Y-46452707D01*
X43803555Y-46452709D01*
X43940731Y-46470769D01*
X43940734Y-46470769D01*
X43940737Y-46470769D01*
X44077912Y-46452709D01*
X44077914Y-46452708D01*
X44077917Y-46452708D01*
X44205752Y-46399758D01*
X44315525Y-46315525D01*
X44399758Y-46205752D01*
X44452708Y-46077917D01*
X44455976Y-46053099D01*
X44470769Y-45940736D01*
X44470769Y-45940731D01*
X44452709Y-45803555D01*
X44452707Y-45803548D01*
X44421691Y-45728668D01*
X44399758Y-45675717D01*
X44399757Y-45675716D01*
X44399757Y-45675715D01*
X44315529Y-45565948D01*
X44315528Y-45565947D01*
X44315525Y-45565943D01*
X44315520Y-45565939D01*
X44310473Y-45560892D01*
X44312958Y-45558406D01*
X44282895Y-45514676D01*
X44284649Y-45447333D01*
X44321044Y-45397233D01*
X44350291Y-45374791D01*
X44355392Y-45368143D01*
X44410909Y-45329988D01*
X44441866Y-45325500D01*
X44731876Y-45325500D01*
X44795945Y-45346317D01*
X44808951Y-45357425D01*
X47705553Y-48254029D01*
X47708767Y-48257536D01*
X47734986Y-48288783D01*
X47734989Y-48288786D01*
X47770321Y-48309185D01*
X47774333Y-48311741D01*
X47807754Y-48335142D01*
X47807760Y-48335146D01*
X47807941Y-48335194D01*
X47834238Y-48346087D01*
X47834399Y-48346180D01*
X47874579Y-48353264D01*
X47879218Y-48354293D01*
X47896572Y-48358942D01*
X47918637Y-48364855D01*
X47959291Y-48361298D01*
X47964028Y-48361092D01*
X70747815Y-48361092D01*
X70752551Y-48361298D01*
X70793215Y-48364856D01*
X70832668Y-48354283D01*
X70837256Y-48353267D01*
X70877453Y-48346180D01*
X70877606Y-48346091D01*
X70903908Y-48335195D01*
X70904092Y-48335146D01*
X70937520Y-48311738D01*
X70941518Y-48309191D01*
X70976863Y-48288786D01*
X71003105Y-48257510D01*
X71006287Y-48254037D01*
X71050298Y-48210028D01*
X71700393Y-47559931D01*
X71760415Y-47529350D01*
X71791691Y-47528941D01*
X71800000Y-47530035D01*
X71887666Y-47518493D01*
X71937178Y-47511975D01*
X71937180Y-47511974D01*
X71937183Y-47511974D01*
X72065018Y-47459024D01*
X72174791Y-47374791D01*
X72174794Y-47374786D01*
X72177130Y-47372451D01*
X72179246Y-47371372D01*
X72180459Y-47370442D01*
X72180631Y-47370666D01*
X72237151Y-47341863D01*
X72303688Y-47352397D01*
X72320565Y-47363045D01*
X72412518Y-47433604D01*
X72464485Y-47455129D01*
X72540350Y-47486553D01*
X72540357Y-47486555D01*
X72677533Y-47504615D01*
X72677536Y-47504615D01*
X72677539Y-47504615D01*
X72814714Y-47486555D01*
X72814716Y-47486554D01*
X72814719Y-47486554D01*
X72942554Y-47433604D01*
X73052327Y-47349371D01*
X73065368Y-47332375D01*
X73120883Y-47294219D01*
X73188226Y-47295981D01*
X73218434Y-47315040D01*
X73219541Y-47313598D01*
X73266157Y-47349368D01*
X73334982Y-47402180D01*
X73398899Y-47428655D01*
X73462814Y-47455129D01*
X73462821Y-47455131D01*
X73599997Y-47473191D01*
X73600000Y-47473191D01*
X73600003Y-47473191D01*
X73737178Y-47455131D01*
X73737180Y-47455130D01*
X73737183Y-47455130D01*
X73865018Y-47402180D01*
X73933648Y-47349517D01*
X73997145Y-47327031D01*
X74061737Y-47346163D01*
X74066315Y-47349489D01*
X74134982Y-47402180D01*
X74198899Y-47428655D01*
X74262814Y-47455129D01*
X74262821Y-47455131D01*
X74399997Y-47473191D01*
X74400000Y-47473191D01*
X74400003Y-47473191D01*
X74537178Y-47455131D01*
X74537180Y-47455130D01*
X74537183Y-47455130D01*
X74665018Y-47402180D01*
X74774791Y-47317947D01*
X74859024Y-47208174D01*
X74911974Y-47080339D01*
X74914781Y-47059024D01*
X74930035Y-46943158D01*
X74930035Y-46943153D01*
X74911975Y-46805977D01*
X74911973Y-46805970D01*
X74867423Y-46698416D01*
X74862138Y-46631258D01*
X74891052Y-46579629D01*
X75013257Y-46457425D01*
X75073280Y-46426842D01*
X75090331Y-46425500D01*
X75483487Y-46425500D01*
X75483488Y-46425500D01*
X75583126Y-46409719D01*
X75703220Y-46348528D01*
X75798528Y-46253220D01*
X75859719Y-46133126D01*
X75875500Y-46033488D01*
X75875500Y-45516512D01*
X75859719Y-45416874D01*
X75798528Y-45296780D01*
X75703220Y-45201472D01*
X75583126Y-45140281D01*
X75583124Y-45140280D01*
X75583123Y-45140280D01*
X75483489Y-45124500D01*
X75483488Y-45124500D01*
X74916512Y-45124500D01*
X74916510Y-45124500D01*
X74816876Y-45140280D01*
X74816875Y-45140280D01*
X74696778Y-45201473D01*
X74601473Y-45296778D01*
X74540280Y-45416875D01*
X74540280Y-45416876D01*
X74524500Y-45516510D01*
X74524500Y-45909667D01*
X74503683Y-45973736D01*
X74492575Y-45986742D01*
X74461575Y-46017742D01*
X74401551Y-46048325D01*
X74335015Y-46037787D01*
X74287380Y-45990152D01*
X74275500Y-45940667D01*
X74275500Y-45516513D01*
X74275500Y-45516512D01*
X74259719Y-45416874D01*
X74198528Y-45296780D01*
X74103220Y-45201472D01*
X73983126Y-45140281D01*
X73983124Y-45140280D01*
X73983123Y-45140280D01*
X73883489Y-45124500D01*
X73883488Y-45124500D01*
X73316512Y-45124500D01*
X73316510Y-45124500D01*
X73216876Y-45140280D01*
X73216875Y-45140280D01*
X73096778Y-45201473D01*
X73001473Y-45296778D01*
X72940280Y-45416875D01*
X72940280Y-45416876D01*
X72924500Y-45516510D01*
X72924500Y-45976024D01*
X72903683Y-46040093D01*
X72849183Y-46079689D01*
X72781817Y-46079689D01*
X72738425Y-46053099D01*
X72707425Y-46022099D01*
X72676842Y-45962075D01*
X72675500Y-45945024D01*
X72675500Y-45516513D01*
X72675500Y-45516512D01*
X72659719Y-45416874D01*
X72598528Y-45296780D01*
X72503220Y-45201472D01*
X72383126Y-45140281D01*
X72383124Y-45140280D01*
X72383123Y-45140280D01*
X72283489Y-45124500D01*
X72283488Y-45124500D01*
X71716512Y-45124500D01*
X71716510Y-45124500D01*
X71616876Y-45140280D01*
X71616875Y-45140280D01*
X71496778Y-45201473D01*
X71401473Y-45296778D01*
X71340280Y-45416875D01*
X71340280Y-45416876D01*
X71324500Y-45516510D01*
X71324500Y-46033489D01*
X71340280Y-46133123D01*
X71340280Y-46133124D01*
X71340280Y-46133125D01*
X71340281Y-46133126D01*
X71401472Y-46253220D01*
X71496780Y-46348528D01*
X71516534Y-46358593D01*
X71564168Y-46406227D01*
X71574706Y-46472763D01*
X71544123Y-46532787D01*
X71533403Y-46542187D01*
X71443738Y-46610990D01*
X71380237Y-46633478D01*
X71315645Y-46614345D01*
X71295932Y-46595637D01*
X71295824Y-46595746D01*
X71291690Y-46591612D01*
X71290907Y-46590869D01*
X71290773Y-46590694D01*
X71290768Y-46590690D01*
X71290767Y-46590689D01*
X71181000Y-46506461D01*
X71180996Y-46506459D01*
X71053167Y-46453511D01*
X71053160Y-46453509D01*
X70915985Y-46435450D01*
X70915979Y-46435450D01*
X70778803Y-46453509D01*
X70778796Y-46453511D01*
X70650963Y-46506461D01*
X70541196Y-46590689D01*
X70541186Y-46590699D01*
X70529756Y-46605595D01*
X70474237Y-46643749D01*
X70406894Y-46641984D01*
X70376931Y-46625714D01*
X70277697Y-46549568D01*
X70277693Y-46549566D01*
X70149864Y-46496618D01*
X70149857Y-46496616D01*
X70012682Y-46478557D01*
X70012676Y-46478557D01*
X69875500Y-46496616D01*
X69875493Y-46496618D01*
X69747660Y-46549568D01*
X69637893Y-46633796D01*
X69637883Y-46633806D01*
X69553655Y-46743573D01*
X69500705Y-46871406D01*
X69500703Y-46871413D01*
X69482644Y-47008589D01*
X69482644Y-47008594D01*
X69500703Y-47145770D01*
X69500705Y-47145777D01*
X69515867Y-47182380D01*
X69521152Y-47249538D01*
X69485954Y-47306976D01*
X69423716Y-47332756D01*
X69415164Y-47333092D01*
X68720645Y-47333092D01*
X68656576Y-47312275D01*
X68616980Y-47257775D01*
X68616980Y-47190409D01*
X68656576Y-47135909D01*
X68706417Y-47116025D01*
X68737178Y-47111975D01*
X68737180Y-47111974D01*
X68737183Y-47111974D01*
X68865018Y-47059024D01*
X68974791Y-46974791D01*
X69059024Y-46865018D01*
X69111974Y-46737183D01*
X69117413Y-46695875D01*
X69130035Y-46600002D01*
X69130035Y-46599997D01*
X69111975Y-46462821D01*
X69111973Y-46462814D01*
X69064634Y-46348526D01*
X69059024Y-46334983D01*
X69059023Y-46334982D01*
X69059023Y-46334981D01*
X68974795Y-46225214D01*
X68974794Y-46225213D01*
X68974791Y-46225209D01*
X68974786Y-46225205D01*
X68974785Y-46225204D01*
X68865018Y-46140976D01*
X68865014Y-46140974D01*
X68737185Y-46088026D01*
X68737178Y-46088024D01*
X68600003Y-46069965D01*
X68599997Y-46069965D01*
X68462821Y-46088024D01*
X68462814Y-46088026D01*
X68334981Y-46140976D01*
X68225214Y-46225204D01*
X68225204Y-46225214D01*
X68140976Y-46334981D01*
X68088026Y-46462814D01*
X68088024Y-46462821D01*
X68069965Y-46599997D01*
X68069965Y-46600002D01*
X68088024Y-46737178D01*
X68088026Y-46737185D01*
X68140974Y-46865014D01*
X68140976Y-46865018D01*
X68225209Y-46974791D01*
X68334982Y-47059024D01*
X68386430Y-47080334D01*
X68462814Y-47111973D01*
X68462821Y-47111975D01*
X68493583Y-47116025D01*
X68554386Y-47145026D01*
X68586530Y-47204229D01*
X68577737Y-47271018D01*
X68531365Y-47319883D01*
X68479355Y-47333092D01*
X48283580Y-47333092D01*
X48219511Y-47312275D01*
X48206505Y-47301167D01*
X46420014Y-45514676D01*
X46305340Y-45400002D01*
X66869965Y-45400002D01*
X66888024Y-45537178D01*
X66888026Y-45537185D01*
X66940974Y-45665014D01*
X66940976Y-45665018D01*
X67025209Y-45774791D01*
X67134982Y-45859024D01*
X67162162Y-45870282D01*
X67262814Y-45911973D01*
X67262821Y-45911975D01*
X67399997Y-45930035D01*
X67400000Y-45930035D01*
X67400003Y-45930035D01*
X67537178Y-45911975D01*
X67537180Y-45911974D01*
X67537183Y-45911974D01*
X67665018Y-45859024D01*
X67774791Y-45774791D01*
X67859024Y-45665018D01*
X67911974Y-45537183D01*
X67914696Y-45516513D01*
X67930035Y-45400002D01*
X67930035Y-45399997D01*
X67911975Y-45262821D01*
X67911973Y-45262814D01*
X67859023Y-45134981D01*
X67774795Y-45025214D01*
X67774794Y-45025213D01*
X67774791Y-45025209D01*
X67774786Y-45025205D01*
X67774785Y-45025204D01*
X67665018Y-44940976D01*
X67665014Y-44940974D01*
X67537185Y-44888026D01*
X67537178Y-44888024D01*
X67400003Y-44869965D01*
X67399997Y-44869965D01*
X67262821Y-44888024D01*
X67262814Y-44888026D01*
X67134981Y-44940976D01*
X67025214Y-45025204D01*
X67025204Y-45025214D01*
X66940976Y-45134981D01*
X66888026Y-45262814D01*
X66888024Y-45262821D01*
X66869965Y-45399997D01*
X66869965Y-45400002D01*
X46305340Y-45400002D01*
X44593049Y-43687712D01*
X44562467Y-43627689D01*
X44569912Y-43580682D01*
X65419465Y-43580682D01*
X65437524Y-43717858D01*
X65437526Y-43717865D01*
X65490474Y-43845694D01*
X65490476Y-43845698D01*
X65561240Y-43937919D01*
X65574709Y-43955471D01*
X65684482Y-44039704D01*
X65734042Y-44060232D01*
X65812314Y-44092653D01*
X65812321Y-44092655D01*
X65949497Y-44110715D01*
X65956644Y-44110715D01*
X65956644Y-44112268D01*
X66015013Y-44123084D01*
X66061387Y-44171947D01*
X66069931Y-44236829D01*
X66070072Y-44236848D01*
X66070003Y-44237370D01*
X66070183Y-44238736D01*
X66069322Y-44242538D01*
X66051079Y-44381111D01*
X66051079Y-44381116D01*
X66069138Y-44518292D01*
X66069140Y-44518299D01*
X66122088Y-44646128D01*
X66122090Y-44646132D01*
X66190268Y-44734983D01*
X66206323Y-44755905D01*
X66316096Y-44840138D01*
X66370842Y-44862814D01*
X66443928Y-44893087D01*
X66443935Y-44893089D01*
X66581111Y-44911149D01*
X66581114Y-44911149D01*
X66581117Y-44911149D01*
X66718292Y-44893089D01*
X66718294Y-44893088D01*
X66718297Y-44893088D01*
X66846132Y-44840138D01*
X66955905Y-44755905D01*
X67040138Y-44646132D01*
X67093088Y-44518297D01*
X67097074Y-44488026D01*
X67111149Y-44381116D01*
X67111149Y-44381111D01*
X67093089Y-44243935D01*
X67093087Y-44243928D01*
X67043411Y-44124000D01*
X67040138Y-44116097D01*
X67040137Y-44116096D01*
X67040137Y-44116095D01*
X66955909Y-44006328D01*
X66955908Y-44006327D01*
X66955905Y-44006323D01*
X66955900Y-44006319D01*
X66955899Y-44006318D01*
X66846132Y-43922090D01*
X66846128Y-43922088D01*
X66718299Y-43869140D01*
X66718292Y-43869138D01*
X66581117Y-43851079D01*
X66573970Y-43851079D01*
X66573970Y-43849529D01*
X66515583Y-43838700D01*
X66469218Y-43789829D01*
X66460687Y-43724965D01*
X66460542Y-43724946D01*
X66460613Y-43724402D01*
X66460434Y-43723038D01*
X66461292Y-43719243D01*
X66461475Y-43717858D01*
X66477185Y-43598528D01*
X66479535Y-43580682D01*
X66479535Y-43580677D01*
X66461475Y-43443501D01*
X66461473Y-43443494D01*
X66408523Y-43315661D01*
X66324295Y-43205894D01*
X66324294Y-43205893D01*
X66324291Y-43205889D01*
X66286899Y-43177196D01*
X66248744Y-43121680D01*
X66250508Y-43054337D01*
X66286899Y-43004250D01*
X66325291Y-42974791D01*
X66409524Y-42865018D01*
X66462474Y-42737183D01*
X66465196Y-42716513D01*
X66480535Y-42600002D01*
X66480535Y-42599997D01*
X66462475Y-42462821D01*
X66462473Y-42462814D01*
X66417891Y-42355182D01*
X66409524Y-42334983D01*
X66409523Y-42334982D01*
X66409523Y-42334981D01*
X66325295Y-42225214D01*
X66325294Y-42225213D01*
X66325291Y-42225209D01*
X66325286Y-42225205D01*
X66325285Y-42225204D01*
X66215518Y-42140976D01*
X66215514Y-42140974D01*
X66087685Y-42088026D01*
X66087678Y-42088024D01*
X65950503Y-42069965D01*
X65950497Y-42069965D01*
X65813321Y-42088024D01*
X65813314Y-42088026D01*
X65685481Y-42140976D01*
X65575714Y-42225204D01*
X65575704Y-42225214D01*
X65491476Y-42334981D01*
X65438526Y-42462814D01*
X65438524Y-42462821D01*
X65420465Y-42599997D01*
X65420465Y-42600002D01*
X65438524Y-42737178D01*
X65438526Y-42737185D01*
X65458663Y-42785800D01*
X65491476Y-42865018D01*
X65575709Y-42974791D01*
X65575712Y-42974793D01*
X65575714Y-42974795D01*
X65613098Y-43003481D01*
X65651254Y-43058999D01*
X65649491Y-43126341D01*
X65613099Y-43176431D01*
X65574711Y-43205887D01*
X65574704Y-43205894D01*
X65490476Y-43315661D01*
X65437526Y-43443494D01*
X65437524Y-43443501D01*
X65419465Y-43580677D01*
X65419465Y-43580682D01*
X44569912Y-43580682D01*
X44573005Y-43561153D01*
X44620640Y-43513518D01*
X44628399Y-43509941D01*
X44665018Y-43494774D01*
X44774791Y-43410541D01*
X44859024Y-43300768D01*
X44911974Y-43172933D01*
X44916971Y-43134983D01*
X44930035Y-43035752D01*
X44930035Y-43035747D01*
X44911975Y-42898571D01*
X44911973Y-42898564D01*
X44859023Y-42770731D01*
X44774795Y-42660964D01*
X44774794Y-42660963D01*
X44774791Y-42660959D01*
X44774786Y-42660955D01*
X44774785Y-42660954D01*
X44665018Y-42576726D01*
X44665014Y-42576724D01*
X44537185Y-42523776D01*
X44537178Y-42523774D01*
X44400003Y-42505715D01*
X44399997Y-42505715D01*
X44262821Y-42523774D01*
X44262814Y-42523776D01*
X44226210Y-42538938D01*
X44159052Y-42544222D01*
X44101614Y-42509022D01*
X44075836Y-42446784D01*
X44075500Y-42438234D01*
X44075500Y-41916724D01*
X44096317Y-41852655D01*
X44107419Y-41839656D01*
X44300392Y-41646682D01*
X44360413Y-41616100D01*
X44391691Y-41615691D01*
X44400000Y-41616785D01*
X44487666Y-41605243D01*
X44537178Y-41598725D01*
X44537180Y-41598724D01*
X44537183Y-41598724D01*
X44665018Y-41545774D01*
X44774791Y-41461541D01*
X44859024Y-41351768D01*
X44911974Y-41223933D01*
X44918956Y-41170907D01*
X44930035Y-41086752D01*
X44930035Y-41086747D01*
X44911975Y-40949571D01*
X44911973Y-40949564D01*
X44874470Y-40859023D01*
X44859024Y-40821733D01*
X44859023Y-40821732D01*
X44859023Y-40821731D01*
X44774795Y-40711964D01*
X44774794Y-40711963D01*
X44774791Y-40711959D01*
X44774786Y-40711955D01*
X44774785Y-40711954D01*
X44713612Y-40665014D01*
X44667783Y-40629848D01*
X44629629Y-40574333D01*
X44631392Y-40506990D01*
X44667783Y-40456901D01*
X44774791Y-40374791D01*
X44859024Y-40265018D01*
X44911974Y-40137183D01*
X44914696Y-40116513D01*
X44930035Y-40000002D01*
X44930035Y-39999997D01*
X44911975Y-39862821D01*
X44911973Y-39862814D01*
X44859023Y-39734981D01*
X44774795Y-39625214D01*
X44774794Y-39625213D01*
X44774791Y-39625209D01*
X44774786Y-39625205D01*
X44774785Y-39625204D01*
X44665018Y-39540976D01*
X44665014Y-39540974D01*
X44537185Y-39488026D01*
X44537178Y-39488024D01*
X44400003Y-39469965D01*
X44399997Y-39469965D01*
X44262821Y-39488024D01*
X44262814Y-39488026D01*
X44134981Y-39540976D01*
X44025214Y-39625204D01*
X44025204Y-39625214D01*
X43940976Y-39734981D01*
X43888026Y-39862814D01*
X43888024Y-39862821D01*
X43869965Y-39999997D01*
X43869965Y-40000002D01*
X43888024Y-40137178D01*
X43888026Y-40137185D01*
X43940974Y-40265014D01*
X43940976Y-40265018D01*
X44023853Y-40373025D01*
X44025209Y-40374791D01*
X44132216Y-40456902D01*
X44170370Y-40512416D01*
X44168607Y-40579759D01*
X44132215Y-40629849D01*
X44025211Y-40711957D01*
X44025204Y-40711964D01*
X43940976Y-40821731D01*
X43888026Y-40949564D01*
X43888024Y-40949571D01*
X43869965Y-41086746D01*
X43869965Y-41086755D01*
X43871058Y-41095062D01*
X43858778Y-41161298D01*
X43840065Y-41186357D01*
X43531566Y-41494855D01*
X43528061Y-41498067D01*
X43496806Y-41524294D01*
X43496804Y-41524295D01*
X43476400Y-41559636D01*
X43473846Y-41563645D01*
X43450445Y-41597067D01*
X43450443Y-41597070D01*
X43450392Y-41597263D01*
X43439516Y-41623522D01*
X43439413Y-41623699D01*
X43439411Y-41623705D01*
X43432326Y-41663886D01*
X43431297Y-41668527D01*
X43420736Y-41707944D01*
X43424292Y-41748589D01*
X43424500Y-41753342D01*
X43424500Y-43288396D01*
X43424293Y-43293132D01*
X43421128Y-43329315D01*
X43420736Y-43333795D01*
X43431297Y-43373213D01*
X43432326Y-43377854D01*
X43439410Y-43418029D01*
X43439411Y-43418032D01*
X43439412Y-43418034D01*
X43439504Y-43418193D01*
X43450396Y-43444489D01*
X43450444Y-43444668D01*
X43450445Y-43444672D01*
X43473847Y-43478093D01*
X43476402Y-43482104D01*
X43488593Y-43503220D01*
X43496806Y-43517444D01*
X43496807Y-43517445D01*
X43496809Y-43517447D01*
X43528062Y-43543671D01*
X43531569Y-43546885D01*
X44339806Y-44355121D01*
X44370389Y-44415145D01*
X44359851Y-44481681D01*
X44312216Y-44529316D01*
X44245680Y-44539854D01*
X44221019Y-44532899D01*
X44112685Y-44488026D01*
X44112678Y-44488024D01*
X43975503Y-44469965D01*
X43975497Y-44469965D01*
X43838321Y-44488024D01*
X43838314Y-44488026D01*
X43710481Y-44540976D01*
X43600714Y-44625204D01*
X43600704Y-44625214D01*
X43516476Y-44734981D01*
X43463526Y-44862814D01*
X43463524Y-44862821D01*
X43445465Y-44999997D01*
X43445465Y-45000002D01*
X43463524Y-45137178D01*
X43463526Y-45137185D01*
X43516474Y-45265014D01*
X43516476Y-45265018D01*
X43595608Y-45368144D01*
X43600709Y-45374791D01*
X43600713Y-45374794D01*
X43605761Y-45379842D01*
X43603261Y-45382341D01*
X43633307Y-45425951D01*
X43631620Y-45493296D01*
X43595187Y-45543503D01*
X43565945Y-45565941D01*
X43565938Y-45565948D01*
X43481710Y-45675715D01*
X43428760Y-45803548D01*
X43428758Y-45803555D01*
X43410699Y-45940731D01*
X43410699Y-45940736D01*
X18497506Y-45940736D01*
X18504712Y-45928255D01*
X18540019Y-45882245D01*
X18548423Y-45870292D01*
X18577490Y-45809995D01*
X18597175Y-45742956D01*
X18605500Y-45685058D01*
X18605500Y-44200002D01*
X22869965Y-44200002D01*
X22888024Y-44337178D01*
X22888026Y-44337185D01*
X22940974Y-44465014D01*
X22940976Y-44465018D01*
X22998400Y-44539854D01*
X23025209Y-44574791D01*
X23134982Y-44659024D01*
X23172345Y-44674500D01*
X23262814Y-44711973D01*
X23262821Y-44711975D01*
X23399997Y-44730035D01*
X23400000Y-44730035D01*
X23400003Y-44730035D01*
X23537178Y-44711975D01*
X23537180Y-44711974D01*
X23537183Y-44711974D01*
X23665018Y-44659024D01*
X23774791Y-44574791D01*
X23859024Y-44465018D01*
X23911974Y-44337183D01*
X23925187Y-44236829D01*
X23930035Y-44200002D01*
X23930035Y-44199997D01*
X23911975Y-44062821D01*
X23911973Y-44062814D01*
X23859023Y-43934981D01*
X23774795Y-43825214D01*
X23774794Y-43825213D01*
X23774791Y-43825209D01*
X23774786Y-43825205D01*
X23774785Y-43825204D01*
X23665018Y-43740976D01*
X23665014Y-43740974D01*
X23537185Y-43688026D01*
X23537178Y-43688024D01*
X23400003Y-43669965D01*
X23399997Y-43669965D01*
X23262821Y-43688024D01*
X23262814Y-43688026D01*
X23134981Y-43740976D01*
X23025214Y-43825204D01*
X23025204Y-43825214D01*
X22940976Y-43934981D01*
X22888026Y-44062814D01*
X22888024Y-44062821D01*
X22869965Y-44199997D01*
X22869965Y-44200002D01*
X18605500Y-44200002D01*
X18605500Y-44124000D01*
X18600803Y-44080316D01*
X18589597Y-44028805D01*
X18587110Y-44018627D01*
X18587109Y-44018625D01*
X18587109Y-44018624D01*
X18544102Y-43937919D01*
X18544099Y-43937914D01*
X18498348Y-43885114D01*
X18480754Y-43867157D01*
X18400937Y-43822510D01*
X18333898Y-43802825D01*
X18333892Y-43802824D01*
X18276006Y-43794500D01*
X18276000Y-43794500D01*
X16924000Y-43794500D01*
X16880322Y-43799196D01*
X16880318Y-43799196D01*
X16828804Y-43810403D01*
X16818625Y-43812890D01*
X16818624Y-43812890D01*
X16737919Y-43855897D01*
X16737914Y-43855900D01*
X16685114Y-43901652D01*
X16667157Y-43919245D01*
X16622510Y-43999062D01*
X16620378Y-44006323D01*
X16603789Y-44062821D01*
X16602824Y-44066107D01*
X16594500Y-44123993D01*
X16594500Y-50675999D01*
X12300500Y-50675999D01*
X12300500Y-43400002D01*
X24269965Y-43400002D01*
X24288024Y-43537178D01*
X24288026Y-43537185D01*
X24340974Y-43665014D01*
X24340976Y-43665018D01*
X24386975Y-43724965D01*
X24425209Y-43774791D01*
X24425213Y-43774794D01*
X24425214Y-43774795D01*
X24450894Y-43794500D01*
X24534982Y-43859024D01*
X24559400Y-43869138D01*
X24662814Y-43911973D01*
X24662821Y-43911975D01*
X24799997Y-43930035D01*
X24800000Y-43930035D01*
X24800003Y-43930035D01*
X24937178Y-43911975D01*
X24937180Y-43911974D01*
X24937183Y-43911974D01*
X25065018Y-43859024D01*
X25174791Y-43774791D01*
X25259024Y-43665018D01*
X25311974Y-43537183D01*
X25314573Y-43517447D01*
X25330035Y-43400002D01*
X25330035Y-43399997D01*
X25311975Y-43262821D01*
X25311973Y-43262814D01*
X25259023Y-43134981D01*
X25174795Y-43025214D01*
X25174794Y-43025213D01*
X25174791Y-43025209D01*
X25174786Y-43025205D01*
X25174785Y-43025204D01*
X25065018Y-42940976D01*
X25065014Y-42940974D01*
X24937185Y-42888026D01*
X24937178Y-42888024D01*
X24800003Y-42869965D01*
X24799997Y-42869965D01*
X24662821Y-42888024D01*
X24662814Y-42888026D01*
X24534981Y-42940976D01*
X24425214Y-43025204D01*
X24425204Y-43025214D01*
X24340976Y-43134981D01*
X24288026Y-43262814D01*
X24288024Y-43262821D01*
X24269965Y-43399997D01*
X24269965Y-43400002D01*
X12300500Y-43400002D01*
X12300500Y-42000002D01*
X34869965Y-42000002D01*
X34888024Y-42137178D01*
X34888026Y-42137185D01*
X34940974Y-42265014D01*
X34940976Y-42265018D01*
X35016440Y-42363364D01*
X35025209Y-42374791D01*
X35134982Y-42459024D01*
X35144149Y-42462821D01*
X35262814Y-42511973D01*
X35262821Y-42511975D01*
X35399997Y-42530035D01*
X35400000Y-42530035D01*
X35400003Y-42530035D01*
X35537178Y-42511975D01*
X35537180Y-42511974D01*
X35537183Y-42511974D01*
X35665018Y-42459024D01*
X35774791Y-42374791D01*
X35859024Y-42265018D01*
X35911974Y-42137183D01*
X35912478Y-42133360D01*
X35930035Y-42000002D01*
X35930035Y-41999997D01*
X35911975Y-41862821D01*
X35911973Y-41862814D01*
X35859023Y-41734981D01*
X35774795Y-41625214D01*
X35774794Y-41625213D01*
X35774791Y-41625209D01*
X35724309Y-41586472D01*
X35686156Y-41530958D01*
X35687919Y-41463615D01*
X35724309Y-41413527D01*
X35774791Y-41374791D01*
X35859024Y-41265018D01*
X35911974Y-41137183D01*
X35912260Y-41135015D01*
X35930035Y-41000002D01*
X35930035Y-40999997D01*
X35911975Y-40862821D01*
X35911973Y-40862814D01*
X35859023Y-40734981D01*
X35774795Y-40625214D01*
X35774794Y-40625213D01*
X35774791Y-40625209D01*
X35724309Y-40586472D01*
X35686156Y-40530958D01*
X35687919Y-40463615D01*
X35724309Y-40413527D01*
X35774791Y-40374791D01*
X35859024Y-40265018D01*
X35911974Y-40137183D01*
X35914696Y-40116513D01*
X35930035Y-40000002D01*
X35930035Y-39999997D01*
X35911975Y-39862821D01*
X35911973Y-39862814D01*
X35859023Y-39734981D01*
X35774795Y-39625214D01*
X35774794Y-39625213D01*
X35774791Y-39625209D01*
X35774786Y-39625205D01*
X35774785Y-39625204D01*
X35665018Y-39540976D01*
X35665014Y-39540974D01*
X35537185Y-39488026D01*
X35537178Y-39488024D01*
X35400003Y-39469965D01*
X35399997Y-39469965D01*
X35262821Y-39488024D01*
X35262814Y-39488026D01*
X35134981Y-39540976D01*
X35025214Y-39625204D01*
X35025204Y-39625214D01*
X34940976Y-39734981D01*
X34888026Y-39862814D01*
X34888024Y-39862821D01*
X34869965Y-39999997D01*
X34869965Y-40000002D01*
X34888024Y-40137178D01*
X34888026Y-40137185D01*
X34940974Y-40265014D01*
X34940976Y-40265018D01*
X35023853Y-40373025D01*
X35025209Y-40374791D01*
X35075689Y-40413526D01*
X35113843Y-40469041D01*
X35112080Y-40536384D01*
X35075689Y-40586473D01*
X35025212Y-40625206D01*
X35025204Y-40625214D01*
X34940976Y-40734981D01*
X34888026Y-40862814D01*
X34888024Y-40862821D01*
X34869965Y-40999997D01*
X34869965Y-41000002D01*
X34888024Y-41137178D01*
X34888026Y-41137185D01*
X34940974Y-41265014D01*
X34940976Y-41265018D01*
X35020761Y-41368995D01*
X35025209Y-41374791D01*
X35075689Y-41413526D01*
X35113843Y-41469041D01*
X35112080Y-41536384D01*
X35075689Y-41586473D01*
X35025212Y-41625206D01*
X35025204Y-41625214D01*
X34940976Y-41734981D01*
X34888026Y-41862814D01*
X34888024Y-41862821D01*
X34869965Y-41999997D01*
X34869965Y-42000002D01*
X12300500Y-42000002D01*
X12300500Y-41400002D01*
X27869965Y-41400002D01*
X27888024Y-41537178D01*
X27888026Y-41537185D01*
X27940974Y-41665014D01*
X27940976Y-41665018D01*
X27952715Y-41680317D01*
X28025209Y-41774791D01*
X28134982Y-41859024D01*
X28144149Y-41862821D01*
X28262814Y-41911973D01*
X28262821Y-41911975D01*
X28399997Y-41930035D01*
X28400000Y-41930035D01*
X28400003Y-41930035D01*
X28537178Y-41911975D01*
X28537180Y-41911974D01*
X28537183Y-41911974D01*
X28665018Y-41859024D01*
X28774791Y-41774791D01*
X28859024Y-41665018D01*
X28911974Y-41537183D01*
X28912080Y-41536384D01*
X28930035Y-41400002D01*
X28930035Y-41399997D01*
X28911975Y-41262821D01*
X28911973Y-41262814D01*
X28859023Y-41134981D01*
X28774795Y-41025214D01*
X28774794Y-41025213D01*
X28774791Y-41025209D01*
X28774786Y-41025205D01*
X28774785Y-41025204D01*
X28665018Y-40940976D01*
X28665014Y-40940974D01*
X28537185Y-40888026D01*
X28537178Y-40888024D01*
X28400003Y-40869965D01*
X28399997Y-40869965D01*
X28262821Y-40888024D01*
X28262814Y-40888026D01*
X28134981Y-40940976D01*
X28025214Y-41025204D01*
X28025204Y-41025214D01*
X27940976Y-41134981D01*
X27888026Y-41262814D01*
X27888024Y-41262821D01*
X27869965Y-41399997D01*
X27869965Y-41400002D01*
X12300500Y-41400002D01*
X12300500Y-40400002D01*
X26869965Y-40400002D01*
X26888024Y-40537178D01*
X26888026Y-40537185D01*
X26940974Y-40665014D01*
X26940976Y-40665018D01*
X26976995Y-40711959D01*
X27025209Y-40774791D01*
X27025213Y-40774794D01*
X27025214Y-40774795D01*
X27048977Y-40793029D01*
X27134982Y-40859024D01*
X27198899Y-40885499D01*
X27262814Y-40911973D01*
X27262821Y-40911975D01*
X27399997Y-40930035D01*
X27400000Y-40930035D01*
X27400003Y-40930035D01*
X27537178Y-40911975D01*
X27537180Y-40911974D01*
X27537183Y-40911974D01*
X27665018Y-40859024D01*
X27774791Y-40774791D01*
X27859024Y-40665018D01*
X27911974Y-40537183D01*
X27912080Y-40536384D01*
X27930035Y-40400002D01*
X27930035Y-40399997D01*
X27911975Y-40262821D01*
X27911973Y-40262814D01*
X27859023Y-40134981D01*
X27774795Y-40025214D01*
X27774794Y-40025213D01*
X27774791Y-40025209D01*
X27774786Y-40025205D01*
X27774785Y-40025204D01*
X27665018Y-39940976D01*
X27665014Y-39940974D01*
X27537185Y-39888026D01*
X27537178Y-39888024D01*
X27400003Y-39869965D01*
X27399997Y-39869965D01*
X27262821Y-39888024D01*
X27262814Y-39888026D01*
X27134981Y-39940976D01*
X27025214Y-40025204D01*
X27025204Y-40025214D01*
X26940976Y-40134981D01*
X26888026Y-40262814D01*
X26888024Y-40262821D01*
X26869965Y-40399997D01*
X26869965Y-40400002D01*
X12300500Y-40400002D01*
X12300500Y-38600002D01*
X26469965Y-38600002D01*
X26488024Y-38737178D01*
X26488026Y-38737185D01*
X26514655Y-38801473D01*
X26540976Y-38865018D01*
X26625209Y-38974791D01*
X26734982Y-39059024D01*
X26794042Y-39083487D01*
X26862814Y-39111973D01*
X26862821Y-39111975D01*
X26999997Y-39130035D01*
X27000000Y-39130035D01*
X27000003Y-39130035D01*
X27137178Y-39111975D01*
X27137180Y-39111974D01*
X27137183Y-39111974D01*
X27265018Y-39059024D01*
X27374791Y-38974791D01*
X27459024Y-38865018D01*
X27511974Y-38737183D01*
X27530035Y-38600002D01*
X52069965Y-38600002D01*
X52088024Y-38737178D01*
X52088026Y-38737185D01*
X52114655Y-38801473D01*
X52140976Y-38865018D01*
X52225209Y-38974791D01*
X52334982Y-39059024D01*
X52394042Y-39083487D01*
X52462814Y-39111973D01*
X52462821Y-39111975D01*
X52599997Y-39130035D01*
X52600000Y-39130035D01*
X52600003Y-39130035D01*
X52737178Y-39111975D01*
X52737180Y-39111974D01*
X52737183Y-39111974D01*
X52865018Y-39059024D01*
X52974791Y-38974791D01*
X53059024Y-38865018D01*
X53111974Y-38737183D01*
X53130035Y-38600000D01*
X53120824Y-38530035D01*
X53111975Y-38462821D01*
X53111973Y-38462814D01*
X53059023Y-38334981D01*
X52974795Y-38225214D01*
X52974794Y-38225213D01*
X52974791Y-38225209D01*
X52974786Y-38225205D01*
X52974785Y-38225204D01*
X52865018Y-38140976D01*
X52865014Y-38140974D01*
X52737185Y-38088026D01*
X52737178Y-38088024D01*
X52600003Y-38069965D01*
X52599997Y-38069965D01*
X52462821Y-38088024D01*
X52462814Y-38088026D01*
X52334981Y-38140976D01*
X52225214Y-38225204D01*
X52225204Y-38225214D01*
X52140976Y-38334981D01*
X52088026Y-38462814D01*
X52088024Y-38462821D01*
X52069965Y-38599997D01*
X52069965Y-38600002D01*
X27530035Y-38600002D01*
X27530035Y-38600000D01*
X27520824Y-38530035D01*
X27511975Y-38462821D01*
X27511973Y-38462814D01*
X27459023Y-38334981D01*
X27374795Y-38225214D01*
X27374794Y-38225213D01*
X27374791Y-38225209D01*
X27374786Y-38225205D01*
X27374785Y-38225204D01*
X27265018Y-38140976D01*
X27265014Y-38140974D01*
X27137185Y-38088026D01*
X27137178Y-38088024D01*
X27000003Y-38069965D01*
X26999997Y-38069965D01*
X26862821Y-38088024D01*
X26862814Y-38088026D01*
X26734981Y-38140976D01*
X26625214Y-38225204D01*
X26625204Y-38225214D01*
X26540976Y-38334981D01*
X26488026Y-38462814D01*
X26488024Y-38462821D01*
X26469965Y-38599997D01*
X26469965Y-38600002D01*
X12300500Y-38600002D01*
X12300500Y-37800002D01*
X31069965Y-37800002D01*
X31088024Y-37937178D01*
X31088026Y-37937185D01*
X31140974Y-38065014D01*
X31140976Y-38065018D01*
X31206733Y-38150714D01*
X31225209Y-38174791D01*
X31225213Y-38174794D01*
X31225214Y-38174795D01*
X31236590Y-38183524D01*
X31334982Y-38259024D01*
X31398899Y-38285499D01*
X31462814Y-38311973D01*
X31462821Y-38311975D01*
X31599997Y-38330035D01*
X31600000Y-38330035D01*
X31600003Y-38330035D01*
X31737178Y-38311975D01*
X31737180Y-38311974D01*
X31737183Y-38311974D01*
X31865018Y-38259024D01*
X31974791Y-38174791D01*
X32059024Y-38065018D01*
X32111974Y-37937183D01*
X32121765Y-37862821D01*
X32130035Y-37800002D01*
X47669965Y-37800002D01*
X47688024Y-37937178D01*
X47688026Y-37937185D01*
X47740974Y-38065014D01*
X47740976Y-38065018D01*
X47806733Y-38150714D01*
X47825209Y-38174791D01*
X47825213Y-38174794D01*
X47825214Y-38174795D01*
X47836590Y-38183524D01*
X47934982Y-38259024D01*
X47998899Y-38285499D01*
X48062814Y-38311973D01*
X48062821Y-38311975D01*
X48199997Y-38330035D01*
X48200000Y-38330035D01*
X48200003Y-38330035D01*
X48337178Y-38311975D01*
X48337180Y-38311974D01*
X48337183Y-38311974D01*
X48465018Y-38259024D01*
X48574791Y-38174791D01*
X48659024Y-38065018D01*
X48711974Y-37937183D01*
X48721765Y-37862821D01*
X48730035Y-37800002D01*
X48730035Y-37799997D01*
X48711975Y-37662821D01*
X48711973Y-37662814D01*
X48661506Y-37540976D01*
X48659024Y-37534983D01*
X48659023Y-37534982D01*
X48659023Y-37534981D01*
X48574795Y-37425214D01*
X48574794Y-37425213D01*
X48574791Y-37425209D01*
X48574786Y-37425205D01*
X48574785Y-37425204D01*
X48465018Y-37340976D01*
X48465014Y-37340974D01*
X48337185Y-37288026D01*
X48337178Y-37288024D01*
X48200003Y-37269965D01*
X48199997Y-37269965D01*
X48062821Y-37288024D01*
X48062814Y-37288026D01*
X47934981Y-37340976D01*
X47825214Y-37425204D01*
X47825204Y-37425214D01*
X47740976Y-37534981D01*
X47688026Y-37662814D01*
X47688024Y-37662821D01*
X47669965Y-37799997D01*
X47669965Y-37800002D01*
X32130035Y-37800002D01*
X32130035Y-37799997D01*
X32111975Y-37662821D01*
X32111973Y-37662814D01*
X32061506Y-37540976D01*
X32059024Y-37534983D01*
X32059023Y-37534982D01*
X32059023Y-37534981D01*
X31974795Y-37425214D01*
X31974794Y-37425213D01*
X31974791Y-37425209D01*
X31974786Y-37425205D01*
X31974785Y-37425204D01*
X31865018Y-37340976D01*
X31865014Y-37340974D01*
X31737185Y-37288026D01*
X31737178Y-37288024D01*
X31600003Y-37269965D01*
X31599997Y-37269965D01*
X31462821Y-37288024D01*
X31462814Y-37288026D01*
X31334981Y-37340976D01*
X31225214Y-37425204D01*
X31225204Y-37425214D01*
X31140976Y-37534981D01*
X31088026Y-37662814D01*
X31088024Y-37662821D01*
X31069965Y-37799997D01*
X31069965Y-37800002D01*
X12300500Y-37800002D01*
X12300500Y-36800002D01*
X26469965Y-36800002D01*
X26488024Y-36937178D01*
X26488026Y-36937185D01*
X26540974Y-37065014D01*
X26540976Y-37065018D01*
X26624827Y-37174294D01*
X26625209Y-37174791D01*
X26625213Y-37174794D01*
X26625214Y-37174795D01*
X26658065Y-37200003D01*
X26734982Y-37259024D01*
X26798899Y-37285499D01*
X26862814Y-37311973D01*
X26862821Y-37311975D01*
X26999997Y-37330035D01*
X27000000Y-37330035D01*
X27000003Y-37330035D01*
X27137178Y-37311975D01*
X27137180Y-37311974D01*
X27137183Y-37311974D01*
X27265018Y-37259024D01*
X27374791Y-37174791D01*
X27459024Y-37065018D01*
X27511974Y-36937183D01*
X27514398Y-36918776D01*
X27530035Y-36800002D01*
X52069965Y-36800002D01*
X52088024Y-36937178D01*
X52088026Y-36937185D01*
X52140974Y-37065014D01*
X52140976Y-37065018D01*
X52224827Y-37174294D01*
X52225209Y-37174791D01*
X52225213Y-37174794D01*
X52225214Y-37174795D01*
X52258065Y-37200003D01*
X52334982Y-37259024D01*
X52398899Y-37285499D01*
X52462814Y-37311973D01*
X52462821Y-37311975D01*
X52599997Y-37330035D01*
X52600000Y-37330035D01*
X52600003Y-37330035D01*
X52737178Y-37311975D01*
X52737180Y-37311974D01*
X52737183Y-37311974D01*
X52865018Y-37259024D01*
X52974791Y-37174791D01*
X53059024Y-37065018D01*
X53111974Y-36937183D01*
X53114398Y-36918776D01*
X53130035Y-36800002D01*
X53130035Y-36799997D01*
X53111975Y-36662821D01*
X53111973Y-36662814D01*
X53059023Y-36534981D01*
X52974795Y-36425214D01*
X52974794Y-36425213D01*
X52974791Y-36425209D01*
X52974786Y-36425205D01*
X52974785Y-36425204D01*
X52865018Y-36340976D01*
X52865014Y-36340974D01*
X52737185Y-36288026D01*
X52737178Y-36288024D01*
X52600003Y-36269965D01*
X52599997Y-36269965D01*
X52462821Y-36288024D01*
X52462814Y-36288026D01*
X52334981Y-36340976D01*
X52225214Y-36425204D01*
X52225204Y-36425214D01*
X52140976Y-36534981D01*
X52088026Y-36662814D01*
X52088024Y-36662821D01*
X52069965Y-36799997D01*
X52069965Y-36800002D01*
X27530035Y-36800002D01*
X27530035Y-36799997D01*
X27511975Y-36662821D01*
X27511973Y-36662814D01*
X27459023Y-36534981D01*
X27374795Y-36425214D01*
X27374794Y-36425213D01*
X27374791Y-36425209D01*
X27374786Y-36425205D01*
X27374785Y-36425204D01*
X27265018Y-36340976D01*
X27265014Y-36340974D01*
X27137185Y-36288026D01*
X27137178Y-36288024D01*
X27000003Y-36269965D01*
X26999997Y-36269965D01*
X26862821Y-36288024D01*
X26862814Y-36288026D01*
X26734981Y-36340976D01*
X26625214Y-36425204D01*
X26625204Y-36425214D01*
X26540976Y-36534981D01*
X26488026Y-36662814D01*
X26488024Y-36662821D01*
X26469965Y-36799997D01*
X26469965Y-36800002D01*
X12300500Y-36800002D01*
X12300500Y-32219748D01*
X13549500Y-32219748D01*
X13558806Y-32266534D01*
X13561133Y-32278232D01*
X13605445Y-32344549D01*
X13605450Y-32344554D01*
X13671767Y-32388866D01*
X13671769Y-32388867D01*
X13730252Y-32400500D01*
X13730255Y-32400500D01*
X15769744Y-32400500D01*
X15769748Y-32400500D01*
X15828231Y-32388867D01*
X15894552Y-32344552D01*
X15938867Y-32278231D01*
X15950500Y-32219748D01*
X15950500Y-31280252D01*
X15938867Y-31221769D01*
X15938866Y-31221767D01*
X15894554Y-31155450D01*
X15894549Y-31155445D01*
X15828232Y-31111133D01*
X15813610Y-31108224D01*
X15769748Y-31099500D01*
X13730252Y-31099500D01*
X13695162Y-31106479D01*
X13671767Y-31111133D01*
X13605450Y-31155445D01*
X13605445Y-31155450D01*
X13561133Y-31221767D01*
X13557858Y-31238232D01*
X13549500Y-31280252D01*
X13549500Y-32219748D01*
X12300500Y-32219748D01*
X12300500Y-25314500D01*
X12321317Y-25250431D01*
X12375817Y-25210835D01*
X12409500Y-25205500D01*
X30655500Y-25205500D01*
X30719569Y-25226317D01*
X30759165Y-25280817D01*
X30764500Y-25314500D01*
X30764500Y-31179748D01*
X30772858Y-31221767D01*
X30776133Y-31238232D01*
X30820445Y-31304549D01*
X30820450Y-31304554D01*
X30886767Y-31348866D01*
X30886769Y-31348867D01*
X30945252Y-31360500D01*
X30945255Y-31360500D01*
X30950584Y-31361025D01*
X30950376Y-31363132D01*
X30993486Y-31374370D01*
X30999063Y-31377490D01*
X31066102Y-31397175D01*
X31124000Y-31405500D01*
X31124006Y-31405500D01*
X34761216Y-31405500D01*
X34761221Y-31405500D01*
X34776448Y-31404365D01*
X34791681Y-31403231D01*
X34791679Y-31403231D01*
X34802473Y-31401612D01*
X34823897Y-31398402D01*
X34890342Y-31409493D01*
X34937579Y-31457521D01*
X34940753Y-31464481D01*
X34940973Y-31465012D01*
X34940975Y-31465016D01*
X34940976Y-31465018D01*
X35025209Y-31574791D01*
X35134982Y-31659024D01*
X35198899Y-31685499D01*
X35262814Y-31711973D01*
X35262821Y-31711975D01*
X35399997Y-31730035D01*
X35400000Y-31730035D01*
X35400003Y-31730035D01*
X35537178Y-31711975D01*
X35537180Y-31711974D01*
X35537183Y-31711974D01*
X35665018Y-31659024D01*
X35774791Y-31574791D01*
X35859024Y-31465018D01*
X35860012Y-31462630D01*
X35861214Y-31461223D01*
X35862594Y-31458834D01*
X35863036Y-31459089D01*
X35903756Y-31411405D01*
X35969258Y-31395672D01*
X35976999Y-31396815D01*
X35977027Y-31396621D01*
X36028437Y-31404013D01*
X36038779Y-31405500D01*
X39828228Y-31405500D01*
X39892297Y-31426317D01*
X39894584Y-31428025D01*
X39934982Y-31459024D01*
X40062814Y-31511973D01*
X40062821Y-31511975D01*
X40199997Y-31530035D01*
X40200000Y-31530035D01*
X40200003Y-31530035D01*
X40337178Y-31511975D01*
X40337180Y-31511974D01*
X40337183Y-31511974D01*
X40465018Y-31459024D01*
X40505416Y-31428024D01*
X40568918Y-31405537D01*
X40571772Y-31405500D01*
X40999995Y-31405500D01*
X41000000Y-31405500D01*
X41013194Y-31404013D01*
X41079189Y-31417526D01*
X41091753Y-31425852D01*
X41134982Y-31459024D01*
X41198899Y-31485499D01*
X41262814Y-31511973D01*
X41262821Y-31511975D01*
X41399997Y-31530035D01*
X41400000Y-31530035D01*
X41400003Y-31530035D01*
X41537178Y-31511975D01*
X41537180Y-31511974D01*
X41537183Y-31511974D01*
X41665018Y-31459024D01*
X41759841Y-31386262D01*
X41823338Y-31363776D01*
X41887930Y-31382909D01*
X41926896Y-31431026D01*
X41940975Y-31465016D01*
X41940976Y-31465018D01*
X42025209Y-31574791D01*
X42134982Y-31659024D01*
X42198899Y-31685499D01*
X42262814Y-31711973D01*
X42262821Y-31711975D01*
X42399997Y-31730035D01*
X42400000Y-31730035D01*
X42400003Y-31730035D01*
X42537178Y-31711975D01*
X42537180Y-31711974D01*
X42537183Y-31711974D01*
X42665018Y-31659024D01*
X42774791Y-31574791D01*
X42859024Y-31465018D01*
X42860012Y-31462630D01*
X42861214Y-31461223D01*
X42862594Y-31458834D01*
X42863036Y-31459089D01*
X42903756Y-31411405D01*
X42969258Y-31395672D01*
X42976999Y-31396815D01*
X42977027Y-31396621D01*
X43028437Y-31404013D01*
X43038779Y-31405500D01*
X43038785Y-31405500D01*
X50876000Y-31405500D01*
X50919684Y-31400803D01*
X50958317Y-31392398D01*
X50971196Y-31389597D01*
X50974587Y-31388768D01*
X50981373Y-31387110D01*
X51007277Y-31373305D01*
X51049584Y-31362736D01*
X51049416Y-31361025D01*
X51054744Y-31360500D01*
X51054748Y-31360500D01*
X51113231Y-31348867D01*
X51179552Y-31304552D01*
X51223867Y-31238231D01*
X51235500Y-31179748D01*
X51235500Y-26100002D01*
X59570465Y-26100002D01*
X59588524Y-26237178D01*
X59588526Y-26237185D01*
X59641474Y-26365014D01*
X59641476Y-26365018D01*
X59721296Y-26469041D01*
X59725709Y-26474791D01*
X59725713Y-26474794D01*
X59725714Y-26474795D01*
X59765345Y-26505205D01*
X59835482Y-26559024D01*
X59873548Y-26574791D01*
X59963314Y-26611973D01*
X59963321Y-26611975D01*
X60100497Y-26630035D01*
X60100500Y-26630035D01*
X60100503Y-26630035D01*
X60237678Y-26611975D01*
X60237680Y-26611974D01*
X60237683Y-26611974D01*
X60365518Y-26559024D01*
X60475291Y-26474791D01*
X60559524Y-26365018D01*
X60612474Y-26237183D01*
X60617370Y-26200002D01*
X65042665Y-26200002D01*
X65060724Y-26337178D01*
X65060726Y-26337185D01*
X65113674Y-26465014D01*
X65113676Y-26465018D01*
X65202258Y-26580459D01*
X65200675Y-26581673D01*
X65226981Y-26633303D01*
X65227485Y-26636867D01*
X65232126Y-26674092D01*
X65234227Y-26681148D01*
X65236606Y-26688079D01*
X65251947Y-26716425D01*
X65260995Y-26733144D01*
X65283500Y-26779181D01*
X65287767Y-26785157D01*
X65292280Y-26790955D01*
X65292282Y-26790958D01*
X65329975Y-26825657D01*
X67542576Y-29038258D01*
X67573158Y-29098280D01*
X67574500Y-29115331D01*
X67574500Y-33970259D01*
X67572180Y-33992629D01*
X67569957Y-34003230D01*
X67574081Y-34036315D01*
X67574500Y-34043063D01*
X67574500Y-34046956D01*
X67578087Y-34068456D01*
X67584427Y-34119309D01*
X67584427Y-34119310D01*
X67584428Y-34119313D01*
X67586527Y-34126364D01*
X67588906Y-34133295D01*
X67589820Y-34134983D01*
X67613295Y-34178360D01*
X67635800Y-34224397D01*
X67640067Y-34230373D01*
X67644580Y-34236171D01*
X67644582Y-34236174D01*
X67682275Y-34270873D01*
X69541031Y-36129629D01*
X69571614Y-36189653D01*
X69561076Y-36256189D01*
X69513441Y-36303824D01*
X69505669Y-36307407D01*
X69469062Y-36322570D01*
X69359296Y-36406797D01*
X69359286Y-36406807D01*
X69275058Y-36516574D01*
X69222108Y-36644407D01*
X69222106Y-36644414D01*
X69204047Y-36781590D01*
X69205362Y-36791580D01*
X69193085Y-36857817D01*
X69144219Y-36904188D01*
X69077429Y-36912981D01*
X69018227Y-36880836D01*
X69010819Y-36872161D01*
X68974795Y-36825214D01*
X68974794Y-36825213D01*
X68974791Y-36825209D01*
X68974786Y-36825205D01*
X68974785Y-36825204D01*
X68865018Y-36740976D01*
X68865014Y-36740974D01*
X68737185Y-36688026D01*
X68737178Y-36688024D01*
X68600003Y-36669965D01*
X68599997Y-36669965D01*
X68462821Y-36688024D01*
X68462814Y-36688026D01*
X68334981Y-36740976D01*
X68225214Y-36825204D01*
X68225204Y-36825214D01*
X68140976Y-36934981D01*
X68088026Y-37062814D01*
X68088024Y-37062821D01*
X68082860Y-37102048D01*
X68053858Y-37162851D01*
X67994655Y-37194994D01*
X67927866Y-37186200D01*
X67908438Y-37174294D01*
X67893525Y-37162851D01*
X67865018Y-37140976D01*
X67865014Y-37140974D01*
X67737185Y-37088026D01*
X67737178Y-37088024D01*
X67600003Y-37069965D01*
X67599997Y-37069965D01*
X67462821Y-37088024D01*
X67462814Y-37088026D01*
X67334981Y-37140976D01*
X67225214Y-37225204D01*
X67225204Y-37225214D01*
X67140976Y-37334981D01*
X67088026Y-37462814D01*
X67088024Y-37462821D01*
X67082860Y-37502048D01*
X67053858Y-37562851D01*
X66994655Y-37594994D01*
X66927866Y-37586200D01*
X66908438Y-37574294D01*
X66893525Y-37562851D01*
X66865018Y-37540976D01*
X66865014Y-37540974D01*
X66737185Y-37488026D01*
X66737178Y-37488024D01*
X66600003Y-37469965D01*
X66599997Y-37469965D01*
X66462821Y-37488024D01*
X66462814Y-37488026D01*
X66334981Y-37540976D01*
X66225214Y-37625204D01*
X66225204Y-37625214D01*
X66140976Y-37734981D01*
X66088026Y-37862814D01*
X66088024Y-37862821D01*
X66069965Y-37999997D01*
X66069965Y-38000002D01*
X66088024Y-38137178D01*
X66088026Y-38137185D01*
X66140974Y-38265014D01*
X66140976Y-38265018D01*
X66225209Y-38374791D01*
X66334982Y-38459024D01*
X66344149Y-38462821D01*
X66462814Y-38511973D01*
X66462821Y-38511975D01*
X66602877Y-38530414D01*
X66663680Y-38559415D01*
X66665723Y-38561406D01*
X66942574Y-38838256D01*
X66973158Y-38898279D01*
X66974500Y-38915331D01*
X66974500Y-39083489D01*
X66990280Y-39183123D01*
X66990280Y-39183124D01*
X66990280Y-39183125D01*
X66990281Y-39183126D01*
X67051472Y-39303220D01*
X67146780Y-39398528D01*
X67214985Y-39433280D01*
X67262619Y-39480914D01*
X67274500Y-39530399D01*
X67274500Y-39669600D01*
X67253683Y-39733669D01*
X67214985Y-39766719D01*
X67146780Y-39801471D01*
X67051473Y-39896778D01*
X66990280Y-40016875D01*
X66990280Y-40016876D01*
X66974500Y-40116510D01*
X66974500Y-40683489D01*
X66990280Y-40783123D01*
X66990280Y-40783124D01*
X66990280Y-40783125D01*
X66990281Y-40783126D01*
X67043730Y-40888026D01*
X67051473Y-40903221D01*
X67077332Y-40929080D01*
X67107915Y-40989104D01*
X67097377Y-41055640D01*
X67049742Y-41103275D01*
X66986031Y-41114222D01*
X66959266Y-41110699D01*
X66959264Y-41110699D01*
X66959262Y-41110699D01*
X66822087Y-41128758D01*
X66822080Y-41128760D01*
X66694247Y-41181710D01*
X66584480Y-41265938D01*
X66584470Y-41265948D01*
X66500242Y-41375715D01*
X66447292Y-41503548D01*
X66447290Y-41503555D01*
X66429231Y-41640731D01*
X66429231Y-41640736D01*
X66447290Y-41777912D01*
X66447292Y-41777919D01*
X66500240Y-41905748D01*
X66500242Y-41905752D01*
X66572563Y-42000002D01*
X66584475Y-42015525D01*
X66694248Y-42099758D01*
X66711648Y-42106965D01*
X66822080Y-42152707D01*
X66822087Y-42152709D01*
X66959263Y-42170769D01*
X66959265Y-42170769D01*
X66959265Y-42170768D01*
X66959266Y-42170769D01*
X66967564Y-42169676D01*
X67033801Y-42181947D01*
X67058873Y-42200667D01*
X67126154Y-42267948D01*
X67156737Y-42327972D01*
X67146199Y-42394508D01*
X67126154Y-42422098D01*
X67051473Y-42496778D01*
X66990280Y-42616875D01*
X66990280Y-42616876D01*
X66974500Y-42716510D01*
X66974500Y-43283489D01*
X66990280Y-43383123D01*
X66990280Y-43383124D01*
X66990280Y-43383125D01*
X66990281Y-43383126D01*
X67051472Y-43503220D01*
X67146780Y-43598528D01*
X67266874Y-43659719D01*
X67366512Y-43675500D01*
X67366513Y-43675500D01*
X67883487Y-43675500D01*
X67883488Y-43675500D01*
X67983126Y-43659719D01*
X68103220Y-43598528D01*
X68198528Y-43503220D01*
X68259719Y-43383126D01*
X68275500Y-43283488D01*
X68275500Y-42716512D01*
X68259719Y-42616874D01*
X68198528Y-42496780D01*
X68103220Y-42401472D01*
X68092767Y-42396146D01*
X68012372Y-42355182D01*
X67964738Y-42307547D01*
X67956573Y-42286276D01*
X67943700Y-42238237D01*
X67942670Y-42233591D01*
X67941192Y-42225209D01*
X67935588Y-42193423D01*
X67935495Y-42193262D01*
X67924602Y-42166965D01*
X67924554Y-42166784D01*
X67914698Y-42152708D01*
X67901151Y-42133360D01*
X67898595Y-42129348D01*
X67878194Y-42094013D01*
X67846936Y-42067783D01*
X67843429Y-42064570D01*
X67519199Y-41740341D01*
X67488616Y-41680317D01*
X67488208Y-41649035D01*
X67489301Y-41640734D01*
X67487059Y-41623705D01*
X67471241Y-41503555D01*
X67471239Y-41503548D01*
X67428347Y-41399997D01*
X67418290Y-41375717D01*
X67418289Y-41375716D01*
X67418289Y-41375715D01*
X67334061Y-41265948D01*
X67334060Y-41265947D01*
X67334057Y-41265943D01*
X67334052Y-41265939D01*
X67329688Y-41261575D01*
X67299105Y-41201551D01*
X67309643Y-41135015D01*
X67357278Y-41087380D01*
X67406763Y-41075500D01*
X67883487Y-41075500D01*
X67883488Y-41075500D01*
X67983126Y-41059719D01*
X68103220Y-40998528D01*
X68198528Y-40903220D01*
X68259719Y-40783126D01*
X68275500Y-40683488D01*
X68275500Y-40116512D01*
X68259719Y-40016874D01*
X68198528Y-39896780D01*
X68103220Y-39801472D01*
X68103219Y-39801471D01*
X68035015Y-39766719D01*
X67987380Y-39719084D01*
X67978834Y-39683489D01*
X74324500Y-39683489D01*
X74340280Y-39783123D01*
X74340280Y-39783124D01*
X74340280Y-39783125D01*
X74340281Y-39783126D01*
X74401472Y-39903220D01*
X74496780Y-39998528D01*
X74616874Y-40059719D01*
X74716512Y-40075500D01*
X75109668Y-40075500D01*
X75173737Y-40096317D01*
X75186743Y-40107425D01*
X75293463Y-40214145D01*
X75307638Y-40231601D01*
X75313560Y-40240666D01*
X75313563Y-40240669D01*
X75339868Y-40261144D01*
X75344929Y-40265613D01*
X75347684Y-40268367D01*
X75347690Y-40268372D01*
X75347693Y-40268375D01*
X75365438Y-40281044D01*
X75405874Y-40312517D01*
X75405878Y-40312518D01*
X75412342Y-40316017D01*
X75418934Y-40319240D01*
X75468046Y-40333862D01*
X75516509Y-40350499D01*
X75516512Y-40350500D01*
X75516515Y-40350500D01*
X75523761Y-40351709D01*
X75531042Y-40352616D01*
X75531042Y-40352615D01*
X75531046Y-40352617D01*
X75582231Y-40350500D01*
X75756552Y-40350500D01*
X75820621Y-40371317D01*
X75822907Y-40373025D01*
X75858064Y-40400002D01*
X75934982Y-40459024D01*
X75946066Y-40463615D01*
X76062814Y-40511973D01*
X76062815Y-40511973D01*
X76062817Y-40511974D01*
X76062819Y-40511974D01*
X76062822Y-40511975D01*
X76132495Y-40521148D01*
X76193299Y-40550149D01*
X76225443Y-40609351D01*
X76216650Y-40676141D01*
X76200645Y-40700594D01*
X76120551Y-40793028D01*
X76120547Y-40793034D01*
X76089094Y-40841975D01*
X76089089Y-40841985D01*
X76029366Y-40972760D01*
X76012972Y-41028592D01*
X75992511Y-41170905D01*
X75992511Y-41229105D01*
X75994462Y-41242668D01*
X75995572Y-41258181D01*
X75995572Y-41641818D01*
X75994463Y-41657329D01*
X75992511Y-41670903D01*
X75992511Y-41729094D01*
X76012972Y-41871407D01*
X76029366Y-41927239D01*
X76089089Y-42058014D01*
X76089094Y-42058024D01*
X76120547Y-42106965D01*
X76120551Y-42106971D01*
X76195327Y-42193269D01*
X76214705Y-42215632D01*
X76258678Y-42253735D01*
X76258680Y-42253737D01*
X76379634Y-42331469D01*
X76379636Y-42331470D01*
X76432557Y-42355638D01*
X76432558Y-42355638D01*
X76432562Y-42355640D01*
X76570517Y-42396147D01*
X76598982Y-42400239D01*
X76628100Y-42404427D01*
X76628109Y-42404427D01*
X76628111Y-42404428D01*
X76628112Y-42404428D01*
X77199996Y-42404428D01*
X77200000Y-42404428D01*
X77278231Y-42388867D01*
X77289444Y-42381374D01*
X77354279Y-42363089D01*
X77410555Y-42381374D01*
X77421769Y-42388867D01*
X77500000Y-42404428D01*
X77500003Y-42404428D01*
X78071888Y-42404428D01*
X78071889Y-42404428D01*
X78071890Y-42404427D01*
X78071899Y-42404427D01*
X78092448Y-42401472D01*
X78129483Y-42396147D01*
X78267438Y-42355640D01*
X78267442Y-42355638D01*
X78267443Y-42355638D01*
X78307363Y-42337407D01*
X78320366Y-42331469D01*
X78441320Y-42253737D01*
X78485295Y-42215632D01*
X78579449Y-42106971D01*
X78594430Y-42083660D01*
X81510393Y-42083660D01*
X81518449Y-42129348D01*
X81540382Y-42253737D01*
X81540668Y-42255354D01*
X81604971Y-42404427D01*
X81609721Y-42415437D01*
X81609722Y-42415440D01*
X81713829Y-42555280D01*
X81713831Y-42555281D01*
X81713832Y-42555283D01*
X81847386Y-42667349D01*
X82003185Y-42745594D01*
X82172829Y-42785800D01*
X82303434Y-42785800D01*
X82303436Y-42785800D01*
X82433164Y-42770637D01*
X82596993Y-42711008D01*
X82604240Y-42706240D01*
X82742651Y-42615208D01*
X82778959Y-42576724D01*
X82862296Y-42488393D01*
X82949467Y-42337407D01*
X82999469Y-42170388D01*
X83005834Y-42061103D01*
X83030341Y-41998358D01*
X83087051Y-41961998D01*
X83154302Y-41965915D01*
X83181000Y-41980969D01*
X83184982Y-41984024D01*
X83214716Y-41996340D01*
X83312814Y-42036973D01*
X83312821Y-42036975D01*
X83449997Y-42055035D01*
X83450000Y-42055035D01*
X83450003Y-42055035D01*
X83587178Y-42036975D01*
X83587180Y-42036974D01*
X83587183Y-42036974D01*
X83715018Y-41984024D01*
X83824791Y-41899791D01*
X83909024Y-41790018D01*
X83961974Y-41662183D01*
X83964656Y-41641818D01*
X83980035Y-41525002D01*
X83980035Y-41524997D01*
X83961975Y-41387821D01*
X83961973Y-41387814D01*
X83911493Y-41265943D01*
X83909024Y-41259983D01*
X83909023Y-41259982D01*
X83909023Y-41259981D01*
X83824795Y-41150214D01*
X83824794Y-41150213D01*
X83824791Y-41150209D01*
X83824786Y-41150205D01*
X83824785Y-41150204D01*
X83715018Y-41065976D01*
X83715014Y-41065974D01*
X83587185Y-41013026D01*
X83587178Y-41013024D01*
X83450003Y-40994965D01*
X83449997Y-40994965D01*
X83312821Y-41013024D01*
X83312814Y-41013026D01*
X83184981Y-41065976D01*
X83075214Y-41150204D01*
X83075204Y-41150214D01*
X82990976Y-41259981D01*
X82938026Y-41387814D01*
X82938025Y-41387820D01*
X82934610Y-41413755D01*
X82905606Y-41474557D01*
X82846403Y-41506699D01*
X82779614Y-41497904D01*
X82756479Y-41483023D01*
X82734751Y-41464791D01*
X82672614Y-41412651D01*
X82672609Y-41412648D01*
X82516814Y-41334405D01*
X82347171Y-41294200D01*
X82216564Y-41294200D01*
X82151700Y-41301781D01*
X82086834Y-41309363D01*
X81923011Y-41368990D01*
X81923000Y-41368995D01*
X81777348Y-41464791D01*
X81657702Y-41591608D01*
X81570534Y-41742590D01*
X81521687Y-41905752D01*
X81520531Y-41909612D01*
X81510393Y-42083660D01*
X78594430Y-42083660D01*
X78610906Y-42058023D01*
X78670634Y-41927238D01*
X78687027Y-41871408D01*
X78707489Y-41729093D01*
X78707489Y-41670907D01*
X78705537Y-41657329D01*
X78704428Y-41641818D01*
X78704428Y-41258181D01*
X78705538Y-41242668D01*
X78707488Y-41229105D01*
X78707489Y-41229092D01*
X78707489Y-41170907D01*
X78687027Y-41028592D01*
X78670634Y-40972762D01*
X78642872Y-40911973D01*
X78610910Y-40841985D01*
X78610905Y-40841975D01*
X78579452Y-40793034D01*
X78579448Y-40793028D01*
X78570865Y-40783123D01*
X78509207Y-40711964D01*
X78485303Y-40684377D01*
X78485301Y-40684375D01*
X78485295Y-40684368D01*
X78441320Y-40646263D01*
X78441317Y-40646261D01*
X78441309Y-40646255D01*
X78375570Y-40604007D01*
X78332927Y-40551857D01*
X78325500Y-40512311D01*
X78325500Y-40504732D01*
X78346317Y-40440663D01*
X78368140Y-40418260D01*
X78424791Y-40374791D01*
X78509024Y-40265018D01*
X78561974Y-40137183D01*
X78564696Y-40116513D01*
X78580035Y-40000002D01*
X78580035Y-39999997D01*
X78561975Y-39862821D01*
X78561973Y-39862814D01*
X78509023Y-39734981D01*
X78424795Y-39625214D01*
X78424794Y-39625213D01*
X78424791Y-39625209D01*
X78424786Y-39625205D01*
X78424785Y-39625204D01*
X78315018Y-39540976D01*
X78315014Y-39540974D01*
X78187185Y-39488026D01*
X78187178Y-39488024D01*
X78050003Y-39469965D01*
X78049997Y-39469965D01*
X77912821Y-39488024D01*
X77912814Y-39488026D01*
X77784981Y-39540976D01*
X77669541Y-39629558D01*
X77668230Y-39627850D01*
X77617051Y-39653927D01*
X77550515Y-39643389D01*
X77530823Y-39629082D01*
X77530459Y-39629558D01*
X77415018Y-39540976D01*
X77415014Y-39540974D01*
X77287185Y-39488026D01*
X77287178Y-39488024D01*
X77150003Y-39469965D01*
X77149997Y-39469965D01*
X77012821Y-39488024D01*
X77012814Y-39488026D01*
X76884981Y-39540976D01*
X76775214Y-39625204D01*
X76775204Y-39625214D01*
X76761475Y-39643107D01*
X76705957Y-39681263D01*
X76638615Y-39679500D01*
X76588525Y-39643107D01*
X76574795Y-39625214D01*
X76574794Y-39625213D01*
X76574791Y-39625209D01*
X76574786Y-39625205D01*
X76574785Y-39625204D01*
X76465018Y-39540976D01*
X76465014Y-39540974D01*
X76337185Y-39488026D01*
X76337178Y-39488024D01*
X76200003Y-39469965D01*
X76199997Y-39469965D01*
X76062821Y-39488024D01*
X76062814Y-39488026D01*
X75934981Y-39540976D01*
X75827875Y-39623163D01*
X75764374Y-39645651D01*
X75699782Y-39626518D01*
X75684445Y-39613763D01*
X75657425Y-39586743D01*
X75626842Y-39526719D01*
X75625500Y-39509668D01*
X75625500Y-39116513D01*
X75625500Y-39116512D01*
X75609719Y-39016874D01*
X75548528Y-38896780D01*
X75453220Y-38801472D01*
X75333126Y-38740281D01*
X75333124Y-38740280D01*
X75333123Y-38740280D01*
X75233489Y-38724500D01*
X75233488Y-38724500D01*
X74716512Y-38724500D01*
X74716510Y-38724500D01*
X74616876Y-38740280D01*
X74616875Y-38740280D01*
X74496778Y-38801473D01*
X74401473Y-38896778D01*
X74340280Y-39016875D01*
X74340280Y-39016876D01*
X74324500Y-39116510D01*
X74324500Y-39683489D01*
X67978834Y-39683489D01*
X67975500Y-39669600D01*
X67975500Y-39530399D01*
X67996317Y-39466330D01*
X68035013Y-39433280D01*
X68103220Y-39398528D01*
X68198528Y-39303220D01*
X68259719Y-39183126D01*
X68275500Y-39083488D01*
X68275500Y-38516512D01*
X68259719Y-38416874D01*
X68198528Y-38296780D01*
X68103220Y-38201472D01*
X68103219Y-38201471D01*
X68001647Y-38149717D01*
X67954012Y-38102082D01*
X67943474Y-38035546D01*
X67971233Y-37981066D01*
X67970442Y-37980459D01*
X67973718Y-37976188D01*
X67974058Y-37975523D01*
X67974064Y-37975517D01*
X67974782Y-37974797D01*
X67974791Y-37974791D01*
X68059024Y-37865018D01*
X68111974Y-37737183D01*
X68117139Y-37697950D01*
X68146140Y-37637150D01*
X68205342Y-37605005D01*
X68272131Y-37613798D01*
X68291554Y-37625700D01*
X68334982Y-37659024D01*
X68344149Y-37662821D01*
X68462814Y-37711973D01*
X68462821Y-37711975D01*
X68599997Y-37730035D01*
X68600000Y-37730035D01*
X68600003Y-37730035D01*
X68737178Y-37711975D01*
X68737180Y-37711974D01*
X68737183Y-37711974D01*
X68865018Y-37659024D01*
X68974791Y-37574791D01*
X69059024Y-37465018D01*
X69111974Y-37337183D01*
X69112204Y-37335440D01*
X69124687Y-37240618D01*
X69130035Y-37200000D01*
X69128720Y-37190015D01*
X69140994Y-37123780D01*
X69189857Y-37077406D01*
X69256646Y-37068610D01*
X69315850Y-37100752D01*
X69323262Y-37109431D01*
X69334272Y-37123780D01*
X69359291Y-37156384D01*
X69359295Y-37156387D01*
X69359296Y-37156388D01*
X69382631Y-37174294D01*
X69469064Y-37240617D01*
X69509604Y-37257409D01*
X69596896Y-37293566D01*
X69596903Y-37293568D01*
X69734079Y-37311628D01*
X69734082Y-37311628D01*
X69734085Y-37311628D01*
X69871260Y-37293568D01*
X69871262Y-37293567D01*
X69871265Y-37293567D01*
X69999100Y-37240617D01*
X70108873Y-37156384D01*
X70193106Y-37046611D01*
X70208267Y-37010007D01*
X70252015Y-36958782D01*
X70317519Y-36943054D01*
X70379757Y-36968832D01*
X70386045Y-36974643D01*
X71350047Y-37938645D01*
X71364222Y-37956101D01*
X71370144Y-37965166D01*
X71370147Y-37965169D01*
X71396452Y-37985644D01*
X71401513Y-37990113D01*
X71404267Y-37992866D01*
X71404277Y-37992875D01*
X71422021Y-38005544D01*
X71462458Y-38037017D01*
X71462465Y-38037019D01*
X71468925Y-38040515D01*
X71475514Y-38043737D01*
X71475517Y-38043739D01*
X71475519Y-38043739D01*
X71475520Y-38043740D01*
X71524621Y-38058359D01*
X71573093Y-38074999D01*
X71573096Y-38075000D01*
X71573099Y-38075000D01*
X71580345Y-38076209D01*
X71587626Y-38077116D01*
X71587626Y-38077115D01*
X71587630Y-38077117D01*
X71638815Y-38075000D01*
X72785387Y-38075000D01*
X72849456Y-38095817D01*
X72851742Y-38097525D01*
X72908368Y-38140976D01*
X72963817Y-38183524D01*
X73007146Y-38201471D01*
X73091649Y-38236473D01*
X73091656Y-38236475D01*
X73228832Y-38254535D01*
X73228835Y-38254535D01*
X73228838Y-38254535D01*
X73366013Y-38236475D01*
X73366015Y-38236474D01*
X73366018Y-38236474D01*
X73493853Y-38183524D01*
X73603626Y-38099291D01*
X73606737Y-38095236D01*
X73662252Y-38057080D01*
X73729595Y-38058841D01*
X73779688Y-38095236D01*
X73782800Y-38099291D01*
X73782804Y-38099294D01*
X73782805Y-38099295D01*
X73828075Y-38134032D01*
X73892573Y-38183524D01*
X73935902Y-38201471D01*
X74020405Y-38236473D01*
X74020412Y-38236475D01*
X74157588Y-38254535D01*
X74157591Y-38254535D01*
X74157594Y-38254535D01*
X74294769Y-38236475D01*
X74294771Y-38236474D01*
X74294774Y-38236474D01*
X74422609Y-38183524D01*
X74532382Y-38099291D01*
X74616615Y-37989518D01*
X74669565Y-37861683D01*
X74677687Y-37799997D01*
X74687626Y-37724502D01*
X74687626Y-37724497D01*
X74669566Y-37587321D01*
X74669564Y-37587314D01*
X74628437Y-37488024D01*
X74616615Y-37459483D01*
X74616614Y-37459482D01*
X74616614Y-37459481D01*
X74532386Y-37349714D01*
X74532385Y-37349713D01*
X74532382Y-37349709D01*
X74532377Y-37349705D01*
X74532376Y-37349704D01*
X74422609Y-37265476D01*
X74422605Y-37265474D01*
X74294776Y-37212526D01*
X74294769Y-37212524D01*
X74184470Y-37198003D01*
X74123667Y-37169001D01*
X74121623Y-37167011D01*
X73958271Y-37003659D01*
X80494393Y-37003659D01*
X80524568Y-37174791D01*
X80524668Y-37175354D01*
X80591390Y-37330035D01*
X80593721Y-37335437D01*
X80593722Y-37335440D01*
X80697829Y-37475280D01*
X80697831Y-37475281D01*
X80697832Y-37475283D01*
X80831386Y-37587349D01*
X80987185Y-37665594D01*
X81156829Y-37705800D01*
X81287434Y-37705800D01*
X81287436Y-37705800D01*
X81417164Y-37690637D01*
X81580993Y-37631008D01*
X81589818Y-37625204D01*
X81726651Y-37535208D01*
X81771167Y-37488024D01*
X81846296Y-37408393D01*
X81933467Y-37257407D01*
X81983469Y-37090388D01*
X81988521Y-37003659D01*
X82526393Y-37003659D01*
X82556568Y-37174791D01*
X82556668Y-37175354D01*
X82623390Y-37330035D01*
X82625721Y-37335437D01*
X82625722Y-37335440D01*
X82729829Y-37475280D01*
X82729831Y-37475281D01*
X82729832Y-37475283D01*
X82863386Y-37587349D01*
X83019185Y-37665594D01*
X83188829Y-37705800D01*
X83319434Y-37705800D01*
X83319436Y-37705800D01*
X83449164Y-37690637D01*
X83612993Y-37631008D01*
X83621818Y-37625204D01*
X83758651Y-37535208D01*
X83803167Y-37488024D01*
X83878296Y-37408393D01*
X83965467Y-37257407D01*
X84015469Y-37090388D01*
X84025607Y-36916340D01*
X83995332Y-36744646D01*
X83926279Y-36584562D01*
X83889369Y-36534983D01*
X83822170Y-36444719D01*
X83750751Y-36384791D01*
X83688614Y-36332651D01*
X83688609Y-36332648D01*
X83532814Y-36254405D01*
X83363171Y-36214200D01*
X83232564Y-36214200D01*
X83167700Y-36221781D01*
X83102834Y-36229363D01*
X82939011Y-36288990D01*
X82939000Y-36288995D01*
X82793348Y-36384791D01*
X82673702Y-36511608D01*
X82586534Y-36662590D01*
X82586533Y-36662592D01*
X82586533Y-36662593D01*
X82578919Y-36688026D01*
X82537848Y-36825214D01*
X82536531Y-36829612D01*
X82530265Y-36937183D01*
X82526393Y-37003659D01*
X81988521Y-37003659D01*
X81993607Y-36916340D01*
X81963332Y-36744646D01*
X81894279Y-36584562D01*
X81857369Y-36534983D01*
X81790170Y-36444719D01*
X81718751Y-36384791D01*
X81656614Y-36332651D01*
X81656609Y-36332648D01*
X81500814Y-36254405D01*
X81331171Y-36214200D01*
X81200564Y-36214200D01*
X81135700Y-36221781D01*
X81070834Y-36229363D01*
X80907011Y-36288990D01*
X80907000Y-36288995D01*
X80761348Y-36384791D01*
X80641702Y-36511608D01*
X80554534Y-36662590D01*
X80554533Y-36662592D01*
X80554533Y-36662593D01*
X80546919Y-36688026D01*
X80505848Y-36825214D01*
X80504531Y-36829612D01*
X80498265Y-36937183D01*
X80494393Y-37003659D01*
X73958271Y-37003659D01*
X73740465Y-36785853D01*
X73726287Y-36768393D01*
X73720366Y-36759330D01*
X73720365Y-36759329D01*
X73701502Y-36744648D01*
X73694058Y-36738854D01*
X73688997Y-36734384D01*
X73686238Y-36731626D01*
X73686236Y-36731624D01*
X73668491Y-36718954D01*
X73628051Y-36687479D01*
X73621609Y-36683993D01*
X73614996Y-36680760D01*
X73565883Y-36666137D01*
X73517423Y-36649501D01*
X73517418Y-36649500D01*
X73517417Y-36649500D01*
X73510164Y-36648290D01*
X73502887Y-36647383D01*
X73502884Y-36647383D01*
X73451699Y-36649500D01*
X71701285Y-36649500D01*
X71637216Y-36628683D01*
X71624210Y-36617575D01*
X69406638Y-34400002D01*
X70069965Y-34400002D01*
X70088024Y-34537178D01*
X70088026Y-34537185D01*
X70140974Y-34665014D01*
X70140976Y-34665018D01*
X70225209Y-34774791D01*
X70334982Y-34859024D01*
X70398899Y-34885499D01*
X70462814Y-34911973D01*
X70462821Y-34911975D01*
X70599997Y-34930035D01*
X70600000Y-34930035D01*
X70600003Y-34930035D01*
X70737178Y-34911975D01*
X70737180Y-34911974D01*
X70737183Y-34911974D01*
X70865018Y-34859024D01*
X70974791Y-34774791D01*
X71059024Y-34665018D01*
X71111974Y-34537183D01*
X71130035Y-34400002D01*
X72069965Y-34400002D01*
X72088024Y-34537178D01*
X72088026Y-34537185D01*
X72140974Y-34665014D01*
X72140976Y-34665018D01*
X72225209Y-34774791D01*
X72334982Y-34859024D01*
X72398899Y-34885499D01*
X72462814Y-34911973D01*
X72462821Y-34911975D01*
X72599997Y-34930035D01*
X72600000Y-34930035D01*
X72600003Y-34930035D01*
X72737178Y-34911975D01*
X72737180Y-34911974D01*
X72737183Y-34911974D01*
X72865018Y-34859024D01*
X72974791Y-34774791D01*
X73059024Y-34665018D01*
X73111974Y-34537183D01*
X73130035Y-34400000D01*
X73111974Y-34262817D01*
X73100937Y-34236172D01*
X73059023Y-34134981D01*
X72974795Y-34025214D01*
X72974794Y-34025213D01*
X72974791Y-34025209D01*
X72974786Y-34025205D01*
X72974785Y-34025204D01*
X72865018Y-33940976D01*
X72865014Y-33940974D01*
X72737185Y-33888026D01*
X72737178Y-33888024D01*
X72600003Y-33869965D01*
X72599997Y-33869965D01*
X72462821Y-33888024D01*
X72462814Y-33888026D01*
X72334981Y-33940976D01*
X72225214Y-34025204D01*
X72225204Y-34025214D01*
X72140976Y-34134981D01*
X72088026Y-34262814D01*
X72088024Y-34262821D01*
X72069965Y-34399997D01*
X72069965Y-34400002D01*
X71130035Y-34400002D01*
X71130035Y-34400000D01*
X71111974Y-34262817D01*
X71100937Y-34236172D01*
X71059023Y-34134981D01*
X70974795Y-34025214D01*
X70974794Y-34025213D01*
X70974791Y-34025209D01*
X70974786Y-34025205D01*
X70974785Y-34025204D01*
X70865018Y-33940976D01*
X70865014Y-33940974D01*
X70737185Y-33888026D01*
X70737178Y-33888024D01*
X70600003Y-33869965D01*
X70599997Y-33869965D01*
X70462821Y-33888024D01*
X70462814Y-33888026D01*
X70334981Y-33940976D01*
X70225214Y-34025204D01*
X70225204Y-34025214D01*
X70140976Y-34134981D01*
X70088026Y-34262814D01*
X70088024Y-34262821D01*
X70069965Y-34399997D01*
X70069965Y-34400002D01*
X69406638Y-34400002D01*
X68734425Y-33727789D01*
X68703842Y-33667765D01*
X68702500Y-33650714D01*
X68702500Y-28754251D01*
X68704821Y-28731879D01*
X68707043Y-28721283D01*
X68707043Y-28721281D01*
X68702919Y-28688195D01*
X68702500Y-28681447D01*
X68702500Y-28677559D01*
X68702500Y-28677555D01*
X68698912Y-28656054D01*
X68692573Y-28605202D01*
X68690477Y-28598161D01*
X68688092Y-28591215D01*
X68688092Y-28591214D01*
X68663704Y-28546150D01*
X68641198Y-28500111D01*
X68641197Y-28500110D01*
X68641197Y-28500109D01*
X68636948Y-28494159D01*
X68632417Y-28488336D01*
X68594724Y-28453636D01*
X68031090Y-27890003D01*
X80064534Y-27890003D01*
X80084311Y-28040230D01*
X80084312Y-28040235D01*
X80142303Y-28180235D01*
X80234544Y-28300445D01*
X80234549Y-28300451D01*
X80354767Y-28392698D01*
X80494764Y-28450687D01*
X80607280Y-28465500D01*
X80607285Y-28465500D01*
X80682715Y-28465500D01*
X80682720Y-28465500D01*
X80795236Y-28450687D01*
X80935233Y-28392698D01*
X81055451Y-28300451D01*
X81147698Y-28180233D01*
X81205687Y-28040236D01*
X81225466Y-27890000D01*
X81225466Y-27889996D01*
X81205688Y-27739769D01*
X81205687Y-27739764D01*
X81192954Y-27709024D01*
X81147698Y-27599767D01*
X81141691Y-27591939D01*
X81055455Y-27479554D01*
X81055454Y-27479553D01*
X81055451Y-27479549D01*
X81055446Y-27479545D01*
X81055445Y-27479544D01*
X80935235Y-27387303D01*
X80934950Y-27387185D01*
X80795236Y-27329313D01*
X80682720Y-27314500D01*
X80607280Y-27314500D01*
X80513516Y-27326844D01*
X80494763Y-27329313D01*
X80354764Y-27387303D01*
X80234554Y-27479544D01*
X80234544Y-27479554D01*
X80142303Y-27599764D01*
X80084312Y-27739764D01*
X80084311Y-27739769D01*
X80064534Y-27889996D01*
X80064534Y-27890003D01*
X68031090Y-27890003D01*
X67793050Y-27651963D01*
X67762467Y-27591939D01*
X67773005Y-27525403D01*
X67820640Y-27477768D01*
X67828399Y-27474191D01*
X67865018Y-27459024D01*
X67974791Y-27374791D01*
X68059024Y-27265018D01*
X68065244Y-27250002D01*
X74969965Y-27250002D01*
X74988024Y-27387178D01*
X74988026Y-27387185D01*
X75040974Y-27515014D01*
X75040976Y-27515018D01*
X75086474Y-27574312D01*
X75125209Y-27624791D01*
X75234982Y-27709024D01*
X75298899Y-27735499D01*
X75362814Y-27761973D01*
X75362821Y-27761975D01*
X75499997Y-27780035D01*
X75500000Y-27780035D01*
X75500003Y-27780035D01*
X75637178Y-27761975D01*
X75637180Y-27761974D01*
X75637183Y-27761974D01*
X75765018Y-27709024D01*
X75874791Y-27624791D01*
X75913527Y-27574309D01*
X75969042Y-27536156D01*
X76036385Y-27537919D01*
X76086472Y-27574309D01*
X76125209Y-27624791D01*
X76234982Y-27709024D01*
X76298899Y-27735499D01*
X76362814Y-27761973D01*
X76362821Y-27761975D01*
X76499997Y-27780035D01*
X76500000Y-27780035D01*
X76500003Y-27780035D01*
X76637178Y-27761975D01*
X76637180Y-27761974D01*
X76637183Y-27761974D01*
X76765018Y-27709024D01*
X76874791Y-27624791D01*
X76959024Y-27515018D01*
X77011974Y-27387183D01*
X77013606Y-27374791D01*
X77030035Y-27250002D01*
X77719965Y-27250002D01*
X77738024Y-27387178D01*
X77738026Y-27387185D01*
X77790974Y-27515014D01*
X77790976Y-27515018D01*
X77836474Y-27574312D01*
X77875209Y-27624791D01*
X77984982Y-27709024D01*
X78048899Y-27735499D01*
X78112814Y-27761973D01*
X78112821Y-27761975D01*
X78249997Y-27780035D01*
X78250000Y-27780035D01*
X78250003Y-27780035D01*
X78387178Y-27761975D01*
X78387180Y-27761974D01*
X78387183Y-27761974D01*
X78515018Y-27709024D01*
X78624791Y-27624791D01*
X78709024Y-27515018D01*
X78761974Y-27387183D01*
X78763606Y-27374791D01*
X78780035Y-27250002D01*
X78780035Y-27249997D01*
X78761975Y-27112821D01*
X78761973Y-27112814D01*
X78709023Y-26984981D01*
X78624795Y-26875214D01*
X78624794Y-26875213D01*
X78624791Y-26875209D01*
X78624786Y-26875205D01*
X78624785Y-26875204D01*
X78515018Y-26790976D01*
X78515014Y-26790974D01*
X78387185Y-26738026D01*
X78387178Y-26738024D01*
X78250003Y-26719965D01*
X78249997Y-26719965D01*
X78112821Y-26738024D01*
X78112814Y-26738026D01*
X77984981Y-26790976D01*
X77875214Y-26875204D01*
X77875204Y-26875214D01*
X77790976Y-26984981D01*
X77738026Y-27112814D01*
X77738024Y-27112821D01*
X77719965Y-27249997D01*
X77719965Y-27250002D01*
X77030035Y-27250002D01*
X77030035Y-27249997D01*
X77011975Y-27112821D01*
X77011973Y-27112814D01*
X76959023Y-26984981D01*
X76874795Y-26875214D01*
X76874794Y-26875213D01*
X76874791Y-26875209D01*
X76874786Y-26875205D01*
X76874785Y-26875204D01*
X76765018Y-26790976D01*
X76765014Y-26790974D01*
X76637185Y-26738026D01*
X76637178Y-26738024D01*
X76500003Y-26719965D01*
X76499997Y-26719965D01*
X76362821Y-26738024D01*
X76362814Y-26738026D01*
X76234981Y-26790976D01*
X76125214Y-26875204D01*
X76125207Y-26875211D01*
X76086475Y-26925688D01*
X76030957Y-26963844D01*
X75963614Y-26962080D01*
X75913525Y-26925688D01*
X75874791Y-26875209D01*
X75874786Y-26875205D01*
X75874785Y-26875204D01*
X75765018Y-26790976D01*
X75765014Y-26790974D01*
X75637185Y-26738026D01*
X75637178Y-26738024D01*
X75500003Y-26719965D01*
X75499997Y-26719965D01*
X75362821Y-26738024D01*
X75362814Y-26738026D01*
X75234981Y-26790976D01*
X75125214Y-26875204D01*
X75125204Y-26875214D01*
X75040976Y-26984981D01*
X74988026Y-27112814D01*
X74988024Y-27112821D01*
X74969965Y-27249997D01*
X74969965Y-27250002D01*
X68065244Y-27250002D01*
X68111974Y-27137183D01*
X68115182Y-27112821D01*
X68130035Y-27000002D01*
X68130035Y-26999997D01*
X68111975Y-26862821D01*
X68111973Y-26862814D01*
X68060284Y-26738026D01*
X68059024Y-26734983D01*
X68059023Y-26734982D01*
X68059023Y-26734981D01*
X67974795Y-26625214D01*
X67974794Y-26625213D01*
X67974791Y-26625209D01*
X67924309Y-26586472D01*
X67886156Y-26530958D01*
X67887919Y-26463615D01*
X67924309Y-26413527D01*
X67974791Y-26374791D01*
X68059024Y-26265018D01*
X68111974Y-26137183D01*
X68116870Y-26100000D01*
X68130035Y-26000002D01*
X68130035Y-25999997D01*
X68111975Y-25862821D01*
X68111973Y-25862814D01*
X68061506Y-25740976D01*
X68059024Y-25734983D01*
X68059023Y-25734982D01*
X68059023Y-25734981D01*
X67974795Y-25625214D01*
X67974794Y-25625213D01*
X67974791Y-25625209D01*
X67924309Y-25586472D01*
X67886156Y-25530958D01*
X67887919Y-25463615D01*
X67924309Y-25413527D01*
X67974791Y-25374791D01*
X68059024Y-25265018D01*
X68111974Y-25137183D01*
X68116870Y-25100000D01*
X68130035Y-25000002D01*
X68130035Y-24999997D01*
X68111975Y-24862821D01*
X68111973Y-24862814D01*
X68061506Y-24740976D01*
X68059024Y-24734983D01*
X68059023Y-24734982D01*
X68059023Y-24734981D01*
X67974795Y-24625214D01*
X67974794Y-24625213D01*
X67974791Y-24625209D01*
X67974786Y-24625205D01*
X67974785Y-24625204D01*
X67865018Y-24540976D01*
X67865014Y-24540974D01*
X67737185Y-24488026D01*
X67737178Y-24488024D01*
X67600003Y-24469965D01*
X67599997Y-24469965D01*
X67462821Y-24488024D01*
X67462814Y-24488026D01*
X67334981Y-24540976D01*
X67225214Y-24625204D01*
X67225204Y-24625214D01*
X67140976Y-24734981D01*
X67088026Y-24862814D01*
X67088024Y-24862821D01*
X67069965Y-24999997D01*
X67069965Y-25000002D01*
X67088024Y-25137178D01*
X67088026Y-25137185D01*
X67140974Y-25265014D01*
X67140976Y-25265018D01*
X67210952Y-25356212D01*
X67225209Y-25374791D01*
X67275689Y-25413526D01*
X67313843Y-25469041D01*
X67312080Y-25536384D01*
X67275689Y-25586473D01*
X67225212Y-25625206D01*
X67225204Y-25625214D01*
X67140976Y-25734981D01*
X67088026Y-25862814D01*
X67088024Y-25862821D01*
X67069965Y-25999997D01*
X67069965Y-26000002D01*
X67088024Y-26137178D01*
X67088026Y-26137185D01*
X67140974Y-26265014D01*
X67140976Y-26265018D01*
X67217709Y-26365018D01*
X67225209Y-26374791D01*
X67275689Y-26413526D01*
X67313843Y-26469041D01*
X67312080Y-26536384D01*
X67275689Y-26586473D01*
X67225212Y-26625206D01*
X67225204Y-26625214D01*
X67140977Y-26734980D01*
X67125814Y-26771587D01*
X67082063Y-26822812D01*
X67016558Y-26838538D01*
X66954321Y-26812758D01*
X66948036Y-26806949D01*
X66782425Y-26641338D01*
X66751842Y-26581314D01*
X66750500Y-26564263D01*
X66750500Y-24687950D01*
X66752821Y-24665578D01*
X66755043Y-24654982D01*
X66755043Y-24654980D01*
X66750919Y-24621894D01*
X66750500Y-24615146D01*
X66750500Y-24611258D01*
X66750500Y-24611254D01*
X66746912Y-24589753D01*
X66740573Y-24538901D01*
X66738477Y-24531860D01*
X66736092Y-24524914D01*
X66736092Y-24524913D01*
X66711704Y-24479849D01*
X66689198Y-24433810D01*
X66689197Y-24433809D01*
X66689197Y-24433808D01*
X66684948Y-24427858D01*
X66680417Y-24422035D01*
X66642724Y-24387335D01*
X66271612Y-24016224D01*
X66241029Y-23956200D01*
X66240620Y-23953377D01*
X66222181Y-23813321D01*
X66222179Y-23813314D01*
X66186730Y-23727733D01*
X66169230Y-23685483D01*
X66169229Y-23685482D01*
X66169229Y-23685481D01*
X66085001Y-23575714D01*
X66085000Y-23575713D01*
X66084997Y-23575709D01*
X66084992Y-23575705D01*
X66084991Y-23575704D01*
X65975224Y-23491476D01*
X65975220Y-23491474D01*
X65847391Y-23438526D01*
X65847384Y-23438524D01*
X65710209Y-23420465D01*
X65710203Y-23420465D01*
X65573027Y-23438524D01*
X65573020Y-23438526D01*
X65445187Y-23491476D01*
X65335420Y-23575704D01*
X65335410Y-23575714D01*
X65251182Y-23685481D01*
X65198232Y-23813314D01*
X65198230Y-23813321D01*
X65180171Y-23950497D01*
X65180171Y-23950502D01*
X65198230Y-24087678D01*
X65198232Y-24087685D01*
X65251180Y-24215514D01*
X65251182Y-24215518D01*
X65286162Y-24261105D01*
X65335415Y-24325291D01*
X65445188Y-24409524D01*
X65489451Y-24427858D01*
X65573020Y-24462473D01*
X65573027Y-24462475D01*
X65713083Y-24480914D01*
X65773886Y-24509915D01*
X65775930Y-24511906D01*
X66017575Y-24753551D01*
X66048158Y-24813575D01*
X66049500Y-24830626D01*
X66049500Y-25682452D01*
X66028683Y-25746521D01*
X65974183Y-25786117D01*
X65906817Y-25786117D01*
X65874146Y-25768928D01*
X65837718Y-25740976D01*
X65837714Y-25740974D01*
X65709885Y-25688026D01*
X65709878Y-25688024D01*
X65572703Y-25669965D01*
X65572697Y-25669965D01*
X65435521Y-25688024D01*
X65435514Y-25688026D01*
X65307681Y-25740976D01*
X65197914Y-25825204D01*
X65197904Y-25825214D01*
X65113676Y-25934981D01*
X65060726Y-26062814D01*
X65060724Y-26062821D01*
X65042665Y-26199997D01*
X65042665Y-26200002D01*
X60617370Y-26200002D01*
X60617370Y-26200000D01*
X60630535Y-26100002D01*
X60630535Y-26099997D01*
X60612475Y-25962821D01*
X60612473Y-25962814D01*
X60559523Y-25834981D01*
X60475295Y-25725214D01*
X60475294Y-25725213D01*
X60475291Y-25725209D01*
X60475286Y-25725205D01*
X60475285Y-25725204D01*
X60365518Y-25640976D01*
X60365514Y-25640974D01*
X60237685Y-25588026D01*
X60237678Y-25588024D01*
X60100503Y-25569965D01*
X60100497Y-25569965D01*
X59963321Y-25588024D01*
X59963314Y-25588026D01*
X59835481Y-25640976D01*
X59725714Y-25725204D01*
X59725704Y-25725214D01*
X59641476Y-25834981D01*
X59588526Y-25962814D01*
X59588524Y-25962821D01*
X59570465Y-26099997D01*
X59570465Y-26100002D01*
X51235500Y-26100002D01*
X51235500Y-25313463D01*
X51256317Y-25249394D01*
X51310817Y-25209798D01*
X51355570Y-25205959D01*
X51355623Y-25205222D01*
X51359494Y-25205499D01*
X51359500Y-25205500D01*
X51359506Y-25205500D01*
X60376000Y-25205500D01*
X60419684Y-25200803D01*
X60423366Y-25200002D01*
X62469965Y-25200002D01*
X62488024Y-25337178D01*
X62488026Y-25337185D01*
X62540974Y-25465014D01*
X62540976Y-25465018D01*
X62621505Y-25569965D01*
X62625209Y-25574791D01*
X62625213Y-25574794D01*
X62625214Y-25574795D01*
X62658064Y-25600002D01*
X62734982Y-25659024D01*
X62791543Y-25682452D01*
X62862814Y-25711973D01*
X62862821Y-25711975D01*
X62999997Y-25730035D01*
X63000000Y-25730035D01*
X63000003Y-25730035D01*
X63137178Y-25711975D01*
X63137180Y-25711974D01*
X63137183Y-25711974D01*
X63265018Y-25659024D01*
X63374791Y-25574791D01*
X63459024Y-25465018D01*
X63511974Y-25337183D01*
X63514961Y-25314500D01*
X63530035Y-25200002D01*
X63530035Y-25199997D01*
X63511975Y-25062821D01*
X63511973Y-25062814D01*
X63459023Y-24934981D01*
X63374795Y-24825214D01*
X63374794Y-24825213D01*
X63374791Y-24825209D01*
X63374786Y-24825205D01*
X63374785Y-24825204D01*
X63265018Y-24740976D01*
X63265014Y-24740974D01*
X63137185Y-24688026D01*
X63137178Y-24688024D01*
X63000003Y-24669965D01*
X62999997Y-24669965D01*
X62862821Y-24688024D01*
X62862814Y-24688026D01*
X62734981Y-24740976D01*
X62625214Y-24825204D01*
X62625204Y-24825214D01*
X62540976Y-24934981D01*
X62488026Y-25062814D01*
X62488024Y-25062821D01*
X62469965Y-25199997D01*
X62469965Y-25200002D01*
X60423366Y-25200002D01*
X60458317Y-25192398D01*
X60471196Y-25189597D01*
X60473683Y-25188989D01*
X60481373Y-25187110D01*
X60562085Y-25144100D01*
X60614889Y-25098345D01*
X60632843Y-25080754D01*
X60677490Y-25000937D01*
X60697175Y-24933898D01*
X60705500Y-24876000D01*
X60705500Y-23400002D01*
X68469965Y-23400002D01*
X68488024Y-23537178D01*
X68488026Y-23537185D01*
X68540974Y-23665014D01*
X68540976Y-23665018D01*
X68589099Y-23727733D01*
X68625209Y-23774791D01*
X68734982Y-23859024D01*
X68798899Y-23885499D01*
X68862814Y-23911973D01*
X68862821Y-23911975D01*
X68999997Y-23930035D01*
X69000000Y-23930035D01*
X69000003Y-23930035D01*
X69137178Y-23911975D01*
X69137180Y-23911974D01*
X69137183Y-23911974D01*
X69265018Y-23859024D01*
X69374791Y-23774791D01*
X69459024Y-23665018D01*
X69511974Y-23537183D01*
X69530035Y-23400000D01*
X69511974Y-23262817D01*
X69459024Y-23134983D01*
X69459023Y-23134982D01*
X69459023Y-23134981D01*
X69374795Y-23025214D01*
X69374794Y-23025213D01*
X69374791Y-23025209D01*
X69374786Y-23025205D01*
X69374785Y-23025204D01*
X69265018Y-22940976D01*
X69265014Y-22940974D01*
X69137185Y-22888026D01*
X69137178Y-22888024D01*
X69000003Y-22869965D01*
X68999997Y-22869965D01*
X68862821Y-22888024D01*
X68862814Y-22888026D01*
X68734981Y-22940976D01*
X68625214Y-23025204D01*
X68625204Y-23025214D01*
X68540976Y-23134981D01*
X68488026Y-23262814D01*
X68488024Y-23262821D01*
X68469965Y-23399997D01*
X68469965Y-23400002D01*
X60705500Y-23400002D01*
X60705500Y-22064500D01*
X60726317Y-22000431D01*
X60780817Y-21960835D01*
X60814500Y-21955500D01*
X67685501Y-21955500D01*
X67717650Y-21952970D01*
X67717649Y-21952970D01*
X67734489Y-21950302D01*
X67751331Y-21947635D01*
X67755875Y-21946863D01*
X67839972Y-21910919D01*
X67839975Y-21910917D01*
X67845295Y-21907899D01*
X67846839Y-21910620D01*
X67899146Y-21893536D01*
X67955217Y-21908964D01*
X67971561Y-21918729D01*
X67981431Y-21924626D01*
X68045493Y-21945441D01*
X68045496Y-21945441D01*
X68045498Y-21945442D01*
X68109000Y-21955500D01*
X71885500Y-21955500D01*
X71949569Y-21976317D01*
X71989165Y-22030817D01*
X71994500Y-22064500D01*
X71994500Y-23692942D01*
X71997467Y-23727733D01*
X72003720Y-23764127D01*
X72005082Y-23771295D01*
X72005083Y-23771297D01*
X72005084Y-23771299D01*
X72043218Y-23854426D01*
X72084228Y-23907871D01*
X72084233Y-23907876D01*
X72084235Y-23907879D01*
X72109185Y-23934970D01*
X72109187Y-23934971D01*
X72127030Y-23945008D01*
X72172665Y-23994562D01*
X72181660Y-24054237D01*
X72162699Y-24198264D01*
X72180758Y-24335439D01*
X72180760Y-24335446D01*
X72233710Y-24463280D01*
X72241747Y-24473754D01*
X72264234Y-24537256D01*
X72245100Y-24601847D01*
X72221628Y-24626582D01*
X72176606Y-24661129D01*
X72176598Y-24661137D01*
X72092370Y-24770904D01*
X72039420Y-24898737D01*
X72039418Y-24898744D01*
X72021359Y-25035920D01*
X72021359Y-25035925D01*
X72039418Y-25173101D01*
X72039420Y-25173108D01*
X72092368Y-25300937D01*
X72092370Y-25300941D01*
X72134781Y-25356212D01*
X72176603Y-25410714D01*
X72176607Y-25410717D01*
X72176608Y-25410718D01*
X72221878Y-25445455D01*
X72286376Y-25494947D01*
X72298771Y-25500081D01*
X72349996Y-25543830D01*
X72365723Y-25609334D01*
X72343534Y-25667139D01*
X72291476Y-25734981D01*
X72238526Y-25862814D01*
X72238524Y-25862821D01*
X72220465Y-25999997D01*
X72220465Y-26000002D01*
X72238524Y-26137178D01*
X72238526Y-26137185D01*
X72291474Y-26265014D01*
X72291476Y-26265018D01*
X72368209Y-26365018D01*
X72375709Y-26374791D01*
X72485482Y-26459024D01*
X72549399Y-26485499D01*
X72613314Y-26511973D01*
X72613321Y-26511975D01*
X72750497Y-26530035D01*
X72750500Y-26530035D01*
X72750503Y-26530035D01*
X72887678Y-26511975D01*
X72887680Y-26511974D01*
X72887683Y-26511974D01*
X73015518Y-26459024D01*
X73125291Y-26374791D01*
X73209524Y-26265018D01*
X73262474Y-26137183D01*
X73267370Y-26100000D01*
X73280535Y-26000002D01*
X73280535Y-25999997D01*
X73262475Y-25862821D01*
X73262473Y-25862814D01*
X73212006Y-25740976D01*
X73209524Y-25734983D01*
X73209523Y-25734982D01*
X73209523Y-25734981D01*
X73125295Y-25625214D01*
X73125294Y-25625213D01*
X73125291Y-25625209D01*
X73125286Y-25625205D01*
X73125285Y-25625204D01*
X73015518Y-25540976D01*
X73015514Y-25540974D01*
X73003120Y-25535840D01*
X72951896Y-25492088D01*
X72936171Y-25426583D01*
X72958361Y-25368782D01*
X73010415Y-25300945D01*
X73010415Y-25300944D01*
X73010418Y-25300941D01*
X73024599Y-25266703D01*
X73068346Y-25215480D01*
X73133850Y-25199752D01*
X73142342Y-25200756D01*
X73172290Y-25205500D01*
X73172291Y-25205500D01*
X77631480Y-25205500D01*
X77695549Y-25226317D01*
X77735145Y-25280817D01*
X77735145Y-25348183D01*
X77732183Y-25356212D01*
X77688026Y-25462814D01*
X77688024Y-25462821D01*
X77669965Y-25599997D01*
X77669965Y-25600002D01*
X77688024Y-25737178D01*
X77688026Y-25737185D01*
X77740974Y-25865014D01*
X77740976Y-25865018D01*
X77816018Y-25962814D01*
X77825209Y-25974791D01*
X77825213Y-25974794D01*
X77825214Y-25974795D01*
X77858064Y-26000002D01*
X77934982Y-26059024D01*
X77944149Y-26062821D01*
X78062814Y-26111973D01*
X78062821Y-26111975D01*
X78199997Y-26130035D01*
X78200000Y-26130035D01*
X78200003Y-26130035D01*
X78337178Y-26111975D01*
X78337180Y-26111974D01*
X78337183Y-26111974D01*
X78465018Y-26059024D01*
X78574791Y-25974791D01*
X78659024Y-25865018D01*
X78711974Y-25737183D01*
X78713551Y-25725209D01*
X78730035Y-25600002D01*
X78730035Y-25599997D01*
X78711975Y-25462821D01*
X78711973Y-25462814D01*
X78667817Y-25356212D01*
X78659024Y-25334983D01*
X78659023Y-25334982D01*
X78659023Y-25334981D01*
X78574795Y-25225214D01*
X78574794Y-25225213D01*
X78574791Y-25225209D01*
X78524309Y-25186472D01*
X78486156Y-25130958D01*
X78487919Y-25063615D01*
X78524309Y-25013527D01*
X78574791Y-24974791D01*
X78659024Y-24865018D01*
X78711974Y-24737183D01*
X78719945Y-24676644D01*
X78730035Y-24600002D01*
X78730035Y-24592855D01*
X78732391Y-24592855D01*
X78742739Y-24537018D01*
X78791604Y-24490646D01*
X78795693Y-24488798D01*
X78814139Y-24480914D01*
X78845472Y-24467522D01*
X78899972Y-24427926D01*
X78927718Y-24403685D01*
X78974625Y-24325174D01*
X78995442Y-24261105D01*
X79005500Y-24197603D01*
X79005500Y-22564500D01*
X79002970Y-22532352D01*
X78997635Y-22498669D01*
X78996863Y-22494125D01*
X78960919Y-22410028D01*
X78921323Y-22355528D01*
X78897082Y-22327782D01*
X78818571Y-22280875D01*
X78818569Y-22280874D01*
X78818567Y-22280873D01*
X78754506Y-22260058D01*
X78691000Y-22250000D01*
X78800000Y-22250000D01*
X78800000Y-22110003D01*
X80064534Y-22110003D01*
X80084311Y-22260230D01*
X80084312Y-22260235D01*
X80142303Y-22400235D01*
X80234544Y-22520445D01*
X80234549Y-22520451D01*
X80234553Y-22520454D01*
X80234554Y-22520455D01*
X80250058Y-22532352D01*
X80354767Y-22612698D01*
X80494764Y-22670687D01*
X80607280Y-22685500D01*
X80607285Y-22685500D01*
X80682715Y-22685500D01*
X80682720Y-22685500D01*
X80795236Y-22670687D01*
X80935233Y-22612698D01*
X81055451Y-22520451D01*
X81147698Y-22400233D01*
X81205687Y-22260236D01*
X81205688Y-22260230D01*
X81225466Y-22110003D01*
X81225466Y-22109996D01*
X81205688Y-21959769D01*
X81205687Y-21959764D01*
X81199754Y-21945441D01*
X81147698Y-21819767D01*
X81147347Y-21819310D01*
X81055455Y-21699554D01*
X81055454Y-21699553D01*
X81055451Y-21699549D01*
X81055446Y-21699545D01*
X81055445Y-21699544D01*
X80935235Y-21607303D01*
X80795236Y-21549313D01*
X80682720Y-21534500D01*
X80607280Y-21534500D01*
X80513516Y-21546844D01*
X80494763Y-21549313D01*
X80354764Y-21607303D01*
X80234554Y-21699544D01*
X80234544Y-21699554D01*
X80142303Y-21819764D01*
X80084312Y-21959764D01*
X80084311Y-21959769D01*
X80064534Y-22109996D01*
X80064534Y-22110003D01*
X78800000Y-22110003D01*
X78800000Y-20250000D01*
X78691001Y-20250000D01*
X78723150Y-20247470D01*
X78723149Y-20247470D01*
X78739989Y-20244802D01*
X78756831Y-20242135D01*
X78761375Y-20241363D01*
X78845472Y-20205419D01*
X78899972Y-20165823D01*
X78927718Y-20141582D01*
X78974625Y-20063071D01*
X78995442Y-19999002D01*
X79005500Y-19935500D01*
X79005500Y-19914500D01*
X79026317Y-19850431D01*
X79080817Y-19810835D01*
X79114500Y-19805500D01*
X86590500Y-19805500D01*
X86654569Y-19826317D01*
G37*
%TD.AperFunction*%
%TA.AperFunction,Conductor*%
G36*
X77250000Y-21967897D02*
G01*
X77232667Y-21933325D01*
X77232662Y-21933318D01*
X77232660Y-21933313D01*
X77228366Y-21926458D01*
X77220037Y-21910309D01*
X77193728Y-21846797D01*
X77186363Y-21819316D01*
X77179110Y-21764218D01*
X77179111Y-21735769D01*
X77186362Y-21680694D01*
X77193726Y-21653210D01*
X77212741Y-21607302D01*
X77226061Y-21575146D01*
X77237754Y-21536596D01*
X77246051Y-21494884D01*
X77250000Y-21454793D01*
X77250000Y-21967897D01*
G37*
%TD.AperFunction*%
%TA.AperFunction,Conductor*%
G36*
X77250000Y-21045208D02*
G01*
X77246051Y-21005117D01*
X77237754Y-20963405D01*
X77226061Y-20924855D01*
X77193724Y-20846787D01*
X77186364Y-20819318D01*
X77179110Y-20764218D01*
X77179110Y-20735775D01*
X77186361Y-20680692D01*
X77193726Y-20653207D01*
X77194439Y-20651483D01*
X77218666Y-20592993D01*
X77227569Y-20575939D01*
X77233123Y-20567263D01*
X77250000Y-20535185D01*
X77250000Y-21045208D01*
G37*
%TD.AperFunction*%
%TD*%
%TA.AperFunction,Conductor*%
%TO.N,IS*%
G36*
X60237539Y-12320185D02*
G01*
X60283294Y-12372989D01*
X60294500Y-12424500D01*
X60294500Y-21641002D01*
X60297029Y-21673142D01*
X60297029Y-21673143D01*
X60302364Y-21706828D01*
X60303136Y-21711371D01*
X60303137Y-21711377D01*
X60339081Y-21795473D01*
X60376577Y-21847082D01*
X60378677Y-21849972D01*
X60402918Y-21877718D01*
X60439599Y-21899633D01*
X60487052Y-21950914D01*
X60500000Y-22006081D01*
X60500000Y-24876000D01*
X60480315Y-24943039D01*
X60427511Y-24988794D01*
X60376000Y-25000000D01*
X51359500Y-25000000D01*
X51292461Y-24980315D01*
X51246706Y-24927511D01*
X51235500Y-24876000D01*
X51235500Y-18820249D01*
X51235499Y-18820247D01*
X51223868Y-18761770D01*
X51223867Y-18761769D01*
X51179552Y-18695447D01*
X51113230Y-18651132D01*
X51113229Y-18651131D01*
X51054752Y-18639500D01*
X51052080Y-18639237D01*
X51049744Y-18638504D01*
X51048774Y-18638311D01*
X51048794Y-18638206D01*
X51007363Y-18625203D01*
X51007361Y-18625209D01*
X51007302Y-18625184D01*
X51003694Y-18624052D01*
X51000939Y-18622511D01*
X51000938Y-18622510D01*
X51000937Y-18622510D01*
X50969530Y-18613288D01*
X50933903Y-18602826D01*
X50933899Y-18602825D01*
X50933898Y-18602825D01*
X50876000Y-18594500D01*
X50875996Y-18594500D01*
X41329500Y-18594500D01*
X41262461Y-18574815D01*
X41216706Y-18522011D01*
X41205500Y-18470500D01*
X41205500Y-12424500D01*
X41225185Y-12357461D01*
X41277989Y-12311706D01*
X41329500Y-12300500D01*
X60170500Y-12300500D01*
X60237539Y-12320185D01*
G37*
%TD.AperFunction*%
%TD*%
%TA.AperFunction,Conductor*%
%TO.N,VS*%
G36*
X40959191Y-12319407D02*
G01*
X40995155Y-12368907D01*
X41000000Y-12399500D01*
X41000000Y-18563392D01*
X40981093Y-18621583D01*
X40947543Y-18650769D01*
X40943212Y-18653076D01*
X40882964Y-18663746D01*
X40848340Y-18652101D01*
X40795438Y-18622510D01*
X40795437Y-18622509D01*
X40728404Y-18602826D01*
X40728395Y-18602824D01*
X40682184Y-18596180D01*
X40670500Y-18594500D01*
X31124000Y-18594500D01*
X31092797Y-18597855D01*
X31080314Y-18599197D01*
X31028806Y-18610402D01*
X31018629Y-18612889D01*
X31018622Y-18612892D01*
X30990517Y-18627869D01*
X30949986Y-18637994D01*
X30950088Y-18639024D01*
X30945241Y-18639501D01*
X30886772Y-18651132D01*
X30886766Y-18651134D01*
X30820451Y-18695445D01*
X30820445Y-18695451D01*
X30776134Y-18761766D01*
X30776132Y-18761772D01*
X30764501Y-18820241D01*
X30764500Y-18820253D01*
X30764500Y-24901000D01*
X30745593Y-24959191D01*
X30696093Y-24995155D01*
X30665500Y-25000000D01*
X12399500Y-25000000D01*
X12341309Y-24981093D01*
X12305345Y-24931593D01*
X12300500Y-24901000D01*
X12300500Y-18719746D01*
X13549500Y-18719746D01*
X13549501Y-18719758D01*
X13561132Y-18778227D01*
X13561134Y-18778233D01*
X13594926Y-18828805D01*
X13605448Y-18844552D01*
X13671769Y-18888867D01*
X13716231Y-18897711D01*
X13730241Y-18900498D01*
X13730246Y-18900498D01*
X13730252Y-18900500D01*
X13730253Y-18900500D01*
X15769747Y-18900500D01*
X15769748Y-18900500D01*
X15828231Y-18888867D01*
X15894552Y-18844552D01*
X15938867Y-18778231D01*
X15950500Y-18719748D01*
X15950500Y-17780252D01*
X15938867Y-17721769D01*
X15894552Y-17655448D01*
X15894548Y-17655445D01*
X15828233Y-17611134D01*
X15828231Y-17611133D01*
X15828228Y-17611132D01*
X15828227Y-17611132D01*
X15769758Y-17599501D01*
X15769748Y-17599500D01*
X13730252Y-17599500D01*
X13730251Y-17599500D01*
X13730241Y-17599501D01*
X13671772Y-17611132D01*
X13671766Y-17611134D01*
X13605451Y-17655445D01*
X13605445Y-17655451D01*
X13561134Y-17721766D01*
X13561132Y-17721772D01*
X13549501Y-17780241D01*
X13549500Y-17780253D01*
X13549500Y-18719746D01*
X12300500Y-18719746D01*
X12300500Y-12399500D01*
X12319407Y-12341309D01*
X12368907Y-12305345D01*
X12399500Y-12300500D01*
X40901000Y-12300500D01*
X40959191Y-12319407D01*
G37*
%TD.AperFunction*%
%TD*%
%TA.AperFunction,Conductor*%
%TO.N,/COM_S*%
G36*
X71997363Y-12321317D02*
G01*
X72036959Y-12375817D01*
X72042292Y-12410086D01*
X72036568Y-13474521D01*
X72028274Y-13515646D01*
X71988025Y-13612817D01*
X71988024Y-13612821D01*
X71969965Y-13749997D01*
X71969965Y-13750002D01*
X71988024Y-13887177D01*
X71988025Y-13887181D01*
X72025343Y-13977277D01*
X72033637Y-14019574D01*
X72025674Y-15500822D01*
X72017380Y-15541947D01*
X71988025Y-15612817D01*
X71988024Y-15612821D01*
X71969965Y-15749997D01*
X71969965Y-15750002D01*
X71988024Y-15887178D01*
X71988027Y-15887188D01*
X72014728Y-15951651D01*
X72023023Y-15993948D01*
X71994500Y-21299448D01*
X71994500Y-21641000D01*
X71973683Y-21705069D01*
X71919183Y-21744665D01*
X71885500Y-21750000D01*
X68109000Y-21750000D01*
X68044931Y-21729183D01*
X68005335Y-21674683D01*
X68000000Y-21641000D01*
X68000000Y-15937772D01*
X68008298Y-15896058D01*
X68011973Y-15887185D01*
X68011975Y-15887178D01*
X68030035Y-15750002D01*
X68030035Y-15749997D01*
X68011975Y-15612822D01*
X68011974Y-15612819D01*
X68011974Y-15612817D01*
X68008297Y-15603939D01*
X68000000Y-15562228D01*
X68000000Y-13937772D01*
X68008298Y-13896058D01*
X68011973Y-13887185D01*
X68011975Y-13887178D01*
X68030035Y-13750002D01*
X68030035Y-13749997D01*
X68011975Y-13612822D01*
X68011974Y-13612819D01*
X68011974Y-13612817D01*
X68008297Y-13603939D01*
X68000000Y-13562228D01*
X68000000Y-12409500D01*
X68020817Y-12345431D01*
X68075317Y-12305835D01*
X68109000Y-12300500D01*
X71933294Y-12300500D01*
X71997363Y-12321317D01*
G37*
%TD.AperFunction*%
%TD*%
%TA.AperFunction,Conductor*%
%TO.N,VD*%
G36*
X67749569Y-12321317D02*
G01*
X67789165Y-12375817D01*
X67794500Y-12409500D01*
X67794500Y-13562227D01*
X67798448Y-13602320D01*
X67798449Y-13602328D01*
X67806744Y-13644024D01*
X67806750Y-13644048D01*
X67807802Y-13647518D01*
X67811558Y-13664914D01*
X67820887Y-13735766D01*
X67820888Y-13764222D01*
X67811559Y-13835085D01*
X67807803Y-13852480D01*
X67806748Y-13855958D01*
X67806746Y-13855965D01*
X67801991Y-13879871D01*
X67798449Y-13897678D01*
X67798449Y-13897681D01*
X67798446Y-13897696D01*
X67794500Y-13937773D01*
X67794500Y-15562227D01*
X67798448Y-15602320D01*
X67798449Y-15602328D01*
X67806744Y-15644024D01*
X67806750Y-15644048D01*
X67807802Y-15647518D01*
X67811558Y-15664914D01*
X67820887Y-15735766D01*
X67820888Y-15764222D01*
X67811559Y-15835085D01*
X67807803Y-15852480D01*
X67806748Y-15855958D01*
X67806746Y-15855965D01*
X67803356Y-15873011D01*
X67798449Y-15897678D01*
X67798449Y-15897681D01*
X67798446Y-15897696D01*
X67794500Y-15937773D01*
X67794500Y-21641000D01*
X67773683Y-21705069D01*
X67719183Y-21744665D01*
X67685500Y-21750000D01*
X60609000Y-21750000D01*
X60544931Y-21729183D01*
X60505335Y-21674683D01*
X60500000Y-21641000D01*
X60500000Y-12409500D01*
X60520817Y-12345431D01*
X60575317Y-12305835D01*
X60609000Y-12300500D01*
X67685500Y-12300500D01*
X67749569Y-12321317D01*
G37*
%TD.AperFunction*%
%TD*%
%TA.AperFunction,Conductor*%
%TO.N,/VBUS*%
G36*
X86654569Y-12321317D02*
G01*
X86694165Y-12375817D01*
X86699500Y-12409500D01*
X86699500Y-19491000D01*
X86678683Y-19555069D01*
X86624183Y-19594665D01*
X86590500Y-19600000D01*
X78800000Y-19600000D01*
X78800000Y-19600001D01*
X78800000Y-19935500D01*
X78779183Y-19999569D01*
X78724683Y-20039165D01*
X78691000Y-20044500D01*
X77541113Y-20044500D01*
X77533048Y-20044817D01*
X77511977Y-20046475D01*
X77434806Y-20068239D01*
X77434800Y-20068241D01*
X77374781Y-20098822D01*
X77322774Y-20136607D01*
X77322760Y-20136619D01*
X77228261Y-20231117D01*
X77133761Y-20325618D01*
X77128696Y-20331098D01*
X77128281Y-20331547D01*
X77114553Y-20347619D01*
X77075377Y-20417574D01*
X77068439Y-20438924D01*
X77051255Y-20471585D01*
X77040976Y-20484981D01*
X76988026Y-20612814D01*
X76988024Y-20612821D01*
X76969965Y-20749997D01*
X76969965Y-20750002D01*
X76988024Y-20887178D01*
X76988026Y-20887185D01*
X77036203Y-21003496D01*
X77044500Y-21045208D01*
X77044500Y-21454793D01*
X77036203Y-21496505D01*
X76988026Y-21612814D01*
X76988024Y-21612821D01*
X76969965Y-21749997D01*
X76969965Y-21750002D01*
X76988024Y-21887178D01*
X76988026Y-21887185D01*
X77040974Y-22015014D01*
X77040978Y-22015021D01*
X77048961Y-22025425D01*
X77067389Y-22062182D01*
X77068236Y-22065186D01*
X77068241Y-22065199D01*
X77098822Y-22125218D01*
X77136607Y-22177225D01*
X77136611Y-22177230D01*
X77136615Y-22177235D01*
X77136620Y-22177240D01*
X77294908Y-22335530D01*
X77297938Y-22338479D01*
X77328934Y-22360076D01*
X77352821Y-22376719D01*
X77352824Y-22376720D01*
X77352830Y-22376724D01*
X77413624Y-22405721D01*
X77413626Y-22405722D01*
X77475265Y-22423980D01*
X77475272Y-22423982D01*
X77585075Y-22438437D01*
X77602492Y-22442200D01*
X77605956Y-22443251D01*
X77605959Y-22443251D01*
X77605964Y-22443253D01*
X77647678Y-22451551D01*
X77647692Y-22451552D01*
X77647696Y-22451553D01*
X77669158Y-22453666D01*
X77687772Y-22455500D01*
X77687774Y-22455500D01*
X78691000Y-22455500D01*
X78755069Y-22476317D01*
X78794665Y-22530817D01*
X78800000Y-22564500D01*
X78800000Y-24197603D01*
X78779183Y-24261672D01*
X78724683Y-24301268D01*
X78657317Y-24301268D01*
X78604525Y-24263959D01*
X78602770Y-24261672D01*
X78574791Y-24225209D01*
X78574786Y-24225205D01*
X78574785Y-24225204D01*
X78465018Y-24140976D01*
X78465014Y-24140974D01*
X78337185Y-24088026D01*
X78337178Y-24088024D01*
X78200003Y-24069965D01*
X78199997Y-24069965D01*
X78062821Y-24088024D01*
X78062814Y-24088026D01*
X77934981Y-24140976D01*
X77825214Y-24225204D01*
X77825204Y-24225214D01*
X77740976Y-24334981D01*
X77688026Y-24462814D01*
X77688024Y-24462821D01*
X77669965Y-24599997D01*
X77669965Y-24600002D01*
X77688024Y-24737178D01*
X77688026Y-24737185D01*
X77734460Y-24849288D01*
X77739745Y-24916446D01*
X77704546Y-24973885D01*
X77642308Y-24999664D01*
X77633757Y-25000000D01*
X73172290Y-25000000D01*
X73108221Y-24979183D01*
X73068625Y-24924683D01*
X73064223Y-24905230D01*
X73063368Y-24898743D01*
X73063367Y-24898737D01*
X73010419Y-24770908D01*
X73010418Y-24770907D01*
X73010418Y-24770906D01*
X73002380Y-24760431D01*
X72979892Y-24696934D01*
X72999023Y-24632341D01*
X73022495Y-24607605D01*
X73067525Y-24573052D01*
X73151758Y-24463279D01*
X73204708Y-24335444D01*
X73209208Y-24301268D01*
X73222769Y-24198263D01*
X73222769Y-24198258D01*
X73204709Y-24061082D01*
X73204707Y-24061075D01*
X73151757Y-23933242D01*
X73067529Y-23823475D01*
X73067528Y-23823474D01*
X73067525Y-23823470D01*
X73067520Y-23823466D01*
X73067519Y-23823465D01*
X72957752Y-23739237D01*
X72957748Y-23739235D01*
X72829919Y-23686287D01*
X72829912Y-23686285D01*
X72692737Y-23668226D01*
X72692731Y-23668226D01*
X72555555Y-23686285D01*
X72555548Y-23686287D01*
X72427718Y-23739236D01*
X72375355Y-23779416D01*
X72311853Y-23801903D01*
X72247262Y-23782770D01*
X72206252Y-23729325D01*
X72200000Y-23692940D01*
X72200000Y-21300000D01*
X72202957Y-20749997D01*
X72247801Y-12408912D01*
X72268962Y-12344958D01*
X72323674Y-12305655D01*
X72356799Y-12300500D01*
X86590500Y-12300500D01*
X86654569Y-12321317D01*
G37*
%TD.AperFunction*%
%TD*%
%TA.AperFunction,Conductor*%
%TO.N,VS*%
G36*
X18343039Y-44019685D02*
G01*
X18388794Y-44072489D01*
X18400000Y-44124000D01*
X18400000Y-45685058D01*
X18380315Y-45752097D01*
X18374376Y-45760544D01*
X18316475Y-45836001D01*
X18263527Y-45963832D01*
X18263526Y-45963837D01*
X18245465Y-46101018D01*
X18245465Y-46101019D01*
X18263526Y-46238200D01*
X18263527Y-46238205D01*
X18316475Y-46366035D01*
X18316476Y-46366037D01*
X18374375Y-46441491D01*
X18399570Y-46506659D01*
X18400000Y-46516978D01*
X18400000Y-48359539D01*
X18380315Y-48426578D01*
X18374376Y-48435025D01*
X18316475Y-48510482D01*
X18263527Y-48638313D01*
X18263526Y-48638318D01*
X18245465Y-48775499D01*
X18245465Y-48775500D01*
X18263526Y-48912681D01*
X18263527Y-48912686D01*
X18316475Y-49040516D01*
X18316476Y-49040518D01*
X18374375Y-49115972D01*
X18399570Y-49181140D01*
X18400000Y-49191459D01*
X18400000Y-50676000D01*
X18380315Y-50743039D01*
X18327511Y-50788794D01*
X18276000Y-50800000D01*
X16924000Y-50800000D01*
X16856961Y-50780315D01*
X16811206Y-50727511D01*
X16800000Y-50676000D01*
X16800000Y-44124000D01*
X16819685Y-44056961D01*
X16872489Y-44011206D01*
X16924000Y-44000000D01*
X18276000Y-44000000D01*
X18343039Y-44019685D01*
G37*
%TD.AperFunction*%
%TD*%
%TA.AperFunction,Conductor*%
%TO.N,SW2*%
G36*
X50943039Y-18819685D02*
G01*
X50988794Y-18872489D01*
X51000000Y-18924000D01*
X51000000Y-31076000D01*
X50980315Y-31143039D01*
X50927511Y-31188794D01*
X50876000Y-31200000D01*
X43038779Y-31200000D01*
X42971740Y-31180315D01*
X42925985Y-31127511D01*
X42915840Y-31092185D01*
X42911974Y-31062817D01*
X42859024Y-30934983D01*
X42774791Y-30825209D01*
X42774789Y-30825208D01*
X42774789Y-30825207D01*
X42665015Y-30740974D01*
X42537186Y-30688027D01*
X42537184Y-30688026D01*
X42537183Y-30688026D01*
X42445727Y-30675985D01*
X42400001Y-30669965D01*
X42399999Y-30669965D01*
X42331408Y-30678995D01*
X42262817Y-30688026D01*
X42262816Y-30688026D01*
X42262813Y-30688027D01*
X42134984Y-30740974D01*
X42134982Y-30740976D01*
X42055669Y-30801835D01*
X41990500Y-30827029D01*
X41922055Y-30812990D01*
X41872065Y-30764176D01*
X41865611Y-30750885D01*
X41864928Y-30749235D01*
X41855500Y-30701809D01*
X41855500Y-30098189D01*
X41864939Y-30050737D01*
X41911974Y-29937183D01*
X41930035Y-29800000D01*
X41911974Y-29662817D01*
X41864937Y-29549260D01*
X41855500Y-29501809D01*
X41855500Y-28898189D01*
X41864939Y-28850737D01*
X41911974Y-28737183D01*
X41930035Y-28600000D01*
X41911974Y-28462817D01*
X41864937Y-28349260D01*
X41855500Y-28301809D01*
X41855500Y-27698189D01*
X41864939Y-27650737D01*
X41911974Y-27537183D01*
X41930035Y-27400000D01*
X41911974Y-27262817D01*
X41864937Y-27149260D01*
X41855500Y-27101809D01*
X41855500Y-25698189D01*
X41864939Y-25650737D01*
X41911974Y-25537183D01*
X41930035Y-25400000D01*
X41911974Y-25262817D01*
X41864937Y-25149260D01*
X41855500Y-25101809D01*
X41855500Y-25047759D01*
X41854671Y-25034724D01*
X41853455Y-25025209D01*
X41849859Y-24997065D01*
X41822298Y-24917495D01*
X41786389Y-24857560D01*
X41749494Y-24812174D01*
X41519639Y-24600000D01*
X42869965Y-24600000D01*
X42888026Y-24737181D01*
X42888027Y-24737186D01*
X42940974Y-24865015D01*
X42940975Y-24865017D01*
X42940976Y-24865018D01*
X43025209Y-24974791D01*
X43134982Y-25059024D01*
X43262817Y-25111974D01*
X43385702Y-25128152D01*
X43399999Y-25130035D01*
X43400000Y-25130035D01*
X43400001Y-25130035D01*
X43412947Y-25128330D01*
X43537183Y-25111974D01*
X43665018Y-25059024D01*
X43774791Y-24974791D01*
X43859024Y-24865018D01*
X43911974Y-24737183D01*
X43930035Y-24600000D01*
X43911974Y-24462817D01*
X43871259Y-24364521D01*
X43859025Y-24334985D01*
X43859024Y-24334984D01*
X43859024Y-24334983D01*
X43774791Y-24225209D01*
X43774789Y-24225208D01*
X43774789Y-24225207D01*
X43665015Y-24140974D01*
X43537186Y-24088027D01*
X43537184Y-24088026D01*
X43537183Y-24088026D01*
X43445727Y-24075985D01*
X43400001Y-24069965D01*
X43399999Y-24069965D01*
X43331408Y-24078995D01*
X43262817Y-24088026D01*
X43262816Y-24088026D01*
X43262813Y-24088027D01*
X43134985Y-24140974D01*
X43025209Y-24225209D01*
X42940974Y-24334985D01*
X42888027Y-24462813D01*
X42888026Y-24462818D01*
X42869965Y-24599999D01*
X42869965Y-24600000D01*
X41519639Y-24600000D01*
X41346278Y-24439975D01*
X41342195Y-24436323D01*
X41290571Y-24402572D01*
X41290569Y-24402571D01*
X41290566Y-24402569D01*
X41227018Y-24373548D01*
X41203550Y-24364521D01*
X41203546Y-24364520D01*
X41113893Y-24357189D01*
X41048681Y-24332106D01*
X41007382Y-24275748D01*
X41000000Y-24233602D01*
X41000000Y-24168153D01*
X41019685Y-24101114D01*
X41058599Y-24064009D01*
X41058570Y-24063971D01*
X41058926Y-24063697D01*
X41062003Y-24060764D01*
X41065008Y-24059027D01*
X41065018Y-24059024D01*
X41174791Y-23974791D01*
X41259024Y-23865018D01*
X41311974Y-23737183D01*
X41330035Y-23600000D01*
X41311974Y-23462817D01*
X41259024Y-23334983D01*
X41174791Y-23225209D01*
X41174789Y-23225208D01*
X41174789Y-23225207D01*
X41065011Y-23140971D01*
X41061995Y-23139230D01*
X41059960Y-23137095D01*
X41058570Y-23136029D01*
X41058736Y-23135812D01*
X41013782Y-23088661D01*
X41000000Y-23031846D01*
X41000000Y-18924000D01*
X41019685Y-18856961D01*
X41072489Y-18811206D01*
X41124000Y-18800000D01*
X50876000Y-18800000D01*
X50943039Y-18819685D01*
G37*
%TD.AperFunction*%
%TD*%
%TA.AperFunction,Conductor*%
%TO.N,GND*%
G36*
X78755069Y-20270817D02*
G01*
X78794665Y-20325317D01*
X78800000Y-20359000D01*
X78800000Y-22141000D01*
X78779183Y-22205069D01*
X78724683Y-22244665D01*
X78691000Y-22250000D01*
X77687772Y-22250000D01*
X77646058Y-22241702D01*
X77637185Y-22238026D01*
X77637178Y-22238024D01*
X77502095Y-22220240D01*
X77441292Y-22191238D01*
X77439248Y-22189248D01*
X77281925Y-22031925D01*
X77251342Y-21971901D01*
X77250000Y-21954850D01*
X77250000Y-20545150D01*
X77270817Y-20481081D01*
X77281925Y-20468075D01*
X77468075Y-20281925D01*
X77528099Y-20251342D01*
X77545150Y-20250000D01*
X78691000Y-20250000D01*
X78755069Y-20270817D01*
G37*
%TD.AperFunction*%
%TD*%
%TA.AperFunction,Conductor*%
%TO.N,LS*%
G36*
X40737539Y-18819685D02*
G01*
X40783294Y-18872489D01*
X40794500Y-18924000D01*
X40794500Y-22961944D01*
X40774815Y-23028983D01*
X40722011Y-23074738D01*
X40686689Y-23084883D01*
X40662816Y-23088026D01*
X40662813Y-23088027D01*
X40534985Y-23140974D01*
X40425209Y-23225209D01*
X40340974Y-23334985D01*
X40288027Y-23462813D01*
X40288026Y-23462818D01*
X40269965Y-23599999D01*
X40269965Y-23600000D01*
X40288026Y-23737181D01*
X40288027Y-23737186D01*
X40340974Y-23865015D01*
X40340975Y-23865017D01*
X40340976Y-23865018D01*
X40425209Y-23974791D01*
X40534982Y-24059024D01*
X40662817Y-24111974D01*
X40686761Y-24115126D01*
X40750658Y-24143392D01*
X40789130Y-24201716D01*
X40794461Y-24232692D01*
X40794500Y-24233602D01*
X40797582Y-24269056D01*
X40800942Y-24288237D01*
X40804963Y-24311199D01*
X40805335Y-24313265D01*
X40841621Y-24397212D01*
X40841622Y-24397213D01*
X40841623Y-24397215D01*
X40882922Y-24453573D01*
X40892435Y-24465015D01*
X40898996Y-24472905D01*
X40951257Y-24508017D01*
X40974907Y-24523907D01*
X41000000Y-24533558D01*
X41000000Y-31200000D01*
X36038779Y-31200000D01*
X35971740Y-31180315D01*
X35925985Y-31127511D01*
X35915840Y-31092185D01*
X35911974Y-31062817D01*
X35859024Y-30934983D01*
X35774791Y-30825209D01*
X35774789Y-30825208D01*
X35774789Y-30825207D01*
X35665015Y-30740974D01*
X35537186Y-30688027D01*
X35537184Y-30688026D01*
X35537183Y-30688026D01*
X35445727Y-30675985D01*
X35400001Y-30669965D01*
X35399999Y-30669965D01*
X35331408Y-30678995D01*
X35262817Y-30688026D01*
X35262816Y-30688026D01*
X35262813Y-30688027D01*
X35134985Y-30740974D01*
X35025209Y-30825209D01*
X34940974Y-30934985D01*
X34888027Y-31062813D01*
X34888026Y-31062816D01*
X34888026Y-31062817D01*
X34886291Y-31076000D01*
X34884160Y-31092185D01*
X34855894Y-31156081D01*
X34797570Y-31194553D01*
X34761221Y-31200000D01*
X31124000Y-31200000D01*
X31056961Y-31180315D01*
X31011206Y-31127511D01*
X31000000Y-31076000D01*
X31000000Y-24200000D01*
X34784465Y-24200000D01*
X34799105Y-24311202D01*
X34802526Y-24337181D01*
X34802527Y-24337186D01*
X34855474Y-24465015D01*
X34855475Y-24465017D01*
X34855476Y-24465018D01*
X34939709Y-24574791D01*
X35049482Y-24659024D01*
X35177317Y-24711974D01*
X35300202Y-24728152D01*
X35314499Y-24730035D01*
X35314500Y-24730035D01*
X35314501Y-24730035D01*
X35327447Y-24728330D01*
X35451683Y-24711974D01*
X35579518Y-24659024D01*
X35689291Y-24574791D01*
X35773524Y-24465018D01*
X35826474Y-24337183D01*
X35844535Y-24200000D01*
X35826474Y-24062817D01*
X35773524Y-23934983D01*
X35689291Y-23825209D01*
X35689289Y-23825208D01*
X35689289Y-23825207D01*
X35579515Y-23740974D01*
X35451686Y-23688027D01*
X35451684Y-23688026D01*
X35451683Y-23688026D01*
X35360227Y-23675985D01*
X35314501Y-23669965D01*
X35314499Y-23669965D01*
X35245908Y-23678995D01*
X35177317Y-23688026D01*
X35177316Y-23688026D01*
X35177313Y-23688027D01*
X35049485Y-23740974D01*
X34939709Y-23825209D01*
X34855474Y-23934985D01*
X34802527Y-24062813D01*
X34802526Y-24062816D01*
X34802526Y-24062817D01*
X34784465Y-24200000D01*
X31000000Y-24200000D01*
X31000000Y-18924000D01*
X31019685Y-18856961D01*
X31072489Y-18811206D01*
X31124000Y-18800000D01*
X40670500Y-18800000D01*
X40737539Y-18819685D01*
G37*
%TD.AperFunction*%
%TD*%
%TA.AperFunction,Conductor*%
%TO.N,LS*%
G36*
X41205203Y-24589501D02*
G01*
X41208080Y-24592074D01*
X41610107Y-24963176D01*
X41646016Y-25023111D01*
X41650000Y-25054291D01*
X41650000Y-31076000D01*
X41630315Y-31143039D01*
X41577511Y-31188794D01*
X41526000Y-31200000D01*
X41124000Y-31200000D01*
X41056961Y-31180315D01*
X41011206Y-31127511D01*
X41000000Y-31076000D01*
X41000000Y-24683214D01*
X41019685Y-24616175D01*
X41072489Y-24570420D01*
X41141647Y-24560476D01*
X41205203Y-24589501D01*
G37*
%TD.AperFunction*%
%TD*%
M02*
