M48
; DRILL file {KiCad 7.0.8} date Fri Apr 26 14:47:46 2024
; FORMAT={-:-/ absolute / inch / decimal}
; #@! TF.CreationDate,2024-04-26T14:47:46-04:00
; #@! TF.GenerationSoftware,Kicad,Pcbnew,7.0.8
; #@! TF.FileFunction,Plated,1,4,PTH
FMAT,2
INCH
; #@! TA.AperFunction,Plated,PTH,ViaDrill
T1C0.0138
; #@! TA.AperFunction,Plated,PTH,ComponentDrill
T2C0.0236
; #@! TA.AperFunction,Plated,PTH,ComponentDrill
T3C0.1063
%
G90
G05
T1
X0.5217Y-0.5413
X0.5217Y-0.6201
X0.5217Y-0.7776
X0.5217Y-0.8563
X0.5217Y-0.935
X0.5217Y-1.0236
X0.5217Y-1.1024
X0.5217Y-1.1811
X0.5217Y-1.3386
X0.5217Y-1.4173
X0.5354Y-1.8346
X0.5354Y-1.9213
X0.5354Y-1.9843
X0.6004Y-0.5413
X0.6004Y-0.6201
X0.6004Y-0.7776
X0.6004Y-0.8563
X0.6004Y-0.935
X0.6004Y-1.0236
X0.6004Y-1.1024
X0.6004Y-1.1811
X0.6004Y-1.3386
X0.6004Y-1.4173
X0.6772Y-1.7953
X0.6772Y-1.937
X0.6791Y-0.5413
X0.6791Y-0.6201
X0.6791Y-0.6988
X0.6791Y-0.7776
X0.6791Y-0.8563
X0.6791Y-0.935
X0.6791Y-1.0236
X0.6791Y-1.1024
X0.6791Y-1.1811
X0.6791Y-1.2598
X0.6791Y-1.3386
X0.6791Y-1.4173
X0.7083Y-1.7956
X0.7087Y-1.937
X0.7392Y-1.815
X0.7392Y-1.9203
X0.7579Y-0.5413
X0.7579Y-0.6201
X0.7579Y-0.6988
X0.7579Y-0.935
X0.7579Y-1.0236
X0.7579Y-1.2598
X0.7579Y-1.3386
X0.7579Y-1.4173
X0.8031Y-1.7087
X0.8031Y-1.7402
X0.8031Y-1.7717
X0.8031Y-1.9695
X0.8031Y-2.0
X0.8366Y-0.5413
X0.8366Y-0.6201
X0.8366Y-0.6988
X0.8366Y-0.935
X0.8366Y-1.0236
X0.8366Y-1.2598
X0.8366Y-1.3386
X0.8366Y-1.4173
X0.9154Y-0.5413
X0.9154Y-0.6201
X0.9154Y-0.6988
X0.9154Y-0.7776
X0.9154Y-0.8563
X0.9154Y-0.935
X0.9154Y-1.0236
X0.9154Y-1.1024
X0.9154Y-1.1811
X0.9154Y-1.2598
X0.9154Y-1.3386
X0.9154Y-1.4173
X0.9213Y-1.7402
X0.9213Y-1.8661
X0.9213Y-1.9921
X0.9764Y-1.7087
X0.9941Y-0.5413
X0.9941Y-0.6201
X0.9941Y-0.6988
X0.9941Y-1.0236
X0.9941Y-1.1024
X0.9941Y-1.1811
X0.9941Y-1.2598
X0.9941Y-1.3386
X0.9941Y-1.4173
X1.063Y-1.4488
X1.063Y-1.5197
X1.0728Y-0.5413
X1.0728Y-0.6201
X1.0728Y-0.6988
X1.0728Y-0.7776
X1.0728Y-0.8563
X1.0728Y-1.0236
X1.0728Y-1.1024
X1.0728Y-1.1811
X1.0728Y-1.2598
X1.0728Y-1.3386
X1.0787Y-1.5906
X1.1181Y-1.6299
X1.1516Y-0.5413
X1.1516Y-0.6201
X1.1516Y-0.6988
X1.1516Y-0.7776
X1.1516Y-0.8563
X1.1516Y-1.0236
X1.1516Y-1.1024
X1.1516Y-1.1811
X1.1516Y-1.2598
X1.2303Y-0.5413
X1.2303Y-0.6201
X1.2303Y-0.6988
X1.2303Y-1.2598
X1.2362Y-1.8583
X1.2362Y-1.9213
X1.2441Y-1.4882
X1.3091Y-0.5413
X1.3091Y-0.6201
X1.3091Y-0.6988
X1.3091Y-1.3386
X1.3543Y-1.9272
X1.3878Y-0.5413
X1.3878Y-0.6201
X1.3878Y-0.6988
X1.3878Y-1.2795
X1.3878Y-1.3386
X1.3903Y-0.9528
X1.3937Y-1.2283
X1.3937Y-1.5748
X1.3937Y-1.6142
X1.3937Y-1.6535
X1.4075Y-1.8406
X1.4665Y-0.5413
X1.4665Y-0.6201
X1.4665Y-0.6988
X1.4665Y-1.2598
X1.4665Y-1.3386
X1.4754Y-1.8843
X1.5453Y-0.5413
X1.5453Y-0.6201
X1.5453Y-0.6988
X1.5827Y-1.0
X1.5827Y-1.0787
X1.5827Y-1.126
X1.5827Y-1.1732
X1.5827Y-1.2205
X1.6063Y-0.9291
X1.6063Y-1.0394
X1.6063Y-1.1024
X1.6063Y-1.1496
X1.6063Y-1.1969
X1.624Y-1.2598
X1.624Y-1.3386
X1.6299Y-1.0
X1.6299Y-1.0787
X1.6299Y-1.126
X1.6299Y-1.1732
X1.6299Y-1.2205
X1.6535Y-1.9606
X1.6614Y-0.7953
X1.6614Y-0.8583
X1.6614Y-0.9685
X1.6693Y-1.1024
X1.6693Y-1.1654
X1.6693Y-1.2283
X1.685Y-1.0
X1.6929Y-0.5413
X1.6929Y-0.6201
X1.6929Y-0.6988
X1.6929Y-1.9843
X1.7028Y-1.2598
X1.7028Y-1.3386
X1.7087Y-0.9685
X1.73Y-1.8087
X1.7313Y-1.7717
X1.7323Y-1.0
X1.748Y-1.5748
X1.748Y-1.6176
X1.748Y-1.6943
X1.7559Y-0.9685
X1.7717Y-0.5413
X1.7717Y-0.6201
X1.7717Y-0.6988
X1.7795Y-1.0
X1.7899Y-2.0187
X1.7913Y-1.2598
X1.7913Y-1.3386
X1.8031Y-0.9685
X1.8268Y-1.0
X1.8346Y-0.9291
X1.8346Y-1.0394
X1.8504Y-0.5413
X1.8504Y-0.6201
X1.8504Y-0.6988
X1.8504Y-0.9685
X1.8701Y-1.3386
X1.8976Y-1.4882
X1.939Y-0.5413
X1.939Y-0.6201
X1.939Y-0.6988
X2.0177Y-0.5413
X2.0177Y-0.6201
X2.0177Y-0.6988
X2.0177Y-1.2598
X2.0709Y-1.4488
X2.0709Y-1.5197
X2.0965Y-0.5413
X2.0965Y-0.6201
X2.0965Y-0.6988
X2.0965Y-0.7776
X2.0965Y-0.8563
X2.0965Y-1.1024
X2.0965Y-1.1811
X2.0965Y-1.2598
X2.0965Y-1.3386
X2.1752Y-0.5413
X2.1752Y-0.6201
X2.1752Y-0.6988
X2.1752Y-0.7776
X2.1752Y-0.8563
X2.1752Y-1.1024
X2.1752Y-1.1811
X2.1752Y-1.2598
X2.1752Y-1.3386
X2.2539Y-0.5413
X2.2539Y-0.6201
X2.3228Y-0.689
X2.3228Y-1.1909
X2.3228Y-1.2402
X2.3228Y-1.3287
X2.3228Y-1.378
X2.3243Y-1.2835
X2.3327Y-0.5413
X2.3327Y-0.6201
X2.3662Y-1.0276
X2.4114Y-0.5413
X2.4114Y-0.6201
X2.4114Y-0.7776
X2.4395Y-1.2835
X2.4409Y-0.689
X2.4409Y-1.1909
X2.4409Y-1.2402
X2.4409Y-1.3287
X2.4409Y-1.378
X2.4508Y-0.7382
X2.4508Y-0.8169
X2.4803Y-0.9921
X2.4902Y-0.5413
X2.4902Y-0.6201
X2.4902Y-0.6988
X2.4902Y-0.7776
X2.5689Y-0.5413
X2.5689Y-0.6201
X2.5689Y-1.25
X2.5689Y-1.3287
X2.5689Y-1.4075
X2.5816Y-1.0315
X2.587Y-0.9429
X2.5964Y-1.7158
X2.5965Y-1.6772
X2.6213Y-1.7473
X2.622Y-1.4961
X2.6362Y-1.6394
X2.6476Y-1.25
X2.6476Y-1.3287
X2.6476Y-1.4075
X2.6535Y-1.7874
X2.6575Y-0.5413
X2.6575Y-0.6201
X2.6614Y-0.8838
X2.6614Y-0.9843
X2.6614Y-1.0236
X2.6614Y-1.063
X2.6614Y-1.4803
X2.7008Y-1.4646
X2.7008Y-1.8346
X2.7165Y-0.9213
X2.7165Y-1.0472
X2.7264Y-1.25
X2.7264Y-1.3287
X2.7454Y-1.4481
X2.748Y-1.6681
X2.7564Y-1.8507
X2.7657Y-0.6496
X2.7657Y-0.6988
X2.7657Y-0.748
X2.7657Y-0.7972
X2.7719Y-0.9843
X2.7795Y-1.3543
X2.792Y-1.849
X2.8051Y-1.25
X2.8051Y-1.3287
X2.8238Y-1.5827
X2.8238Y-1.7411
X2.8268Y-1.0472
X2.8268Y-1.8504
X2.8543Y-0.5413
X2.8543Y-0.6201
X2.8564Y-0.9857
X2.8583Y-1.3543
X2.8613Y-1.8494
X2.8619Y-0.9527
X2.8642Y-1.0236
X2.883Y-1.4852
X2.8839Y-1.25
X2.8839Y-1.3287
X2.8976Y-1.6681
X2.8976Y-1.8482
X2.9196Y-1.4852
X2.9291Y-1.8482
X2.9331Y-0.5413
X2.9331Y-0.6201
X2.9606Y-1.4094
X2.9606Y-1.8661
X2.9626Y-1.25
X2.9626Y-1.3287
X2.9724Y-0.8957
X2.9724Y-0.9252
X2.9724Y-0.9547
X2.9724Y-1.0728
X2.9724Y-1.122
X3.0Y-1.5748
X3.0118Y-0.5413
X3.0118Y-0.6201
X3.0118Y-0.8957
X3.0118Y-0.9252
X3.0118Y-1.0728
X3.0118Y-1.122
X3.0315Y-1.1516
X3.0374Y-1.5748
X3.0394Y-1.4961
X3.0394Y-1.7323
X3.0394Y-1.811
X3.0413Y-1.25
X3.0413Y-1.3287
X3.0413Y-1.4075
X3.0512Y-0.8169
X3.0512Y-0.8563
X3.0512Y-0.8957
X3.0512Y-1.122
X3.0709Y-0.8366
X3.0709Y-1.1516
X3.0728Y-1.5748
X3.0787Y-0.9685
X3.0787Y-1.0079
X3.0807Y-1.0728
X3.0906Y-0.5413
X3.0906Y-0.6201
X3.0906Y-0.6988
X3.0906Y-0.8169
X3.0906Y-0.8563
X3.1201Y-1.25
X3.1201Y-1.3287
X3.1201Y-1.4075
X3.1693Y-0.5413
X3.1693Y-0.6201
X3.1693Y-0.6988
X3.1988Y-1.25
X3.1988Y-1.3287
X3.1988Y-1.4075
X3.248Y-0.5413
X3.248Y-0.6201
X3.248Y-0.6988
X3.2776Y-1.25
X3.2776Y-1.3287
X3.2776Y-1.4075
X3.2854Y-1.6348
X3.3268Y-0.5413
X3.3268Y-0.6201
X3.3268Y-0.6988
X3.3563Y-1.25
X3.3563Y-1.3287
X3.3563Y-1.4075
T3
X0.8169Y-0.8425
X0.8169Y-1.126
T2
G00X0.5591Y-0.7185
M15
G01X0.6024Y-0.7185
M16
G05
G00X0.5591Y-1.25
M15
G01X0.6024Y-1.25
M16
G05
G00X3.1337Y-0.8142
M15
G01X3.177Y-0.8142
M16
G05
G00X3.1337Y-1.1543
M15
G01X3.177Y-1.1543
M16
G05
G00X3.3041Y-0.8142
M15
G01X3.3356Y-0.8142
M16
G05
G00X3.3041Y-1.1543
M15
G01X3.3356Y-1.1543
M16
G05
T0
M30
