%TF.GenerationSoftware,KiCad,Pcbnew,7.0.8*%
%TF.CreationDate,2024-04-29T01:12:31-04:00*%
%TF.ProjectId,PD Charger,50442043-6861-4726-9765-722e6b696361,rev?*%
%TF.SameCoordinates,Original*%
%TF.FileFunction,Legend,Bot*%
%TF.FilePolarity,Positive*%
%FSLAX46Y46*%
G04 Gerber Fmt 4.6, Leading zero omitted, Abs format (unit mm)*
G04 Created by KiCad (PCBNEW 7.0.8) date 2024-04-29 01:12:31*
%MOMM*%
%LPD*%
G01*
G04 APERTURE LIST*
%ADD10C,0.150000*%
%ADD11C,0.120000*%
G04 APERTURE END LIST*
D10*
X57166666Y-33359580D02*
X57214285Y-33407200D01*
X57214285Y-33407200D02*
X57357142Y-33454819D01*
X57357142Y-33454819D02*
X57452380Y-33454819D01*
X57452380Y-33454819D02*
X57595237Y-33407200D01*
X57595237Y-33407200D02*
X57690475Y-33311961D01*
X57690475Y-33311961D02*
X57738094Y-33216723D01*
X57738094Y-33216723D02*
X57785713Y-33026247D01*
X57785713Y-33026247D02*
X57785713Y-32883390D01*
X57785713Y-32883390D02*
X57738094Y-32692914D01*
X57738094Y-32692914D02*
X57690475Y-32597676D01*
X57690475Y-32597676D02*
X57595237Y-32502438D01*
X57595237Y-32502438D02*
X57452380Y-32454819D01*
X57452380Y-32454819D02*
X57357142Y-32454819D01*
X57357142Y-32454819D02*
X57214285Y-32502438D01*
X57214285Y-32502438D02*
X57166666Y-32550057D01*
X56785713Y-32550057D02*
X56738094Y-32502438D01*
X56738094Y-32502438D02*
X56642856Y-32454819D01*
X56642856Y-32454819D02*
X56404761Y-32454819D01*
X56404761Y-32454819D02*
X56309523Y-32502438D01*
X56309523Y-32502438D02*
X56261904Y-32550057D01*
X56261904Y-32550057D02*
X56214285Y-32645295D01*
X56214285Y-32645295D02*
X56214285Y-32740533D01*
X56214285Y-32740533D02*
X56261904Y-32883390D01*
X56261904Y-32883390D02*
X56833332Y-33454819D01*
X56833332Y-33454819D02*
X56214285Y-33454819D01*
X25166666Y-33359580D02*
X25214285Y-33407200D01*
X25214285Y-33407200D02*
X25357142Y-33454819D01*
X25357142Y-33454819D02*
X25452380Y-33454819D01*
X25452380Y-33454819D02*
X25595237Y-33407200D01*
X25595237Y-33407200D02*
X25690475Y-33311961D01*
X25690475Y-33311961D02*
X25738094Y-33216723D01*
X25738094Y-33216723D02*
X25785713Y-33026247D01*
X25785713Y-33026247D02*
X25785713Y-32883390D01*
X25785713Y-32883390D02*
X25738094Y-32692914D01*
X25738094Y-32692914D02*
X25690475Y-32597676D01*
X25690475Y-32597676D02*
X25595237Y-32502438D01*
X25595237Y-32502438D02*
X25452380Y-32454819D01*
X25452380Y-32454819D02*
X25357142Y-32454819D01*
X25357142Y-32454819D02*
X25214285Y-32502438D01*
X25214285Y-32502438D02*
X25166666Y-32550057D01*
X24214285Y-33454819D02*
X24785713Y-33454819D01*
X24499999Y-33454819D02*
X24499999Y-32454819D01*
X24499999Y-32454819D02*
X24595237Y-32597676D01*
X24595237Y-32597676D02*
X24690475Y-32692914D01*
X24690475Y-32692914D02*
X24785713Y-32740533D01*
X76039580Y-24357142D02*
X76087200Y-24309523D01*
X76087200Y-24309523D02*
X76134819Y-24166666D01*
X76134819Y-24166666D02*
X76134819Y-24071428D01*
X76134819Y-24071428D02*
X76087200Y-23928571D01*
X76087200Y-23928571D02*
X75991961Y-23833333D01*
X75991961Y-23833333D02*
X75896723Y-23785714D01*
X75896723Y-23785714D02*
X75706247Y-23738095D01*
X75706247Y-23738095D02*
X75563390Y-23738095D01*
X75563390Y-23738095D02*
X75372914Y-23785714D01*
X75372914Y-23785714D02*
X75277676Y-23833333D01*
X75277676Y-23833333D02*
X75182438Y-23928571D01*
X75182438Y-23928571D02*
X75134819Y-24071428D01*
X75134819Y-24071428D02*
X75134819Y-24166666D01*
X75134819Y-24166666D02*
X75182438Y-24309523D01*
X75182438Y-24309523D02*
X75230057Y-24357142D01*
X75230057Y-24738095D02*
X75182438Y-24785714D01*
X75182438Y-24785714D02*
X75134819Y-24880952D01*
X75134819Y-24880952D02*
X75134819Y-25119047D01*
X75134819Y-25119047D02*
X75182438Y-25214285D01*
X75182438Y-25214285D02*
X75230057Y-25261904D01*
X75230057Y-25261904D02*
X75325295Y-25309523D01*
X75325295Y-25309523D02*
X75420533Y-25309523D01*
X75420533Y-25309523D02*
X75563390Y-25261904D01*
X75563390Y-25261904D02*
X76134819Y-24690476D01*
X76134819Y-24690476D02*
X76134819Y-25309523D01*
X75230057Y-25690476D02*
X75182438Y-25738095D01*
X75182438Y-25738095D02*
X75134819Y-25833333D01*
X75134819Y-25833333D02*
X75134819Y-26071428D01*
X75134819Y-26071428D02*
X75182438Y-26166666D01*
X75182438Y-26166666D02*
X75230057Y-26214285D01*
X75230057Y-26214285D02*
X75325295Y-26261904D01*
X75325295Y-26261904D02*
X75420533Y-26261904D01*
X75420533Y-26261904D02*
X75563390Y-26214285D01*
X75563390Y-26214285D02*
X76134819Y-25642857D01*
X76134819Y-25642857D02*
X76134819Y-26261904D01*
X72359580Y-41357142D02*
X72407200Y-41309523D01*
X72407200Y-41309523D02*
X72454819Y-41166666D01*
X72454819Y-41166666D02*
X72454819Y-41071428D01*
X72454819Y-41071428D02*
X72407200Y-40928571D01*
X72407200Y-40928571D02*
X72311961Y-40833333D01*
X72311961Y-40833333D02*
X72216723Y-40785714D01*
X72216723Y-40785714D02*
X72026247Y-40738095D01*
X72026247Y-40738095D02*
X71883390Y-40738095D01*
X71883390Y-40738095D02*
X71692914Y-40785714D01*
X71692914Y-40785714D02*
X71597676Y-40833333D01*
X71597676Y-40833333D02*
X71502438Y-40928571D01*
X71502438Y-40928571D02*
X71454819Y-41071428D01*
X71454819Y-41071428D02*
X71454819Y-41166666D01*
X71454819Y-41166666D02*
X71502438Y-41309523D01*
X71502438Y-41309523D02*
X71550057Y-41357142D01*
X71550057Y-41738095D02*
X71502438Y-41785714D01*
X71502438Y-41785714D02*
X71454819Y-41880952D01*
X71454819Y-41880952D02*
X71454819Y-42119047D01*
X71454819Y-42119047D02*
X71502438Y-42214285D01*
X71502438Y-42214285D02*
X71550057Y-42261904D01*
X71550057Y-42261904D02*
X71645295Y-42309523D01*
X71645295Y-42309523D02*
X71740533Y-42309523D01*
X71740533Y-42309523D02*
X71883390Y-42261904D01*
X71883390Y-42261904D02*
X72454819Y-41690476D01*
X72454819Y-41690476D02*
X72454819Y-42309523D01*
X71454819Y-43166666D02*
X71454819Y-42976190D01*
X71454819Y-42976190D02*
X71502438Y-42880952D01*
X71502438Y-42880952D02*
X71550057Y-42833333D01*
X71550057Y-42833333D02*
X71692914Y-42738095D01*
X71692914Y-42738095D02*
X71883390Y-42690476D01*
X71883390Y-42690476D02*
X72264342Y-42690476D01*
X72264342Y-42690476D02*
X72359580Y-42738095D01*
X72359580Y-42738095D02*
X72407200Y-42785714D01*
X72407200Y-42785714D02*
X72454819Y-42880952D01*
X72454819Y-42880952D02*
X72454819Y-43071428D01*
X72454819Y-43071428D02*
X72407200Y-43166666D01*
X72407200Y-43166666D02*
X72359580Y-43214285D01*
X72359580Y-43214285D02*
X72264342Y-43261904D01*
X72264342Y-43261904D02*
X72026247Y-43261904D01*
X72026247Y-43261904D02*
X71931009Y-43214285D01*
X71931009Y-43214285D02*
X71883390Y-43166666D01*
X71883390Y-43166666D02*
X71835771Y-43071428D01*
X71835771Y-43071428D02*
X71835771Y-42880952D01*
X71835771Y-42880952D02*
X71883390Y-42785714D01*
X71883390Y-42785714D02*
X71931009Y-42738095D01*
X71931009Y-42738095D02*
X72026247Y-42690476D01*
X78183333Y-42704819D02*
X78183333Y-43419104D01*
X78183333Y-43419104D02*
X78230952Y-43561961D01*
X78230952Y-43561961D02*
X78326190Y-43657200D01*
X78326190Y-43657200D02*
X78469047Y-43704819D01*
X78469047Y-43704819D02*
X78564285Y-43704819D01*
X77707142Y-43704819D02*
X77707142Y-42704819D01*
X77707142Y-42704819D02*
X77326190Y-42704819D01*
X77326190Y-42704819D02*
X77230952Y-42752438D01*
X77230952Y-42752438D02*
X77183333Y-42800057D01*
X77183333Y-42800057D02*
X77135714Y-42895295D01*
X77135714Y-42895295D02*
X77135714Y-43038152D01*
X77135714Y-43038152D02*
X77183333Y-43133390D01*
X77183333Y-43133390D02*
X77230952Y-43181009D01*
X77230952Y-43181009D02*
X77326190Y-43228628D01*
X77326190Y-43228628D02*
X77707142Y-43228628D01*
X76278571Y-43038152D02*
X76278571Y-43704819D01*
X76516666Y-42657200D02*
X76754761Y-43371485D01*
X76754761Y-43371485D02*
X76135714Y-43371485D01*
X66042857Y-40759580D02*
X66090476Y-40807200D01*
X66090476Y-40807200D02*
X66233333Y-40854819D01*
X66233333Y-40854819D02*
X66328571Y-40854819D01*
X66328571Y-40854819D02*
X66471428Y-40807200D01*
X66471428Y-40807200D02*
X66566666Y-40711961D01*
X66566666Y-40711961D02*
X66614285Y-40616723D01*
X66614285Y-40616723D02*
X66661904Y-40426247D01*
X66661904Y-40426247D02*
X66661904Y-40283390D01*
X66661904Y-40283390D02*
X66614285Y-40092914D01*
X66614285Y-40092914D02*
X66566666Y-39997676D01*
X66566666Y-39997676D02*
X66471428Y-39902438D01*
X66471428Y-39902438D02*
X66328571Y-39854819D01*
X66328571Y-39854819D02*
X66233333Y-39854819D01*
X66233333Y-39854819D02*
X66090476Y-39902438D01*
X66090476Y-39902438D02*
X66042857Y-39950057D01*
X65090476Y-40854819D02*
X65661904Y-40854819D01*
X65376190Y-40854819D02*
X65376190Y-39854819D01*
X65376190Y-39854819D02*
X65471428Y-39997676D01*
X65471428Y-39997676D02*
X65566666Y-40092914D01*
X65566666Y-40092914D02*
X65661904Y-40140533D01*
X64709523Y-39950057D02*
X64661904Y-39902438D01*
X64661904Y-39902438D02*
X64566666Y-39854819D01*
X64566666Y-39854819D02*
X64328571Y-39854819D01*
X64328571Y-39854819D02*
X64233333Y-39902438D01*
X64233333Y-39902438D02*
X64185714Y-39950057D01*
X64185714Y-39950057D02*
X64138095Y-40045295D01*
X64138095Y-40045295D02*
X64138095Y-40140533D01*
X64138095Y-40140533D02*
X64185714Y-40283390D01*
X64185714Y-40283390D02*
X64757142Y-40854819D01*
X64757142Y-40854819D02*
X64138095Y-40854819D01*
X66042857Y-39159580D02*
X66090476Y-39207200D01*
X66090476Y-39207200D02*
X66233333Y-39254819D01*
X66233333Y-39254819D02*
X66328571Y-39254819D01*
X66328571Y-39254819D02*
X66471428Y-39207200D01*
X66471428Y-39207200D02*
X66566666Y-39111961D01*
X66566666Y-39111961D02*
X66614285Y-39016723D01*
X66614285Y-39016723D02*
X66661904Y-38826247D01*
X66661904Y-38826247D02*
X66661904Y-38683390D01*
X66661904Y-38683390D02*
X66614285Y-38492914D01*
X66614285Y-38492914D02*
X66566666Y-38397676D01*
X66566666Y-38397676D02*
X66471428Y-38302438D01*
X66471428Y-38302438D02*
X66328571Y-38254819D01*
X66328571Y-38254819D02*
X66233333Y-38254819D01*
X66233333Y-38254819D02*
X66090476Y-38302438D01*
X66090476Y-38302438D02*
X66042857Y-38350057D01*
X65090476Y-39254819D02*
X65661904Y-39254819D01*
X65376190Y-39254819D02*
X65376190Y-38254819D01*
X65376190Y-38254819D02*
X65471428Y-38397676D01*
X65471428Y-38397676D02*
X65566666Y-38492914D01*
X65566666Y-38492914D02*
X65661904Y-38540533D01*
X64757142Y-38254819D02*
X64138095Y-38254819D01*
X64138095Y-38254819D02*
X64471428Y-38635771D01*
X64471428Y-38635771D02*
X64328571Y-38635771D01*
X64328571Y-38635771D02*
X64233333Y-38683390D01*
X64233333Y-38683390D02*
X64185714Y-38731009D01*
X64185714Y-38731009D02*
X64138095Y-38826247D01*
X64138095Y-38826247D02*
X64138095Y-39064342D01*
X64138095Y-39064342D02*
X64185714Y-39159580D01*
X64185714Y-39159580D02*
X64233333Y-39207200D01*
X64233333Y-39207200D02*
X64328571Y-39254819D01*
X64328571Y-39254819D02*
X64614285Y-39254819D01*
X64614285Y-39254819D02*
X64709523Y-39207200D01*
X64709523Y-39207200D02*
X64757142Y-39159580D01*
X66042857Y-43359580D02*
X66090476Y-43407200D01*
X66090476Y-43407200D02*
X66233333Y-43454819D01*
X66233333Y-43454819D02*
X66328571Y-43454819D01*
X66328571Y-43454819D02*
X66471428Y-43407200D01*
X66471428Y-43407200D02*
X66566666Y-43311961D01*
X66566666Y-43311961D02*
X66614285Y-43216723D01*
X66614285Y-43216723D02*
X66661904Y-43026247D01*
X66661904Y-43026247D02*
X66661904Y-42883390D01*
X66661904Y-42883390D02*
X66614285Y-42692914D01*
X66614285Y-42692914D02*
X66566666Y-42597676D01*
X66566666Y-42597676D02*
X66471428Y-42502438D01*
X66471428Y-42502438D02*
X66328571Y-42454819D01*
X66328571Y-42454819D02*
X66233333Y-42454819D01*
X66233333Y-42454819D02*
X66090476Y-42502438D01*
X66090476Y-42502438D02*
X66042857Y-42550057D01*
X65090476Y-43454819D02*
X65661904Y-43454819D01*
X65376190Y-43454819D02*
X65376190Y-42454819D01*
X65376190Y-42454819D02*
X65471428Y-42597676D01*
X65471428Y-42597676D02*
X65566666Y-42692914D01*
X65566666Y-42692914D02*
X65661904Y-42740533D01*
X64138095Y-43454819D02*
X64709523Y-43454819D01*
X64423809Y-43454819D02*
X64423809Y-42454819D01*
X64423809Y-42454819D02*
X64519047Y-42597676D01*
X64519047Y-42597676D02*
X64614285Y-42692914D01*
X64614285Y-42692914D02*
X64709523Y-42740533D01*
X73959580Y-41357142D02*
X74007200Y-41309523D01*
X74007200Y-41309523D02*
X74054819Y-41166666D01*
X74054819Y-41166666D02*
X74054819Y-41071428D01*
X74054819Y-41071428D02*
X74007200Y-40928571D01*
X74007200Y-40928571D02*
X73911961Y-40833333D01*
X73911961Y-40833333D02*
X73816723Y-40785714D01*
X73816723Y-40785714D02*
X73626247Y-40738095D01*
X73626247Y-40738095D02*
X73483390Y-40738095D01*
X73483390Y-40738095D02*
X73292914Y-40785714D01*
X73292914Y-40785714D02*
X73197676Y-40833333D01*
X73197676Y-40833333D02*
X73102438Y-40928571D01*
X73102438Y-40928571D02*
X73054819Y-41071428D01*
X73054819Y-41071428D02*
X73054819Y-41166666D01*
X73054819Y-41166666D02*
X73102438Y-41309523D01*
X73102438Y-41309523D02*
X73150057Y-41357142D01*
X73150057Y-41738095D02*
X73102438Y-41785714D01*
X73102438Y-41785714D02*
X73054819Y-41880952D01*
X73054819Y-41880952D02*
X73054819Y-42119047D01*
X73054819Y-42119047D02*
X73102438Y-42214285D01*
X73102438Y-42214285D02*
X73150057Y-42261904D01*
X73150057Y-42261904D02*
X73245295Y-42309523D01*
X73245295Y-42309523D02*
X73340533Y-42309523D01*
X73340533Y-42309523D02*
X73483390Y-42261904D01*
X73483390Y-42261904D02*
X74054819Y-41690476D01*
X74054819Y-41690476D02*
X74054819Y-42309523D01*
X73054819Y-43214285D02*
X73054819Y-42738095D01*
X73054819Y-42738095D02*
X73531009Y-42690476D01*
X73531009Y-42690476D02*
X73483390Y-42738095D01*
X73483390Y-42738095D02*
X73435771Y-42833333D01*
X73435771Y-42833333D02*
X73435771Y-43071428D01*
X73435771Y-43071428D02*
X73483390Y-43166666D01*
X73483390Y-43166666D02*
X73531009Y-43214285D01*
X73531009Y-43214285D02*
X73626247Y-43261904D01*
X73626247Y-43261904D02*
X73864342Y-43261904D01*
X73864342Y-43261904D02*
X73959580Y-43214285D01*
X73959580Y-43214285D02*
X74007200Y-43166666D01*
X74007200Y-43166666D02*
X74054819Y-43071428D01*
X74054819Y-43071428D02*
X74054819Y-42833333D01*
X74054819Y-42833333D02*
X74007200Y-42738095D01*
X74007200Y-42738095D02*
X73959580Y-42690476D01*
X17442857Y-46839580D02*
X17490476Y-46887200D01*
X17490476Y-46887200D02*
X17633333Y-46934819D01*
X17633333Y-46934819D02*
X17728571Y-46934819D01*
X17728571Y-46934819D02*
X17871428Y-46887200D01*
X17871428Y-46887200D02*
X17966666Y-46791961D01*
X17966666Y-46791961D02*
X18014285Y-46696723D01*
X18014285Y-46696723D02*
X18061904Y-46506247D01*
X18061904Y-46506247D02*
X18061904Y-46363390D01*
X18061904Y-46363390D02*
X18014285Y-46172914D01*
X18014285Y-46172914D02*
X17966666Y-46077676D01*
X17966666Y-46077676D02*
X17871428Y-45982438D01*
X17871428Y-45982438D02*
X17728571Y-45934819D01*
X17728571Y-45934819D02*
X17633333Y-45934819D01*
X17633333Y-45934819D02*
X17490476Y-45982438D01*
X17490476Y-45982438D02*
X17442857Y-46030057D01*
X17109523Y-45934819D02*
X16490476Y-45934819D01*
X16490476Y-45934819D02*
X16823809Y-46315771D01*
X16823809Y-46315771D02*
X16680952Y-46315771D01*
X16680952Y-46315771D02*
X16585714Y-46363390D01*
X16585714Y-46363390D02*
X16538095Y-46411009D01*
X16538095Y-46411009D02*
X16490476Y-46506247D01*
X16490476Y-46506247D02*
X16490476Y-46744342D01*
X16490476Y-46744342D02*
X16538095Y-46839580D01*
X16538095Y-46839580D02*
X16585714Y-46887200D01*
X16585714Y-46887200D02*
X16680952Y-46934819D01*
X16680952Y-46934819D02*
X16966666Y-46934819D01*
X16966666Y-46934819D02*
X17061904Y-46887200D01*
X17061904Y-46887200D02*
X17109523Y-46839580D01*
X15871428Y-45934819D02*
X15776190Y-45934819D01*
X15776190Y-45934819D02*
X15680952Y-45982438D01*
X15680952Y-45982438D02*
X15633333Y-46030057D01*
X15633333Y-46030057D02*
X15585714Y-46125295D01*
X15585714Y-46125295D02*
X15538095Y-46315771D01*
X15538095Y-46315771D02*
X15538095Y-46553866D01*
X15538095Y-46553866D02*
X15585714Y-46744342D01*
X15585714Y-46744342D02*
X15633333Y-46839580D01*
X15633333Y-46839580D02*
X15680952Y-46887200D01*
X15680952Y-46887200D02*
X15776190Y-46934819D01*
X15776190Y-46934819D02*
X15871428Y-46934819D01*
X15871428Y-46934819D02*
X15966666Y-46887200D01*
X15966666Y-46887200D02*
X16014285Y-46839580D01*
X16014285Y-46839580D02*
X16061904Y-46744342D01*
X16061904Y-46744342D02*
X16109523Y-46553866D01*
X16109523Y-46553866D02*
X16109523Y-46315771D01*
X16109523Y-46315771D02*
X16061904Y-46125295D01*
X16061904Y-46125295D02*
X16014285Y-46030057D01*
X16014285Y-46030057D02*
X15966666Y-45982438D01*
X15966666Y-45982438D02*
X15871428Y-45934819D01*
X41166666Y-34963819D02*
X41642856Y-34963819D01*
X41642856Y-34963819D02*
X41642856Y-33963819D01*
X40309523Y-34963819D02*
X40880951Y-34963819D01*
X40595237Y-34963819D02*
X40595237Y-33963819D01*
X40595237Y-33963819D02*
X40690475Y-34106676D01*
X40690475Y-34106676D02*
X40785713Y-34201914D01*
X40785713Y-34201914D02*
X40880951Y-34249533D01*
X75559580Y-41357142D02*
X75607200Y-41309523D01*
X75607200Y-41309523D02*
X75654819Y-41166666D01*
X75654819Y-41166666D02*
X75654819Y-41071428D01*
X75654819Y-41071428D02*
X75607200Y-40928571D01*
X75607200Y-40928571D02*
X75511961Y-40833333D01*
X75511961Y-40833333D02*
X75416723Y-40785714D01*
X75416723Y-40785714D02*
X75226247Y-40738095D01*
X75226247Y-40738095D02*
X75083390Y-40738095D01*
X75083390Y-40738095D02*
X74892914Y-40785714D01*
X74892914Y-40785714D02*
X74797676Y-40833333D01*
X74797676Y-40833333D02*
X74702438Y-40928571D01*
X74702438Y-40928571D02*
X74654819Y-41071428D01*
X74654819Y-41071428D02*
X74654819Y-41166666D01*
X74654819Y-41166666D02*
X74702438Y-41309523D01*
X74702438Y-41309523D02*
X74750057Y-41357142D01*
X74750057Y-41738095D02*
X74702438Y-41785714D01*
X74702438Y-41785714D02*
X74654819Y-41880952D01*
X74654819Y-41880952D02*
X74654819Y-42119047D01*
X74654819Y-42119047D02*
X74702438Y-42214285D01*
X74702438Y-42214285D02*
X74750057Y-42261904D01*
X74750057Y-42261904D02*
X74845295Y-42309523D01*
X74845295Y-42309523D02*
X74940533Y-42309523D01*
X74940533Y-42309523D02*
X75083390Y-42261904D01*
X75083390Y-42261904D02*
X75654819Y-41690476D01*
X75654819Y-41690476D02*
X75654819Y-42309523D01*
X74988152Y-43166666D02*
X75654819Y-43166666D01*
X74607200Y-42928571D02*
X75321485Y-42690476D01*
X75321485Y-42690476D02*
X75321485Y-43309523D01*
X17442857Y-48759580D02*
X17490476Y-48807200D01*
X17490476Y-48807200D02*
X17633333Y-48854819D01*
X17633333Y-48854819D02*
X17728571Y-48854819D01*
X17728571Y-48854819D02*
X17871428Y-48807200D01*
X17871428Y-48807200D02*
X17966666Y-48711961D01*
X17966666Y-48711961D02*
X18014285Y-48616723D01*
X18014285Y-48616723D02*
X18061904Y-48426247D01*
X18061904Y-48426247D02*
X18061904Y-48283390D01*
X18061904Y-48283390D02*
X18014285Y-48092914D01*
X18014285Y-48092914D02*
X17966666Y-47997676D01*
X17966666Y-47997676D02*
X17871428Y-47902438D01*
X17871428Y-47902438D02*
X17728571Y-47854819D01*
X17728571Y-47854819D02*
X17633333Y-47854819D01*
X17633333Y-47854819D02*
X17490476Y-47902438D01*
X17490476Y-47902438D02*
X17442857Y-47950057D01*
X17109523Y-47854819D02*
X16490476Y-47854819D01*
X16490476Y-47854819D02*
X16823809Y-48235771D01*
X16823809Y-48235771D02*
X16680952Y-48235771D01*
X16680952Y-48235771D02*
X16585714Y-48283390D01*
X16585714Y-48283390D02*
X16538095Y-48331009D01*
X16538095Y-48331009D02*
X16490476Y-48426247D01*
X16490476Y-48426247D02*
X16490476Y-48664342D01*
X16490476Y-48664342D02*
X16538095Y-48759580D01*
X16538095Y-48759580D02*
X16585714Y-48807200D01*
X16585714Y-48807200D02*
X16680952Y-48854819D01*
X16680952Y-48854819D02*
X16966666Y-48854819D01*
X16966666Y-48854819D02*
X17061904Y-48807200D01*
X17061904Y-48807200D02*
X17109523Y-48759580D01*
X15538095Y-48854819D02*
X16109523Y-48854819D01*
X15823809Y-48854819D02*
X15823809Y-47854819D01*
X15823809Y-47854819D02*
X15919047Y-47997676D01*
X15919047Y-47997676D02*
X16014285Y-48092914D01*
X16014285Y-48092914D02*
X16109523Y-48140533D01*
X77842857Y-39759580D02*
X77890476Y-39807200D01*
X77890476Y-39807200D02*
X78033333Y-39854819D01*
X78033333Y-39854819D02*
X78128571Y-39854819D01*
X78128571Y-39854819D02*
X78271428Y-39807200D01*
X78271428Y-39807200D02*
X78366666Y-39711961D01*
X78366666Y-39711961D02*
X78414285Y-39616723D01*
X78414285Y-39616723D02*
X78461904Y-39426247D01*
X78461904Y-39426247D02*
X78461904Y-39283390D01*
X78461904Y-39283390D02*
X78414285Y-39092914D01*
X78414285Y-39092914D02*
X78366666Y-38997676D01*
X78366666Y-38997676D02*
X78271428Y-38902438D01*
X78271428Y-38902438D02*
X78128571Y-38854819D01*
X78128571Y-38854819D02*
X78033333Y-38854819D01*
X78033333Y-38854819D02*
X77890476Y-38902438D01*
X77890476Y-38902438D02*
X77842857Y-38950057D01*
X77461904Y-38950057D02*
X77414285Y-38902438D01*
X77414285Y-38902438D02*
X77319047Y-38854819D01*
X77319047Y-38854819D02*
X77080952Y-38854819D01*
X77080952Y-38854819D02*
X76985714Y-38902438D01*
X76985714Y-38902438D02*
X76938095Y-38950057D01*
X76938095Y-38950057D02*
X76890476Y-39045295D01*
X76890476Y-39045295D02*
X76890476Y-39140533D01*
X76890476Y-39140533D02*
X76938095Y-39283390D01*
X76938095Y-39283390D02*
X77509523Y-39854819D01*
X77509523Y-39854819D02*
X76890476Y-39854819D01*
X76557142Y-38854819D02*
X75938095Y-38854819D01*
X75938095Y-38854819D02*
X76271428Y-39235771D01*
X76271428Y-39235771D02*
X76128571Y-39235771D01*
X76128571Y-39235771D02*
X76033333Y-39283390D01*
X76033333Y-39283390D02*
X75985714Y-39331009D01*
X75985714Y-39331009D02*
X75938095Y-39426247D01*
X75938095Y-39426247D02*
X75938095Y-39664342D01*
X75938095Y-39664342D02*
X75985714Y-39759580D01*
X75985714Y-39759580D02*
X76033333Y-39807200D01*
X76033333Y-39807200D02*
X76128571Y-39854819D01*
X76128571Y-39854819D02*
X76414285Y-39854819D01*
X76414285Y-39854819D02*
X76509523Y-39807200D01*
X76509523Y-39807200D02*
X76557142Y-39759580D01*
D11*
%TO.C,C2*%
X54540000Y-18250000D02*
X54540000Y-19500000D01*
X53915000Y-18875000D02*
X55165000Y-18875000D01*
X61195563Y-19740000D02*
X58210000Y-19740000D01*
X61195563Y-19740000D02*
X62260000Y-20804437D01*
X52804437Y-19740000D02*
X55790000Y-19740000D01*
X52804437Y-19740000D02*
X51740000Y-20804437D01*
X62260000Y-20804437D02*
X62260000Y-30260000D01*
X51740000Y-20804437D02*
X51740000Y-30260000D01*
X62260000Y-30260000D02*
X58210000Y-30260000D01*
X51740000Y-30260000D02*
X55790000Y-30260000D01*
%TO.C,C1*%
X22540000Y-18250000D02*
X22540000Y-19500000D01*
X21915000Y-18875000D02*
X23165000Y-18875000D01*
X29195563Y-19740000D02*
X26210000Y-19740000D01*
X29195563Y-19740000D02*
X30260000Y-20804437D01*
X20804437Y-19740000D02*
X23790000Y-19740000D01*
X20804437Y-19740000D02*
X19740000Y-20804437D01*
X30260000Y-20804437D02*
X30260000Y-30260000D01*
X19740000Y-20804437D02*
X19740000Y-30260000D01*
X30260000Y-30260000D02*
X26210000Y-30260000D01*
X19740000Y-30260000D02*
X23790000Y-30260000D01*
%TO.C,C22*%
X73265000Y-25261252D02*
X73265000Y-24738748D01*
X74735000Y-25261252D02*
X74735000Y-24738748D01*
%TO.C,C26*%
X71490000Y-45140580D02*
X71490000Y-44859420D01*
X72510000Y-45140580D02*
X72510000Y-44859420D01*
%TO.C,JP4*%
X75950000Y-41150000D02*
X75950000Y-41750000D01*
X76650000Y-42450000D02*
X78050000Y-42450000D01*
X78050000Y-40450000D02*
X76650000Y-40450000D01*
X78750000Y-41750000D02*
X78750000Y-41150000D01*
X76650000Y-40450000D02*
G75*
G03*
X75950000Y-41150000I-1J-699999D01*
G01*
X75950000Y-41750000D02*
G75*
G03*
X76650000Y-42450000I699999J-1D01*
G01*
X78750000Y-41150000D02*
G75*
G03*
X78050000Y-40450000I-700000J0D01*
G01*
X78050000Y-42450000D02*
G75*
G03*
X78750000Y-41750000I0J700000D01*
G01*
%TO.C,C12*%
X68259420Y-39890000D02*
X68540580Y-39890000D01*
X68259420Y-40910000D02*
X68540580Y-40910000D01*
%TO.C,C13*%
X68259420Y-38290000D02*
X68540580Y-38290000D01*
X68259420Y-39310000D02*
X68540580Y-39310000D01*
%TO.C,C11*%
X68259420Y-42490000D02*
X68540580Y-42490000D01*
X68259420Y-43510000D02*
X68540580Y-43510000D01*
%TO.C,C25*%
X73090000Y-45140580D02*
X73090000Y-44859420D01*
X74110000Y-45140580D02*
X74110000Y-44859420D01*
%TO.C,C30*%
X16538748Y-44065000D02*
X17061252Y-44065000D01*
X16538748Y-45535000D02*
X17061252Y-45535000D01*
D10*
%TO.C,L1*%
X32391000Y-16391000D02*
X49609000Y-16391000D01*
X32391000Y-18540000D02*
X32391000Y-16391000D01*
X32391000Y-31460000D02*
X32391000Y-33609000D01*
X32391000Y-33609000D02*
X49609000Y-33609000D01*
X49609000Y-16391000D02*
X49609000Y-18540000D01*
X49609000Y-33609000D02*
X49609000Y-31460000D01*
D11*
%TO.C,C24*%
X74690000Y-45140580D02*
X74690000Y-44859420D01*
X75710000Y-45140580D02*
X75710000Y-44859420D01*
%TO.C,C31*%
X16538748Y-49265000D02*
X17061252Y-49265000D01*
X16538748Y-50735000D02*
X17061252Y-50735000D01*
%TO.C,C23*%
X74340580Y-39910000D02*
X74059420Y-39910000D01*
X74340580Y-38890000D02*
X74059420Y-38890000D01*
%TD*%
M02*
