%TF.GenerationSoftware,KiCad,Pcbnew,7.0.8*%
%TF.CreationDate,2024-04-26T14:47:41-04:00*%
%TF.ProjectId,PD Charger,50442043-6861-4726-9765-722e6b696361,rev?*%
%TF.SameCoordinates,Original*%
%TF.FileFunction,Paste,Top*%
%TF.FilePolarity,Positive*%
%FSLAX46Y46*%
G04 Gerber Fmt 4.6, Leading zero omitted, Abs format (unit mm)*
G04 Created by KiCad (PCBNEW 7.0.8) date 2024-04-26 14:47:41*
%MOMM*%
%LPD*%
G01*
G04 APERTURE LIST*
G04 Aperture macros list*
%AMRoundRect*
0 Rectangle with rounded corners*
0 $1 Rounding radius*
0 $2 $3 $4 $5 $6 $7 $8 $9 X,Y pos of 4 corners*
0 Add a 4 corners polygon primitive as box body*
4,1,4,$2,$3,$4,$5,$6,$7,$8,$9,$2,$3,0*
0 Add four circle primitives for the rounded corners*
1,1,$1+$1,$2,$3*
1,1,$1+$1,$4,$5*
1,1,$1+$1,$6,$7*
1,1,$1+$1,$8,$9*
0 Add four rect primitives between the rounded corners*
20,1,$1+$1,$2,$3,$4,$5,0*
20,1,$1+$1,$4,$5,$6,$7,0*
20,1,$1+$1,$6,$7,$8,$9,0*
20,1,$1+$1,$8,$9,$2,$3,0*%
G04 Aperture macros list end*
%ADD10RoundRect,0.225000X0.225000X0.250000X-0.225000X0.250000X-0.225000X-0.250000X0.225000X-0.250000X0*%
%ADD11R,1.100000X0.400000*%
%ADD12R,0.720000X0.925500*%
%ADD13RoundRect,0.250000X0.475000X-0.250000X0.475000X0.250000X-0.475000X0.250000X-0.475000X-0.250000X0*%
%ADD14RoundRect,0.200000X0.200000X0.275000X-0.200000X0.275000X-0.200000X-0.275000X0.200000X-0.275000X0*%
%ADD15R,0.249999X0.599999*%
%ADD16R,0.599999X0.249999*%
%ADD17RoundRect,0.200000X0.275000X-0.200000X0.275000X0.200000X-0.275000X0.200000X-0.275000X-0.200000X0*%
%ADD18RoundRect,0.250000X-0.650000X0.325000X-0.650000X-0.325000X0.650000X-0.325000X0.650000X0.325000X0*%
%ADD19RoundRect,0.145000X-0.145000X0.145000X-0.145000X-0.145000X0.145000X-0.145000X0.145000X0.145000X0*%
%ADD20RoundRect,0.062500X-0.062500X0.275000X-0.062500X-0.275000X0.062500X-0.275000X0.062500X0.275000X0*%
%ADD21RoundRect,0.062500X-0.275000X0.062500X-0.275000X-0.062500X0.275000X-0.062500X0.275000X0.062500X0*%
%ADD22RoundRect,0.200000X-0.200000X-0.275000X0.200000X-0.275000X0.200000X0.275000X-0.200000X0.275000X0*%
%ADD23RoundRect,0.050000X1.650000X-0.135000X1.650000X0.135000X-1.650000X0.135000X-1.650000X-0.135000X0*%
%ADD24RoundRect,0.069853X1.630147X-0.167647X1.630147X0.167647X-1.630147X0.167647X-1.630147X-0.167647X0*%
%ADD25R,0.370000X0.290000*%
%ADD26RoundRect,0.050532X0.441968X-0.186968X0.441968X0.186968X-0.441968X0.186968X-0.441968X-0.186968X0*%
%ADD27RoundRect,0.050532X0.986968X-0.186968X0.986968X0.186968X-0.986968X0.186968X-0.986968X-0.186968X0*%
%ADD28RoundRect,0.250000X-0.625000X0.312500X-0.625000X-0.312500X0.625000X-0.312500X0.625000X0.312500X0*%
%ADD29RoundRect,0.200000X-0.275000X0.200000X-0.275000X-0.200000X0.275000X-0.200000X0.275000X0.200000X0*%
%ADD30RoundRect,0.250000X-0.315000X-0.315000X0.315000X-0.315000X0.315000X0.315000X-0.315000X0.315000X0*%
%ADD31RoundRect,0.062500X-0.375000X-0.062500X0.375000X-0.062500X0.375000X0.062500X-0.375000X0.062500X0*%
%ADD32RoundRect,0.062500X-0.062500X-0.375000X0.062500X-0.375000X0.062500X0.375000X-0.062500X0.375000X0*%
%ADD33RoundRect,0.225000X-0.225000X-0.250000X0.225000X-0.250000X0.225000X0.250000X-0.225000X0.250000X0*%
%ADD34RoundRect,0.150000X0.425000X-0.150000X0.425000X0.150000X-0.425000X0.150000X-0.425000X-0.150000X0*%
%ADD35RoundRect,0.075000X0.500000X-0.075000X0.500000X0.075000X-0.500000X0.075000X-0.500000X-0.075000X0*%
%ADD36O,2.100000X1.000000*%
%ADD37O,1.800000X1.000000*%
%ADD38RoundRect,0.225000X-0.250000X0.225000X-0.250000X-0.225000X0.250000X-0.225000X0.250000X0.225000X0*%
%ADD39RoundRect,0.150000X-0.150000X0.512500X-0.150000X-0.512500X0.150000X-0.512500X0.150000X0.512500X0*%
%ADD40RoundRect,0.250000X0.325000X0.650000X-0.325000X0.650000X-0.325000X-0.650000X0.325000X-0.650000X0*%
%ADD41RoundRect,0.250000X-0.475000X0.250000X-0.475000X-0.250000X0.475000X-0.250000X0.475000X0.250000X0*%
%ADD42R,0.780000X0.900000*%
%ADD43R,0.650000X0.500000*%
%ADD44R,0.550000X0.500000*%
%ADD45R,1.300000X3.400000*%
%ADD46RoundRect,0.150000X-0.512500X-0.150000X0.512500X-0.150000X0.512500X0.150000X-0.512500X0.150000X0*%
%ADD47RoundRect,0.250000X0.312500X0.625000X-0.312500X0.625000X-0.312500X-0.625000X0.312500X-0.625000X0*%
G04 APERTURE END LIST*
%TO.C,U2*%
G36*
X18835757Y-47275962D02*
G01*
X18845137Y-47278806D01*
X18853781Y-47283427D01*
X18861358Y-47289645D01*
X18867576Y-47297221D01*
X18872196Y-47305865D01*
X18875041Y-47315245D01*
X18876003Y-47325001D01*
X18876003Y-47474999D01*
X18875041Y-47484755D01*
X18872196Y-47494135D01*
X18867576Y-47502779D01*
X18861358Y-47510355D01*
X18853781Y-47516573D01*
X18845137Y-47521194D01*
X18835757Y-47524038D01*
X18826004Y-47524998D01*
X18114003Y-47524998D01*
X18104247Y-47524038D01*
X18094867Y-47521194D01*
X18086223Y-47516573D01*
X18078647Y-47510355D01*
X18072429Y-47502779D01*
X18067808Y-47494135D01*
X18064964Y-47484755D01*
X18064004Y-47474999D01*
X18064004Y-47325001D01*
X18064964Y-47315245D01*
X18067808Y-47305865D01*
X18072429Y-47297221D01*
X18078647Y-47289645D01*
X18086223Y-47283427D01*
X18094867Y-47278806D01*
X18104247Y-47275962D01*
X18114003Y-47275002D01*
X18826004Y-47275002D01*
X18835757Y-47275962D01*
G37*
G36*
X17820755Y-47275962D02*
G01*
X17830136Y-47278806D01*
X17838779Y-47283427D01*
X17846356Y-47289645D01*
X17852574Y-47297221D01*
X17857194Y-47305865D01*
X17860039Y-47315245D01*
X17860999Y-47325001D01*
X17860999Y-47474999D01*
X17860039Y-47484755D01*
X17857194Y-47494135D01*
X17852574Y-47502779D01*
X17846356Y-47510355D01*
X17838779Y-47516573D01*
X17830136Y-47521194D01*
X17820755Y-47524038D01*
X17810999Y-47524998D01*
X17098999Y-47524998D01*
X17089246Y-47524038D01*
X17079865Y-47521194D01*
X17071222Y-47516573D01*
X17063645Y-47510355D01*
X17057427Y-47502779D01*
X17052807Y-47494135D01*
X17049962Y-47484755D01*
X17048999Y-47474999D01*
X17048999Y-47325001D01*
X17049962Y-47315245D01*
X17052807Y-47305865D01*
X17057427Y-47297221D01*
X17063645Y-47289645D01*
X17071222Y-47283427D01*
X17079865Y-47278806D01*
X17089246Y-47275962D01*
X17098999Y-47275002D01*
X17810999Y-47275002D01*
X17820755Y-47275962D01*
G37*
%TD*%
D10*
%TO.C,C32*%
X14575000Y-46600000D03*
X13025000Y-46600000D03*
%TD*%
D11*
%TO.C,U3*%
X37110000Y-37186250D03*
X37110000Y-37836250D03*
X37110000Y-38486250D03*
X37110000Y-39136250D03*
X37110000Y-39786250D03*
X37110000Y-40436250D03*
X37110000Y-41086250D03*
X37110000Y-41736250D03*
X37110000Y-42386250D03*
X37110000Y-43036250D03*
X37110000Y-43686250D03*
X37110000Y-44336250D03*
X37110000Y-44986250D03*
X37110000Y-45636250D03*
X42810000Y-45636250D03*
X42810000Y-44986250D03*
X42810000Y-44336250D03*
X42810000Y-43686250D03*
X42810000Y-43036250D03*
X42810000Y-42386250D03*
X42810000Y-41736250D03*
X42810000Y-41086250D03*
X42810000Y-40436250D03*
X42810000Y-39786250D03*
X42810000Y-39136250D03*
X42810000Y-38486250D03*
X42810000Y-37836250D03*
X42810000Y-37186250D03*
D12*
X39360000Y-39097500D03*
X39360000Y-40640000D03*
X39360000Y-42182500D03*
X39360000Y-43725000D03*
X40560000Y-39097500D03*
X40560000Y-40640000D03*
X40560000Y-42182500D03*
X40560000Y-43725000D03*
%TD*%
D13*
%TO.C,C4*%
X46275000Y-39050000D03*
X46275000Y-37150000D03*
%TD*%
D14*
%TO.C,R20*%
X14625000Y-50400000D03*
X12975000Y-50400000D03*
%TD*%
%TO.C,R1*%
X29765000Y-36830000D03*
X28115000Y-36830000D03*
%TD*%
D15*
%TO.C,U2*%
X18300000Y-46499999D03*
X17650001Y-46499999D03*
X17000000Y-46499999D03*
X16500001Y-46499999D03*
D16*
X15775001Y-46900001D03*
X15775001Y-47400000D03*
X15775001Y-47899999D03*
D15*
X16500001Y-48300001D03*
X17000000Y-48300001D03*
X17650001Y-48300001D03*
X18300000Y-48300001D03*
%TD*%
D17*
%TO.C,R11*%
X61500000Y-24325000D03*
X61500000Y-22675000D03*
%TD*%
D18*
%TO.C,C18*%
X57200000Y-23525000D03*
X57200000Y-26475000D03*
%TD*%
D19*
%TO.C,U1*%
X70765000Y-24640000D03*
X70045000Y-24640000D03*
X70765000Y-25360000D03*
X70045000Y-25360000D03*
D20*
X70905000Y-23737500D03*
X70405000Y-23737500D03*
X69905000Y-23737500D03*
D21*
X69142500Y-24250000D03*
X69142500Y-24750000D03*
X69142500Y-25250000D03*
X69142500Y-25750000D03*
D20*
X69905000Y-26262500D03*
X70405000Y-26262500D03*
X70905000Y-26262500D03*
D21*
X71667500Y-25750000D03*
X71667500Y-25250000D03*
X71667500Y-24750000D03*
X71667500Y-24250000D03*
%TD*%
D18*
%TO.C,C21*%
X48200000Y-23525000D03*
X48200000Y-26475000D03*
%TD*%
D22*
%TO.C,R3*%
X49895000Y-36830000D03*
X51545000Y-36830000D03*
%TD*%
D18*
%TO.C,C14*%
X33750000Y-23525000D03*
X33750000Y-26475000D03*
%TD*%
%TO.C,C16*%
X27750000Y-23525000D03*
X27750000Y-26475000D03*
%TD*%
D23*
%TO.C,Q1*%
X37500000Y-29775000D03*
X37500000Y-28075000D03*
D24*
X37500000Y-26325000D03*
D25*
X36525000Y-25945000D03*
X37175000Y-25945000D03*
X37825000Y-25945000D03*
X38475000Y-25945000D03*
X36525000Y-31055000D03*
D26*
X36293000Y-30675000D03*
D25*
X37275000Y-31055000D03*
X37825000Y-31055000D03*
X38475000Y-31055000D03*
D27*
X38163000Y-30675000D03*
D23*
X37500000Y-28925000D03*
X37500000Y-27225000D03*
%TD*%
D14*
%TO.C,R13*%
X71230000Y-15240000D03*
X69580000Y-15240000D03*
%TD*%
D10*
%TO.C,C6*%
X33715000Y-47190000D03*
X32165000Y-47190000D03*
%TD*%
D28*
%TO.C,R5*%
X40800000Y-23537500D03*
X40800000Y-26462500D03*
%TD*%
D14*
%TO.C,R2*%
X29765000Y-38735000D03*
X28115000Y-38735000D03*
%TD*%
D29*
%TO.C,R14*%
X63000000Y-22675000D03*
X63000000Y-24325000D03*
%TD*%
D14*
%TO.C,R19*%
X17825000Y-50400000D03*
X16175000Y-50400000D03*
%TD*%
D30*
%TO.C,U4*%
X69625000Y-40270000D03*
X69625000Y-41670000D03*
X69625000Y-43070000D03*
X69625000Y-44470000D03*
X71025000Y-40270000D03*
X71025000Y-41670000D03*
X71025000Y-43070000D03*
X71025000Y-44470000D03*
X72425000Y-40270000D03*
X72425000Y-41670000D03*
X72425000Y-43070000D03*
X72425000Y-44470000D03*
X73825000Y-40270000D03*
X73825000Y-41670000D03*
X73825000Y-43070000D03*
X73825000Y-44470000D03*
D31*
X68287500Y-39620000D03*
X68287500Y-40120000D03*
X68287500Y-40620000D03*
X68287500Y-41120000D03*
X68287500Y-41620000D03*
X68287500Y-42120000D03*
X68287500Y-42620000D03*
X68287500Y-43120000D03*
X68287500Y-43620000D03*
X68287500Y-44120000D03*
X68287500Y-44620000D03*
X68287500Y-45120000D03*
D32*
X68975000Y-45807500D03*
X69475000Y-45807500D03*
X69975000Y-45807500D03*
X70475000Y-45807500D03*
X70975000Y-45807500D03*
X71475000Y-45807500D03*
X71975000Y-45807500D03*
X72475000Y-45807500D03*
X72975000Y-45807500D03*
X73475000Y-45807500D03*
X73975000Y-45807500D03*
X74475000Y-45807500D03*
D31*
X75162500Y-45120000D03*
X75162500Y-44620000D03*
X75162500Y-44120000D03*
X75162500Y-43620000D03*
X75162500Y-43120000D03*
X75162500Y-42620000D03*
X75162500Y-42120000D03*
X75162500Y-41620000D03*
X75162500Y-41120000D03*
X75162500Y-40620000D03*
X75162500Y-40120000D03*
X75162500Y-39620000D03*
D32*
X74475000Y-38932500D03*
X73975000Y-38932500D03*
X73475000Y-38932500D03*
X72975000Y-38932500D03*
X72475000Y-38932500D03*
X71975000Y-38932500D03*
X71475000Y-38932500D03*
X70975000Y-38932500D03*
X70475000Y-38932500D03*
X69975000Y-38932500D03*
X69475000Y-38932500D03*
X68975000Y-38932500D03*
%TD*%
D33*
%TO.C,C7*%
X46770000Y-47625000D03*
X48320000Y-47625000D03*
%TD*%
D34*
%TO.C,J1*%
X79570000Y-28200000D03*
X79570000Y-27400000D03*
D35*
X79570000Y-26250000D03*
X79570000Y-25250000D03*
X79570000Y-24750000D03*
X79570000Y-23750000D03*
D34*
X79570000Y-22600000D03*
X79570000Y-21800000D03*
X79570000Y-21800000D03*
X79570000Y-22600000D03*
D35*
X79570000Y-23250000D03*
X79570000Y-24250000D03*
X79570000Y-25750000D03*
X79570000Y-26750000D03*
D34*
X79570000Y-27400000D03*
X79570000Y-28200000D03*
D36*
X80145000Y-29320000D03*
D37*
X84325000Y-29320000D03*
D36*
X80145000Y-20680000D03*
D37*
X84325000Y-20680000D03*
%TD*%
D18*
%TO.C,C20*%
X51200000Y-23525000D03*
X51200000Y-26475000D03*
%TD*%
D38*
%TO.C,C8*%
X48180000Y-44310000D03*
X48180000Y-45860000D03*
%TD*%
D10*
%TO.C,C34*%
X14575000Y-48800000D03*
X13025000Y-48800000D03*
%TD*%
D29*
%TO.C,R17*%
X24800000Y-40975000D03*
X24800000Y-42625000D03*
%TD*%
D22*
%TO.C,R15*%
X46575000Y-49400000D03*
X48225000Y-49400000D03*
%TD*%
D39*
%TO.C,Q8*%
X66750000Y-22862500D03*
X65800000Y-22862500D03*
X64850000Y-22862500D03*
X64850000Y-25137500D03*
X65800000Y-25137500D03*
X66750000Y-25137500D03*
%TD*%
D23*
%TO.C,Q2*%
X37500000Y-22775000D03*
X37500000Y-21075000D03*
D24*
X37500000Y-19325000D03*
D25*
X36525000Y-18945000D03*
X37175000Y-18945000D03*
X37825000Y-18945000D03*
X38475000Y-18945000D03*
X36525000Y-24055000D03*
D26*
X36293000Y-23675000D03*
D25*
X37275000Y-24055000D03*
X37825000Y-24055000D03*
X38475000Y-24055000D03*
D27*
X38163000Y-23675000D03*
D23*
X37500000Y-21925000D03*
X37500000Y-20225000D03*
%TD*%
D29*
%TO.C,R16*%
X63000000Y-25975000D03*
X63000000Y-27625000D03*
%TD*%
D22*
%TO.C,R4*%
X49895000Y-38735000D03*
X51545000Y-38735000D03*
%TD*%
D18*
%TO.C,C19*%
X54200000Y-23525000D03*
X54200000Y-26475000D03*
%TD*%
D23*
%TO.C,Q3*%
X44500000Y-29775000D03*
X44500000Y-28075000D03*
D24*
X44500000Y-26325000D03*
D25*
X43525000Y-25945000D03*
X44175000Y-25945000D03*
X44825000Y-25945000D03*
X45475000Y-25945000D03*
X43525000Y-31055000D03*
D26*
X43293000Y-30675000D03*
D25*
X44275000Y-31055000D03*
X44825000Y-31055000D03*
X45475000Y-31055000D03*
D27*
X45163000Y-30675000D03*
D23*
X44500000Y-28925000D03*
X44500000Y-27225000D03*
%TD*%
D13*
%TO.C,C35*%
X26990000Y-43350000D03*
X26990000Y-41450000D03*
%TD*%
D10*
%TO.C,C10*%
X33715000Y-48800000D03*
X32165000Y-48800000D03*
%TD*%
D17*
%TO.C,R12*%
X61500000Y-27575000D03*
X61500000Y-25925000D03*
%TD*%
D29*
%TO.C,R7*%
X31000000Y-43975000D03*
X31000000Y-45625000D03*
%TD*%
D18*
%TO.C,C5*%
X33575000Y-40925000D03*
X33575000Y-43875000D03*
%TD*%
D40*
%TO.C,C27*%
X22275000Y-44200000D03*
X19325000Y-44200000D03*
%TD*%
D41*
%TO.C,C3*%
X33575000Y-37150000D03*
X33575000Y-39050000D03*
%TD*%
D22*
%TO.C,R10*%
X42975000Y-47600000D03*
X44625000Y-47600000D03*
%TD*%
D38*
%TO.C,C9*%
X46275000Y-44310000D03*
X46275000Y-45860000D03*
%TD*%
D33*
%TO.C,C33*%
X16225000Y-44400000D03*
X17775000Y-44400000D03*
%TD*%
D13*
%TO.C,C36*%
X29000000Y-43350000D03*
X29000000Y-41450000D03*
%TD*%
D42*
%TO.C,Q6*%
X72785000Y-17350000D03*
X72785000Y-18450000D03*
X72785000Y-19550000D03*
X72785000Y-20650000D03*
X73765000Y-17350000D03*
X73765000Y-18450000D03*
X73765000Y-19550000D03*
X73765000Y-20650000D03*
X74745000Y-17350000D03*
X74745000Y-18450000D03*
X74745000Y-19550000D03*
X74745000Y-20650000D03*
X75725000Y-17350000D03*
X75725000Y-18450000D03*
X75725000Y-19550000D03*
X75725000Y-20650000D03*
D43*
X71035000Y-17095000D03*
X71035000Y-18365000D03*
X71035000Y-19635000D03*
X71035000Y-20905000D03*
D44*
X76585000Y-17095000D03*
X76585000Y-18365000D03*
X76585000Y-19635000D03*
X76585000Y-20905000D03*
%TD*%
D40*
%TO.C,C28*%
X22275000Y-50600000D03*
X19325000Y-50600000D03*
%TD*%
D23*
%TO.C,Q4*%
X44500000Y-22775000D03*
X44500000Y-21075000D03*
D24*
X44500000Y-19325000D03*
D25*
X43525000Y-18945000D03*
X44175000Y-18945000D03*
X44825000Y-18945000D03*
X45475000Y-18945000D03*
X43525000Y-24055000D03*
D26*
X43293000Y-23675000D03*
D25*
X44275000Y-24055000D03*
X44825000Y-24055000D03*
X45475000Y-24055000D03*
D27*
X45163000Y-23675000D03*
D23*
X44500000Y-21925000D03*
X44500000Y-20225000D03*
%TD*%
D42*
%TO.C,Q5*%
X67500000Y-20650000D03*
X67500000Y-19550000D03*
X67500000Y-18450000D03*
X67500000Y-17350000D03*
X66520000Y-20650000D03*
X66520000Y-19550000D03*
X66520000Y-18450000D03*
X66520000Y-17350000D03*
X65540000Y-20650000D03*
X65540000Y-19550000D03*
X65540000Y-18450000D03*
X65540000Y-17350000D03*
X64560000Y-20650000D03*
X64560000Y-19550000D03*
X64560000Y-18450000D03*
X64560000Y-17350000D03*
D43*
X69250000Y-20905000D03*
X69250000Y-19635000D03*
X69250000Y-18365000D03*
X69250000Y-17095000D03*
D44*
X63700000Y-20905000D03*
X63700000Y-19635000D03*
X63700000Y-18365000D03*
X63700000Y-17095000D03*
%TD*%
D45*
%TO.C,L2*%
X19950000Y-47400000D03*
X22050000Y-47400000D03*
%TD*%
D46*
%TO.C,Q7*%
X38662500Y-47850000D03*
X38662500Y-48800000D03*
X38662500Y-49750000D03*
X40937500Y-49750000D03*
X40937500Y-48800000D03*
X40937500Y-47850000D03*
%TD*%
D13*
%TO.C,C29*%
X24800000Y-49350000D03*
X24800000Y-47450000D03*
%TD*%
D29*
%TO.C,R18*%
X24800000Y-43975000D03*
X24800000Y-45625000D03*
%TD*%
D18*
%TO.C,C17*%
X24750000Y-23525000D03*
X24750000Y-26475000D03*
%TD*%
D29*
%TO.C,R8*%
X50720000Y-44260000D03*
X50720000Y-45910000D03*
%TD*%
D22*
%TO.C,R9*%
X46720000Y-42545000D03*
X48370000Y-42545000D03*
%TD*%
D18*
%TO.C,C15*%
X30750000Y-23525000D03*
X30750000Y-26475000D03*
%TD*%
D47*
%TO.C,R6*%
X61962500Y-17500000D03*
X59037500Y-17500000D03*
%TD*%
M02*
