%TF.GenerationSoftware,KiCad,Pcbnew,8.0.6*%
%TF.CreationDate,2024-12-20T12:02:24-05:00*%
%TF.ProjectId,PD Charger,50442043-6861-4726-9765-722e6b696361,0*%
%TF.SameCoordinates,Original*%
%TF.FileFunction,Legend,Bot*%
%TF.FilePolarity,Positive*%
%FSLAX46Y46*%
G04 Gerber Fmt 4.6, Leading zero omitted, Abs format (unit mm)*
G04 Created by KiCad (PCBNEW 8.0.6) date 2024-12-20 12:02:24*
%MOMM*%
%LPD*%
G01*
G04 APERTURE LIST*
%ADD10C,0.150000*%
%ADD11C,0.120000*%
G04 APERTURE END LIST*
D10*
X141477380Y-112535427D02*
X140991666Y-112535427D01*
X141234523Y-113385427D02*
X141234523Y-112535427D01*
X140708333Y-113385427D02*
X140708333Y-112535427D01*
X140708333Y-112535427D02*
X140384523Y-112535427D01*
X140384523Y-112535427D02*
X140303571Y-112575903D01*
X140303571Y-112575903D02*
X140263094Y-112616379D01*
X140263094Y-112616379D02*
X140222618Y-112697331D01*
X140222618Y-112697331D02*
X140222618Y-112818760D01*
X140222618Y-112818760D02*
X140263094Y-112899712D01*
X140263094Y-112899712D02*
X140303571Y-112940189D01*
X140303571Y-112940189D02*
X140384523Y-112980665D01*
X140384523Y-112980665D02*
X140708333Y-112980665D01*
X139413094Y-113385427D02*
X139898809Y-113385427D01*
X139655952Y-113385427D02*
X139655952Y-112535427D01*
X139655952Y-112535427D02*
X139736904Y-112656855D01*
X139736904Y-112656855D02*
X139817856Y-112737808D01*
X139817856Y-112737808D02*
X139898809Y-112778284D01*
X139129761Y-112535427D02*
X138563094Y-112535427D01*
X138563094Y-112535427D02*
X138927380Y-113385427D01*
X79072618Y-94035427D02*
X78586904Y-94035427D01*
X78829761Y-94885427D02*
X78829761Y-94035427D01*
X78303571Y-94885427D02*
X78303571Y-94035427D01*
X78303571Y-94035427D02*
X77979761Y-94035427D01*
X77979761Y-94035427D02*
X77898809Y-94075903D01*
X77898809Y-94075903D02*
X77858332Y-94116379D01*
X77858332Y-94116379D02*
X77817856Y-94197331D01*
X77817856Y-94197331D02*
X77817856Y-94318760D01*
X77817856Y-94318760D02*
X77858332Y-94399712D01*
X77858332Y-94399712D02*
X77898809Y-94440189D01*
X77898809Y-94440189D02*
X77979761Y-94480665D01*
X77979761Y-94480665D02*
X78303571Y-94480665D01*
X77048809Y-94035427D02*
X77453571Y-94035427D01*
X77453571Y-94035427D02*
X77494047Y-94440189D01*
X77494047Y-94440189D02*
X77453571Y-94399712D01*
X77453571Y-94399712D02*
X77372618Y-94359236D01*
X77372618Y-94359236D02*
X77170237Y-94359236D01*
X77170237Y-94359236D02*
X77089285Y-94399712D01*
X77089285Y-94399712D02*
X77048809Y-94440189D01*
X77048809Y-94440189D02*
X77008332Y-94521141D01*
X77008332Y-94521141D02*
X77008332Y-94723522D01*
X77008332Y-94723522D02*
X77048809Y-94804474D01*
X77048809Y-94804474D02*
X77089285Y-94844951D01*
X77089285Y-94844951D02*
X77170237Y-94885427D01*
X77170237Y-94885427D02*
X77372618Y-94885427D01*
X77372618Y-94885427D02*
X77453571Y-94844951D01*
X77453571Y-94844951D02*
X77494047Y-94804474D01*
X116572618Y-97035427D02*
X116086904Y-97035427D01*
X116329761Y-97885427D02*
X116329761Y-97035427D01*
X115803571Y-97885427D02*
X115803571Y-97035427D01*
X115803571Y-97035427D02*
X115479761Y-97035427D01*
X115479761Y-97035427D02*
X115398809Y-97075903D01*
X115398809Y-97075903D02*
X115358332Y-97116379D01*
X115358332Y-97116379D02*
X115317856Y-97197331D01*
X115317856Y-97197331D02*
X115317856Y-97318760D01*
X115317856Y-97318760D02*
X115358332Y-97399712D01*
X115358332Y-97399712D02*
X115398809Y-97440189D01*
X115398809Y-97440189D02*
X115479761Y-97480665D01*
X115479761Y-97480665D02*
X115803571Y-97480665D01*
X114832142Y-97399712D02*
X114913094Y-97359236D01*
X114913094Y-97359236D02*
X114953571Y-97318760D01*
X114953571Y-97318760D02*
X114994047Y-97237808D01*
X114994047Y-97237808D02*
X114994047Y-97197331D01*
X114994047Y-97197331D02*
X114953571Y-97116379D01*
X114953571Y-97116379D02*
X114913094Y-97075903D01*
X114913094Y-97075903D02*
X114832142Y-97035427D01*
X114832142Y-97035427D02*
X114670237Y-97035427D01*
X114670237Y-97035427D02*
X114589285Y-97075903D01*
X114589285Y-97075903D02*
X114548809Y-97116379D01*
X114548809Y-97116379D02*
X114508332Y-97197331D01*
X114508332Y-97197331D02*
X114508332Y-97237808D01*
X114508332Y-97237808D02*
X114548809Y-97318760D01*
X114548809Y-97318760D02*
X114589285Y-97359236D01*
X114589285Y-97359236D02*
X114670237Y-97399712D01*
X114670237Y-97399712D02*
X114832142Y-97399712D01*
X114832142Y-97399712D02*
X114913094Y-97440189D01*
X114913094Y-97440189D02*
X114953571Y-97480665D01*
X114953571Y-97480665D02*
X114994047Y-97561617D01*
X114994047Y-97561617D02*
X114994047Y-97723522D01*
X114994047Y-97723522D02*
X114953571Y-97804474D01*
X114953571Y-97804474D02*
X114913094Y-97844951D01*
X114913094Y-97844951D02*
X114832142Y-97885427D01*
X114832142Y-97885427D02*
X114670237Y-97885427D01*
X114670237Y-97885427D02*
X114589285Y-97844951D01*
X114589285Y-97844951D02*
X114548809Y-97804474D01*
X114548809Y-97804474D02*
X114508332Y-97723522D01*
X114508332Y-97723522D02*
X114508332Y-97561617D01*
X114508332Y-97561617D02*
X114548809Y-97480665D01*
X114548809Y-97480665D02*
X114589285Y-97440189D01*
X114589285Y-97440189D02*
X114670237Y-97399712D01*
X116477380Y-100285427D02*
X115991666Y-100285427D01*
X116234523Y-101135427D02*
X116234523Y-100285427D01*
X115708333Y-101135427D02*
X115708333Y-100285427D01*
X115708333Y-100285427D02*
X115384523Y-100285427D01*
X115384523Y-100285427D02*
X115303571Y-100325903D01*
X115303571Y-100325903D02*
X115263094Y-100366379D01*
X115263094Y-100366379D02*
X115222618Y-100447331D01*
X115222618Y-100447331D02*
X115222618Y-100568760D01*
X115222618Y-100568760D02*
X115263094Y-100649712D01*
X115263094Y-100649712D02*
X115303571Y-100690189D01*
X115303571Y-100690189D02*
X115384523Y-100730665D01*
X115384523Y-100730665D02*
X115708333Y-100730665D01*
X114413094Y-101135427D02*
X114898809Y-101135427D01*
X114655952Y-101135427D02*
X114655952Y-100285427D01*
X114655952Y-100285427D02*
X114736904Y-100406855D01*
X114736904Y-100406855D02*
X114817856Y-100487808D01*
X114817856Y-100487808D02*
X114898809Y-100528284D01*
X113886904Y-100285427D02*
X113805951Y-100285427D01*
X113805951Y-100285427D02*
X113724999Y-100325903D01*
X113724999Y-100325903D02*
X113684523Y-100366379D01*
X113684523Y-100366379D02*
X113644047Y-100447331D01*
X113644047Y-100447331D02*
X113603570Y-100609236D01*
X113603570Y-100609236D02*
X113603570Y-100811617D01*
X113603570Y-100811617D02*
X113644047Y-100973522D01*
X113644047Y-100973522D02*
X113684523Y-101054474D01*
X113684523Y-101054474D02*
X113724999Y-101094951D01*
X113724999Y-101094951D02*
X113805951Y-101135427D01*
X113805951Y-101135427D02*
X113886904Y-101135427D01*
X113886904Y-101135427D02*
X113967856Y-101094951D01*
X113967856Y-101094951D02*
X114008332Y-101054474D01*
X114008332Y-101054474D02*
X114048809Y-100973522D01*
X114048809Y-100973522D02*
X114089285Y-100811617D01*
X114089285Y-100811617D02*
X114089285Y-100609236D01*
X114089285Y-100609236D02*
X114048809Y-100447331D01*
X114048809Y-100447331D02*
X114008332Y-100366379D01*
X114008332Y-100366379D02*
X113967856Y-100325903D01*
X113967856Y-100325903D02*
X113886904Y-100285427D01*
X72477380Y-106535427D02*
X71991666Y-106535427D01*
X72234523Y-107385427D02*
X72234523Y-106535427D01*
X71708333Y-107385427D02*
X71708333Y-106535427D01*
X71708333Y-106535427D02*
X71384523Y-106535427D01*
X71384523Y-106535427D02*
X71303571Y-106575903D01*
X71303571Y-106575903D02*
X71263094Y-106616379D01*
X71263094Y-106616379D02*
X71222618Y-106697331D01*
X71222618Y-106697331D02*
X71222618Y-106818760D01*
X71222618Y-106818760D02*
X71263094Y-106899712D01*
X71263094Y-106899712D02*
X71303571Y-106940189D01*
X71303571Y-106940189D02*
X71384523Y-106980665D01*
X71384523Y-106980665D02*
X71708333Y-106980665D01*
X70413094Y-107385427D02*
X70898809Y-107385427D01*
X70655952Y-107385427D02*
X70655952Y-106535427D01*
X70655952Y-106535427D02*
X70736904Y-106656855D01*
X70736904Y-106656855D02*
X70817856Y-106737808D01*
X70817856Y-106737808D02*
X70898809Y-106778284D01*
X69684523Y-106535427D02*
X69846428Y-106535427D01*
X69846428Y-106535427D02*
X69927380Y-106575903D01*
X69927380Y-106575903D02*
X69967856Y-106616379D01*
X69967856Y-106616379D02*
X70048809Y-106737808D01*
X70048809Y-106737808D02*
X70089285Y-106899712D01*
X70089285Y-106899712D02*
X70089285Y-107223522D01*
X70089285Y-107223522D02*
X70048809Y-107304474D01*
X70048809Y-107304474D02*
X70008332Y-107344951D01*
X70008332Y-107344951D02*
X69927380Y-107385427D01*
X69927380Y-107385427D02*
X69765475Y-107385427D01*
X69765475Y-107385427D02*
X69684523Y-107344951D01*
X69684523Y-107344951D02*
X69644047Y-107304474D01*
X69644047Y-107304474D02*
X69603570Y-107223522D01*
X69603570Y-107223522D02*
X69603570Y-107021141D01*
X69603570Y-107021141D02*
X69644047Y-106940189D01*
X69644047Y-106940189D02*
X69684523Y-106899712D01*
X69684523Y-106899712D02*
X69765475Y-106859236D01*
X69765475Y-106859236D02*
X69927380Y-106859236D01*
X69927380Y-106859236D02*
X70008332Y-106899712D01*
X70008332Y-106899712D02*
X70048809Y-106940189D01*
X70048809Y-106940189D02*
X70089285Y-107021141D01*
X67477380Y-103035427D02*
X66991666Y-103035427D01*
X67234523Y-103885427D02*
X67234523Y-103035427D01*
X66708333Y-103885427D02*
X66708333Y-103035427D01*
X66708333Y-103035427D02*
X66384523Y-103035427D01*
X66384523Y-103035427D02*
X66303571Y-103075903D01*
X66303571Y-103075903D02*
X66263094Y-103116379D01*
X66263094Y-103116379D02*
X66222618Y-103197331D01*
X66222618Y-103197331D02*
X66222618Y-103318760D01*
X66222618Y-103318760D02*
X66263094Y-103399712D01*
X66263094Y-103399712D02*
X66303571Y-103440189D01*
X66303571Y-103440189D02*
X66384523Y-103480665D01*
X66384523Y-103480665D02*
X66708333Y-103480665D01*
X65413094Y-103885427D02*
X65898809Y-103885427D01*
X65655952Y-103885427D02*
X65655952Y-103035427D01*
X65655952Y-103035427D02*
X65736904Y-103156855D01*
X65736904Y-103156855D02*
X65817856Y-103237808D01*
X65817856Y-103237808D02*
X65898809Y-103278284D01*
X64684523Y-103318760D02*
X64684523Y-103885427D01*
X64886904Y-102994951D02*
X65089285Y-103602093D01*
X65089285Y-103602093D02*
X64563094Y-103602093D01*
X112046428Y-106804474D02*
X112086904Y-106844951D01*
X112086904Y-106844951D02*
X112208333Y-106885427D01*
X112208333Y-106885427D02*
X112289285Y-106885427D01*
X112289285Y-106885427D02*
X112410714Y-106844951D01*
X112410714Y-106844951D02*
X112491666Y-106763998D01*
X112491666Y-106763998D02*
X112532143Y-106683046D01*
X112532143Y-106683046D02*
X112572619Y-106521141D01*
X112572619Y-106521141D02*
X112572619Y-106399712D01*
X112572619Y-106399712D02*
X112532143Y-106237808D01*
X112532143Y-106237808D02*
X112491666Y-106156855D01*
X112491666Y-106156855D02*
X112410714Y-106075903D01*
X112410714Y-106075903D02*
X112289285Y-106035427D01*
X112289285Y-106035427D02*
X112208333Y-106035427D01*
X112208333Y-106035427D02*
X112086904Y-106075903D01*
X112086904Y-106075903D02*
X112046428Y-106116379D01*
X111236904Y-106885427D02*
X111722619Y-106885427D01*
X111479762Y-106885427D02*
X111479762Y-106035427D01*
X111479762Y-106035427D02*
X111560714Y-106156855D01*
X111560714Y-106156855D02*
X111641666Y-106237808D01*
X111641666Y-106237808D02*
X111722619Y-106278284D01*
X110467857Y-106035427D02*
X110872619Y-106035427D01*
X110872619Y-106035427D02*
X110913095Y-106440189D01*
X110913095Y-106440189D02*
X110872619Y-106399712D01*
X110872619Y-106399712D02*
X110791666Y-106359236D01*
X110791666Y-106359236D02*
X110589285Y-106359236D01*
X110589285Y-106359236D02*
X110508333Y-106399712D01*
X110508333Y-106399712D02*
X110467857Y-106440189D01*
X110467857Y-106440189D02*
X110427380Y-106521141D01*
X110427380Y-106521141D02*
X110427380Y-106723522D01*
X110427380Y-106723522D02*
X110467857Y-106804474D01*
X110467857Y-106804474D02*
X110508333Y-106844951D01*
X110508333Y-106844951D02*
X110589285Y-106885427D01*
X110589285Y-106885427D02*
X110791666Y-106885427D01*
X110791666Y-106885427D02*
X110872619Y-106844951D01*
X110872619Y-106844951D02*
X110913095Y-106804474D01*
X65477380Y-96535427D02*
X64991666Y-96535427D01*
X65234523Y-97385427D02*
X65234523Y-96535427D01*
X64708333Y-97385427D02*
X64708333Y-96535427D01*
X64708333Y-96535427D02*
X64384523Y-96535427D01*
X64384523Y-96535427D02*
X64303571Y-96575903D01*
X64303571Y-96575903D02*
X64263094Y-96616379D01*
X64263094Y-96616379D02*
X64222618Y-96697331D01*
X64222618Y-96697331D02*
X64222618Y-96818760D01*
X64222618Y-96818760D02*
X64263094Y-96899712D01*
X64263094Y-96899712D02*
X64303571Y-96940189D01*
X64303571Y-96940189D02*
X64384523Y-96980665D01*
X64384523Y-96980665D02*
X64708333Y-96980665D01*
X63413094Y-97385427D02*
X63898809Y-97385427D01*
X63655952Y-97385427D02*
X63655952Y-96535427D01*
X63655952Y-96535427D02*
X63736904Y-96656855D01*
X63736904Y-96656855D02*
X63817856Y-96737808D01*
X63817856Y-96737808D02*
X63898809Y-96778284D01*
X62603570Y-97385427D02*
X63089285Y-97385427D01*
X62846428Y-97385427D02*
X62846428Y-96535427D01*
X62846428Y-96535427D02*
X62927380Y-96656855D01*
X62927380Y-96656855D02*
X63008332Y-96737808D01*
X63008332Y-96737808D02*
X63089285Y-96778284D01*
X65477380Y-90535427D02*
X64991666Y-90535427D01*
X65234523Y-91385427D02*
X65234523Y-90535427D01*
X64708333Y-91385427D02*
X64708333Y-90535427D01*
X64708333Y-90535427D02*
X64384523Y-90535427D01*
X64384523Y-90535427D02*
X64303571Y-90575903D01*
X64303571Y-90575903D02*
X64263094Y-90616379D01*
X64263094Y-90616379D02*
X64222618Y-90697331D01*
X64222618Y-90697331D02*
X64222618Y-90818760D01*
X64222618Y-90818760D02*
X64263094Y-90899712D01*
X64263094Y-90899712D02*
X64303571Y-90940189D01*
X64303571Y-90940189D02*
X64384523Y-90980665D01*
X64384523Y-90980665D02*
X64708333Y-90980665D01*
X63413094Y-91385427D02*
X63898809Y-91385427D01*
X63655952Y-91385427D02*
X63655952Y-90535427D01*
X63655952Y-90535427D02*
X63736904Y-90656855D01*
X63736904Y-90656855D02*
X63817856Y-90737808D01*
X63817856Y-90737808D02*
X63898809Y-90778284D01*
X63089285Y-90616379D02*
X63048809Y-90575903D01*
X63048809Y-90575903D02*
X62967856Y-90535427D01*
X62967856Y-90535427D02*
X62765475Y-90535427D01*
X62765475Y-90535427D02*
X62684523Y-90575903D01*
X62684523Y-90575903D02*
X62644047Y-90616379D01*
X62644047Y-90616379D02*
X62603570Y-90697331D01*
X62603570Y-90697331D02*
X62603570Y-90778284D01*
X62603570Y-90778284D02*
X62644047Y-90899712D01*
X62644047Y-90899712D02*
X63129761Y-91385427D01*
X63129761Y-91385427D02*
X62603570Y-91385427D01*
X141477380Y-92035427D02*
X140991666Y-92035427D01*
X141234523Y-92885427D02*
X141234523Y-92035427D01*
X140708333Y-92885427D02*
X140708333Y-92035427D01*
X140708333Y-92035427D02*
X140384523Y-92035427D01*
X140384523Y-92035427D02*
X140303571Y-92075903D01*
X140303571Y-92075903D02*
X140263094Y-92116379D01*
X140263094Y-92116379D02*
X140222618Y-92197331D01*
X140222618Y-92197331D02*
X140222618Y-92318760D01*
X140222618Y-92318760D02*
X140263094Y-92399712D01*
X140263094Y-92399712D02*
X140303571Y-92440189D01*
X140303571Y-92440189D02*
X140384523Y-92480665D01*
X140384523Y-92480665D02*
X140708333Y-92480665D01*
X139413094Y-92885427D02*
X139898809Y-92885427D01*
X139655952Y-92885427D02*
X139655952Y-92035427D01*
X139655952Y-92035427D02*
X139736904Y-92156855D01*
X139736904Y-92156855D02*
X139817856Y-92237808D01*
X139817856Y-92237808D02*
X139898809Y-92278284D01*
X138927380Y-92399712D02*
X139008332Y-92359236D01*
X139008332Y-92359236D02*
X139048809Y-92318760D01*
X139048809Y-92318760D02*
X139089285Y-92237808D01*
X139089285Y-92237808D02*
X139089285Y-92197331D01*
X139089285Y-92197331D02*
X139048809Y-92116379D01*
X139048809Y-92116379D02*
X139008332Y-92075903D01*
X139008332Y-92075903D02*
X138927380Y-92035427D01*
X138927380Y-92035427D02*
X138765475Y-92035427D01*
X138765475Y-92035427D02*
X138684523Y-92075903D01*
X138684523Y-92075903D02*
X138644047Y-92116379D01*
X138644047Y-92116379D02*
X138603570Y-92197331D01*
X138603570Y-92197331D02*
X138603570Y-92237808D01*
X138603570Y-92237808D02*
X138644047Y-92318760D01*
X138644047Y-92318760D02*
X138684523Y-92359236D01*
X138684523Y-92359236D02*
X138765475Y-92399712D01*
X138765475Y-92399712D02*
X138927380Y-92399712D01*
X138927380Y-92399712D02*
X139008332Y-92440189D01*
X139008332Y-92440189D02*
X139048809Y-92480665D01*
X139048809Y-92480665D02*
X139089285Y-92561617D01*
X139089285Y-92561617D02*
X139089285Y-92723522D01*
X139089285Y-92723522D02*
X139048809Y-92804474D01*
X139048809Y-92804474D02*
X139008332Y-92844951D01*
X139008332Y-92844951D02*
X138927380Y-92885427D01*
X138927380Y-92885427D02*
X138765475Y-92885427D01*
X138765475Y-92885427D02*
X138684523Y-92844951D01*
X138684523Y-92844951D02*
X138644047Y-92804474D01*
X138644047Y-92804474D02*
X138603570Y-92723522D01*
X138603570Y-92723522D02*
X138603570Y-92561617D01*
X138603570Y-92561617D02*
X138644047Y-92480665D01*
X138644047Y-92480665D02*
X138684523Y-92440189D01*
X138684523Y-92440189D02*
X138765475Y-92399712D01*
X109072618Y-91035427D02*
X108586904Y-91035427D01*
X108829761Y-91885427D02*
X108829761Y-91035427D01*
X108303571Y-91885427D02*
X108303571Y-91035427D01*
X108303571Y-91035427D02*
X107979761Y-91035427D01*
X107979761Y-91035427D02*
X107898809Y-91075903D01*
X107898809Y-91075903D02*
X107858332Y-91116379D01*
X107858332Y-91116379D02*
X107817856Y-91197331D01*
X107817856Y-91197331D02*
X107817856Y-91318760D01*
X107817856Y-91318760D02*
X107858332Y-91399712D01*
X107858332Y-91399712D02*
X107898809Y-91440189D01*
X107898809Y-91440189D02*
X107979761Y-91480665D01*
X107979761Y-91480665D02*
X108303571Y-91480665D01*
X107089285Y-91318760D02*
X107089285Y-91885427D01*
X107291666Y-90994951D02*
X107494047Y-91602093D01*
X107494047Y-91602093D02*
X106967856Y-91602093D01*
X79072618Y-100035427D02*
X78586904Y-100035427D01*
X78829761Y-100885427D02*
X78829761Y-100035427D01*
X78303571Y-100885427D02*
X78303571Y-100035427D01*
X78303571Y-100035427D02*
X77979761Y-100035427D01*
X77979761Y-100035427D02*
X77898809Y-100075903D01*
X77898809Y-100075903D02*
X77858332Y-100116379D01*
X77858332Y-100116379D02*
X77817856Y-100197331D01*
X77817856Y-100197331D02*
X77817856Y-100318760D01*
X77817856Y-100318760D02*
X77858332Y-100399712D01*
X77858332Y-100399712D02*
X77898809Y-100440189D01*
X77898809Y-100440189D02*
X77979761Y-100480665D01*
X77979761Y-100480665D02*
X78303571Y-100480665D01*
X77413094Y-100885427D02*
X77251190Y-100885427D01*
X77251190Y-100885427D02*
X77170237Y-100844951D01*
X77170237Y-100844951D02*
X77129761Y-100804474D01*
X77129761Y-100804474D02*
X77048809Y-100683046D01*
X77048809Y-100683046D02*
X77008332Y-100521141D01*
X77008332Y-100521141D02*
X77008332Y-100197331D01*
X77008332Y-100197331D02*
X77048809Y-100116379D01*
X77048809Y-100116379D02*
X77089285Y-100075903D01*
X77089285Y-100075903D02*
X77170237Y-100035427D01*
X77170237Y-100035427D02*
X77332142Y-100035427D01*
X77332142Y-100035427D02*
X77413094Y-100075903D01*
X77413094Y-100075903D02*
X77453571Y-100116379D01*
X77453571Y-100116379D02*
X77494047Y-100197331D01*
X77494047Y-100197331D02*
X77494047Y-100399712D01*
X77494047Y-100399712D02*
X77453571Y-100480665D01*
X77453571Y-100480665D02*
X77413094Y-100521141D01*
X77413094Y-100521141D02*
X77332142Y-100561617D01*
X77332142Y-100561617D02*
X77170237Y-100561617D01*
X77170237Y-100561617D02*
X77089285Y-100521141D01*
X77089285Y-100521141D02*
X77048809Y-100480665D01*
X77048809Y-100480665D02*
X77008332Y-100399712D01*
X116572618Y-94035427D02*
X116086904Y-94035427D01*
X116329761Y-94885427D02*
X116329761Y-94035427D01*
X115803571Y-94885427D02*
X115803571Y-94035427D01*
X115803571Y-94035427D02*
X115479761Y-94035427D01*
X115479761Y-94035427D02*
X115398809Y-94075903D01*
X115398809Y-94075903D02*
X115358332Y-94116379D01*
X115358332Y-94116379D02*
X115317856Y-94197331D01*
X115317856Y-94197331D02*
X115317856Y-94318760D01*
X115317856Y-94318760D02*
X115358332Y-94399712D01*
X115358332Y-94399712D02*
X115398809Y-94440189D01*
X115398809Y-94440189D02*
X115479761Y-94480665D01*
X115479761Y-94480665D02*
X115803571Y-94480665D01*
X114589285Y-94035427D02*
X114751190Y-94035427D01*
X114751190Y-94035427D02*
X114832142Y-94075903D01*
X114832142Y-94075903D02*
X114872618Y-94116379D01*
X114872618Y-94116379D02*
X114953571Y-94237808D01*
X114953571Y-94237808D02*
X114994047Y-94399712D01*
X114994047Y-94399712D02*
X114994047Y-94723522D01*
X114994047Y-94723522D02*
X114953571Y-94804474D01*
X114953571Y-94804474D02*
X114913094Y-94844951D01*
X114913094Y-94844951D02*
X114832142Y-94885427D01*
X114832142Y-94885427D02*
X114670237Y-94885427D01*
X114670237Y-94885427D02*
X114589285Y-94844951D01*
X114589285Y-94844951D02*
X114548809Y-94804474D01*
X114548809Y-94804474D02*
X114508332Y-94723522D01*
X114508332Y-94723522D02*
X114508332Y-94521141D01*
X114508332Y-94521141D02*
X114548809Y-94440189D01*
X114548809Y-94440189D02*
X114589285Y-94399712D01*
X114589285Y-94399712D02*
X114670237Y-94359236D01*
X114670237Y-94359236D02*
X114832142Y-94359236D01*
X114832142Y-94359236D02*
X114913094Y-94399712D01*
X114913094Y-94399712D02*
X114953571Y-94440189D01*
X114953571Y-94440189D02*
X114994047Y-94521141D01*
X67477380Y-109535427D02*
X66991666Y-109535427D01*
X67234523Y-110385427D02*
X67234523Y-109535427D01*
X66708333Y-110385427D02*
X66708333Y-109535427D01*
X66708333Y-109535427D02*
X66384523Y-109535427D01*
X66384523Y-109535427D02*
X66303571Y-109575903D01*
X66303571Y-109575903D02*
X66263094Y-109616379D01*
X66263094Y-109616379D02*
X66222618Y-109697331D01*
X66222618Y-109697331D02*
X66222618Y-109818760D01*
X66222618Y-109818760D02*
X66263094Y-109899712D01*
X66263094Y-109899712D02*
X66303571Y-109940189D01*
X66303571Y-109940189D02*
X66384523Y-109980665D01*
X66384523Y-109980665D02*
X66708333Y-109980665D01*
X65413094Y-110385427D02*
X65898809Y-110385427D01*
X65655952Y-110385427D02*
X65655952Y-109535427D01*
X65655952Y-109535427D02*
X65736904Y-109656855D01*
X65736904Y-109656855D02*
X65817856Y-109737808D01*
X65817856Y-109737808D02*
X65898809Y-109778284D01*
X65129761Y-109535427D02*
X64603570Y-109535427D01*
X64603570Y-109535427D02*
X64886904Y-109859236D01*
X64886904Y-109859236D02*
X64765475Y-109859236D01*
X64765475Y-109859236D02*
X64684523Y-109899712D01*
X64684523Y-109899712D02*
X64644047Y-109940189D01*
X64644047Y-109940189D02*
X64603570Y-110021141D01*
X64603570Y-110021141D02*
X64603570Y-110223522D01*
X64603570Y-110223522D02*
X64644047Y-110304474D01*
X64644047Y-110304474D02*
X64684523Y-110344951D01*
X64684523Y-110344951D02*
X64765475Y-110385427D01*
X64765475Y-110385427D02*
X65008332Y-110385427D01*
X65008332Y-110385427D02*
X65089285Y-110344951D01*
X65089285Y-110344951D02*
X65129761Y-110304474D01*
X79072618Y-97035427D02*
X78586904Y-97035427D01*
X78829761Y-97885427D02*
X78829761Y-97035427D01*
X78303571Y-97885427D02*
X78303571Y-97035427D01*
X78303571Y-97035427D02*
X77979761Y-97035427D01*
X77979761Y-97035427D02*
X77898809Y-97075903D01*
X77898809Y-97075903D02*
X77858332Y-97116379D01*
X77858332Y-97116379D02*
X77817856Y-97197331D01*
X77817856Y-97197331D02*
X77817856Y-97318760D01*
X77817856Y-97318760D02*
X77858332Y-97399712D01*
X77858332Y-97399712D02*
X77898809Y-97440189D01*
X77898809Y-97440189D02*
X77979761Y-97480665D01*
X77979761Y-97480665D02*
X78303571Y-97480665D01*
X77534523Y-97035427D02*
X76967856Y-97035427D01*
X76967856Y-97035427D02*
X77332142Y-97885427D01*
X126572618Y-99535427D02*
X126086904Y-99535427D01*
X126329761Y-100385427D02*
X126329761Y-99535427D01*
X125803571Y-100385427D02*
X125803571Y-99535427D01*
X125803571Y-99535427D02*
X125479761Y-99535427D01*
X125479761Y-99535427D02*
X125398809Y-99575903D01*
X125398809Y-99575903D02*
X125358332Y-99616379D01*
X125358332Y-99616379D02*
X125317856Y-99697331D01*
X125317856Y-99697331D02*
X125317856Y-99818760D01*
X125317856Y-99818760D02*
X125358332Y-99899712D01*
X125358332Y-99899712D02*
X125398809Y-99940189D01*
X125398809Y-99940189D02*
X125479761Y-99980665D01*
X125479761Y-99980665D02*
X125803571Y-99980665D01*
X124994047Y-99616379D02*
X124953571Y-99575903D01*
X124953571Y-99575903D02*
X124872618Y-99535427D01*
X124872618Y-99535427D02*
X124670237Y-99535427D01*
X124670237Y-99535427D02*
X124589285Y-99575903D01*
X124589285Y-99575903D02*
X124548809Y-99616379D01*
X124548809Y-99616379D02*
X124508332Y-99697331D01*
X124508332Y-99697331D02*
X124508332Y-99778284D01*
X124508332Y-99778284D02*
X124548809Y-99899712D01*
X124548809Y-99899712D02*
X125034523Y-100385427D01*
X125034523Y-100385427D02*
X124508332Y-100385427D01*
X97046428Y-106804474D02*
X97086904Y-106844951D01*
X97086904Y-106844951D02*
X97208333Y-106885427D01*
X97208333Y-106885427D02*
X97289285Y-106885427D01*
X97289285Y-106885427D02*
X97410714Y-106844951D01*
X97410714Y-106844951D02*
X97491666Y-106763998D01*
X97491666Y-106763998D02*
X97532143Y-106683046D01*
X97532143Y-106683046D02*
X97572619Y-106521141D01*
X97572619Y-106521141D02*
X97572619Y-106399712D01*
X97572619Y-106399712D02*
X97532143Y-106237808D01*
X97532143Y-106237808D02*
X97491666Y-106156855D01*
X97491666Y-106156855D02*
X97410714Y-106075903D01*
X97410714Y-106075903D02*
X97289285Y-106035427D01*
X97289285Y-106035427D02*
X97208333Y-106035427D01*
X97208333Y-106035427D02*
X97086904Y-106075903D01*
X97086904Y-106075903D02*
X97046428Y-106116379D01*
X96236904Y-106885427D02*
X96722619Y-106885427D01*
X96479762Y-106885427D02*
X96479762Y-106035427D01*
X96479762Y-106035427D02*
X96560714Y-106156855D01*
X96560714Y-106156855D02*
X96641666Y-106237808D01*
X96641666Y-106237808D02*
X96722619Y-106278284D01*
X95508333Y-106318760D02*
X95508333Y-106885427D01*
X95710714Y-105994951D02*
X95913095Y-106602093D01*
X95913095Y-106602093D02*
X95386904Y-106602093D01*
X72477380Y-96535427D02*
X71991666Y-96535427D01*
X72234523Y-97385427D02*
X72234523Y-96535427D01*
X71708333Y-97385427D02*
X71708333Y-96535427D01*
X71708333Y-96535427D02*
X71384523Y-96535427D01*
X71384523Y-96535427D02*
X71303571Y-96575903D01*
X71303571Y-96575903D02*
X71263094Y-96616379D01*
X71263094Y-96616379D02*
X71222618Y-96697331D01*
X71222618Y-96697331D02*
X71222618Y-96818760D01*
X71222618Y-96818760D02*
X71263094Y-96899712D01*
X71263094Y-96899712D02*
X71303571Y-96940189D01*
X71303571Y-96940189D02*
X71384523Y-96980665D01*
X71384523Y-96980665D02*
X71708333Y-96980665D01*
X70413094Y-97385427D02*
X70898809Y-97385427D01*
X70655952Y-97385427D02*
X70655952Y-96535427D01*
X70655952Y-96535427D02*
X70736904Y-96656855D01*
X70736904Y-96656855D02*
X70817856Y-96737808D01*
X70817856Y-96737808D02*
X70898809Y-96778284D01*
X69644047Y-96535427D02*
X70048809Y-96535427D01*
X70048809Y-96535427D02*
X70089285Y-96940189D01*
X70089285Y-96940189D02*
X70048809Y-96899712D01*
X70048809Y-96899712D02*
X69967856Y-96859236D01*
X69967856Y-96859236D02*
X69765475Y-96859236D01*
X69765475Y-96859236D02*
X69684523Y-96899712D01*
X69684523Y-96899712D02*
X69644047Y-96940189D01*
X69644047Y-96940189D02*
X69603570Y-97021141D01*
X69603570Y-97021141D02*
X69603570Y-97223522D01*
X69603570Y-97223522D02*
X69644047Y-97304474D01*
X69644047Y-97304474D02*
X69684523Y-97344951D01*
X69684523Y-97344951D02*
X69765475Y-97385427D01*
X69765475Y-97385427D02*
X69967856Y-97385427D01*
X69967856Y-97385427D02*
X70048809Y-97344951D01*
X70048809Y-97344951D02*
X70089285Y-97304474D01*
X92072618Y-91035427D02*
X91586904Y-91035427D01*
X91829761Y-91885427D02*
X91829761Y-91035427D01*
X91303571Y-91885427D02*
X91303571Y-91035427D01*
X91303571Y-91035427D02*
X90979761Y-91035427D01*
X90979761Y-91035427D02*
X90898809Y-91075903D01*
X90898809Y-91075903D02*
X90858332Y-91116379D01*
X90858332Y-91116379D02*
X90817856Y-91197331D01*
X90817856Y-91197331D02*
X90817856Y-91318760D01*
X90817856Y-91318760D02*
X90858332Y-91399712D01*
X90858332Y-91399712D02*
X90898809Y-91440189D01*
X90898809Y-91440189D02*
X90979761Y-91480665D01*
X90979761Y-91480665D02*
X91303571Y-91480665D01*
X90534523Y-91035427D02*
X90008332Y-91035427D01*
X90008332Y-91035427D02*
X90291666Y-91359236D01*
X90291666Y-91359236D02*
X90170237Y-91359236D01*
X90170237Y-91359236D02*
X90089285Y-91399712D01*
X90089285Y-91399712D02*
X90048809Y-91440189D01*
X90048809Y-91440189D02*
X90008332Y-91521141D01*
X90008332Y-91521141D02*
X90008332Y-91723522D01*
X90008332Y-91723522D02*
X90048809Y-91804474D01*
X90048809Y-91804474D02*
X90089285Y-91844951D01*
X90089285Y-91844951D02*
X90170237Y-91885427D01*
X90170237Y-91885427D02*
X90413094Y-91885427D01*
X90413094Y-91885427D02*
X90494047Y-91844951D01*
X90494047Y-91844951D02*
X90534523Y-91804474D01*
X79072618Y-109035427D02*
X78586904Y-109035427D01*
X78829761Y-109885427D02*
X78829761Y-109035427D01*
X78303571Y-109885427D02*
X78303571Y-109035427D01*
X78303571Y-109035427D02*
X77979761Y-109035427D01*
X77979761Y-109035427D02*
X77898809Y-109075903D01*
X77898809Y-109075903D02*
X77858332Y-109116379D01*
X77858332Y-109116379D02*
X77817856Y-109197331D01*
X77817856Y-109197331D02*
X77817856Y-109318760D01*
X77817856Y-109318760D02*
X77858332Y-109399712D01*
X77858332Y-109399712D02*
X77898809Y-109440189D01*
X77898809Y-109440189D02*
X77979761Y-109480665D01*
X77979761Y-109480665D02*
X78303571Y-109480665D01*
X77008332Y-109885427D02*
X77494047Y-109885427D01*
X77251190Y-109885427D02*
X77251190Y-109035427D01*
X77251190Y-109035427D02*
X77332142Y-109156855D01*
X77332142Y-109156855D02*
X77413094Y-109237808D01*
X77413094Y-109237808D02*
X77494047Y-109278284D01*
D11*
%TO.C,J1*%
X71995000Y-130000000D02*
X71995000Y-128670000D01*
X71995000Y-128670000D02*
X73325000Y-128670000D01*
X127995000Y-131330000D02*
X74595000Y-131330000D01*
X74595000Y-131330000D02*
X74595000Y-128670000D01*
X127995000Y-128670000D02*
X74595000Y-128670000D01*
X127995000Y-131330000D02*
X127995000Y-128670000D01*
D10*
%TO.C,TP17*%
X141400000Y-110000000D02*
G75*
G02*
X138600000Y-110000000I-1400000J0D01*
G01*
X138600000Y-110000000D02*
G75*
G02*
X141400000Y-110000000I1400000J0D01*
G01*
D11*
%TO.C,TP5*%
X81200000Y-94500000D02*
G75*
G02*
X79800000Y-94500000I-700000J0D01*
G01*
X79800000Y-94500000D02*
G75*
G02*
X81200000Y-94500000I700000J0D01*
G01*
%TO.C,TP8*%
X118450000Y-97500000D02*
G75*
G02*
X117050000Y-97500000I-700000J0D01*
G01*
X117050000Y-97500000D02*
G75*
G02*
X118450000Y-97500000I700000J0D01*
G01*
%TO.C,TP10*%
X118450000Y-100750000D02*
G75*
G02*
X117050000Y-100750000I-700000J0D01*
G01*
X117050000Y-100750000D02*
G75*
G02*
X118450000Y-100750000I700000J0D01*
G01*
%TO.C,TP16*%
X71700000Y-105000000D02*
G75*
G02*
X70300000Y-105000000I-700000J0D01*
G01*
X70300000Y-105000000D02*
G75*
G02*
X71700000Y-105000000I700000J0D01*
G01*
%TO.C,TP14*%
X66700000Y-105000000D02*
G75*
G02*
X65300000Y-105000000I-700000J0D01*
G01*
X65300000Y-105000000D02*
G75*
G02*
X66700000Y-105000000I700000J0D01*
G01*
%TO.C,C15*%
X102240000Y-95804437D02*
X103304437Y-94740000D01*
X102240000Y-105260000D02*
X102240000Y-95804437D01*
X105040000Y-94500000D02*
X105040000Y-93250000D01*
X105665000Y-93875000D02*
X104415000Y-93875000D01*
X106290000Y-94740000D02*
X103304437Y-94740000D01*
X106290000Y-105260000D02*
X102240000Y-105260000D01*
X108710000Y-94740000D02*
X111695563Y-94740000D01*
X108710000Y-105260000D02*
X112760000Y-105260000D01*
X112760000Y-95804437D02*
X111695563Y-94740000D01*
X112760000Y-105260000D02*
X112760000Y-95804437D01*
%TO.C,TP11*%
X64700000Y-95000000D02*
G75*
G02*
X63300000Y-95000000I-700000J0D01*
G01*
X63300000Y-95000000D02*
G75*
G02*
X64700000Y-95000000I700000J0D01*
G01*
%TO.C,TP12*%
X64700000Y-92500000D02*
G75*
G02*
X63300000Y-92500000I-700000J0D01*
G01*
X63300000Y-92500000D02*
G75*
G02*
X64700000Y-92500000I700000J0D01*
G01*
D10*
%TO.C,TP18*%
X141400000Y-90000000D02*
G75*
G02*
X138600000Y-90000000I-1400000J0D01*
G01*
X138600000Y-90000000D02*
G75*
G02*
X141400000Y-90000000I1400000J0D01*
G01*
%TO.C,TP4*%
X109400000Y-89000000D02*
G75*
G02*
X106600000Y-89000000I-1400000J0D01*
G01*
X106600000Y-89000000D02*
G75*
G02*
X109400000Y-89000000I1400000J0D01*
G01*
D11*
%TO.C,TP9*%
X81200000Y-100500000D02*
G75*
G02*
X79800000Y-100500000I-700000J0D01*
G01*
X79800000Y-100500000D02*
G75*
G02*
X81200000Y-100500000I700000J0D01*
G01*
%TO.C,TP6*%
X118450000Y-94500000D02*
G75*
G02*
X117050000Y-94500000I-700000J0D01*
G01*
X117050000Y-94500000D02*
G75*
G02*
X118450000Y-94500000I700000J0D01*
G01*
%TO.C,TP13*%
X66700000Y-108000000D02*
G75*
G02*
X65300000Y-108000000I-700000J0D01*
G01*
X65300000Y-108000000D02*
G75*
G02*
X66700000Y-108000000I700000J0D01*
G01*
%TO.C,TP7*%
X81200000Y-97500000D02*
G75*
G02*
X79800000Y-97500000I-700000J0D01*
G01*
X79800000Y-97500000D02*
G75*
G02*
X81200000Y-97500000I700000J0D01*
G01*
D10*
%TO.C,TP2*%
X126900000Y-97500000D02*
G75*
G02*
X124100000Y-97500000I-1400000J0D01*
G01*
X124100000Y-97500000D02*
G75*
G02*
X126900000Y-97500000I1400000J0D01*
G01*
D11*
%TO.C,C14*%
X87240000Y-95804437D02*
X88304437Y-94740000D01*
X87240000Y-105260000D02*
X87240000Y-95804437D01*
X90040000Y-94500000D02*
X90040000Y-93250000D01*
X90665000Y-93875000D02*
X89415000Y-93875000D01*
X91290000Y-94740000D02*
X88304437Y-94740000D01*
X91290000Y-105260000D02*
X87240000Y-105260000D01*
X93710000Y-94740000D02*
X96695563Y-94740000D01*
X93710000Y-105260000D02*
X97760000Y-105260000D01*
X97760000Y-95804437D02*
X96695563Y-94740000D01*
X97760000Y-105260000D02*
X97760000Y-95804437D01*
%TO.C,TP15*%
X71700000Y-95000000D02*
G75*
G02*
X70300000Y-95000000I-700000J0D01*
G01*
X70300000Y-95000000D02*
G75*
G02*
X71700000Y-95000000I700000J0D01*
G01*
D10*
%TO.C,TP3*%
X92400000Y-89000000D02*
G75*
G02*
X89600000Y-89000000I-1400000J0D01*
G01*
X89600000Y-89000000D02*
G75*
G02*
X92400000Y-89000000I1400000J0D01*
G01*
%TO.C,TP1*%
X79400000Y-107000000D02*
G75*
G02*
X76600000Y-107000000I-1400000J0D01*
G01*
X76600000Y-107000000D02*
G75*
G02*
X79400000Y-107000000I1400000J0D01*
G01*
%TD*%
M02*
