%TF.GenerationSoftware,KiCad,Pcbnew,8.0.6*%
%TF.CreationDate,2024-12-20T12:02:24-05:00*%
%TF.ProjectId,PD Charger,50442043-6861-4726-9765-722e6b696361,0*%
%TF.SameCoordinates,Original*%
%TF.FileFunction,Soldermask,Bot*%
%TF.FilePolarity,Negative*%
%FSLAX46Y46*%
G04 Gerber Fmt 4.6, Leading zero omitted, Abs format (unit mm)*
G04 Created by KiCad (PCBNEW 8.0.6) date 2024-12-20 12:02:24*
%MOMM*%
%LPD*%
G01*
G04 APERTURE LIST*
G04 Aperture macros list*
%AMRoundRect*
0 Rectangle with rounded corners*
0 $1 Rounding radius*
0 $2 $3 $4 $5 $6 $7 $8 $9 X,Y pos of 4 corners*
0 Add a 4 corners polygon primitive as box body*
4,1,4,$2,$3,$4,$5,$6,$7,$8,$9,$2,$3,0*
0 Add four circle primitives for the rounded corners*
1,1,$1+$1,$2,$3*
1,1,$1+$1,$4,$5*
1,1,$1+$1,$6,$7*
1,1,$1+$1,$8,$9*
0 Add four rect primitives between the rounded corners*
20,1,$1+$1,$2,$3,$4,$5,0*
20,1,$1+$1,$4,$5,$6,$7,0*
20,1,$1+$1,$6,$7,$8,$9,0*
20,1,$1+$1,$8,$9,$2,$3,0*%
G04 Aperture macros list end*
%ADD10R,2.000000X0.900000*%
%ADD11RoundRect,1.025000X-1.025000X1.025000X-1.025000X-1.025000X1.025000X-1.025000X1.025000X1.025000X0*%
%ADD12C,4.100000*%
%ADD13RoundRect,1.025000X1.025000X-1.025000X1.025000X1.025000X-1.025000X1.025000X-1.025000X-1.025000X0*%
%ADD14R,1.700000X1.700000*%
%ADD15O,1.700000X1.700000*%
%ADD16C,2.000000*%
%ADD17C,1.000000*%
%ADD18RoundRect,0.250000X-0.700000X1.950000X-0.700000X-1.950000X0.700000X-1.950000X0.700000X1.950000X0*%
G04 APERTURE END LIST*
D10*
%TO.C,J3*%
X148850000Y-93250000D03*
X148850000Y-106750000D03*
D11*
X142850000Y-96400000D03*
D12*
X142850000Y-103600000D03*
%TD*%
D10*
%TO.C,J2*%
X49150000Y-106750000D03*
X49150000Y-93250000D03*
D13*
X55150000Y-103600000D03*
D12*
X55150000Y-96400000D03*
%TD*%
D14*
%TO.C,J1*%
X73325000Y-130000000D03*
D15*
X75865000Y-130000000D03*
X78405000Y-130000000D03*
X80945000Y-130000000D03*
X83485000Y-130000000D03*
X86025000Y-130000000D03*
X88565000Y-130000000D03*
X91105000Y-130000000D03*
X93645000Y-130000000D03*
X96185000Y-130000000D03*
X98725000Y-130000000D03*
X101265000Y-130000000D03*
X103805000Y-130000000D03*
X106345000Y-130000000D03*
X108885000Y-130000000D03*
X111425000Y-130000000D03*
X113965000Y-130000000D03*
X116505000Y-130000000D03*
X119045000Y-130000000D03*
X121585000Y-130000000D03*
X124125000Y-130000000D03*
X126665000Y-130000000D03*
%TD*%
D16*
%TO.C,TP17*%
X140000000Y-110000000D03*
%TD*%
D17*
%TO.C,TP5*%
X80500000Y-94500000D03*
%TD*%
%TO.C,TP8*%
X117750000Y-97500000D03*
%TD*%
%TO.C,TP10*%
X117750000Y-100750000D03*
%TD*%
%TO.C,TP16*%
X71000000Y-105000000D03*
%TD*%
%TO.C,TP14*%
X66000000Y-105000000D03*
%TD*%
D18*
%TO.C,C15*%
X107500000Y-95650000D03*
X107500000Y-104350000D03*
%TD*%
D17*
%TO.C,TP11*%
X64000000Y-95000000D03*
%TD*%
%TO.C,TP12*%
X64000000Y-92500000D03*
%TD*%
D16*
%TO.C,TP18*%
X140000000Y-90000000D03*
%TD*%
%TO.C,TP4*%
X108000000Y-89000000D03*
%TD*%
D17*
%TO.C,TP9*%
X80500000Y-100500000D03*
%TD*%
%TO.C,TP6*%
X117750000Y-94500000D03*
%TD*%
%TO.C,TP13*%
X66000000Y-108000000D03*
%TD*%
%TO.C,TP7*%
X80500000Y-97500000D03*
%TD*%
D16*
%TO.C,TP2*%
X125500000Y-97500000D03*
%TD*%
D18*
%TO.C,C14*%
X92500000Y-95650000D03*
X92500000Y-104350000D03*
%TD*%
D17*
%TO.C,TP15*%
X71000000Y-95000000D03*
%TD*%
D16*
%TO.C,TP3*%
X91000000Y-89000000D03*
%TD*%
%TO.C,TP1*%
X78000000Y-107000000D03*
%TD*%
M02*
