%TF.GenerationSoftware,KiCad,Pcbnew,8.0.6*%
%TF.CreationDate,2024-12-20T12:02:24-05:00*%
%TF.ProjectId,PD Charger,50442043-6861-4726-9765-722e6b696361,0*%
%TF.SameCoordinates,Original*%
%TF.FileFunction,Soldermask,Top*%
%TF.FilePolarity,Negative*%
%FSLAX46Y46*%
G04 Gerber Fmt 4.6, Leading zero omitted, Abs format (unit mm)*
G04 Created by KiCad (PCBNEW 8.0.6) date 2024-12-20 12:02:24*
%MOMM*%
%LPD*%
G01*
G04 APERTURE LIST*
G04 Aperture macros list*
%AMRoundRect*
0 Rectangle with rounded corners*
0 $1 Rounding radius*
0 $2 $3 $4 $5 $6 $7 $8 $9 X,Y pos of 4 corners*
0 Add a 4 corners polygon primitive as box body*
4,1,4,$2,$3,$4,$5,$6,$7,$8,$9,$2,$3,0*
0 Add four circle primitives for the rounded corners*
1,1,$1+$1,$2,$3*
1,1,$1+$1,$4,$5*
1,1,$1+$1,$6,$7*
1,1,$1+$1,$8,$9*
0 Add four rect primitives between the rounded corners*
20,1,$1+$1,$2,$3,$4,$5,0*
20,1,$1+$1,$4,$5,$6,$7,0*
20,1,$1+$1,$6,$7,$8,$9,0*
20,1,$1+$1,$8,$9,$2,$3,0*%
G04 Aperture macros list end*
%ADD10C,0.087500*%
%ADD11C,0.117500*%
%ADD12C,0.092500*%
%ADD13RoundRect,0.200000X-0.200000X-0.275000X0.200000X-0.275000X0.200000X0.275000X-0.200000X0.275000X0*%
%ADD14RoundRect,0.100000X-0.100000X0.225000X-0.100000X-0.225000X0.100000X-0.225000X0.100000X0.225000X0*%
%ADD15RoundRect,0.200000X0.200000X0.275000X-0.200000X0.275000X-0.200000X-0.275000X0.200000X-0.275000X0*%
%ADD16C,0.225000*%
%ADD17RoundRect,0.250000X-0.325000X-0.650000X0.325000X-0.650000X0.325000X0.650000X-0.325000X0.650000X0*%
%ADD18RoundRect,0.140000X-0.140000X-0.170000X0.140000X-0.170000X0.140000X0.170000X-0.140000X0.170000X0*%
%ADD19R,1.300000X3.400000*%
%ADD20RoundRect,0.200000X-0.275000X0.200000X-0.275000X-0.200000X0.275000X-0.200000X0.275000X0.200000X0*%
%ADD21RoundRect,0.135000X-0.185000X0.135000X-0.185000X-0.135000X0.185000X-0.135000X0.185000X0.135000X0*%
%ADD22RoundRect,0.225000X-0.250000X0.225000X-0.250000X-0.225000X0.250000X-0.225000X0.250000X0.225000X0*%
%ADD23RoundRect,0.250000X-0.650000X0.325000X-0.650000X-0.325000X0.650000X-0.325000X0.650000X0.325000X0*%
%ADD24R,0.812800X0.660400*%
%ADD25R,0.249999X0.599999*%
%ADD26R,0.599999X0.249999*%
%ADD27R,1.825000X0.249999*%
%ADD28RoundRect,0.250000X0.650000X-0.325000X0.650000X0.325000X-0.650000X0.325000X-0.650000X-0.325000X0*%
%ADD29RoundRect,0.200000X0.275000X-0.200000X0.275000X0.200000X-0.275000X0.200000X-0.275000X-0.200000X0*%
%ADD30R,2.000000X0.900000*%
%ADD31RoundRect,1.025000X-1.025000X1.025000X-1.025000X-1.025000X1.025000X-1.025000X1.025000X1.025000X0*%
%ADD32C,4.100000*%
%ADD33R,0.660400X0.812800*%
%ADD34RoundRect,1.025000X1.025000X-1.025000X1.025000X1.025000X-1.025000X1.025000X-1.025000X-1.025000X0*%
%ADD35R,1.750000X1.100000*%
%ADD36RoundRect,0.135000X-0.135000X-0.185000X0.135000X-0.185000X0.135000X0.185000X-0.135000X0.185000X0*%
%ADD37R,1.100000X1.750000*%
%ADD38RoundRect,0.225000X0.250000X-0.225000X0.250000X0.225000X-0.250000X0.225000X-0.250000X-0.225000X0*%
%ADD39RoundRect,0.062500X-0.062500X0.375000X-0.062500X-0.375000X0.062500X-0.375000X0.062500X0.375000X0*%
%ADD40RoundRect,0.062500X-0.375000X0.062500X-0.375000X-0.062500X0.375000X-0.062500X0.375000X0.062500X0*%
%ADD41R,1.500000X1.500000*%
%ADD42RoundRect,0.150000X-0.512500X-0.150000X0.512500X-0.150000X0.512500X0.150000X-0.512500X0.150000X0*%
%ADD43RoundRect,0.250000X-0.475000X0.250000X-0.475000X-0.250000X0.475000X-0.250000X0.475000X0.250000X0*%
%ADD44RoundRect,0.225000X-0.225000X-0.250000X0.225000X-0.250000X0.225000X0.250000X-0.225000X0.250000X0*%
%ADD45RoundRect,0.150000X-0.150000X0.512500X-0.150000X-0.512500X0.150000X-0.512500X0.150000X0.512500X0*%
%ADD46R,0.500000X0.650000*%
%ADD47R,4.600000X4.120000*%
%ADD48R,0.500000X0.550000*%
%ADD49RoundRect,0.225000X0.225000X0.250000X-0.225000X0.250000X-0.225000X-0.250000X0.225000X-0.250000X0*%
%ADD50RoundRect,0.250000X0.250000X0.475000X-0.250000X0.475000X-0.250000X-0.475000X0.250000X-0.475000X0*%
%ADD51RoundRect,0.140000X0.170000X-0.140000X0.170000X0.140000X-0.170000X0.140000X-0.170000X-0.140000X0*%
%ADD52R,1.700000X1.700000*%
%ADD53O,1.700000X1.700000*%
%ADD54R,2.057400X2.844800*%
%ADD55C,2.000000*%
%ADD56R,3.825000X12.320000*%
G04 APERTURE END LIST*
D10*
%TO.C,Q2*%
X83016250Y-101656250D02*
X82343750Y-101656250D01*
X82343750Y-101393750D01*
X83016250Y-101393750D01*
X83016250Y-101656250D01*
G36*
X83016250Y-101656250D02*
G01*
X82343750Y-101656250D01*
X82343750Y-101393750D01*
X83016250Y-101393750D01*
X83016250Y-101656250D01*
G37*
X83016250Y-102406250D02*
X82343750Y-102406250D01*
X82343750Y-102143750D01*
X83016250Y-102143750D01*
X83016250Y-102406250D01*
G36*
X83016250Y-102406250D02*
G01*
X82343750Y-102406250D01*
X82343750Y-102143750D01*
X83016250Y-102143750D01*
X83016250Y-102406250D01*
G37*
X83016250Y-102956250D02*
X82343750Y-102956250D01*
X82343750Y-102693750D01*
X83016250Y-102693750D01*
X83016250Y-102956250D01*
G36*
X83016250Y-102956250D02*
G01*
X82343750Y-102956250D01*
X82343750Y-102693750D01*
X83016250Y-102693750D01*
X83016250Y-102956250D01*
G37*
X83016250Y-103606250D02*
X82343750Y-103606250D01*
X82343750Y-103343750D01*
X83016250Y-103343750D01*
X83016250Y-103606250D01*
G36*
X83016250Y-103606250D02*
G01*
X82343750Y-103606250D01*
X82343750Y-103343750D01*
X83016250Y-103343750D01*
X83016250Y-103606250D01*
G37*
D11*
X83001250Y-101726750D02*
X82648750Y-101726750D01*
X82648750Y-100859250D01*
X83001250Y-100859250D01*
X83001250Y-101726750D01*
G36*
X83001250Y-101726750D02*
G01*
X82648750Y-101726750D01*
X82648750Y-100859250D01*
X83001250Y-100859250D01*
X83001250Y-101726750D01*
G37*
X83001250Y-104141250D02*
X82648750Y-104141250D01*
X82648750Y-102183750D01*
X83001250Y-102183750D01*
X83001250Y-104141250D01*
G36*
X83001250Y-104141250D02*
G01*
X82648750Y-104141250D01*
X82648750Y-102183750D01*
X83001250Y-102183750D01*
X83001250Y-104141250D01*
G37*
D12*
X83863750Y-104153750D02*
X83586250Y-104153750D01*
X83586250Y-100846250D01*
X83863750Y-100846250D01*
X83863750Y-104153750D01*
G36*
X83863750Y-104153750D02*
G01*
X83586250Y-104153750D01*
X83586250Y-100846250D01*
X83863750Y-100846250D01*
X83863750Y-104153750D01*
G37*
X84713750Y-104153750D02*
X84436250Y-104153750D01*
X84436250Y-100846250D01*
X84713750Y-100846250D01*
X84713750Y-104153750D01*
G36*
X84713750Y-104153750D02*
G01*
X84436250Y-104153750D01*
X84436250Y-100846250D01*
X84713750Y-100846250D01*
X84713750Y-104153750D01*
G37*
X85563750Y-104153750D02*
X85286250Y-104153750D01*
X85286250Y-100846250D01*
X85563750Y-100846250D01*
X85563750Y-104153750D01*
G36*
X85563750Y-104153750D02*
G01*
X85286250Y-104153750D01*
X85286250Y-100846250D01*
X85563750Y-100846250D01*
X85563750Y-104153750D01*
G37*
X86413750Y-104153750D02*
X86136250Y-104153750D01*
X86136250Y-100846250D01*
X86413750Y-100846250D01*
X86413750Y-104153750D01*
G36*
X86413750Y-104153750D02*
G01*
X86136250Y-104153750D01*
X86136250Y-100846250D01*
X86413750Y-100846250D01*
X86413750Y-104153750D01*
G37*
D11*
X87351750Y-104141250D02*
X86999250Y-104141250D01*
X86999250Y-100858750D01*
X87351750Y-100858750D01*
X87351750Y-104141250D01*
G36*
X87351750Y-104141250D02*
G01*
X86999250Y-104141250D01*
X86999250Y-100858750D01*
X87351750Y-100858750D01*
X87351750Y-104141250D01*
G37*
D12*
X87653750Y-101663750D02*
X86986250Y-101663750D01*
X86986250Y-101386250D01*
X87653750Y-101386250D01*
X87653750Y-101663750D01*
G36*
X87653750Y-101663750D02*
G01*
X86986250Y-101663750D01*
X86986250Y-101386250D01*
X87653750Y-101386250D01*
X87653750Y-101663750D01*
G37*
X87653750Y-102313750D02*
X86986250Y-102313750D01*
X86986250Y-102036250D01*
X87653750Y-102036250D01*
X87653750Y-102313750D01*
G36*
X87653750Y-102313750D02*
G01*
X86986250Y-102313750D01*
X86986250Y-102036250D01*
X87653750Y-102036250D01*
X87653750Y-102313750D01*
G37*
X87653750Y-102963750D02*
X86986250Y-102963750D01*
X86986250Y-102686250D01*
X87653750Y-102686250D01*
X87653750Y-102963750D01*
G36*
X87653750Y-102963750D02*
G01*
X86986250Y-102963750D01*
X86986250Y-102686250D01*
X87653750Y-102686250D01*
X87653750Y-102963750D01*
G37*
X87653750Y-103613750D02*
X86986250Y-103613750D01*
X86986250Y-103336250D01*
X87653750Y-103336250D01*
X87653750Y-103613750D01*
G36*
X87653750Y-103613750D02*
G01*
X86986250Y-103613750D01*
X86986250Y-103336250D01*
X87653750Y-103336250D01*
X87653750Y-103613750D01*
G37*
D10*
%TO.C,Q4*%
X119016250Y-101656250D02*
X118343750Y-101656250D01*
X118343750Y-101393750D01*
X119016250Y-101393750D01*
X119016250Y-101656250D01*
G36*
X119016250Y-101656250D02*
G01*
X118343750Y-101656250D01*
X118343750Y-101393750D01*
X119016250Y-101393750D01*
X119016250Y-101656250D01*
G37*
X119016250Y-102406250D02*
X118343750Y-102406250D01*
X118343750Y-102143750D01*
X119016250Y-102143750D01*
X119016250Y-102406250D01*
G36*
X119016250Y-102406250D02*
G01*
X118343750Y-102406250D01*
X118343750Y-102143750D01*
X119016250Y-102143750D01*
X119016250Y-102406250D01*
G37*
X119016250Y-102956250D02*
X118343750Y-102956250D01*
X118343750Y-102693750D01*
X119016250Y-102693750D01*
X119016250Y-102956250D01*
G36*
X119016250Y-102956250D02*
G01*
X118343750Y-102956250D01*
X118343750Y-102693750D01*
X119016250Y-102693750D01*
X119016250Y-102956250D01*
G37*
X119016250Y-103606250D02*
X118343750Y-103606250D01*
X118343750Y-103343750D01*
X119016250Y-103343750D01*
X119016250Y-103606250D01*
G36*
X119016250Y-103606250D02*
G01*
X118343750Y-103606250D01*
X118343750Y-103343750D01*
X119016250Y-103343750D01*
X119016250Y-103606250D01*
G37*
D11*
X119001250Y-101726750D02*
X118648750Y-101726750D01*
X118648750Y-100859250D01*
X119001250Y-100859250D01*
X119001250Y-101726750D01*
G36*
X119001250Y-101726750D02*
G01*
X118648750Y-101726750D01*
X118648750Y-100859250D01*
X119001250Y-100859250D01*
X119001250Y-101726750D01*
G37*
X119001250Y-104141250D02*
X118648750Y-104141250D01*
X118648750Y-102183750D01*
X119001250Y-102183750D01*
X119001250Y-104141250D01*
G36*
X119001250Y-104141250D02*
G01*
X118648750Y-104141250D01*
X118648750Y-102183750D01*
X119001250Y-102183750D01*
X119001250Y-104141250D01*
G37*
D12*
X119863750Y-104153750D02*
X119586250Y-104153750D01*
X119586250Y-100846250D01*
X119863750Y-100846250D01*
X119863750Y-104153750D01*
G36*
X119863750Y-104153750D02*
G01*
X119586250Y-104153750D01*
X119586250Y-100846250D01*
X119863750Y-100846250D01*
X119863750Y-104153750D01*
G37*
X120713750Y-104153750D02*
X120436250Y-104153750D01*
X120436250Y-100846250D01*
X120713750Y-100846250D01*
X120713750Y-104153750D01*
G36*
X120713750Y-104153750D02*
G01*
X120436250Y-104153750D01*
X120436250Y-100846250D01*
X120713750Y-100846250D01*
X120713750Y-104153750D01*
G37*
X121563750Y-104153750D02*
X121286250Y-104153750D01*
X121286250Y-100846250D01*
X121563750Y-100846250D01*
X121563750Y-104153750D01*
G36*
X121563750Y-104153750D02*
G01*
X121286250Y-104153750D01*
X121286250Y-100846250D01*
X121563750Y-100846250D01*
X121563750Y-104153750D01*
G37*
X122413750Y-104153750D02*
X122136250Y-104153750D01*
X122136250Y-100846250D01*
X122413750Y-100846250D01*
X122413750Y-104153750D01*
G36*
X122413750Y-104153750D02*
G01*
X122136250Y-104153750D01*
X122136250Y-100846250D01*
X122413750Y-100846250D01*
X122413750Y-104153750D01*
G37*
D11*
X123351750Y-104141250D02*
X122999250Y-104141250D01*
X122999250Y-100858750D01*
X123351750Y-100858750D01*
X123351750Y-104141250D01*
G36*
X123351750Y-104141250D02*
G01*
X122999250Y-104141250D01*
X122999250Y-100858750D01*
X123351750Y-100858750D01*
X123351750Y-104141250D01*
G37*
D12*
X123653750Y-101663750D02*
X122986250Y-101663750D01*
X122986250Y-101386250D01*
X123653750Y-101386250D01*
X123653750Y-101663750D01*
G36*
X123653750Y-101663750D02*
G01*
X122986250Y-101663750D01*
X122986250Y-101386250D01*
X123653750Y-101386250D01*
X123653750Y-101663750D01*
G37*
X123653750Y-102313750D02*
X122986250Y-102313750D01*
X122986250Y-102036250D01*
X123653750Y-102036250D01*
X123653750Y-102313750D01*
G36*
X123653750Y-102313750D02*
G01*
X122986250Y-102313750D01*
X122986250Y-102036250D01*
X123653750Y-102036250D01*
X123653750Y-102313750D01*
G37*
X123653750Y-102963750D02*
X122986250Y-102963750D01*
X122986250Y-102686250D01*
X123653750Y-102686250D01*
X123653750Y-102963750D01*
G36*
X123653750Y-102963750D02*
G01*
X122986250Y-102963750D01*
X122986250Y-102686250D01*
X123653750Y-102686250D01*
X123653750Y-102963750D01*
G37*
X123653750Y-103613750D02*
X122986250Y-103613750D01*
X122986250Y-103336250D01*
X123653750Y-103336250D01*
X123653750Y-103613750D01*
G36*
X123653750Y-103613750D02*
G01*
X122986250Y-103613750D01*
X122986250Y-103336250D01*
X123653750Y-103336250D01*
X123653750Y-103613750D01*
G37*
D10*
%TO.C,Q1*%
X83091250Y-96656250D02*
X82418750Y-96656250D01*
X82418750Y-96393750D01*
X83091250Y-96393750D01*
X83091250Y-96656250D01*
G36*
X83091250Y-96656250D02*
G01*
X82418750Y-96656250D01*
X82418750Y-96393750D01*
X83091250Y-96393750D01*
X83091250Y-96656250D01*
G37*
X83091250Y-97406250D02*
X82418750Y-97406250D01*
X82418750Y-97143750D01*
X83091250Y-97143750D01*
X83091250Y-97406250D01*
G36*
X83091250Y-97406250D02*
G01*
X82418750Y-97406250D01*
X82418750Y-97143750D01*
X83091250Y-97143750D01*
X83091250Y-97406250D01*
G37*
X83091250Y-97956250D02*
X82418750Y-97956250D01*
X82418750Y-97693750D01*
X83091250Y-97693750D01*
X83091250Y-97956250D01*
G36*
X83091250Y-97956250D02*
G01*
X82418750Y-97956250D01*
X82418750Y-97693750D01*
X83091250Y-97693750D01*
X83091250Y-97956250D01*
G37*
X83091250Y-98606250D02*
X82418750Y-98606250D01*
X82418750Y-98343750D01*
X83091250Y-98343750D01*
X83091250Y-98606250D01*
G36*
X83091250Y-98606250D02*
G01*
X82418750Y-98606250D01*
X82418750Y-98343750D01*
X83091250Y-98343750D01*
X83091250Y-98606250D01*
G37*
D11*
X83076250Y-96726750D02*
X82723750Y-96726750D01*
X82723750Y-95859250D01*
X83076250Y-95859250D01*
X83076250Y-96726750D01*
G36*
X83076250Y-96726750D02*
G01*
X82723750Y-96726750D01*
X82723750Y-95859250D01*
X83076250Y-95859250D01*
X83076250Y-96726750D01*
G37*
X83076250Y-99141250D02*
X82723750Y-99141250D01*
X82723750Y-97183750D01*
X83076250Y-97183750D01*
X83076250Y-99141250D01*
G36*
X83076250Y-99141250D02*
G01*
X82723750Y-99141250D01*
X82723750Y-97183750D01*
X83076250Y-97183750D01*
X83076250Y-99141250D01*
G37*
D12*
X83938750Y-99153750D02*
X83661250Y-99153750D01*
X83661250Y-95846250D01*
X83938750Y-95846250D01*
X83938750Y-99153750D01*
G36*
X83938750Y-99153750D02*
G01*
X83661250Y-99153750D01*
X83661250Y-95846250D01*
X83938750Y-95846250D01*
X83938750Y-99153750D01*
G37*
X84788750Y-99153750D02*
X84511250Y-99153750D01*
X84511250Y-95846250D01*
X84788750Y-95846250D01*
X84788750Y-99153750D01*
G36*
X84788750Y-99153750D02*
G01*
X84511250Y-99153750D01*
X84511250Y-95846250D01*
X84788750Y-95846250D01*
X84788750Y-99153750D01*
G37*
X85638750Y-99153750D02*
X85361250Y-99153750D01*
X85361250Y-95846250D01*
X85638750Y-95846250D01*
X85638750Y-99153750D01*
G36*
X85638750Y-99153750D02*
G01*
X85361250Y-99153750D01*
X85361250Y-95846250D01*
X85638750Y-95846250D01*
X85638750Y-99153750D01*
G37*
X86488750Y-99153750D02*
X86211250Y-99153750D01*
X86211250Y-95846250D01*
X86488750Y-95846250D01*
X86488750Y-99153750D01*
G36*
X86488750Y-99153750D02*
G01*
X86211250Y-99153750D01*
X86211250Y-95846250D01*
X86488750Y-95846250D01*
X86488750Y-99153750D01*
G37*
D11*
X87426750Y-99141250D02*
X87074250Y-99141250D01*
X87074250Y-95858750D01*
X87426750Y-95858750D01*
X87426750Y-99141250D01*
G36*
X87426750Y-99141250D02*
G01*
X87074250Y-99141250D01*
X87074250Y-95858750D01*
X87426750Y-95858750D01*
X87426750Y-99141250D01*
G37*
D12*
X87728750Y-96663750D02*
X87061250Y-96663750D01*
X87061250Y-96386250D01*
X87728750Y-96386250D01*
X87728750Y-96663750D01*
G36*
X87728750Y-96663750D02*
G01*
X87061250Y-96663750D01*
X87061250Y-96386250D01*
X87728750Y-96386250D01*
X87728750Y-96663750D01*
G37*
X87728750Y-97313750D02*
X87061250Y-97313750D01*
X87061250Y-97036250D01*
X87728750Y-97036250D01*
X87728750Y-97313750D01*
G36*
X87728750Y-97313750D02*
G01*
X87061250Y-97313750D01*
X87061250Y-97036250D01*
X87728750Y-97036250D01*
X87728750Y-97313750D01*
G37*
X87728750Y-97963750D02*
X87061250Y-97963750D01*
X87061250Y-97686250D01*
X87728750Y-97686250D01*
X87728750Y-97963750D01*
G36*
X87728750Y-97963750D02*
G01*
X87061250Y-97963750D01*
X87061250Y-97686250D01*
X87728750Y-97686250D01*
X87728750Y-97963750D01*
G37*
X87728750Y-98613750D02*
X87061250Y-98613750D01*
X87061250Y-98336250D01*
X87728750Y-98336250D01*
X87728750Y-98613750D01*
G36*
X87728750Y-98613750D02*
G01*
X87061250Y-98613750D01*
X87061250Y-98336250D01*
X87728750Y-98336250D01*
X87728750Y-98613750D01*
G37*
D10*
%TO.C,Q3*%
X119016250Y-96656250D02*
X118343750Y-96656250D01*
X118343750Y-96393750D01*
X119016250Y-96393750D01*
X119016250Y-96656250D01*
G36*
X119016250Y-96656250D02*
G01*
X118343750Y-96656250D01*
X118343750Y-96393750D01*
X119016250Y-96393750D01*
X119016250Y-96656250D01*
G37*
X119016250Y-97406250D02*
X118343750Y-97406250D01*
X118343750Y-97143750D01*
X119016250Y-97143750D01*
X119016250Y-97406250D01*
G36*
X119016250Y-97406250D02*
G01*
X118343750Y-97406250D01*
X118343750Y-97143750D01*
X119016250Y-97143750D01*
X119016250Y-97406250D01*
G37*
X119016250Y-97956250D02*
X118343750Y-97956250D01*
X118343750Y-97693750D01*
X119016250Y-97693750D01*
X119016250Y-97956250D01*
G36*
X119016250Y-97956250D02*
G01*
X118343750Y-97956250D01*
X118343750Y-97693750D01*
X119016250Y-97693750D01*
X119016250Y-97956250D01*
G37*
X119016250Y-98606250D02*
X118343750Y-98606250D01*
X118343750Y-98343750D01*
X119016250Y-98343750D01*
X119016250Y-98606250D01*
G36*
X119016250Y-98606250D02*
G01*
X118343750Y-98606250D01*
X118343750Y-98343750D01*
X119016250Y-98343750D01*
X119016250Y-98606250D01*
G37*
D11*
X119001250Y-96726750D02*
X118648750Y-96726750D01*
X118648750Y-95859250D01*
X119001250Y-95859250D01*
X119001250Y-96726750D01*
G36*
X119001250Y-96726750D02*
G01*
X118648750Y-96726750D01*
X118648750Y-95859250D01*
X119001250Y-95859250D01*
X119001250Y-96726750D01*
G37*
X119001250Y-99141250D02*
X118648750Y-99141250D01*
X118648750Y-97183750D01*
X119001250Y-97183750D01*
X119001250Y-99141250D01*
G36*
X119001250Y-99141250D02*
G01*
X118648750Y-99141250D01*
X118648750Y-97183750D01*
X119001250Y-97183750D01*
X119001250Y-99141250D01*
G37*
D12*
X119863750Y-99153750D02*
X119586250Y-99153750D01*
X119586250Y-95846250D01*
X119863750Y-95846250D01*
X119863750Y-99153750D01*
G36*
X119863750Y-99153750D02*
G01*
X119586250Y-99153750D01*
X119586250Y-95846250D01*
X119863750Y-95846250D01*
X119863750Y-99153750D01*
G37*
X120713750Y-99153750D02*
X120436250Y-99153750D01*
X120436250Y-95846250D01*
X120713750Y-95846250D01*
X120713750Y-99153750D01*
G36*
X120713750Y-99153750D02*
G01*
X120436250Y-99153750D01*
X120436250Y-95846250D01*
X120713750Y-95846250D01*
X120713750Y-99153750D01*
G37*
X121563750Y-99153750D02*
X121286250Y-99153750D01*
X121286250Y-95846250D01*
X121563750Y-95846250D01*
X121563750Y-99153750D01*
G36*
X121563750Y-99153750D02*
G01*
X121286250Y-99153750D01*
X121286250Y-95846250D01*
X121563750Y-95846250D01*
X121563750Y-99153750D01*
G37*
X122413750Y-99153750D02*
X122136250Y-99153750D01*
X122136250Y-95846250D01*
X122413750Y-95846250D01*
X122413750Y-99153750D01*
G36*
X122413750Y-99153750D02*
G01*
X122136250Y-99153750D01*
X122136250Y-95846250D01*
X122413750Y-95846250D01*
X122413750Y-99153750D01*
G37*
D11*
X123351750Y-99141250D02*
X122999250Y-99141250D01*
X122999250Y-95858750D01*
X123351750Y-95858750D01*
X123351750Y-99141250D01*
G36*
X123351750Y-99141250D02*
G01*
X122999250Y-99141250D01*
X122999250Y-95858750D01*
X123351750Y-95858750D01*
X123351750Y-99141250D01*
G37*
D12*
X123653750Y-96663750D02*
X122986250Y-96663750D01*
X122986250Y-96386250D01*
X123653750Y-96386250D01*
X123653750Y-96663750D01*
G36*
X123653750Y-96663750D02*
G01*
X122986250Y-96663750D01*
X122986250Y-96386250D01*
X123653750Y-96386250D01*
X123653750Y-96663750D01*
G37*
X123653750Y-97313750D02*
X122986250Y-97313750D01*
X122986250Y-97036250D01*
X123653750Y-97036250D01*
X123653750Y-97313750D01*
G36*
X123653750Y-97313750D02*
G01*
X122986250Y-97313750D01*
X122986250Y-97036250D01*
X123653750Y-97036250D01*
X123653750Y-97313750D01*
G37*
X123653750Y-97963750D02*
X122986250Y-97963750D01*
X122986250Y-97686250D01*
X123653750Y-97686250D01*
X123653750Y-97963750D01*
G36*
X123653750Y-97963750D02*
G01*
X122986250Y-97963750D01*
X122986250Y-97686250D01*
X123653750Y-97686250D01*
X123653750Y-97963750D01*
G37*
X123653750Y-98613750D02*
X122986250Y-98613750D01*
X122986250Y-98336250D01*
X123653750Y-98336250D01*
X123653750Y-98613750D01*
G36*
X123653750Y-98613750D02*
G01*
X122986250Y-98613750D01*
X122986250Y-98336250D01*
X123653750Y-98336250D01*
X123653750Y-98613750D01*
G37*
%TD*%
D13*
%TO.C,R27*%
X134175000Y-102500000D03*
X135825000Y-102500000D03*
%TD*%
D14*
%TO.C,Q9*%
X135650000Y-100950000D03*
X135000000Y-100950000D03*
X134350000Y-100950000D03*
X134350000Y-99050000D03*
X135000000Y-99050000D03*
X135650000Y-99050000D03*
%TD*%
D15*
%TO.C,R19*%
X99825000Y-119000000D03*
X98175000Y-119000000D03*
%TD*%
D16*
%TO.C,U1*%
X77600000Y-100600000D03*
X77200000Y-100600000D03*
X76800000Y-100600000D03*
X76400000Y-100600000D03*
X77600000Y-100200000D03*
X76400000Y-100200000D03*
X77600000Y-99800000D03*
X76400000Y-99800000D03*
X77600000Y-99400000D03*
X77200000Y-99400000D03*
X76800000Y-99400000D03*
X76400000Y-99400000D03*
%TD*%
D17*
%TO.C,C7*%
X81525000Y-111500000D03*
X84475000Y-111500000D03*
%TD*%
D18*
%TO.C,C3*%
X76520000Y-102000000D03*
X77480000Y-102000000D03*
%TD*%
D16*
%TO.C,U3*%
X113600000Y-100600000D03*
X113200000Y-100600000D03*
X112800000Y-100600000D03*
X112400000Y-100600000D03*
X113600000Y-100200000D03*
X112400000Y-100200000D03*
X113600000Y-99800000D03*
X112400000Y-99800000D03*
X113600000Y-99400000D03*
X113200000Y-99400000D03*
X112800000Y-99400000D03*
X112400000Y-99400000D03*
%TD*%
D19*
%TO.C,L2*%
X107950000Y-116000000D03*
X110050000Y-116000000D03*
%TD*%
D20*
%TO.C,R38*%
X62000000Y-94175000D03*
X62000000Y-95825000D03*
%TD*%
D21*
%TO.C,R8*%
X112000000Y-96490000D03*
X112000000Y-97510000D03*
%TD*%
D22*
%TO.C,C20*%
X117000000Y-87225000D03*
X117000000Y-88775000D03*
%TD*%
%TO.C,C30*%
X102000000Y-113225000D03*
X102000000Y-114775000D03*
%TD*%
D15*
%TO.C,R15*%
X77825000Y-120000000D03*
X76175000Y-120000000D03*
%TD*%
D23*
%TO.C,C39*%
X95000000Y-117025000D03*
X95000000Y-119975000D03*
%TD*%
D13*
%TO.C,R29*%
X63175000Y-108000000D03*
X64825000Y-108000000D03*
%TD*%
%TO.C,R23*%
X134175000Y-97500000D03*
X135825000Y-97500000D03*
%TD*%
%TO.C,R18*%
X133675000Y-93500000D03*
X135325000Y-93500000D03*
%TD*%
D24*
%TO.C,D2*%
X69806200Y-115000000D03*
X72193800Y-115000000D03*
%TD*%
D25*
%TO.C,U9*%
X84124999Y-115099999D03*
X83475000Y-115099999D03*
X82824999Y-115099999D03*
X82325000Y-115099999D03*
D26*
X81600000Y-115500001D03*
X81600000Y-116000000D03*
X81600000Y-116499999D03*
D25*
X82325000Y-116900001D03*
X82824999Y-116900001D03*
X83475000Y-116900001D03*
X84124999Y-116900001D03*
D27*
X83787999Y-116000000D03*
%TD*%
D28*
%TO.C,C36*%
X92500000Y-114975000D03*
X92500000Y-112025000D03*
%TD*%
D29*
%TO.C,R33*%
X64000000Y-95825000D03*
X64000000Y-94175000D03*
%TD*%
D23*
%TO.C,C33*%
X113000000Y-117025000D03*
X113000000Y-119975000D03*
%TD*%
D20*
%TO.C,R14*%
X70000000Y-111175000D03*
X70000000Y-112825000D03*
%TD*%
D30*
%TO.C,J3*%
X148850000Y-93250000D03*
X148850000Y-106750000D03*
D31*
X142850000Y-96400000D03*
D32*
X142850000Y-103600000D03*
%TD*%
D22*
%TO.C,C44*%
X68000000Y-94225000D03*
X68000000Y-95775000D03*
%TD*%
D29*
%TO.C,R32*%
X66000000Y-105825000D03*
X66000000Y-104175000D03*
%TD*%
D33*
%TO.C,D3*%
X137500000Y-91306200D03*
X137500000Y-93693800D03*
%TD*%
D30*
%TO.C,J2*%
X49150000Y-106750000D03*
X49150000Y-93250000D03*
D34*
X55150000Y-103600000D03*
D32*
X55150000Y-96400000D03*
%TD*%
D35*
%TO.C,R5*%
X112625000Y-94700000D03*
X112625000Y-93300000D03*
X115375000Y-93300000D03*
X115375000Y-94700000D03*
%TD*%
D15*
%TO.C,R20*%
X99825000Y-117000000D03*
X98175000Y-117000000D03*
%TD*%
D36*
%TO.C,R12*%
X115490000Y-100500000D03*
X116510000Y-100500000D03*
%TD*%
D37*
%TO.C,R6*%
X125700000Y-94375000D03*
X124300000Y-94375000D03*
X124300000Y-91625000D03*
X125700000Y-91625000D03*
%TD*%
D38*
%TO.C,C48*%
X76500000Y-92275000D03*
X76500000Y-90725000D03*
%TD*%
D39*
%TO.C,U5*%
X66750000Y-98562500D03*
X66250000Y-98562500D03*
X65750000Y-98562500D03*
X65250000Y-98562500D03*
D40*
X64562500Y-99250000D03*
X64562500Y-99750000D03*
X64562500Y-100250000D03*
X64562500Y-100750000D03*
D39*
X65250000Y-101437500D03*
X65750000Y-101437500D03*
X66250000Y-101437500D03*
X66750000Y-101437500D03*
D40*
X67437500Y-100750000D03*
X67437500Y-100250000D03*
X67437500Y-99750000D03*
X67437500Y-99250000D03*
D41*
X66000000Y-100000000D03*
%TD*%
D23*
%TO.C,C38*%
X92500000Y-117025000D03*
X92500000Y-119975000D03*
%TD*%
D28*
%TO.C,C18*%
X118000000Y-108475000D03*
X118000000Y-105525000D03*
%TD*%
D29*
%TO.C,R36*%
X76500000Y-89325000D03*
X76500000Y-87675000D03*
%TD*%
D28*
%TO.C,C35*%
X95000000Y-114975000D03*
X95000000Y-112025000D03*
%TD*%
D22*
%TO.C,C10*%
X80000000Y-113725000D03*
X80000000Y-115275000D03*
%TD*%
D28*
%TO.C,C1*%
X83000000Y-108475000D03*
X83000000Y-105525000D03*
%TD*%
D36*
%TO.C,R3*%
X79490000Y-98000000D03*
X80510000Y-98000000D03*
%TD*%
%TO.C,R11*%
X115490000Y-101500000D03*
X116510000Y-101500000D03*
%TD*%
D28*
%TO.C,C12*%
X86000000Y-94475000D03*
X86000000Y-91525000D03*
%TD*%
D33*
%TO.C,D1*%
X116000000Y-117306200D03*
X116000000Y-119693800D03*
%TD*%
D42*
%TO.C,U7*%
X112862500Y-87050000D03*
X112862500Y-88000000D03*
X112862500Y-88950000D03*
X115137500Y-88950000D03*
X115137500Y-87050000D03*
%TD*%
D20*
%TO.C,R24*%
X66000000Y-94175000D03*
X66000000Y-95825000D03*
%TD*%
%TO.C,R31*%
X68000000Y-104175000D03*
X68000000Y-105825000D03*
%TD*%
D37*
%TO.C,R25*%
X71300000Y-98625000D03*
X72700000Y-98625000D03*
X72700000Y-101375000D03*
X71300000Y-101375000D03*
%TD*%
D28*
%TO.C,C16*%
X118000000Y-94475000D03*
X118000000Y-91525000D03*
%TD*%
D20*
%TO.C,R16*%
X72000000Y-111175000D03*
X72000000Y-112825000D03*
%TD*%
D43*
%TO.C,C34*%
X116000000Y-112550000D03*
X116000000Y-114450000D03*
%TD*%
D44*
%TO.C,C41*%
X82225000Y-113500000D03*
X83775000Y-113500000D03*
%TD*%
D25*
%TO.C,U2*%
X106124999Y-115099999D03*
X105475000Y-115099999D03*
X104824999Y-115099999D03*
X104325000Y-115099999D03*
D26*
X103600000Y-115500001D03*
X103600000Y-116000000D03*
X103600000Y-116499999D03*
D25*
X104325000Y-116900001D03*
X104824999Y-116900001D03*
X105475000Y-116900001D03*
X106124999Y-116900001D03*
D27*
X105787999Y-116000000D03*
%TD*%
D20*
%TO.C,R30*%
X60000000Y-104175000D03*
X60000000Y-105825000D03*
%TD*%
D36*
%TO.C,R10*%
X115490000Y-98000000D03*
X116510000Y-98000000D03*
%TD*%
D45*
%TO.C,U6*%
X79950000Y-90362500D03*
X79000000Y-90362500D03*
X78050000Y-90362500D03*
X78050000Y-92637500D03*
X79950000Y-92637500D03*
%TD*%
D46*
%TO.C,Q5*%
X128095000Y-95750000D03*
X129365000Y-95750000D03*
X130635000Y-95750000D03*
X131905000Y-95750000D03*
D47*
X130000000Y-92535000D03*
D48*
X128095000Y-90200000D03*
X129365000Y-90200000D03*
X130635000Y-90200000D03*
X131905000Y-90200000D03*
%TD*%
D13*
%TO.C,R17*%
X133675000Y-91500000D03*
X135325000Y-91500000D03*
%TD*%
D49*
%TO.C,C11*%
X77775000Y-116000000D03*
X76225000Y-116000000D03*
%TD*%
D50*
%TO.C,C28*%
X105950000Y-113000000D03*
X104050000Y-113000000D03*
%TD*%
D17*
%TO.C,C8*%
X81525000Y-120500000D03*
X84475000Y-120500000D03*
%TD*%
D50*
%TO.C,C27*%
X105950000Y-119000000D03*
X104050000Y-119000000D03*
%TD*%
D22*
%TO.C,C45*%
X62000000Y-104225000D03*
X62000000Y-105775000D03*
%TD*%
D36*
%TO.C,R9*%
X115490000Y-97000000D03*
X116510000Y-97000000D03*
%TD*%
D18*
%TO.C,C5*%
X112520000Y-102000000D03*
X113480000Y-102000000D03*
%TD*%
D21*
%TO.C,R1*%
X76000000Y-96490000D03*
X76000000Y-97510000D03*
%TD*%
D28*
%TO.C,C19*%
X124000000Y-108475000D03*
X124000000Y-105525000D03*
%TD*%
D49*
%TO.C,C47*%
X79775000Y-94500000D03*
X78225000Y-94500000D03*
%TD*%
D29*
%TO.C,R26*%
X102000000Y-117825000D03*
X102000000Y-116175000D03*
%TD*%
D46*
%TO.C,Q7*%
X70095000Y-95750000D03*
X71365000Y-95750000D03*
X72635000Y-95750000D03*
X73905000Y-95750000D03*
D47*
X72000000Y-92535000D03*
D48*
X70095000Y-90200000D03*
X71365000Y-90200000D03*
X72635000Y-90200000D03*
X73905000Y-90200000D03*
%TD*%
D20*
%TO.C,R37*%
X76500000Y-93675000D03*
X76500000Y-95325000D03*
%TD*%
D49*
%TO.C,C31*%
X99775000Y-115000000D03*
X98225000Y-115000000D03*
%TD*%
D28*
%TO.C,C17*%
X121000000Y-94475000D03*
X121000000Y-91525000D03*
%TD*%
D42*
%TO.C,U8*%
X123862500Y-87050000D03*
X123862500Y-88000000D03*
X123862500Y-88950000D03*
X126137500Y-88950000D03*
X126137500Y-87050000D03*
%TD*%
D46*
%TO.C,Q8*%
X73905000Y-104250000D03*
X72635000Y-104250000D03*
X71365000Y-104250000D03*
X70095000Y-104250000D03*
D47*
X72000000Y-107465000D03*
D48*
X73905000Y-109800000D03*
X72635000Y-109800000D03*
X71365000Y-109800000D03*
X70095000Y-109800000D03*
%TD*%
D22*
%TO.C,C46*%
X64000000Y-104225000D03*
X64000000Y-105775000D03*
%TD*%
D36*
%TO.C,R2*%
X79490000Y-97000000D03*
X80510000Y-97000000D03*
%TD*%
D49*
%TO.C,C29*%
X99775000Y-113000000D03*
X98225000Y-113000000D03*
%TD*%
D28*
%TO.C,C49*%
X121000000Y-108475000D03*
X121000000Y-105525000D03*
%TD*%
D22*
%TO.C,C21*%
X128000000Y-87225000D03*
X128000000Y-88775000D03*
%TD*%
D44*
%TO.C,C40*%
X82225000Y-118500000D03*
X83775000Y-118500000D03*
%TD*%
D28*
%TO.C,C32*%
X113000000Y-114975000D03*
X113000000Y-112025000D03*
%TD*%
D49*
%TO.C,C9*%
X77775000Y-114000000D03*
X76225000Y-114000000D03*
%TD*%
D29*
%TO.C,R22*%
X80000000Y-118325000D03*
X80000000Y-116675000D03*
%TD*%
D51*
%TO.C,C4*%
X77000000Y-97480000D03*
X77000000Y-96520000D03*
%TD*%
D36*
%TO.C,R7*%
X79490000Y-100500000D03*
X80510000Y-100500000D03*
%TD*%
D52*
%TO.C,J1*%
X73325000Y-130000000D03*
D53*
X75865000Y-130000000D03*
X78405000Y-130000000D03*
X80945000Y-130000000D03*
X83485000Y-130000000D03*
X86025000Y-130000000D03*
X88565000Y-130000000D03*
X91105000Y-130000000D03*
X93645000Y-130000000D03*
X96185000Y-130000000D03*
X98725000Y-130000000D03*
X101265000Y-130000000D03*
X103805000Y-130000000D03*
X106345000Y-130000000D03*
X108885000Y-130000000D03*
X111425000Y-130000000D03*
X113965000Y-130000000D03*
X116505000Y-130000000D03*
X119045000Y-130000000D03*
X121585000Y-130000000D03*
X124125000Y-130000000D03*
X126665000Y-130000000D03*
%TD*%
D51*
%TO.C,C6*%
X113000000Y-97480000D03*
X113000000Y-96520000D03*
%TD*%
D15*
%TO.C,R21*%
X77825000Y-118000000D03*
X76175000Y-118000000D03*
%TD*%
D13*
%TO.C,R28*%
X66175000Y-108000000D03*
X67825000Y-108000000D03*
%TD*%
%TO.C,R34*%
X66175000Y-92000000D03*
X67825000Y-92000000D03*
%TD*%
D28*
%TO.C,C2*%
X86000000Y-108475000D03*
X86000000Y-105525000D03*
%TD*%
D36*
%TO.C,R4*%
X79490000Y-101500000D03*
X80510000Y-101500000D03*
%TD*%
D13*
%TO.C,R35*%
X63175000Y-92000000D03*
X64825000Y-92000000D03*
%TD*%
%TO.C,R13*%
X130175000Y-98000000D03*
X131825000Y-98000000D03*
%TD*%
D28*
%TO.C,C13*%
X83000000Y-94475000D03*
X83000000Y-91525000D03*
%TD*%
D54*
%TO.C,L3*%
X85929900Y-116000000D03*
X90070100Y-116000000D03*
%TD*%
D55*
%TO.C,TP17*%
X140000000Y-110000000D03*
%TD*%
%TO.C,TP18*%
X140000000Y-90000000D03*
%TD*%
%TO.C,TP4*%
X108000000Y-89000000D03*
%TD*%
%TO.C,TP2*%
X125500000Y-97500000D03*
%TD*%
%TO.C,TP3*%
X91000000Y-89000000D03*
%TD*%
%TO.C,TP1*%
X78000000Y-107000000D03*
%TD*%
D56*
%TO.C,L1*%
X91877500Y-100000000D03*
X108122500Y-100000000D03*
%TD*%
D46*
%TO.C,Q6*%
X131905000Y-104250000D03*
X130635000Y-104250000D03*
X129365000Y-104250000D03*
X128095000Y-104250000D03*
D47*
X130000000Y-107465000D03*
D48*
X131905000Y-109800000D03*
X130635000Y-109800000D03*
X129365000Y-109800000D03*
X128095000Y-109800000D03*
%TD*%
M02*
