M48
; DRILL file {KiCad 8.0.6} date 2024-12-20T12:02:27-0500
; FORMAT={-:-/ absolute / inch / decimal}
; #@! TF.CreationDate,2024-12-20T12:02:27-05:00
; #@! TF.GenerationSoftware,Kicad,Pcbnew,8.0.6
; #@! TF.FileFunction,Plated,1,4,PTH
FMAT,2
INCH
; #@! TA.AperFunction,Plated,PTH,ViaDrill
T1C0.0118
; #@! TA.AperFunction,Plated,PTH,ComponentDrill
T2C0.0236
; #@! TA.AperFunction,Plated,PTH,ComponentDrill
T3C0.0394
; #@! TA.AperFunction,Plated,PTH,ComponentDrill
T4C0.1063
%
G90
G05
T1
X2.0472Y-3.5039
X2.0472Y-3.5827
X2.0472Y-3.6614
X2.0472Y-3.7402
X2.0472Y-3.8189
X2.0472Y-3.8976
X2.0472Y-3.9764
X2.0472Y-4.0551
X2.0472Y-4.1339
X2.0472Y-4.2126
X2.0866Y-3.4646
X2.0866Y-3.5433
X2.0866Y-3.622
X2.0866Y-3.7008
X2.0866Y-3.8583
X2.0866Y-3.937
X2.0866Y-4.1732
X2.126Y-3.5039
X2.126Y-3.5827
X2.126Y-3.6614
X2.126Y-3.8976
X2.126Y-3.9764
X2.126Y-4.2126
X2.1654Y-3.4646
X2.1654Y-3.5433
X2.1654Y-3.622
X2.1654Y-3.937
X2.1654Y-4.1732
X2.2047Y-3.5039
X2.2047Y-3.5827
X2.2047Y-3.6614
X2.2047Y-3.8976
X2.2047Y-3.9764
X2.2047Y-4.2126
X2.2441Y-3.4646
X2.2441Y-3.5433
X2.2441Y-3.622
X2.2441Y-3.7008
X2.2441Y-3.8583
X2.2441Y-3.937
X2.2441Y-4.1732
X2.2835Y-3.5039
X2.2835Y-3.5827
X2.2835Y-3.6614
X2.2835Y-3.7402
X2.2835Y-3.8189
X2.2835Y-3.8976
X2.2835Y-3.9764
X2.2835Y-4.0551
X2.2835Y-4.1339
X2.2835Y-4.2126
X2.3228Y-3.4646
X2.3228Y-3.5433
X2.3228Y-3.622
X2.3228Y-3.7008
X2.3228Y-3.7795
X2.3228Y-3.8583
X2.3228Y-3.937
X2.3228Y-4.0157
X2.3228Y-4.0945
X2.3228Y-4.1732
X2.3622Y-3.5039
X2.3622Y-3.5827
X2.3622Y-3.6614
X2.3622Y-3.7402
X2.3622Y-3.8189
X2.3622Y-3.8976
X2.3622Y-3.9764
X2.3622Y-4.2126
X2.4016Y-3.4646
X2.4016Y-3.5433
X2.4016Y-3.622
X2.4016Y-3.7008
X2.4016Y-3.7795
X2.4016Y-3.8583
X2.4016Y-4.0551
X2.4016Y-4.2126
X2.4409Y-3.5039
X2.4409Y-3.5827
X2.4409Y-3.622
X2.4409Y-3.6614
X2.4409Y-3.937
X2.4606Y-3.8976
X2.4606Y-4.2126
X2.4803Y-3.4646
X2.4803Y-3.5433
X2.5197Y-3.5039
X2.5197Y-3.5827
X2.5197Y-3.7992
X2.5394Y-3.6614
X2.5591Y-3.4646
X2.5591Y-3.5433
X2.5591Y-4.1142
X2.5787Y-4.2126
X2.5984Y-3.5039
X2.5984Y-3.5827
X2.623Y-4.2077
X2.6378Y-3.4646
X2.6378Y-3.5433
X2.6772Y-3.8189
X2.6772Y-4.0354
X2.6772Y-4.2126
X2.7165Y-3.563
X2.7165Y-3.6024
X2.7165Y-3.6417
X2.7165Y-3.6811
X2.7559Y-3.5236
X2.7559Y-4.8425
X2.7559Y-4.8819
X2.7559Y-4.9213
X2.7854Y-3.7697
X2.7854Y-4.1043
X2.7953Y-3.5236
X2.7953Y-4.4094
X2.8346Y-3.5236
X2.8346Y-4.4882
X2.8543Y-5.0197
X2.874Y-3.5236
X2.9134Y-3.5236
X2.9402Y-4.8157
X2.9528Y-3.563
X2.9528Y-3.6024
X2.9528Y-3.6417
X2.9528Y-3.6811
X2.9528Y-4.4882
X2.9528Y-4.5669
X2.9528Y-4.6457
X2.9653Y-4.7906
X2.9724Y-3.9272
X2.9724Y-3.9764
X2.9724Y-4.0157
X2.9724Y-4.0945
X2.9921Y-3.8976
X2.9921Y-4.1339
X2.9921Y-4.2126
X2.9921Y-4.2913
X3.0387Y-4.9141
X3.061Y-3.8386
X3.0637Y-4.889
X3.0709Y-3.7795
X3.0709Y-4.1339
X3.0709Y-4.2913
X3.0906Y-3.9272
X3.1102Y-4.5335
X3.1102Y-4.7244
X3.1496Y-3.5039
X3.1496Y-3.7795
X3.1496Y-4.1339
X3.1496Y-4.2126
X3.1496Y-4.2913
X3.1663Y-4.3898
X3.1663Y-4.7441
X3.189Y-4.1732
X3.189Y-4.252
X3.2087Y-3.8386
X3.2087Y-3.9665
X3.2283Y-3.5728
X3.2283Y-3.6417
X3.2283Y-3.6811
X3.2283Y-3.75
X3.2283Y-4.124
X3.2283Y-4.1929
X3.2283Y-4.2323
X3.2283Y-4.3012
X3.2421Y-4.5669
X3.2677Y-3.5728
X3.2677Y-3.6417
X3.2677Y-3.6811
X3.2677Y-3.75
X3.2677Y-4.124
X3.2677Y-4.1929
X3.2677Y-4.2323
X3.2677Y-4.3012
X3.3071Y-3.5728
X3.3071Y-3.6417
X3.3071Y-3.6811
X3.3071Y-3.75
X3.3071Y-4.124
X3.3071Y-4.1929
X3.3071Y-4.2323
X3.3071Y-4.3012
X3.3465Y-3.5728
X3.3465Y-3.6417
X3.3465Y-3.6811
X3.3465Y-3.75
X3.3465Y-4.124
X3.3465Y-4.1929
X3.3465Y-4.2323
X3.3465Y-4.3012
X3.3661Y-4.3898
X3.3661Y-4.7441
X3.3858Y-3.5728
X3.3858Y-3.6417
X3.3858Y-3.6811
X3.3858Y-3.75
X3.3858Y-4.124
X3.3858Y-4.1929
X3.3858Y-4.2323
X3.3858Y-4.3012
X3.4252Y-3.5728
X3.4252Y-3.6417
X3.4252Y-3.6811
X3.4252Y-3.75
X3.4252Y-4.124
X3.4252Y-4.1929
X3.4252Y-4.2323
X3.4252Y-4.3012
X3.4646Y-4.5669
X3.5433Y-4.4094
X3.5433Y-4.4685
X3.5433Y-4.6654
X3.5433Y-4.7244
X3.6417Y-4.3701
X3.6417Y-4.4685
X3.6417Y-4.5669
X3.6417Y-4.6654
X3.6417Y-4.7638
X3.7008Y-4.252
X3.7008Y-4.3307
X3.7205Y-3.6614
X3.7205Y-3.7008
X3.7205Y-3.7402
X3.7205Y-3.7795
X3.7205Y-3.8189
X3.7205Y-3.8583
X3.7205Y-4.0157
X3.7205Y-4.0551
X3.7205Y-4.0945
X3.7205Y-4.1339
X3.7205Y-4.1732
X3.7205Y-4.2126
X3.7402Y-3.4252
X3.7402Y-3.5039
X3.7402Y-3.5827
X3.7402Y-3.8976
X3.7402Y-3.9764
X3.7402Y-4.2913
X3.7402Y-4.3701
X3.7402Y-4.4685
X3.7402Y-4.5669
X3.7402Y-4.6654
X3.7402Y-4.7638
X3.7402Y-5.0197
X3.7795Y-3.4646
X3.7795Y-3.5433
X3.7795Y-3.622
X3.7795Y-3.7008
X3.7795Y-3.7795
X3.7795Y-3.8583
X3.7795Y-3.937
X3.7795Y-4.0157
X3.7795Y-4.0945
X3.7795Y-4.1732
X3.7795Y-4.252
X3.7795Y-4.3307
X3.8189Y-3.4252
X3.8189Y-3.5039
X3.8189Y-3.5827
X3.8189Y-3.6614
X3.8189Y-3.7402
X3.8189Y-3.8189
X3.8189Y-3.8976
X3.8189Y-3.9764
X3.8189Y-4.0551
X3.8189Y-4.1339
X3.8189Y-4.2126
X3.8189Y-4.2913
X3.8189Y-4.4488
X3.8189Y-4.5276
X3.8189Y-4.6063
X3.8583Y-3.4646
X3.8583Y-3.5433
X3.8583Y-3.622
X3.8583Y-3.7008
X3.8583Y-3.7795
X3.8583Y-3.8583
X3.8583Y-3.937
X3.8583Y-4.0157
X3.8583Y-4.0945
X3.8583Y-4.1732
X3.8583Y-4.252
X3.8583Y-4.3307
X3.8976Y-3.4252
X3.8976Y-3.5039
X3.8976Y-3.5827
X3.8976Y-3.6614
X3.8976Y-3.7402
X3.8976Y-3.8189
X3.8976Y-3.8976
X3.8976Y-3.9764
X3.8976Y-4.0551
X3.8976Y-4.1339
X3.8976Y-4.2126
X3.8976Y-4.2913
X3.9322Y-3.6172
X3.937Y-3.4646
X3.937Y-3.5433
X3.937Y-3.7008
X3.937Y-3.7795
X3.937Y-3.8583
X3.937Y-3.937
X3.937Y-4.0157
X3.937Y-4.0945
X3.937Y-4.1732
X3.937Y-4.252
X3.937Y-4.3307
X3.937Y-5.0197
X3.9764Y-3.4252
X3.9764Y-3.5039
X3.9764Y-3.5827
X3.9764Y-3.6614
X3.9764Y-3.7402
X3.9764Y-3.8189
X3.9764Y-3.8976
X3.9764Y-3.9764
X3.9764Y-4.0551
X3.9764Y-4.1339
X3.9764Y-4.2126
X3.9764Y-4.2913
X3.9764Y-4.5276
X3.9764Y-4.685
X4.0157Y-3.4646
X4.0157Y-3.5433
X4.0157Y-3.622
X4.0157Y-3.7008
X4.0157Y-3.7795
X4.0157Y-3.8583
X4.0157Y-3.937
X4.0157Y-4.0157
X4.0157Y-4.0945
X4.0157Y-4.1732
X4.0157Y-4.252
X4.0157Y-4.3307
X4.0551Y-3.4252
X4.0551Y-3.5039
X4.0551Y-3.5827
X4.0551Y-3.6614
X4.0551Y-3.7402
X4.0551Y-3.8189
X4.0551Y-3.8976
X4.0551Y-3.9764
X4.0551Y-4.0551
X4.0551Y-4.1339
X4.0551Y-4.2126
X4.0551Y-4.2913
X4.0551Y-4.4291
X4.0551Y-4.7047
X4.0945Y-3.4646
X4.0945Y-3.5433
X4.0945Y-3.622
X4.0945Y-3.7008
X4.0945Y-3.7795
X4.0945Y-3.8583
X4.0945Y-3.937
X4.0945Y-4.0157
X4.0945Y-4.0945
X4.0945Y-4.1732
X4.0945Y-4.252
X4.0945Y-4.3307
X4.105Y-4.5669
X4.1339Y-3.4252
X4.1339Y-3.5039
X4.1339Y-3.5827
X4.1339Y-3.8976
X4.1339Y-3.9764
X4.1339Y-4.2913
X4.1535Y-3.6614
X4.1535Y-3.7008
X4.1535Y-3.7402
X4.1535Y-3.7795
X4.1535Y-3.8189
X4.1535Y-3.8583
X4.1535Y-4.0157
X4.1535Y-4.0551
X4.1535Y-4.0945
X4.1535Y-4.1339
X4.1535Y-4.1732
X4.1535Y-4.2126
X4.1732Y-4.252
X4.1732Y-4.3307
X4.2126Y-4.4488
X4.2126Y-4.5669
X4.2126Y-4.685
X4.3701Y-4.5669
X4.3898Y-3.4252
X4.3898Y-3.8878
X4.3898Y-3.9272
X4.3898Y-3.9764
X4.3898Y-4.0157
X4.4488Y-3.878
X4.4488Y-4.3701
X4.4488Y-4.4882
X4.4488Y-4.5669
X4.4488Y-4.6457
X4.4488Y-4.7638
X4.4882Y-3.7106
X4.4882Y-3.75
X4.4882Y-3.7894
X4.4882Y-3.8287
X4.5079Y-3.7303
X4.5079Y-3.7697
X4.5079Y-3.8091
X4.5079Y-3.9272
X4.5276Y-3.7106
X4.5276Y-3.75
X4.5276Y-3.7894
X4.5276Y-3.8976
X4.5276Y-4.5669
X4.5276Y-4.9941
X4.5472Y-3.7303
X4.5472Y-3.7697
X4.5472Y-3.9173
X4.5669Y-3.7106
X4.5669Y-3.75
X4.5669Y-3.7894
X4.5669Y-3.8976
X4.5669Y-4.3701
X4.5669Y-4.7638
X4.5866Y-3.7303
X4.5866Y-3.7697
X4.5866Y-3.9173
X4.5866Y-4.5669
X4.5866Y-4.9941
X4.6063Y-3.3858
X4.6063Y-3.8386
X4.6063Y-3.8976
X4.6063Y-3.9764
X4.6063Y-4.124
X4.6063Y-4.1929
X4.6063Y-4.2323
X4.6063Y-4.3012
X4.626Y-3.5728
X4.626Y-3.6417
X4.626Y-3.9173
X4.626Y-4.8425
X4.626Y-4.8819
X4.6457Y-4.124
X4.6457Y-4.1929
X4.6457Y-4.2323
X4.6457Y-4.3012
X4.6555Y-3.9272
X4.6654Y-3.5728
X4.6654Y-3.6417
X4.685Y-3.937
X4.685Y-4.124
X4.685Y-4.1929
X4.685Y-4.2323
X4.685Y-4.3012
X4.7047Y-3.5728
X4.7047Y-3.6417
X4.7047Y-3.6811
X4.7047Y-3.75
X4.7244Y-3.937
X4.7244Y-4.124
X4.7244Y-4.1929
X4.7244Y-4.2323
X4.7244Y-4.3012
X4.7244Y-4.9941
X4.7441Y-3.5728
X4.7441Y-3.6417
X4.7441Y-3.6811
X4.7441Y-3.75
X4.7638Y-3.937
X4.7638Y-4.124
X4.7638Y-4.1929
X4.7638Y-4.2323
X4.7638Y-4.3012
X4.7835Y-3.5728
X4.7835Y-3.6417
X4.7835Y-3.6811
X4.7835Y-3.75
X4.8031Y-3.937
X4.8031Y-4.124
X4.8031Y-4.1929
X4.8031Y-4.2323
X4.8031Y-4.3012
X4.8228Y-3.4252
X4.8228Y-3.6909
X4.8228Y-3.7205
X4.8228Y-3.75
X4.8425Y-3.937
X4.8425Y-4.124
X4.8425Y-4.1929
X4.8425Y-4.2323
X4.8425Y-4.3012
X4.8524Y-3.7205
X4.8524Y-3.75
X4.8819Y-3.937
X4.8819Y-4.124
X4.8819Y-4.1929
X4.8819Y-4.2323
X4.8819Y-4.3012
X4.9016Y-5.0197
X4.9213Y-3.937
X4.9213Y-3.9764
X4.9213Y-4.0157
X4.9213Y-4.0551
X4.9213Y-4.124
X4.9213Y-4.1929
X4.9213Y-4.2323
X4.9213Y-4.3012
X4.9606Y-3.937
X4.9606Y-3.9764
X4.9606Y-4.0157
X4.9803Y-4.1142
X5.0Y-4.1732
X5.0Y-4.252
X5.0Y-4.3307
X5.0197Y-3.8189
X5.0197Y-3.8976
X5.0197Y-3.9764
X5.0197Y-4.0551
X5.0394Y-3.3858
X5.0394Y-4.3701
X5.0591Y-3.8583
X5.0591Y-3.937
X5.0591Y-4.0157
X5.0984Y-3.8189
X5.0984Y-3.8976
X5.0984Y-3.9764
X5.0984Y-4.0551
X5.1181Y-4.3701
X5.1378Y-3.937
X5.1378Y-4.0157
X5.1772Y-3.8189
X5.1772Y-3.8976
X5.1772Y-3.9764
X5.1772Y-4.0551
X5.1969Y-4.3701
X5.2362Y-3.8583
X5.2362Y-4.0354
X5.2362Y-4.1732
X5.2362Y-4.252
X5.2362Y-4.3307
X5.2756Y-3.7992
X5.2953Y-3.6417
X5.315Y-4.0945
X5.315Y-4.1732
X5.315Y-4.252
X5.3543Y-4.1339
X5.3543Y-4.2126
X5.3543Y-4.3701
X5.3632Y-3.6811
X5.3937Y-3.8386
X5.3937Y-4.3307
X5.4331Y-3.6614
X5.4331Y-3.7402
X5.4331Y-3.8189
X5.4331Y-3.8976
X5.4331Y-3.9764
X5.4331Y-4.0551
X5.4331Y-4.1339
X5.4331Y-4.2126
X5.4331Y-4.2913
X5.4331Y-4.3701
X5.4724Y-3.7008
X5.4724Y-3.7795
X5.4724Y-3.8583
X5.4724Y-3.937
X5.4724Y-4.0157
X5.4724Y-4.0945
X5.4724Y-4.1732
X5.4724Y-4.252
X5.5118Y-3.6614
X5.5118Y-3.7402
X5.5118Y-3.8189
X5.5118Y-3.8976
X5.5118Y-3.9764
X5.5118Y-4.0551
X5.5118Y-4.1339
X5.5118Y-4.2126
X5.5512Y-3.7008
X5.5512Y-3.937
X5.5512Y-4.0157
X5.5512Y-4.1732
X5.5512Y-4.252
X5.5906Y-3.6614
X5.5906Y-3.8976
X5.5906Y-3.9764
X5.5906Y-4.2126
X5.5906Y-4.2913
X5.5906Y-4.3701
X5.6299Y-3.7008
X5.6299Y-3.937
X5.6299Y-4.1732
X5.6299Y-4.252
X5.6299Y-4.3307
X5.6693Y-3.6614
X5.6693Y-3.8976
X5.6693Y-3.9764
X5.6693Y-4.2126
X5.6693Y-4.2913
X5.6693Y-4.3701
X5.7087Y-3.7008
X5.7087Y-3.937
X5.7087Y-4.0157
X5.7087Y-4.1732
X5.7087Y-4.252
X5.7087Y-4.3307
X5.748Y-3.6614
X5.748Y-3.7402
X5.748Y-3.8189
X5.748Y-3.8976
X5.748Y-3.9764
X5.748Y-4.1339
X5.748Y-4.2126
X5.748Y-4.2913
X5.748Y-4.3701
X5.7499Y-4.0509
T3
X2.8868Y-5.1181
X2.9868Y-5.1181
X3.0709Y-4.2126
X3.0868Y-5.1181
X3.1868Y-5.1181
X3.2868Y-5.1181
X3.3868Y-5.1181
X3.4868Y-5.1181
X3.5827Y-3.5039
X3.5868Y-5.1181
X3.6868Y-5.1181
X3.7868Y-5.1181
X3.8868Y-5.1181
X3.9868Y-5.1181
X4.0868Y-5.1181
X4.1868Y-5.1181
X4.252Y-3.5039
X4.2868Y-5.1181
X4.3868Y-5.1181
X4.4868Y-5.1181
X4.5868Y-5.1181
X4.6868Y-5.1181
X4.7868Y-5.1181
X4.8868Y-5.1181
X4.9409Y-3.8386
X4.9868Y-5.1181
X5.5118Y-3.5433
X5.5118Y-4.3307
T4
X2.1713Y-3.7953
X2.1713Y-4.0787
X5.624Y-3.7953
X5.624Y-4.0787
T2
G00X1.9134Y-3.6713
M15
G01X1.9567Y-3.6713
M16
G05
G00X1.9134Y-4.2028
M15
G01X1.9567Y-4.2028
M16
G05
G00X5.8819Y-3.6713
M15
G01X5.8386Y-3.6713
M16
G05
G00X5.8819Y-4.2028
M15
G01X5.8386Y-4.2028
M16
G05
M30
