%TF.GenerationSoftware,KiCad,Pcbnew,8.0.6*%
%TF.CreationDate,2024-12-20T12:02:23-05:00*%
%TF.ProjectId,PD Charger,50442043-6861-4726-9765-722e6b696361,0*%
%TF.SameCoordinates,Original*%
%TF.FileFunction,Paste,Top*%
%TF.FilePolarity,Positive*%
%FSLAX46Y46*%
G04 Gerber Fmt 4.6, Leading zero omitted, Abs format (unit mm)*
G04 Created by KiCad (PCBNEW 8.0.6) date 2024-12-20 12:02:23*
%MOMM*%
%LPD*%
G01*
G04 APERTURE LIST*
G04 Aperture macros list*
%AMRoundRect*
0 Rectangle with rounded corners*
0 $1 Rounding radius*
0 $2 $3 $4 $5 $6 $7 $8 $9 X,Y pos of 4 corners*
0 Add a 4 corners polygon primitive as box body*
4,1,4,$2,$3,$4,$5,$6,$7,$8,$9,$2,$3,0*
0 Add four circle primitives for the rounded corners*
1,1,$1+$1,$2,$3*
1,1,$1+$1,$4,$5*
1,1,$1+$1,$6,$7*
1,1,$1+$1,$8,$9*
0 Add four rect primitives between the rounded corners*
20,1,$1+$1,$2,$3,$4,$5,0*
20,1,$1+$1,$4,$5,$6,$7,0*
20,1,$1+$1,$6,$7,$8,$9,0*
20,1,$1+$1,$8,$9,$2,$3,0*%
G04 Aperture macros list end*
%ADD10C,0.000000*%
%ADD11C,0.137500*%
%ADD12C,0.200000*%
%ADD13C,0.130000*%
%ADD14RoundRect,0.200000X-0.200000X-0.275000X0.200000X-0.275000X0.200000X0.275000X-0.200000X0.275000X0*%
%ADD15RoundRect,0.100000X-0.100000X0.225000X-0.100000X-0.225000X0.100000X-0.225000X0.100000X0.225000X0*%
%ADD16RoundRect,0.200000X0.200000X0.275000X-0.200000X0.275000X-0.200000X-0.275000X0.200000X-0.275000X0*%
%ADD17C,0.225000*%
%ADD18RoundRect,0.250000X-0.325000X-0.650000X0.325000X-0.650000X0.325000X0.650000X-0.325000X0.650000X0*%
%ADD19RoundRect,0.140000X-0.140000X-0.170000X0.140000X-0.170000X0.140000X0.170000X-0.140000X0.170000X0*%
%ADD20R,1.300000X3.400000*%
%ADD21RoundRect,0.200000X-0.275000X0.200000X-0.275000X-0.200000X0.275000X-0.200000X0.275000X0.200000X0*%
%ADD22RoundRect,0.135000X-0.185000X0.135000X-0.185000X-0.135000X0.185000X-0.135000X0.185000X0.135000X0*%
%ADD23RoundRect,0.225000X-0.250000X0.225000X-0.250000X-0.225000X0.250000X-0.225000X0.250000X0.225000X0*%
%ADD24RoundRect,0.250000X-0.650000X0.325000X-0.650000X-0.325000X0.650000X-0.325000X0.650000X0.325000X0*%
%ADD25R,0.812800X0.660400*%
%ADD26R,0.249999X0.599999*%
%ADD27R,0.599999X0.249999*%
%ADD28RoundRect,0.250000X0.650000X-0.325000X0.650000X0.325000X-0.650000X0.325000X-0.650000X-0.325000X0*%
%ADD29RoundRect,0.200000X0.275000X-0.200000X0.275000X0.200000X-0.275000X0.200000X-0.275000X-0.200000X0*%
%ADD30R,0.660400X0.812800*%
%ADD31R,1.750000X1.100000*%
%ADD32RoundRect,0.135000X-0.135000X-0.185000X0.135000X-0.185000X0.135000X0.185000X-0.135000X0.185000X0*%
%ADD33R,1.100000X1.750000*%
%ADD34RoundRect,0.225000X0.250000X-0.225000X0.250000X0.225000X-0.250000X0.225000X-0.250000X-0.225000X0*%
%ADD35RoundRect,0.150000X-0.150000X0.150000X-0.150000X-0.150000X0.150000X-0.150000X0.150000X0.150000X0*%
%ADD36RoundRect,0.062500X-0.062500X0.375000X-0.062500X-0.375000X0.062500X-0.375000X0.062500X0.375000X0*%
%ADD37RoundRect,0.062500X-0.375000X0.062500X-0.375000X-0.062500X0.375000X-0.062500X0.375000X0.062500X0*%
%ADD38RoundRect,0.150000X-0.512500X-0.150000X0.512500X-0.150000X0.512500X0.150000X-0.512500X0.150000X0*%
%ADD39RoundRect,0.250000X-0.475000X0.250000X-0.475000X-0.250000X0.475000X-0.250000X0.475000X0.250000X0*%
%ADD40RoundRect,0.225000X-0.225000X-0.250000X0.225000X-0.250000X0.225000X0.250000X-0.225000X0.250000X0*%
%ADD41RoundRect,0.150000X-0.150000X0.512500X-0.150000X-0.512500X0.150000X-0.512500X0.150000X0.512500X0*%
%ADD42R,0.900000X0.780000*%
%ADD43R,0.500000X0.650000*%
%ADD44R,0.500000X0.550000*%
%ADD45RoundRect,0.225000X0.225000X0.250000X-0.225000X0.250000X-0.225000X-0.250000X0.225000X-0.250000X0*%
%ADD46RoundRect,0.250000X0.250000X0.475000X-0.250000X0.475000X-0.250000X-0.475000X0.250000X-0.475000X0*%
%ADD47RoundRect,0.140000X0.170000X-0.140000X0.170000X0.140000X-0.170000X0.140000X-0.170000X-0.140000X0*%
%ADD48R,2.057400X2.844800*%
%ADD49R,3.825000X12.320000*%
G04 APERTURE END LIST*
D10*
%TO.C,U9*%
G36*
X83645754Y-115875962D02*
G01*
X83655135Y-115878806D01*
X83663778Y-115883427D01*
X83671355Y-115889645D01*
X83677573Y-115897221D01*
X83682193Y-115905865D01*
X83685038Y-115915245D01*
X83685998Y-115925001D01*
X83685998Y-116074999D01*
X83685038Y-116084755D01*
X83682193Y-116094135D01*
X83677573Y-116102779D01*
X83671355Y-116110355D01*
X83663778Y-116116573D01*
X83655135Y-116121194D01*
X83645754Y-116124038D01*
X83635998Y-116124998D01*
X82923998Y-116124998D01*
X82914245Y-116124038D01*
X82904864Y-116121194D01*
X82896221Y-116116573D01*
X82888644Y-116110355D01*
X82882426Y-116102779D01*
X82877806Y-116094135D01*
X82874961Y-116084755D01*
X82873998Y-116074999D01*
X82873998Y-115925001D01*
X82874961Y-115915245D01*
X82877806Y-115905865D01*
X82882426Y-115897221D01*
X82888644Y-115889645D01*
X82896221Y-115883427D01*
X82904864Y-115878806D01*
X82914245Y-115875962D01*
X82923998Y-115875002D01*
X83635998Y-115875002D01*
X83645754Y-115875962D01*
G37*
G36*
X84660756Y-115875962D02*
G01*
X84670136Y-115878806D01*
X84678780Y-115883427D01*
X84686357Y-115889645D01*
X84692575Y-115897221D01*
X84697195Y-115905865D01*
X84700040Y-115915245D01*
X84701002Y-115925001D01*
X84701002Y-116074999D01*
X84700040Y-116084755D01*
X84697195Y-116094135D01*
X84692575Y-116102779D01*
X84686357Y-116110355D01*
X84678780Y-116116573D01*
X84670136Y-116121194D01*
X84660756Y-116124038D01*
X84651003Y-116124998D01*
X83939002Y-116124998D01*
X83929246Y-116124038D01*
X83919866Y-116121194D01*
X83911222Y-116116573D01*
X83903646Y-116110355D01*
X83897428Y-116102779D01*
X83892807Y-116094135D01*
X83889963Y-116084755D01*
X83889003Y-116074999D01*
X83889003Y-115925001D01*
X83889963Y-115915245D01*
X83892807Y-115905865D01*
X83897428Y-115897221D01*
X83903646Y-115889645D01*
X83911222Y-115883427D01*
X83919866Y-115878806D01*
X83929246Y-115875962D01*
X83939002Y-115875002D01*
X84651003Y-115875002D01*
X84660756Y-115875962D01*
G37*
D11*
%TO.C,Q2*%
X82428750Y-101641250D02*
X82291250Y-101641250D01*
X82291250Y-101408750D01*
X82428750Y-101408750D01*
X82428750Y-101641250D01*
G36*
X82428750Y-101641250D02*
G01*
X82291250Y-101641250D01*
X82291250Y-101408750D01*
X82428750Y-101408750D01*
X82428750Y-101641250D01*
G37*
X82428750Y-102390960D02*
X82291250Y-102390960D01*
X82291250Y-102158460D01*
X82428750Y-102158460D01*
X82428750Y-102390960D01*
G36*
X82428750Y-102390960D02*
G01*
X82291250Y-102390960D01*
X82291250Y-102158460D01*
X82428750Y-102158460D01*
X82428750Y-102390960D01*
G37*
X82428750Y-102940970D02*
X82291250Y-102940970D01*
X82291250Y-102708470D01*
X82428750Y-102708470D01*
X82428750Y-102940970D01*
G36*
X82428750Y-102940970D02*
G01*
X82291250Y-102940970D01*
X82291250Y-102708470D01*
X82428750Y-102708470D01*
X82428750Y-102940970D01*
G37*
X82428750Y-103590960D02*
X82291250Y-103590960D01*
X82291250Y-103358460D01*
X82428750Y-103358460D01*
X82428750Y-103590960D01*
G36*
X82428750Y-103590960D02*
G01*
X82291250Y-103590960D01*
X82291250Y-103358460D01*
X82428750Y-103358460D01*
X82428750Y-103590960D01*
G37*
D12*
X82977000Y-101671280D02*
X82777000Y-101671280D01*
X82777000Y-100896280D01*
X82977000Y-100896280D01*
X82977000Y-101671280D01*
G36*
X82977000Y-101671280D02*
G01*
X82777000Y-101671280D01*
X82777000Y-100896280D01*
X82977000Y-100896280D01*
X82977000Y-101671280D01*
G37*
X82977500Y-102900000D02*
X82777500Y-102900000D01*
X82777500Y-102200000D01*
X82977500Y-102200000D01*
X82977500Y-102900000D01*
G36*
X82977500Y-102900000D02*
G01*
X82777500Y-102900000D01*
X82777500Y-102200000D01*
X82977500Y-102200000D01*
X82977500Y-102900000D01*
G37*
X82977500Y-104100000D02*
X82777500Y-104100000D01*
X82777500Y-103300000D01*
X82977500Y-103300000D01*
X82977500Y-104100000D01*
G36*
X82977500Y-104100000D02*
G01*
X82777500Y-104100000D01*
X82777500Y-103300000D01*
X82977500Y-103300000D01*
X82977500Y-104100000D01*
G37*
D13*
X83790000Y-102235000D02*
X83660000Y-102235000D01*
X83660000Y-100865000D01*
X83790000Y-100865000D01*
X83790000Y-102235000D01*
G36*
X83790000Y-102235000D02*
G01*
X83660000Y-102235000D01*
X83660000Y-100865000D01*
X83790000Y-100865000D01*
X83790000Y-102235000D01*
G37*
X83790000Y-104135000D02*
X83660000Y-104135000D01*
X83660000Y-102765000D01*
X83790000Y-102765000D01*
X83790000Y-104135000D01*
G36*
X83790000Y-104135000D02*
G01*
X83660000Y-104135000D01*
X83660000Y-102765000D01*
X83790000Y-102765000D01*
X83790000Y-104135000D01*
G37*
X84640000Y-102235000D02*
X84510000Y-102235000D01*
X84510000Y-100865000D01*
X84640000Y-100865000D01*
X84640000Y-102235000D01*
G36*
X84640000Y-102235000D02*
G01*
X84510000Y-102235000D01*
X84510000Y-100865000D01*
X84640000Y-100865000D01*
X84640000Y-102235000D01*
G37*
X84640000Y-104135000D02*
X84510000Y-104135000D01*
X84510000Y-102765000D01*
X84640000Y-102765000D01*
X84640000Y-104135000D01*
G36*
X84640000Y-104135000D02*
G01*
X84510000Y-104135000D01*
X84510000Y-102765000D01*
X84640000Y-102765000D01*
X84640000Y-104135000D01*
G37*
X85490000Y-102235000D02*
X85360000Y-102235000D01*
X85360000Y-100865000D01*
X85490000Y-100865000D01*
X85490000Y-102235000D01*
G36*
X85490000Y-102235000D02*
G01*
X85360000Y-102235000D01*
X85360000Y-100865000D01*
X85490000Y-100865000D01*
X85490000Y-102235000D01*
G37*
X85490000Y-104135000D02*
X85360000Y-104135000D01*
X85360000Y-102765000D01*
X85490000Y-102765000D01*
X85490000Y-104135000D01*
G36*
X85490000Y-104135000D02*
G01*
X85360000Y-104135000D01*
X85360000Y-102765000D01*
X85490000Y-102765000D01*
X85490000Y-104135000D01*
G37*
X86340000Y-102235000D02*
X86210000Y-102235000D01*
X86210000Y-100865000D01*
X86340000Y-100865000D01*
X86340000Y-102235000D01*
G36*
X86340000Y-102235000D02*
G01*
X86210000Y-102235000D01*
X86210000Y-100865000D01*
X86340000Y-100865000D01*
X86340000Y-102235000D01*
G37*
X86340000Y-104135000D02*
X86210000Y-104135000D01*
X86210000Y-102765000D01*
X86340000Y-102765000D01*
X86340000Y-104135000D01*
G36*
X86340000Y-104135000D02*
G01*
X86210000Y-104135000D01*
X86210000Y-102765000D01*
X86340000Y-102765000D01*
X86340000Y-104135000D01*
G37*
D12*
X87223000Y-101700000D02*
X87023000Y-101700000D01*
X87023000Y-100900000D01*
X87223000Y-100900000D01*
X87223000Y-101700000D01*
G36*
X87223000Y-101700000D02*
G01*
X87023000Y-101700000D01*
X87023000Y-100900000D01*
X87223000Y-100900000D01*
X87223000Y-101700000D01*
G37*
X87223000Y-102900000D02*
X87023000Y-102900000D01*
X87023000Y-102100000D01*
X87223000Y-102100000D01*
X87223000Y-102900000D01*
G36*
X87223000Y-102900000D02*
G01*
X87023000Y-102900000D01*
X87023000Y-102100000D01*
X87223000Y-102100000D01*
X87223000Y-102900000D01*
G37*
X87223000Y-104100000D02*
X87023000Y-104100000D01*
X87023000Y-103300000D01*
X87223000Y-103300000D01*
X87223000Y-104100000D01*
G36*
X87223000Y-104100000D02*
G01*
X87023000Y-104100000D01*
X87023000Y-103300000D01*
X87223000Y-103300000D01*
X87223000Y-104100000D01*
G37*
D11*
X87708750Y-101641250D02*
X87571250Y-101641250D01*
X87571250Y-101408750D01*
X87708750Y-101408750D01*
X87708750Y-101641250D01*
G36*
X87708750Y-101641250D02*
G01*
X87571250Y-101641250D01*
X87571250Y-101408750D01*
X87708750Y-101408750D01*
X87708750Y-101641250D01*
G37*
X87708750Y-102291250D02*
X87571250Y-102291250D01*
X87571250Y-102058750D01*
X87708750Y-102058750D01*
X87708750Y-102291250D01*
G36*
X87708750Y-102291250D02*
G01*
X87571250Y-102291250D01*
X87571250Y-102058750D01*
X87708750Y-102058750D01*
X87708750Y-102291250D01*
G37*
X87708750Y-102941250D02*
X87571250Y-102941250D01*
X87571250Y-102708750D01*
X87708750Y-102708750D01*
X87708750Y-102941250D01*
G36*
X87708750Y-102941250D02*
G01*
X87571250Y-102941250D01*
X87571250Y-102708750D01*
X87708750Y-102708750D01*
X87708750Y-102941250D01*
G37*
X87708750Y-103591250D02*
X87571250Y-103591250D01*
X87571250Y-103358750D01*
X87708750Y-103358750D01*
X87708750Y-103591250D01*
G36*
X87708750Y-103591250D02*
G01*
X87571250Y-103591250D01*
X87571250Y-103358750D01*
X87708750Y-103358750D01*
X87708750Y-103591250D01*
G37*
%TO.C,Q4*%
X118428750Y-101641250D02*
X118291250Y-101641250D01*
X118291250Y-101408750D01*
X118428750Y-101408750D01*
X118428750Y-101641250D01*
G36*
X118428750Y-101641250D02*
G01*
X118291250Y-101641250D01*
X118291250Y-101408750D01*
X118428750Y-101408750D01*
X118428750Y-101641250D01*
G37*
X118428750Y-102390960D02*
X118291250Y-102390960D01*
X118291250Y-102158460D01*
X118428750Y-102158460D01*
X118428750Y-102390960D01*
G36*
X118428750Y-102390960D02*
G01*
X118291250Y-102390960D01*
X118291250Y-102158460D01*
X118428750Y-102158460D01*
X118428750Y-102390960D01*
G37*
X118428750Y-102940970D02*
X118291250Y-102940970D01*
X118291250Y-102708470D01*
X118428750Y-102708470D01*
X118428750Y-102940970D01*
G36*
X118428750Y-102940970D02*
G01*
X118291250Y-102940970D01*
X118291250Y-102708470D01*
X118428750Y-102708470D01*
X118428750Y-102940970D01*
G37*
X118428750Y-103590960D02*
X118291250Y-103590960D01*
X118291250Y-103358460D01*
X118428750Y-103358460D01*
X118428750Y-103590960D01*
G36*
X118428750Y-103590960D02*
G01*
X118291250Y-103590960D01*
X118291250Y-103358460D01*
X118428750Y-103358460D01*
X118428750Y-103590960D01*
G37*
D12*
X118977000Y-101671280D02*
X118777000Y-101671280D01*
X118777000Y-100896280D01*
X118977000Y-100896280D01*
X118977000Y-101671280D01*
G36*
X118977000Y-101671280D02*
G01*
X118777000Y-101671280D01*
X118777000Y-100896280D01*
X118977000Y-100896280D01*
X118977000Y-101671280D01*
G37*
X118977500Y-102900000D02*
X118777500Y-102900000D01*
X118777500Y-102200000D01*
X118977500Y-102200000D01*
X118977500Y-102900000D01*
G36*
X118977500Y-102900000D02*
G01*
X118777500Y-102900000D01*
X118777500Y-102200000D01*
X118977500Y-102200000D01*
X118977500Y-102900000D01*
G37*
X118977500Y-104100000D02*
X118777500Y-104100000D01*
X118777500Y-103300000D01*
X118977500Y-103300000D01*
X118977500Y-104100000D01*
G36*
X118977500Y-104100000D02*
G01*
X118777500Y-104100000D01*
X118777500Y-103300000D01*
X118977500Y-103300000D01*
X118977500Y-104100000D01*
G37*
D13*
X119790000Y-102235000D02*
X119660000Y-102235000D01*
X119660000Y-100865000D01*
X119790000Y-100865000D01*
X119790000Y-102235000D01*
G36*
X119790000Y-102235000D02*
G01*
X119660000Y-102235000D01*
X119660000Y-100865000D01*
X119790000Y-100865000D01*
X119790000Y-102235000D01*
G37*
X119790000Y-104135000D02*
X119660000Y-104135000D01*
X119660000Y-102765000D01*
X119790000Y-102765000D01*
X119790000Y-104135000D01*
G36*
X119790000Y-104135000D02*
G01*
X119660000Y-104135000D01*
X119660000Y-102765000D01*
X119790000Y-102765000D01*
X119790000Y-104135000D01*
G37*
X120640000Y-102235000D02*
X120510000Y-102235000D01*
X120510000Y-100865000D01*
X120640000Y-100865000D01*
X120640000Y-102235000D01*
G36*
X120640000Y-102235000D02*
G01*
X120510000Y-102235000D01*
X120510000Y-100865000D01*
X120640000Y-100865000D01*
X120640000Y-102235000D01*
G37*
X120640000Y-104135000D02*
X120510000Y-104135000D01*
X120510000Y-102765000D01*
X120640000Y-102765000D01*
X120640000Y-104135000D01*
G36*
X120640000Y-104135000D02*
G01*
X120510000Y-104135000D01*
X120510000Y-102765000D01*
X120640000Y-102765000D01*
X120640000Y-104135000D01*
G37*
X121490000Y-102235000D02*
X121360000Y-102235000D01*
X121360000Y-100865000D01*
X121490000Y-100865000D01*
X121490000Y-102235000D01*
G36*
X121490000Y-102235000D02*
G01*
X121360000Y-102235000D01*
X121360000Y-100865000D01*
X121490000Y-100865000D01*
X121490000Y-102235000D01*
G37*
X121490000Y-104135000D02*
X121360000Y-104135000D01*
X121360000Y-102765000D01*
X121490000Y-102765000D01*
X121490000Y-104135000D01*
G36*
X121490000Y-104135000D02*
G01*
X121360000Y-104135000D01*
X121360000Y-102765000D01*
X121490000Y-102765000D01*
X121490000Y-104135000D01*
G37*
X122340000Y-102235000D02*
X122210000Y-102235000D01*
X122210000Y-100865000D01*
X122340000Y-100865000D01*
X122340000Y-102235000D01*
G36*
X122340000Y-102235000D02*
G01*
X122210000Y-102235000D01*
X122210000Y-100865000D01*
X122340000Y-100865000D01*
X122340000Y-102235000D01*
G37*
X122340000Y-104135000D02*
X122210000Y-104135000D01*
X122210000Y-102765000D01*
X122340000Y-102765000D01*
X122340000Y-104135000D01*
G36*
X122340000Y-104135000D02*
G01*
X122210000Y-104135000D01*
X122210000Y-102765000D01*
X122340000Y-102765000D01*
X122340000Y-104135000D01*
G37*
D12*
X123223000Y-101700000D02*
X123023000Y-101700000D01*
X123023000Y-100900000D01*
X123223000Y-100900000D01*
X123223000Y-101700000D01*
G36*
X123223000Y-101700000D02*
G01*
X123023000Y-101700000D01*
X123023000Y-100900000D01*
X123223000Y-100900000D01*
X123223000Y-101700000D01*
G37*
X123223000Y-102900000D02*
X123023000Y-102900000D01*
X123023000Y-102100000D01*
X123223000Y-102100000D01*
X123223000Y-102900000D01*
G36*
X123223000Y-102900000D02*
G01*
X123023000Y-102900000D01*
X123023000Y-102100000D01*
X123223000Y-102100000D01*
X123223000Y-102900000D01*
G37*
X123223000Y-104100000D02*
X123023000Y-104100000D01*
X123023000Y-103300000D01*
X123223000Y-103300000D01*
X123223000Y-104100000D01*
G36*
X123223000Y-104100000D02*
G01*
X123023000Y-104100000D01*
X123023000Y-103300000D01*
X123223000Y-103300000D01*
X123223000Y-104100000D01*
G37*
D11*
X123708750Y-101641250D02*
X123571250Y-101641250D01*
X123571250Y-101408750D01*
X123708750Y-101408750D01*
X123708750Y-101641250D01*
G36*
X123708750Y-101641250D02*
G01*
X123571250Y-101641250D01*
X123571250Y-101408750D01*
X123708750Y-101408750D01*
X123708750Y-101641250D01*
G37*
X123708750Y-102291250D02*
X123571250Y-102291250D01*
X123571250Y-102058750D01*
X123708750Y-102058750D01*
X123708750Y-102291250D01*
G36*
X123708750Y-102291250D02*
G01*
X123571250Y-102291250D01*
X123571250Y-102058750D01*
X123708750Y-102058750D01*
X123708750Y-102291250D01*
G37*
X123708750Y-102941250D02*
X123571250Y-102941250D01*
X123571250Y-102708750D01*
X123708750Y-102708750D01*
X123708750Y-102941250D01*
G36*
X123708750Y-102941250D02*
G01*
X123571250Y-102941250D01*
X123571250Y-102708750D01*
X123708750Y-102708750D01*
X123708750Y-102941250D01*
G37*
X123708750Y-103591250D02*
X123571250Y-103591250D01*
X123571250Y-103358750D01*
X123708750Y-103358750D01*
X123708750Y-103591250D01*
G36*
X123708750Y-103591250D02*
G01*
X123571250Y-103591250D01*
X123571250Y-103358750D01*
X123708750Y-103358750D01*
X123708750Y-103591250D01*
G37*
D10*
%TO.C,U2*%
G36*
X105645754Y-115875962D02*
G01*
X105655135Y-115878806D01*
X105663778Y-115883427D01*
X105671355Y-115889645D01*
X105677573Y-115897221D01*
X105682193Y-115905865D01*
X105685038Y-115915245D01*
X105685998Y-115925001D01*
X105685998Y-116074999D01*
X105685038Y-116084755D01*
X105682193Y-116094135D01*
X105677573Y-116102779D01*
X105671355Y-116110355D01*
X105663778Y-116116573D01*
X105655135Y-116121194D01*
X105645754Y-116124038D01*
X105635998Y-116124998D01*
X104923998Y-116124998D01*
X104914245Y-116124038D01*
X104904864Y-116121194D01*
X104896221Y-116116573D01*
X104888644Y-116110355D01*
X104882426Y-116102779D01*
X104877806Y-116094135D01*
X104874961Y-116084755D01*
X104873998Y-116074999D01*
X104873998Y-115925001D01*
X104874961Y-115915245D01*
X104877806Y-115905865D01*
X104882426Y-115897221D01*
X104888644Y-115889645D01*
X104896221Y-115883427D01*
X104904864Y-115878806D01*
X104914245Y-115875962D01*
X104923998Y-115875002D01*
X105635998Y-115875002D01*
X105645754Y-115875962D01*
G37*
G36*
X106660756Y-115875962D02*
G01*
X106670136Y-115878806D01*
X106678780Y-115883427D01*
X106686357Y-115889645D01*
X106692575Y-115897221D01*
X106697195Y-115905865D01*
X106700040Y-115915245D01*
X106701002Y-115925001D01*
X106701002Y-116074999D01*
X106700040Y-116084755D01*
X106697195Y-116094135D01*
X106692575Y-116102779D01*
X106686357Y-116110355D01*
X106678780Y-116116573D01*
X106670136Y-116121194D01*
X106660756Y-116124038D01*
X106651003Y-116124998D01*
X105939002Y-116124998D01*
X105929246Y-116124038D01*
X105919866Y-116121194D01*
X105911222Y-116116573D01*
X105903646Y-116110355D01*
X105897428Y-116102779D01*
X105892807Y-116094135D01*
X105889963Y-116084755D01*
X105889003Y-116074999D01*
X105889003Y-115925001D01*
X105889963Y-115915245D01*
X105892807Y-115905865D01*
X105897428Y-115897221D01*
X105903646Y-115889645D01*
X105911222Y-115883427D01*
X105919866Y-115878806D01*
X105929246Y-115875962D01*
X105939002Y-115875002D01*
X106651003Y-115875002D01*
X106660756Y-115875962D01*
G37*
D11*
%TO.C,Q1*%
X82503750Y-96641250D02*
X82366250Y-96641250D01*
X82366250Y-96408750D01*
X82503750Y-96408750D01*
X82503750Y-96641250D01*
G36*
X82503750Y-96641250D02*
G01*
X82366250Y-96641250D01*
X82366250Y-96408750D01*
X82503750Y-96408750D01*
X82503750Y-96641250D01*
G37*
X82503750Y-97390960D02*
X82366250Y-97390960D01*
X82366250Y-97158460D01*
X82503750Y-97158460D01*
X82503750Y-97390960D01*
G36*
X82503750Y-97390960D02*
G01*
X82366250Y-97390960D01*
X82366250Y-97158460D01*
X82503750Y-97158460D01*
X82503750Y-97390960D01*
G37*
X82503750Y-97940970D02*
X82366250Y-97940970D01*
X82366250Y-97708470D01*
X82503750Y-97708470D01*
X82503750Y-97940970D01*
G36*
X82503750Y-97940970D02*
G01*
X82366250Y-97940970D01*
X82366250Y-97708470D01*
X82503750Y-97708470D01*
X82503750Y-97940970D01*
G37*
X82503750Y-98590960D02*
X82366250Y-98590960D01*
X82366250Y-98358460D01*
X82503750Y-98358460D01*
X82503750Y-98590960D01*
G36*
X82503750Y-98590960D02*
G01*
X82366250Y-98590960D01*
X82366250Y-98358460D01*
X82503750Y-98358460D01*
X82503750Y-98590960D01*
G37*
D12*
X83052000Y-96671280D02*
X82852000Y-96671280D01*
X82852000Y-95896280D01*
X83052000Y-95896280D01*
X83052000Y-96671280D01*
G36*
X83052000Y-96671280D02*
G01*
X82852000Y-96671280D01*
X82852000Y-95896280D01*
X83052000Y-95896280D01*
X83052000Y-96671280D01*
G37*
X83052500Y-97900000D02*
X82852500Y-97900000D01*
X82852500Y-97200000D01*
X83052500Y-97200000D01*
X83052500Y-97900000D01*
G36*
X83052500Y-97900000D02*
G01*
X82852500Y-97900000D01*
X82852500Y-97200000D01*
X83052500Y-97200000D01*
X83052500Y-97900000D01*
G37*
X83052500Y-99100000D02*
X82852500Y-99100000D01*
X82852500Y-98300000D01*
X83052500Y-98300000D01*
X83052500Y-99100000D01*
G36*
X83052500Y-99100000D02*
G01*
X82852500Y-99100000D01*
X82852500Y-98300000D01*
X83052500Y-98300000D01*
X83052500Y-99100000D01*
G37*
D13*
X83865000Y-97235000D02*
X83735000Y-97235000D01*
X83735000Y-95865000D01*
X83865000Y-95865000D01*
X83865000Y-97235000D01*
G36*
X83865000Y-97235000D02*
G01*
X83735000Y-97235000D01*
X83735000Y-95865000D01*
X83865000Y-95865000D01*
X83865000Y-97235000D01*
G37*
X83865000Y-99135000D02*
X83735000Y-99135000D01*
X83735000Y-97765000D01*
X83865000Y-97765000D01*
X83865000Y-99135000D01*
G36*
X83865000Y-99135000D02*
G01*
X83735000Y-99135000D01*
X83735000Y-97765000D01*
X83865000Y-97765000D01*
X83865000Y-99135000D01*
G37*
X84715000Y-97235000D02*
X84585000Y-97235000D01*
X84585000Y-95865000D01*
X84715000Y-95865000D01*
X84715000Y-97235000D01*
G36*
X84715000Y-97235000D02*
G01*
X84585000Y-97235000D01*
X84585000Y-95865000D01*
X84715000Y-95865000D01*
X84715000Y-97235000D01*
G37*
X84715000Y-99135000D02*
X84585000Y-99135000D01*
X84585000Y-97765000D01*
X84715000Y-97765000D01*
X84715000Y-99135000D01*
G36*
X84715000Y-99135000D02*
G01*
X84585000Y-99135000D01*
X84585000Y-97765000D01*
X84715000Y-97765000D01*
X84715000Y-99135000D01*
G37*
X85565000Y-97235000D02*
X85435000Y-97235000D01*
X85435000Y-95865000D01*
X85565000Y-95865000D01*
X85565000Y-97235000D01*
G36*
X85565000Y-97235000D02*
G01*
X85435000Y-97235000D01*
X85435000Y-95865000D01*
X85565000Y-95865000D01*
X85565000Y-97235000D01*
G37*
X85565000Y-99135000D02*
X85435000Y-99135000D01*
X85435000Y-97765000D01*
X85565000Y-97765000D01*
X85565000Y-99135000D01*
G36*
X85565000Y-99135000D02*
G01*
X85435000Y-99135000D01*
X85435000Y-97765000D01*
X85565000Y-97765000D01*
X85565000Y-99135000D01*
G37*
X86415000Y-97235000D02*
X86285000Y-97235000D01*
X86285000Y-95865000D01*
X86415000Y-95865000D01*
X86415000Y-97235000D01*
G36*
X86415000Y-97235000D02*
G01*
X86285000Y-97235000D01*
X86285000Y-95865000D01*
X86415000Y-95865000D01*
X86415000Y-97235000D01*
G37*
X86415000Y-99135000D02*
X86285000Y-99135000D01*
X86285000Y-97765000D01*
X86415000Y-97765000D01*
X86415000Y-99135000D01*
G36*
X86415000Y-99135000D02*
G01*
X86285000Y-99135000D01*
X86285000Y-97765000D01*
X86415000Y-97765000D01*
X86415000Y-99135000D01*
G37*
D12*
X87298000Y-96700000D02*
X87098000Y-96700000D01*
X87098000Y-95900000D01*
X87298000Y-95900000D01*
X87298000Y-96700000D01*
G36*
X87298000Y-96700000D02*
G01*
X87098000Y-96700000D01*
X87098000Y-95900000D01*
X87298000Y-95900000D01*
X87298000Y-96700000D01*
G37*
X87298000Y-97900000D02*
X87098000Y-97900000D01*
X87098000Y-97100000D01*
X87298000Y-97100000D01*
X87298000Y-97900000D01*
G36*
X87298000Y-97900000D02*
G01*
X87098000Y-97900000D01*
X87098000Y-97100000D01*
X87298000Y-97100000D01*
X87298000Y-97900000D01*
G37*
X87298000Y-99100000D02*
X87098000Y-99100000D01*
X87098000Y-98300000D01*
X87298000Y-98300000D01*
X87298000Y-99100000D01*
G36*
X87298000Y-99100000D02*
G01*
X87098000Y-99100000D01*
X87098000Y-98300000D01*
X87298000Y-98300000D01*
X87298000Y-99100000D01*
G37*
D11*
X87783750Y-96641250D02*
X87646250Y-96641250D01*
X87646250Y-96408750D01*
X87783750Y-96408750D01*
X87783750Y-96641250D01*
G36*
X87783750Y-96641250D02*
G01*
X87646250Y-96641250D01*
X87646250Y-96408750D01*
X87783750Y-96408750D01*
X87783750Y-96641250D01*
G37*
X87783750Y-97291250D02*
X87646250Y-97291250D01*
X87646250Y-97058750D01*
X87783750Y-97058750D01*
X87783750Y-97291250D01*
G36*
X87783750Y-97291250D02*
G01*
X87646250Y-97291250D01*
X87646250Y-97058750D01*
X87783750Y-97058750D01*
X87783750Y-97291250D01*
G37*
X87783750Y-97941250D02*
X87646250Y-97941250D01*
X87646250Y-97708750D01*
X87783750Y-97708750D01*
X87783750Y-97941250D01*
G36*
X87783750Y-97941250D02*
G01*
X87646250Y-97941250D01*
X87646250Y-97708750D01*
X87783750Y-97708750D01*
X87783750Y-97941250D01*
G37*
X87783750Y-98591250D02*
X87646250Y-98591250D01*
X87646250Y-98358750D01*
X87783750Y-98358750D01*
X87783750Y-98591250D01*
G36*
X87783750Y-98591250D02*
G01*
X87646250Y-98591250D01*
X87646250Y-98358750D01*
X87783750Y-98358750D01*
X87783750Y-98591250D01*
G37*
%TO.C,Q3*%
X118428750Y-96641250D02*
X118291250Y-96641250D01*
X118291250Y-96408750D01*
X118428750Y-96408750D01*
X118428750Y-96641250D01*
G36*
X118428750Y-96641250D02*
G01*
X118291250Y-96641250D01*
X118291250Y-96408750D01*
X118428750Y-96408750D01*
X118428750Y-96641250D01*
G37*
X118428750Y-97390960D02*
X118291250Y-97390960D01*
X118291250Y-97158460D01*
X118428750Y-97158460D01*
X118428750Y-97390960D01*
G36*
X118428750Y-97390960D02*
G01*
X118291250Y-97390960D01*
X118291250Y-97158460D01*
X118428750Y-97158460D01*
X118428750Y-97390960D01*
G37*
X118428750Y-97940970D02*
X118291250Y-97940970D01*
X118291250Y-97708470D01*
X118428750Y-97708470D01*
X118428750Y-97940970D01*
G36*
X118428750Y-97940970D02*
G01*
X118291250Y-97940970D01*
X118291250Y-97708470D01*
X118428750Y-97708470D01*
X118428750Y-97940970D01*
G37*
X118428750Y-98590960D02*
X118291250Y-98590960D01*
X118291250Y-98358460D01*
X118428750Y-98358460D01*
X118428750Y-98590960D01*
G36*
X118428750Y-98590960D02*
G01*
X118291250Y-98590960D01*
X118291250Y-98358460D01*
X118428750Y-98358460D01*
X118428750Y-98590960D01*
G37*
D12*
X118977000Y-96671280D02*
X118777000Y-96671280D01*
X118777000Y-95896280D01*
X118977000Y-95896280D01*
X118977000Y-96671280D01*
G36*
X118977000Y-96671280D02*
G01*
X118777000Y-96671280D01*
X118777000Y-95896280D01*
X118977000Y-95896280D01*
X118977000Y-96671280D01*
G37*
X118977500Y-97900000D02*
X118777500Y-97900000D01*
X118777500Y-97200000D01*
X118977500Y-97200000D01*
X118977500Y-97900000D01*
G36*
X118977500Y-97900000D02*
G01*
X118777500Y-97900000D01*
X118777500Y-97200000D01*
X118977500Y-97200000D01*
X118977500Y-97900000D01*
G37*
X118977500Y-99100000D02*
X118777500Y-99100000D01*
X118777500Y-98300000D01*
X118977500Y-98300000D01*
X118977500Y-99100000D01*
G36*
X118977500Y-99100000D02*
G01*
X118777500Y-99100000D01*
X118777500Y-98300000D01*
X118977500Y-98300000D01*
X118977500Y-99100000D01*
G37*
D13*
X119790000Y-97235000D02*
X119660000Y-97235000D01*
X119660000Y-95865000D01*
X119790000Y-95865000D01*
X119790000Y-97235000D01*
G36*
X119790000Y-97235000D02*
G01*
X119660000Y-97235000D01*
X119660000Y-95865000D01*
X119790000Y-95865000D01*
X119790000Y-97235000D01*
G37*
X119790000Y-99135000D02*
X119660000Y-99135000D01*
X119660000Y-97765000D01*
X119790000Y-97765000D01*
X119790000Y-99135000D01*
G36*
X119790000Y-99135000D02*
G01*
X119660000Y-99135000D01*
X119660000Y-97765000D01*
X119790000Y-97765000D01*
X119790000Y-99135000D01*
G37*
X120640000Y-97235000D02*
X120510000Y-97235000D01*
X120510000Y-95865000D01*
X120640000Y-95865000D01*
X120640000Y-97235000D01*
G36*
X120640000Y-97235000D02*
G01*
X120510000Y-97235000D01*
X120510000Y-95865000D01*
X120640000Y-95865000D01*
X120640000Y-97235000D01*
G37*
X120640000Y-99135000D02*
X120510000Y-99135000D01*
X120510000Y-97765000D01*
X120640000Y-97765000D01*
X120640000Y-99135000D01*
G36*
X120640000Y-99135000D02*
G01*
X120510000Y-99135000D01*
X120510000Y-97765000D01*
X120640000Y-97765000D01*
X120640000Y-99135000D01*
G37*
X121490000Y-97235000D02*
X121360000Y-97235000D01*
X121360000Y-95865000D01*
X121490000Y-95865000D01*
X121490000Y-97235000D01*
G36*
X121490000Y-97235000D02*
G01*
X121360000Y-97235000D01*
X121360000Y-95865000D01*
X121490000Y-95865000D01*
X121490000Y-97235000D01*
G37*
X121490000Y-99135000D02*
X121360000Y-99135000D01*
X121360000Y-97765000D01*
X121490000Y-97765000D01*
X121490000Y-99135000D01*
G36*
X121490000Y-99135000D02*
G01*
X121360000Y-99135000D01*
X121360000Y-97765000D01*
X121490000Y-97765000D01*
X121490000Y-99135000D01*
G37*
X122340000Y-97235000D02*
X122210000Y-97235000D01*
X122210000Y-95865000D01*
X122340000Y-95865000D01*
X122340000Y-97235000D01*
G36*
X122340000Y-97235000D02*
G01*
X122210000Y-97235000D01*
X122210000Y-95865000D01*
X122340000Y-95865000D01*
X122340000Y-97235000D01*
G37*
X122340000Y-99135000D02*
X122210000Y-99135000D01*
X122210000Y-97765000D01*
X122340000Y-97765000D01*
X122340000Y-99135000D01*
G36*
X122340000Y-99135000D02*
G01*
X122210000Y-99135000D01*
X122210000Y-97765000D01*
X122340000Y-97765000D01*
X122340000Y-99135000D01*
G37*
D12*
X123223000Y-96700000D02*
X123023000Y-96700000D01*
X123023000Y-95900000D01*
X123223000Y-95900000D01*
X123223000Y-96700000D01*
G36*
X123223000Y-96700000D02*
G01*
X123023000Y-96700000D01*
X123023000Y-95900000D01*
X123223000Y-95900000D01*
X123223000Y-96700000D01*
G37*
X123223000Y-97900000D02*
X123023000Y-97900000D01*
X123023000Y-97100000D01*
X123223000Y-97100000D01*
X123223000Y-97900000D01*
G36*
X123223000Y-97900000D02*
G01*
X123023000Y-97900000D01*
X123023000Y-97100000D01*
X123223000Y-97100000D01*
X123223000Y-97900000D01*
G37*
X123223000Y-99100000D02*
X123023000Y-99100000D01*
X123023000Y-98300000D01*
X123223000Y-98300000D01*
X123223000Y-99100000D01*
G36*
X123223000Y-99100000D02*
G01*
X123023000Y-99100000D01*
X123023000Y-98300000D01*
X123223000Y-98300000D01*
X123223000Y-99100000D01*
G37*
D11*
X123708750Y-96641250D02*
X123571250Y-96641250D01*
X123571250Y-96408750D01*
X123708750Y-96408750D01*
X123708750Y-96641250D01*
G36*
X123708750Y-96641250D02*
G01*
X123571250Y-96641250D01*
X123571250Y-96408750D01*
X123708750Y-96408750D01*
X123708750Y-96641250D01*
G37*
X123708750Y-97291250D02*
X123571250Y-97291250D01*
X123571250Y-97058750D01*
X123708750Y-97058750D01*
X123708750Y-97291250D01*
G36*
X123708750Y-97291250D02*
G01*
X123571250Y-97291250D01*
X123571250Y-97058750D01*
X123708750Y-97058750D01*
X123708750Y-97291250D01*
G37*
X123708750Y-97941250D02*
X123571250Y-97941250D01*
X123571250Y-97708750D01*
X123708750Y-97708750D01*
X123708750Y-97941250D01*
G36*
X123708750Y-97941250D02*
G01*
X123571250Y-97941250D01*
X123571250Y-97708750D01*
X123708750Y-97708750D01*
X123708750Y-97941250D01*
G37*
X123708750Y-98591250D02*
X123571250Y-98591250D01*
X123571250Y-98358750D01*
X123708750Y-98358750D01*
X123708750Y-98591250D01*
G36*
X123708750Y-98591250D02*
G01*
X123571250Y-98591250D01*
X123571250Y-98358750D01*
X123708750Y-98358750D01*
X123708750Y-98591250D01*
G37*
%TD*%
D14*
%TO.C,R27*%
X134175000Y-102500000D03*
X135825000Y-102500000D03*
%TD*%
D15*
%TO.C,Q9*%
X135650000Y-100950000D03*
X135000000Y-100950000D03*
X134350000Y-100950000D03*
X134350000Y-99050000D03*
X135000000Y-99050000D03*
X135650000Y-99050000D03*
%TD*%
D16*
%TO.C,R19*%
X99825000Y-119000000D03*
X98175000Y-119000000D03*
%TD*%
D17*
%TO.C,U1*%
X77600000Y-100600000D03*
X77200000Y-100600000D03*
X76800000Y-100600000D03*
X76400000Y-100600000D03*
X77600000Y-100200000D03*
X76400000Y-100200000D03*
X77600000Y-99800000D03*
X76400000Y-99800000D03*
X77600000Y-99400000D03*
X77200000Y-99400000D03*
X76800000Y-99400000D03*
X76400000Y-99400000D03*
%TD*%
D18*
%TO.C,C7*%
X81525000Y-111500000D03*
X84475000Y-111500000D03*
%TD*%
D19*
%TO.C,C3*%
X76520000Y-102000000D03*
X77480000Y-102000000D03*
%TD*%
D17*
%TO.C,U3*%
X113600000Y-100600000D03*
X113200000Y-100600000D03*
X112800000Y-100600000D03*
X112400000Y-100600000D03*
X113600000Y-100200000D03*
X112400000Y-100200000D03*
X113600000Y-99800000D03*
X112400000Y-99800000D03*
X113600000Y-99400000D03*
X113200000Y-99400000D03*
X112800000Y-99400000D03*
X112400000Y-99400000D03*
%TD*%
D20*
%TO.C,L2*%
X107950000Y-116000000D03*
X110050000Y-116000000D03*
%TD*%
D21*
%TO.C,R38*%
X62000000Y-94175000D03*
X62000000Y-95825000D03*
%TD*%
D22*
%TO.C,R8*%
X112000000Y-96490000D03*
X112000000Y-97510000D03*
%TD*%
D23*
%TO.C,C20*%
X117000000Y-87225000D03*
X117000000Y-88775000D03*
%TD*%
%TO.C,C30*%
X102000000Y-113225000D03*
X102000000Y-114775000D03*
%TD*%
D16*
%TO.C,R15*%
X77825000Y-120000000D03*
X76175000Y-120000000D03*
%TD*%
D24*
%TO.C,C39*%
X95000000Y-117025000D03*
X95000000Y-119975000D03*
%TD*%
D14*
%TO.C,R29*%
X63175000Y-108000000D03*
X64825000Y-108000000D03*
%TD*%
%TO.C,R23*%
X134175000Y-97500000D03*
X135825000Y-97500000D03*
%TD*%
%TO.C,R18*%
X133675000Y-93500000D03*
X135325000Y-93500000D03*
%TD*%
D25*
%TO.C,D2*%
X69806200Y-115000000D03*
X72193800Y-115000000D03*
%TD*%
D26*
%TO.C,U9*%
X84124999Y-115099999D03*
X83475000Y-115099999D03*
X82824999Y-115099999D03*
X82325000Y-115099999D03*
D27*
X81600000Y-115500001D03*
X81600000Y-116000000D03*
X81600000Y-116499999D03*
D26*
X82325000Y-116900001D03*
X82824999Y-116900001D03*
X83475000Y-116900001D03*
X84124999Y-116900001D03*
%TD*%
D28*
%TO.C,C36*%
X92500000Y-114975000D03*
X92500000Y-112025000D03*
%TD*%
D29*
%TO.C,R33*%
X64000000Y-95825000D03*
X64000000Y-94175000D03*
%TD*%
D24*
%TO.C,C33*%
X113000000Y-117025000D03*
X113000000Y-119975000D03*
%TD*%
D21*
%TO.C,R14*%
X70000000Y-111175000D03*
X70000000Y-112825000D03*
%TD*%
D23*
%TO.C,C44*%
X68000000Y-94225000D03*
X68000000Y-95775000D03*
%TD*%
D29*
%TO.C,R32*%
X66000000Y-105825000D03*
X66000000Y-104175000D03*
%TD*%
D30*
%TO.C,D3*%
X137500000Y-91306200D03*
X137500000Y-93693800D03*
%TD*%
D31*
%TO.C,R5*%
X112625000Y-94700000D03*
X112625000Y-93300000D03*
X115375000Y-93300000D03*
X115375000Y-94700000D03*
%TD*%
D16*
%TO.C,R20*%
X99825000Y-117000000D03*
X98175000Y-117000000D03*
%TD*%
D32*
%TO.C,R12*%
X115490000Y-100500000D03*
X116510000Y-100500000D03*
%TD*%
D33*
%TO.C,R6*%
X125700000Y-94375000D03*
X124300000Y-94375000D03*
X124300000Y-91625000D03*
X125700000Y-91625000D03*
%TD*%
D34*
%TO.C,C48*%
X76500000Y-92275000D03*
X76500000Y-90725000D03*
%TD*%
D35*
%TO.C,U5*%
X66375000Y-99625000D03*
X65625000Y-99625000D03*
X66375000Y-100375000D03*
X65625000Y-100375000D03*
D36*
X66750000Y-98562500D03*
X66250000Y-98562500D03*
X65750000Y-98562500D03*
X65250000Y-98562500D03*
D37*
X64562500Y-99250000D03*
X64562500Y-99750000D03*
X64562500Y-100250000D03*
X64562500Y-100750000D03*
D36*
X65250000Y-101437500D03*
X65750000Y-101437500D03*
X66250000Y-101437500D03*
X66750000Y-101437500D03*
D37*
X67437500Y-100750000D03*
X67437500Y-100250000D03*
X67437500Y-99750000D03*
X67437500Y-99250000D03*
%TD*%
D24*
%TO.C,C38*%
X92500000Y-117025000D03*
X92500000Y-119975000D03*
%TD*%
D28*
%TO.C,C18*%
X118000000Y-108475000D03*
X118000000Y-105525000D03*
%TD*%
D29*
%TO.C,R36*%
X76500000Y-89325000D03*
X76500000Y-87675000D03*
%TD*%
D28*
%TO.C,C35*%
X95000000Y-114975000D03*
X95000000Y-112025000D03*
%TD*%
D23*
%TO.C,C10*%
X80000000Y-113725000D03*
X80000000Y-115275000D03*
%TD*%
D28*
%TO.C,C1*%
X83000000Y-108475000D03*
X83000000Y-105525000D03*
%TD*%
D32*
%TO.C,R3*%
X79490000Y-98000000D03*
X80510000Y-98000000D03*
%TD*%
%TO.C,R11*%
X115490000Y-101500000D03*
X116510000Y-101500000D03*
%TD*%
D28*
%TO.C,C12*%
X86000000Y-94475000D03*
X86000000Y-91525000D03*
%TD*%
D30*
%TO.C,D1*%
X116000000Y-117306200D03*
X116000000Y-119693800D03*
%TD*%
D38*
%TO.C,U7*%
X112862500Y-87050000D03*
X112862500Y-88000000D03*
X112862500Y-88950000D03*
X115137500Y-88950000D03*
X115137500Y-87050000D03*
%TD*%
D21*
%TO.C,R24*%
X66000000Y-94175000D03*
X66000000Y-95825000D03*
%TD*%
%TO.C,R31*%
X68000000Y-104175000D03*
X68000000Y-105825000D03*
%TD*%
D33*
%TO.C,R25*%
X71300000Y-98625000D03*
X72700000Y-98625000D03*
X72700000Y-101375000D03*
X71300000Y-101375000D03*
%TD*%
D28*
%TO.C,C16*%
X118000000Y-94475000D03*
X118000000Y-91525000D03*
%TD*%
D21*
%TO.C,R16*%
X72000000Y-111175000D03*
X72000000Y-112825000D03*
%TD*%
D39*
%TO.C,C34*%
X116000000Y-112550000D03*
X116000000Y-114450000D03*
%TD*%
D40*
%TO.C,C41*%
X82225000Y-113500000D03*
X83775000Y-113500000D03*
%TD*%
D26*
%TO.C,U2*%
X106124999Y-115099999D03*
X105475000Y-115099999D03*
X104824999Y-115099999D03*
X104325000Y-115099999D03*
D27*
X103600000Y-115500001D03*
X103600000Y-116000000D03*
X103600000Y-116499999D03*
D26*
X104325000Y-116900001D03*
X104824999Y-116900001D03*
X105475000Y-116900001D03*
X106124999Y-116900001D03*
%TD*%
D21*
%TO.C,R30*%
X60000000Y-104175000D03*
X60000000Y-105825000D03*
%TD*%
D32*
%TO.C,R10*%
X115490000Y-98000000D03*
X116510000Y-98000000D03*
%TD*%
D41*
%TO.C,U6*%
X79950000Y-90362500D03*
X79000000Y-90362500D03*
X78050000Y-90362500D03*
X78050000Y-92637500D03*
X79950000Y-92637500D03*
%TD*%
D42*
%TO.C,Q5*%
X128350000Y-94000000D03*
X129450000Y-94000000D03*
X130550000Y-94000000D03*
X131650000Y-94000000D03*
X128350000Y-93020000D03*
X129450000Y-93020000D03*
X130550000Y-93020000D03*
X131650000Y-93020000D03*
X128350000Y-92040000D03*
X129450000Y-92040000D03*
X130550000Y-92040000D03*
X131650000Y-92040000D03*
X128350000Y-91060000D03*
X129450000Y-91060000D03*
X130550000Y-91060000D03*
X131650000Y-91060000D03*
D43*
X128095000Y-95750000D03*
X129365000Y-95750000D03*
X130635000Y-95750000D03*
X131905000Y-95750000D03*
D44*
X128095000Y-90200000D03*
X129365000Y-90200000D03*
X130635000Y-90200000D03*
X131905000Y-90200000D03*
%TD*%
D14*
%TO.C,R17*%
X133675000Y-91500000D03*
X135325000Y-91500000D03*
%TD*%
D45*
%TO.C,C11*%
X77775000Y-116000000D03*
X76225000Y-116000000D03*
%TD*%
D46*
%TO.C,C28*%
X105950000Y-113000000D03*
X104050000Y-113000000D03*
%TD*%
D18*
%TO.C,C8*%
X81525000Y-120500000D03*
X84475000Y-120500000D03*
%TD*%
D46*
%TO.C,C27*%
X105950000Y-119000000D03*
X104050000Y-119000000D03*
%TD*%
D23*
%TO.C,C45*%
X62000000Y-104225000D03*
X62000000Y-105775000D03*
%TD*%
D32*
%TO.C,R9*%
X115490000Y-97000000D03*
X116510000Y-97000000D03*
%TD*%
D19*
%TO.C,C5*%
X112520000Y-102000000D03*
X113480000Y-102000000D03*
%TD*%
D22*
%TO.C,R1*%
X76000000Y-96490000D03*
X76000000Y-97510000D03*
%TD*%
D28*
%TO.C,C19*%
X124000000Y-108475000D03*
X124000000Y-105525000D03*
%TD*%
D45*
%TO.C,C47*%
X79775000Y-94500000D03*
X78225000Y-94500000D03*
%TD*%
D29*
%TO.C,R26*%
X102000000Y-117825000D03*
X102000000Y-116175000D03*
%TD*%
D42*
%TO.C,Q7*%
X70350000Y-94000000D03*
X71450000Y-94000000D03*
X72550000Y-94000000D03*
X73650000Y-94000000D03*
X70350000Y-93020000D03*
X71450000Y-93020000D03*
X72550000Y-93020000D03*
X73650000Y-93020000D03*
X70350000Y-92040000D03*
X71450000Y-92040000D03*
X72550000Y-92040000D03*
X73650000Y-92040000D03*
X70350000Y-91060000D03*
X71450000Y-91060000D03*
X72550000Y-91060000D03*
X73650000Y-91060000D03*
D43*
X70095000Y-95750000D03*
X71365000Y-95750000D03*
X72635000Y-95750000D03*
X73905000Y-95750000D03*
D44*
X70095000Y-90200000D03*
X71365000Y-90200000D03*
X72635000Y-90200000D03*
X73905000Y-90200000D03*
%TD*%
D21*
%TO.C,R37*%
X76500000Y-93675000D03*
X76500000Y-95325000D03*
%TD*%
D45*
%TO.C,C31*%
X99775000Y-115000000D03*
X98225000Y-115000000D03*
%TD*%
D28*
%TO.C,C17*%
X121000000Y-94475000D03*
X121000000Y-91525000D03*
%TD*%
D38*
%TO.C,U8*%
X123862500Y-87050000D03*
X123862500Y-88000000D03*
X123862500Y-88950000D03*
X126137500Y-88950000D03*
X126137500Y-87050000D03*
%TD*%
D42*
%TO.C,Q8*%
X73650000Y-106000000D03*
X72550000Y-106000000D03*
X71450000Y-106000000D03*
X70350000Y-106000000D03*
X73650000Y-106980000D03*
X72550000Y-106980000D03*
X71450000Y-106980000D03*
X70350000Y-106980000D03*
X73650000Y-107960000D03*
X72550000Y-107960000D03*
X71450000Y-107960000D03*
X70350000Y-107960000D03*
X73650000Y-108940000D03*
X72550000Y-108940000D03*
X71450000Y-108940000D03*
X70350000Y-108940000D03*
D43*
X73905000Y-104250000D03*
X72635000Y-104250000D03*
X71365000Y-104250000D03*
X70095000Y-104250000D03*
D44*
X73905000Y-109800000D03*
X72635000Y-109800000D03*
X71365000Y-109800000D03*
X70095000Y-109800000D03*
%TD*%
D23*
%TO.C,C46*%
X64000000Y-104225000D03*
X64000000Y-105775000D03*
%TD*%
D32*
%TO.C,R2*%
X79490000Y-97000000D03*
X80510000Y-97000000D03*
%TD*%
D45*
%TO.C,C29*%
X99775000Y-113000000D03*
X98225000Y-113000000D03*
%TD*%
D28*
%TO.C,C49*%
X121000000Y-108475000D03*
X121000000Y-105525000D03*
%TD*%
D23*
%TO.C,C21*%
X128000000Y-87225000D03*
X128000000Y-88775000D03*
%TD*%
D40*
%TO.C,C40*%
X82225000Y-118500000D03*
X83775000Y-118500000D03*
%TD*%
D28*
%TO.C,C32*%
X113000000Y-114975000D03*
X113000000Y-112025000D03*
%TD*%
D45*
%TO.C,C9*%
X77775000Y-114000000D03*
X76225000Y-114000000D03*
%TD*%
D29*
%TO.C,R22*%
X80000000Y-118325000D03*
X80000000Y-116675000D03*
%TD*%
D47*
%TO.C,C4*%
X77000000Y-97480000D03*
X77000000Y-96520000D03*
%TD*%
D32*
%TO.C,R7*%
X79490000Y-100500000D03*
X80510000Y-100500000D03*
%TD*%
D47*
%TO.C,C6*%
X113000000Y-97480000D03*
X113000000Y-96520000D03*
%TD*%
D16*
%TO.C,R21*%
X77825000Y-118000000D03*
X76175000Y-118000000D03*
%TD*%
D14*
%TO.C,R28*%
X66175000Y-108000000D03*
X67825000Y-108000000D03*
%TD*%
%TO.C,R34*%
X66175000Y-92000000D03*
X67825000Y-92000000D03*
%TD*%
D28*
%TO.C,C2*%
X86000000Y-108475000D03*
X86000000Y-105525000D03*
%TD*%
D32*
%TO.C,R4*%
X79490000Y-101500000D03*
X80510000Y-101500000D03*
%TD*%
D14*
%TO.C,R35*%
X63175000Y-92000000D03*
X64825000Y-92000000D03*
%TD*%
%TO.C,R13*%
X130175000Y-98000000D03*
X131825000Y-98000000D03*
%TD*%
D28*
%TO.C,C13*%
X83000000Y-94475000D03*
X83000000Y-91525000D03*
%TD*%
D48*
%TO.C,L3*%
X85929900Y-116000000D03*
X90070100Y-116000000D03*
%TD*%
D49*
%TO.C,L1*%
X91877500Y-100000000D03*
X108122500Y-100000000D03*
%TD*%
D42*
%TO.C,Q6*%
X131650000Y-106000000D03*
X130550000Y-106000000D03*
X129450000Y-106000000D03*
X128350000Y-106000000D03*
X131650000Y-106980000D03*
X130550000Y-106980000D03*
X129450000Y-106980000D03*
X128350000Y-106980000D03*
X131650000Y-107960000D03*
X130550000Y-107960000D03*
X129450000Y-107960000D03*
X128350000Y-107960000D03*
X131650000Y-108940000D03*
X130550000Y-108940000D03*
X129450000Y-108940000D03*
X128350000Y-108940000D03*
D43*
X131905000Y-104250000D03*
X130635000Y-104250000D03*
X129365000Y-104250000D03*
X128095000Y-104250000D03*
D44*
X131905000Y-109800000D03*
X130635000Y-109800000D03*
X129365000Y-109800000D03*
X128095000Y-109800000D03*
%TD*%
M02*
