%TF.GenerationSoftware,KiCad,Pcbnew,7.0.8*%
%TF.CreationDate,2024-04-29T11:53:12-04:00*%
%TF.ProjectId,PD Charger,50442043-6861-4726-9765-722e6b696361,rev?*%
%TF.SameCoordinates,Original*%
%TF.FileFunction,Legend,Top*%
%TF.FilePolarity,Positive*%
%FSLAX46Y46*%
G04 Gerber Fmt 4.6, Leading zero omitted, Abs format (unit mm)*
G04 Created by KiCad (PCBNEW 7.0.8) date 2024-04-29 11:53:12*
%MOMM*%
%LPD*%
G01*
G04 APERTURE LIST*
%ADD10C,0.150000*%
%ADD11C,0.120000*%
%ADD12C,0.100000*%
G04 APERTURE END LIST*
D10*
X65139409Y-49259819D02*
X65139409Y-48259819D01*
X65139409Y-48259819D02*
X65377504Y-48259819D01*
X65377504Y-48259819D02*
X65520361Y-48307438D01*
X65520361Y-48307438D02*
X65615599Y-48402676D01*
X65615599Y-48402676D02*
X65663218Y-48497914D01*
X65663218Y-48497914D02*
X65710837Y-48688390D01*
X65710837Y-48688390D02*
X65710837Y-48831247D01*
X65710837Y-48831247D02*
X65663218Y-49021723D01*
X65663218Y-49021723D02*
X65615599Y-49116961D01*
X65615599Y-49116961D02*
X65520361Y-49212200D01*
X65520361Y-49212200D02*
X65377504Y-49259819D01*
X65377504Y-49259819D02*
X65139409Y-49259819D01*
X66567980Y-49259819D02*
X66567980Y-48736009D01*
X66567980Y-48736009D02*
X66520361Y-48640771D01*
X66520361Y-48640771D02*
X66425123Y-48593152D01*
X66425123Y-48593152D02*
X66234647Y-48593152D01*
X66234647Y-48593152D02*
X66139409Y-48640771D01*
X66567980Y-49212200D02*
X66472742Y-49259819D01*
X66472742Y-49259819D02*
X66234647Y-49259819D01*
X66234647Y-49259819D02*
X66139409Y-49212200D01*
X66139409Y-49212200D02*
X66091790Y-49116961D01*
X66091790Y-49116961D02*
X66091790Y-49021723D01*
X66091790Y-49021723D02*
X66139409Y-48926485D01*
X66139409Y-48926485D02*
X66234647Y-48878866D01*
X66234647Y-48878866D02*
X66472742Y-48878866D01*
X66472742Y-48878866D02*
X66567980Y-48831247D01*
X67044171Y-48593152D02*
X67044171Y-49259819D01*
X67044171Y-48688390D02*
X67091790Y-48640771D01*
X67091790Y-48640771D02*
X67187028Y-48593152D01*
X67187028Y-48593152D02*
X67329885Y-48593152D01*
X67329885Y-48593152D02*
X67425123Y-48640771D01*
X67425123Y-48640771D02*
X67472742Y-48736009D01*
X67472742Y-48736009D02*
X67472742Y-49259819D01*
X67948933Y-49259819D02*
X67948933Y-48593152D01*
X67948933Y-48259819D02*
X67901314Y-48307438D01*
X67901314Y-48307438D02*
X67948933Y-48355057D01*
X67948933Y-48355057D02*
X67996552Y-48307438D01*
X67996552Y-48307438D02*
X67948933Y-48259819D01*
X67948933Y-48259819D02*
X67948933Y-48355057D01*
X68806075Y-49212200D02*
X68710837Y-49259819D01*
X68710837Y-49259819D02*
X68520361Y-49259819D01*
X68520361Y-49259819D02*
X68425123Y-49212200D01*
X68425123Y-49212200D02*
X68377504Y-49116961D01*
X68377504Y-49116961D02*
X68377504Y-48736009D01*
X68377504Y-48736009D02*
X68425123Y-48640771D01*
X68425123Y-48640771D02*
X68520361Y-48593152D01*
X68520361Y-48593152D02*
X68710837Y-48593152D01*
X68710837Y-48593152D02*
X68806075Y-48640771D01*
X68806075Y-48640771D02*
X68853694Y-48736009D01*
X68853694Y-48736009D02*
X68853694Y-48831247D01*
X68853694Y-48831247D02*
X68377504Y-48926485D01*
X69425123Y-49259819D02*
X69329885Y-49212200D01*
X69329885Y-49212200D02*
X69282266Y-49116961D01*
X69282266Y-49116961D02*
X69282266Y-48259819D01*
X71139409Y-49259819D02*
X70806076Y-48783628D01*
X70567981Y-49259819D02*
X70567981Y-48259819D01*
X70567981Y-48259819D02*
X70948933Y-48259819D01*
X70948933Y-48259819D02*
X71044171Y-48307438D01*
X71044171Y-48307438D02*
X71091790Y-48355057D01*
X71091790Y-48355057D02*
X71139409Y-48450295D01*
X71139409Y-48450295D02*
X71139409Y-48593152D01*
X71139409Y-48593152D02*
X71091790Y-48688390D01*
X71091790Y-48688390D02*
X71044171Y-48736009D01*
X71044171Y-48736009D02*
X70948933Y-48783628D01*
X70948933Y-48783628D02*
X70567981Y-48783628D01*
X71996552Y-49259819D02*
X71996552Y-48736009D01*
X71996552Y-48736009D02*
X71948933Y-48640771D01*
X71948933Y-48640771D02*
X71853695Y-48593152D01*
X71853695Y-48593152D02*
X71663219Y-48593152D01*
X71663219Y-48593152D02*
X71567981Y-48640771D01*
X71996552Y-49212200D02*
X71901314Y-49259819D01*
X71901314Y-49259819D02*
X71663219Y-49259819D01*
X71663219Y-49259819D02*
X71567981Y-49212200D01*
X71567981Y-49212200D02*
X71520362Y-49116961D01*
X71520362Y-49116961D02*
X71520362Y-49021723D01*
X71520362Y-49021723D02*
X71567981Y-48926485D01*
X71567981Y-48926485D02*
X71663219Y-48878866D01*
X71663219Y-48878866D02*
X71901314Y-48878866D01*
X71901314Y-48878866D02*
X71996552Y-48831247D01*
X72377505Y-48593152D02*
X72615600Y-49259819D01*
X72853695Y-48593152D02*
X72615600Y-49259819D01*
X72615600Y-49259819D02*
X72520362Y-49497914D01*
X72520362Y-49497914D02*
X72472743Y-49545533D01*
X72472743Y-49545533D02*
X72377505Y-49593152D01*
X73234648Y-49259819D02*
X73234648Y-48593152D01*
X73234648Y-48688390D02*
X73282267Y-48640771D01*
X73282267Y-48640771D02*
X73377505Y-48593152D01*
X73377505Y-48593152D02*
X73520362Y-48593152D01*
X73520362Y-48593152D02*
X73615600Y-48640771D01*
X73615600Y-48640771D02*
X73663219Y-48736009D01*
X73663219Y-48736009D02*
X73663219Y-49259819D01*
X73663219Y-48736009D02*
X73710838Y-48640771D01*
X73710838Y-48640771D02*
X73806076Y-48593152D01*
X73806076Y-48593152D02*
X73948933Y-48593152D01*
X73948933Y-48593152D02*
X74044172Y-48640771D01*
X74044172Y-48640771D02*
X74091791Y-48736009D01*
X74091791Y-48736009D02*
X74091791Y-49259819D01*
X74710838Y-49259819D02*
X74615600Y-49212200D01*
X74615600Y-49212200D02*
X74567981Y-49164580D01*
X74567981Y-49164580D02*
X74520362Y-49069342D01*
X74520362Y-49069342D02*
X74520362Y-48783628D01*
X74520362Y-48783628D02*
X74567981Y-48688390D01*
X74567981Y-48688390D02*
X74615600Y-48640771D01*
X74615600Y-48640771D02*
X74710838Y-48593152D01*
X74710838Y-48593152D02*
X74853695Y-48593152D01*
X74853695Y-48593152D02*
X74948933Y-48640771D01*
X74948933Y-48640771D02*
X74996552Y-48688390D01*
X74996552Y-48688390D02*
X75044171Y-48783628D01*
X75044171Y-48783628D02*
X75044171Y-49069342D01*
X75044171Y-49069342D02*
X74996552Y-49164580D01*
X74996552Y-49164580D02*
X74948933Y-49212200D01*
X74948933Y-49212200D02*
X74853695Y-49259819D01*
X74853695Y-49259819D02*
X74710838Y-49259819D01*
X75472743Y-48593152D02*
X75472743Y-49259819D01*
X75472743Y-48688390D02*
X75520362Y-48640771D01*
X75520362Y-48640771D02*
X75615600Y-48593152D01*
X75615600Y-48593152D02*
X75758457Y-48593152D01*
X75758457Y-48593152D02*
X75853695Y-48640771D01*
X75853695Y-48640771D02*
X75901314Y-48736009D01*
X75901314Y-48736009D02*
X75901314Y-49259819D01*
X76806076Y-49259819D02*
X76806076Y-48259819D01*
X76806076Y-49212200D02*
X76710838Y-49259819D01*
X76710838Y-49259819D02*
X76520362Y-49259819D01*
X76520362Y-49259819D02*
X76425124Y-49212200D01*
X76425124Y-49212200D02*
X76377505Y-49164580D01*
X76377505Y-49164580D02*
X76329886Y-49069342D01*
X76329886Y-49069342D02*
X76329886Y-48783628D01*
X76329886Y-48783628D02*
X76377505Y-48688390D01*
X76377505Y-48688390D02*
X76425124Y-48640771D01*
X76425124Y-48640771D02*
X76520362Y-48593152D01*
X76520362Y-48593152D02*
X76710838Y-48593152D01*
X76710838Y-48593152D02*
X76806076Y-48640771D01*
X77996552Y-48212200D02*
X77139410Y-49497914D01*
X78663219Y-48736009D02*
X78329886Y-48736009D01*
X78329886Y-49259819D02*
X78329886Y-48259819D01*
X78329886Y-48259819D02*
X78806076Y-48259819D01*
X79187029Y-49259819D02*
X79187029Y-48259819D01*
X79187029Y-48259819D02*
X79567981Y-48259819D01*
X79567981Y-48259819D02*
X79663219Y-48307438D01*
X79663219Y-48307438D02*
X79710838Y-48355057D01*
X79710838Y-48355057D02*
X79758457Y-48450295D01*
X79758457Y-48450295D02*
X79758457Y-48593152D01*
X79758457Y-48593152D02*
X79710838Y-48688390D01*
X79710838Y-48688390D02*
X79663219Y-48736009D01*
X79663219Y-48736009D02*
X79567981Y-48783628D01*
X79567981Y-48783628D02*
X79187029Y-48783628D01*
X80044172Y-48259819D02*
X80377505Y-49259819D01*
X80377505Y-49259819D02*
X80710838Y-48259819D01*
X81758458Y-49212200D02*
X81901315Y-49259819D01*
X81901315Y-49259819D02*
X82139410Y-49259819D01*
X82139410Y-49259819D02*
X82234648Y-49212200D01*
X82234648Y-49212200D02*
X82282267Y-49164580D01*
X82282267Y-49164580D02*
X82329886Y-49069342D01*
X82329886Y-49069342D02*
X82329886Y-48974104D01*
X82329886Y-48974104D02*
X82282267Y-48878866D01*
X82282267Y-48878866D02*
X82234648Y-48831247D01*
X82234648Y-48831247D02*
X82139410Y-48783628D01*
X82139410Y-48783628D02*
X81948934Y-48736009D01*
X81948934Y-48736009D02*
X81853696Y-48688390D01*
X81853696Y-48688390D02*
X81806077Y-48640771D01*
X81806077Y-48640771D02*
X81758458Y-48545533D01*
X81758458Y-48545533D02*
X81758458Y-48450295D01*
X81758458Y-48450295D02*
X81806077Y-48355057D01*
X81806077Y-48355057D02*
X81853696Y-48307438D01*
X81853696Y-48307438D02*
X81948934Y-48259819D01*
X81948934Y-48259819D02*
X82187029Y-48259819D01*
X82187029Y-48259819D02*
X82329886Y-48307438D01*
X82615601Y-48593152D02*
X82996553Y-48593152D01*
X82758458Y-48259819D02*
X82758458Y-49116961D01*
X82758458Y-49116961D02*
X82806077Y-49212200D01*
X82806077Y-49212200D02*
X82901315Y-49259819D01*
X82901315Y-49259819D02*
X82996553Y-49259819D01*
X83758458Y-49259819D02*
X83758458Y-48736009D01*
X83758458Y-48736009D02*
X83710839Y-48640771D01*
X83710839Y-48640771D02*
X83615601Y-48593152D01*
X83615601Y-48593152D02*
X83425125Y-48593152D01*
X83425125Y-48593152D02*
X83329887Y-48640771D01*
X83758458Y-49212200D02*
X83663220Y-49259819D01*
X83663220Y-49259819D02*
X83425125Y-49259819D01*
X83425125Y-49259819D02*
X83329887Y-49212200D01*
X83329887Y-49212200D02*
X83282268Y-49116961D01*
X83282268Y-49116961D02*
X83282268Y-49021723D01*
X83282268Y-49021723D02*
X83329887Y-48926485D01*
X83329887Y-48926485D02*
X83425125Y-48878866D01*
X83425125Y-48878866D02*
X83663220Y-48878866D01*
X83663220Y-48878866D02*
X83758458Y-48831247D01*
X84091792Y-48593152D02*
X84472744Y-48593152D01*
X84234649Y-48259819D02*
X84234649Y-49116961D01*
X84234649Y-49116961D02*
X84282268Y-49212200D01*
X84282268Y-49212200D02*
X84377506Y-49259819D01*
X84377506Y-49259819D02*
X84472744Y-49259819D01*
X84806078Y-49259819D02*
X84806078Y-48593152D01*
X84806078Y-48259819D02*
X84758459Y-48307438D01*
X84758459Y-48307438D02*
X84806078Y-48355057D01*
X84806078Y-48355057D02*
X84853697Y-48307438D01*
X84853697Y-48307438D02*
X84806078Y-48259819D01*
X84806078Y-48259819D02*
X84806078Y-48355057D01*
X85710839Y-49212200D02*
X85615601Y-49259819D01*
X85615601Y-49259819D02*
X85425125Y-49259819D01*
X85425125Y-49259819D02*
X85329887Y-49212200D01*
X85329887Y-49212200D02*
X85282268Y-49164580D01*
X85282268Y-49164580D02*
X85234649Y-49069342D01*
X85234649Y-49069342D02*
X85234649Y-48783628D01*
X85234649Y-48783628D02*
X85282268Y-48688390D01*
X85282268Y-48688390D02*
X85329887Y-48640771D01*
X85329887Y-48640771D02*
X85425125Y-48593152D01*
X85425125Y-48593152D02*
X85615601Y-48593152D01*
X85615601Y-48593152D02*
X85710839Y-48640771D01*
X72806076Y-49869819D02*
X72806076Y-50679342D01*
X72806076Y-50679342D02*
X72853695Y-50774580D01*
X72853695Y-50774580D02*
X72901314Y-50822200D01*
X72901314Y-50822200D02*
X72996552Y-50869819D01*
X72996552Y-50869819D02*
X73187028Y-50869819D01*
X73187028Y-50869819D02*
X73282266Y-50822200D01*
X73282266Y-50822200D02*
X73329885Y-50774580D01*
X73329885Y-50774580D02*
X73377504Y-50679342D01*
X73377504Y-50679342D02*
X73377504Y-49869819D01*
X73806076Y-50822200D02*
X73948933Y-50869819D01*
X73948933Y-50869819D02*
X74187028Y-50869819D01*
X74187028Y-50869819D02*
X74282266Y-50822200D01*
X74282266Y-50822200D02*
X74329885Y-50774580D01*
X74329885Y-50774580D02*
X74377504Y-50679342D01*
X74377504Y-50679342D02*
X74377504Y-50584104D01*
X74377504Y-50584104D02*
X74329885Y-50488866D01*
X74329885Y-50488866D02*
X74282266Y-50441247D01*
X74282266Y-50441247D02*
X74187028Y-50393628D01*
X74187028Y-50393628D02*
X73996552Y-50346009D01*
X73996552Y-50346009D02*
X73901314Y-50298390D01*
X73901314Y-50298390D02*
X73853695Y-50250771D01*
X73853695Y-50250771D02*
X73806076Y-50155533D01*
X73806076Y-50155533D02*
X73806076Y-50060295D01*
X73806076Y-50060295D02*
X73853695Y-49965057D01*
X73853695Y-49965057D02*
X73901314Y-49917438D01*
X73901314Y-49917438D02*
X73996552Y-49869819D01*
X73996552Y-49869819D02*
X74234647Y-49869819D01*
X74234647Y-49869819D02*
X74377504Y-49917438D01*
X75139409Y-50346009D02*
X75282266Y-50393628D01*
X75282266Y-50393628D02*
X75329885Y-50441247D01*
X75329885Y-50441247D02*
X75377504Y-50536485D01*
X75377504Y-50536485D02*
X75377504Y-50679342D01*
X75377504Y-50679342D02*
X75329885Y-50774580D01*
X75329885Y-50774580D02*
X75282266Y-50822200D01*
X75282266Y-50822200D02*
X75187028Y-50869819D01*
X75187028Y-50869819D02*
X74806076Y-50869819D01*
X74806076Y-50869819D02*
X74806076Y-49869819D01*
X74806076Y-49869819D02*
X75139409Y-49869819D01*
X75139409Y-49869819D02*
X75234647Y-49917438D01*
X75234647Y-49917438D02*
X75282266Y-49965057D01*
X75282266Y-49965057D02*
X75329885Y-50060295D01*
X75329885Y-50060295D02*
X75329885Y-50155533D01*
X75329885Y-50155533D02*
X75282266Y-50250771D01*
X75282266Y-50250771D02*
X75234647Y-50298390D01*
X75234647Y-50298390D02*
X75139409Y-50346009D01*
X75139409Y-50346009D02*
X74806076Y-50346009D01*
X76377504Y-50774580D02*
X76329885Y-50822200D01*
X76329885Y-50822200D02*
X76187028Y-50869819D01*
X76187028Y-50869819D02*
X76091790Y-50869819D01*
X76091790Y-50869819D02*
X75948933Y-50822200D01*
X75948933Y-50822200D02*
X75853695Y-50726961D01*
X75853695Y-50726961D02*
X75806076Y-50631723D01*
X75806076Y-50631723D02*
X75758457Y-50441247D01*
X75758457Y-50441247D02*
X75758457Y-50298390D01*
X75758457Y-50298390D02*
X75806076Y-50107914D01*
X75806076Y-50107914D02*
X75853695Y-50012676D01*
X75853695Y-50012676D02*
X75948933Y-49917438D01*
X75948933Y-49917438D02*
X76091790Y-49869819D01*
X76091790Y-49869819D02*
X76187028Y-49869819D01*
X76187028Y-49869819D02*
X76329885Y-49917438D01*
X76329885Y-49917438D02*
X76377504Y-49965057D01*
X77567981Y-50869819D02*
X77567981Y-49869819D01*
X77567981Y-49869819D02*
X77948933Y-49869819D01*
X77948933Y-49869819D02*
X78044171Y-49917438D01*
X78044171Y-49917438D02*
X78091790Y-49965057D01*
X78091790Y-49965057D02*
X78139409Y-50060295D01*
X78139409Y-50060295D02*
X78139409Y-50203152D01*
X78139409Y-50203152D02*
X78091790Y-50298390D01*
X78091790Y-50298390D02*
X78044171Y-50346009D01*
X78044171Y-50346009D02*
X77948933Y-50393628D01*
X77948933Y-50393628D02*
X77567981Y-50393628D01*
X78567981Y-50869819D02*
X78567981Y-49869819D01*
X78567981Y-49869819D02*
X78806076Y-49869819D01*
X78806076Y-49869819D02*
X78948933Y-49917438D01*
X78948933Y-49917438D02*
X79044171Y-50012676D01*
X79044171Y-50012676D02*
X79091790Y-50107914D01*
X79091790Y-50107914D02*
X79139409Y-50298390D01*
X79139409Y-50298390D02*
X79139409Y-50441247D01*
X79139409Y-50441247D02*
X79091790Y-50631723D01*
X79091790Y-50631723D02*
X79044171Y-50726961D01*
X79044171Y-50726961D02*
X78948933Y-50822200D01*
X78948933Y-50822200D02*
X78806076Y-50869819D01*
X78806076Y-50869819D02*
X78567981Y-50869819D01*
X80901314Y-50774580D02*
X80853695Y-50822200D01*
X80853695Y-50822200D02*
X80710838Y-50869819D01*
X80710838Y-50869819D02*
X80615600Y-50869819D01*
X80615600Y-50869819D02*
X80472743Y-50822200D01*
X80472743Y-50822200D02*
X80377505Y-50726961D01*
X80377505Y-50726961D02*
X80329886Y-50631723D01*
X80329886Y-50631723D02*
X80282267Y-50441247D01*
X80282267Y-50441247D02*
X80282267Y-50298390D01*
X80282267Y-50298390D02*
X80329886Y-50107914D01*
X80329886Y-50107914D02*
X80377505Y-50012676D01*
X80377505Y-50012676D02*
X80472743Y-49917438D01*
X80472743Y-49917438D02*
X80615600Y-49869819D01*
X80615600Y-49869819D02*
X80710838Y-49869819D01*
X80710838Y-49869819D02*
X80853695Y-49917438D01*
X80853695Y-49917438D02*
X80901314Y-49965057D01*
X81329886Y-50869819D02*
X81329886Y-49869819D01*
X81758457Y-50869819D02*
X81758457Y-50346009D01*
X81758457Y-50346009D02*
X81710838Y-50250771D01*
X81710838Y-50250771D02*
X81615600Y-50203152D01*
X81615600Y-50203152D02*
X81472743Y-50203152D01*
X81472743Y-50203152D02*
X81377505Y-50250771D01*
X81377505Y-50250771D02*
X81329886Y-50298390D01*
X82663219Y-50869819D02*
X82663219Y-50346009D01*
X82663219Y-50346009D02*
X82615600Y-50250771D01*
X82615600Y-50250771D02*
X82520362Y-50203152D01*
X82520362Y-50203152D02*
X82329886Y-50203152D01*
X82329886Y-50203152D02*
X82234648Y-50250771D01*
X82663219Y-50822200D02*
X82567981Y-50869819D01*
X82567981Y-50869819D02*
X82329886Y-50869819D01*
X82329886Y-50869819D02*
X82234648Y-50822200D01*
X82234648Y-50822200D02*
X82187029Y-50726961D01*
X82187029Y-50726961D02*
X82187029Y-50631723D01*
X82187029Y-50631723D02*
X82234648Y-50536485D01*
X82234648Y-50536485D02*
X82329886Y-50488866D01*
X82329886Y-50488866D02*
X82567981Y-50488866D01*
X82567981Y-50488866D02*
X82663219Y-50441247D01*
X83139410Y-50869819D02*
X83139410Y-50203152D01*
X83139410Y-50393628D02*
X83187029Y-50298390D01*
X83187029Y-50298390D02*
X83234648Y-50250771D01*
X83234648Y-50250771D02*
X83329886Y-50203152D01*
X83329886Y-50203152D02*
X83425124Y-50203152D01*
X84187029Y-50203152D02*
X84187029Y-51012676D01*
X84187029Y-51012676D02*
X84139410Y-51107914D01*
X84139410Y-51107914D02*
X84091791Y-51155533D01*
X84091791Y-51155533D02*
X83996553Y-51203152D01*
X83996553Y-51203152D02*
X83853696Y-51203152D01*
X83853696Y-51203152D02*
X83758458Y-51155533D01*
X84187029Y-50822200D02*
X84091791Y-50869819D01*
X84091791Y-50869819D02*
X83901315Y-50869819D01*
X83901315Y-50869819D02*
X83806077Y-50822200D01*
X83806077Y-50822200D02*
X83758458Y-50774580D01*
X83758458Y-50774580D02*
X83710839Y-50679342D01*
X83710839Y-50679342D02*
X83710839Y-50393628D01*
X83710839Y-50393628D02*
X83758458Y-50298390D01*
X83758458Y-50298390D02*
X83806077Y-50250771D01*
X83806077Y-50250771D02*
X83901315Y-50203152D01*
X83901315Y-50203152D02*
X84091791Y-50203152D01*
X84091791Y-50203152D02*
X84187029Y-50250771D01*
X85044172Y-50822200D02*
X84948934Y-50869819D01*
X84948934Y-50869819D02*
X84758458Y-50869819D01*
X84758458Y-50869819D02*
X84663220Y-50822200D01*
X84663220Y-50822200D02*
X84615601Y-50726961D01*
X84615601Y-50726961D02*
X84615601Y-50346009D01*
X84615601Y-50346009D02*
X84663220Y-50250771D01*
X84663220Y-50250771D02*
X84758458Y-50203152D01*
X84758458Y-50203152D02*
X84948934Y-50203152D01*
X84948934Y-50203152D02*
X85044172Y-50250771D01*
X85044172Y-50250771D02*
X85091791Y-50346009D01*
X85091791Y-50346009D02*
X85091791Y-50441247D01*
X85091791Y-50441247D02*
X84615601Y-50536485D01*
X85520363Y-50869819D02*
X85520363Y-50203152D01*
X85520363Y-50393628D02*
X85567982Y-50298390D01*
X85567982Y-50298390D02*
X85615601Y-50250771D01*
X85615601Y-50250771D02*
X85710839Y-50203152D01*
X85710839Y-50203152D02*
X85806077Y-50203152D01*
X60200000Y-35000000D02*
X63800000Y-35000000D01*
X63800000Y-28600000D02*
X60200000Y-28600000D01*
X12200000Y-45400000D02*
X15200000Y-45400000D01*
X22600000Y-37800000D02*
X12200000Y-37800000D01*
X15400000Y-42800000D02*
X22600000Y-42800000D01*
X63800000Y-35000000D02*
X63800000Y-28600000D01*
X22600000Y-42800000D02*
X22600000Y-37800000D01*
X15200000Y-45400000D02*
X15400000Y-45400000D01*
X12200000Y-40000000D02*
X12200000Y-45400000D01*
X12200000Y-37800000D02*
X12200000Y-40000000D01*
X60200000Y-28600000D02*
X60200000Y-35000000D01*
X15400000Y-45400000D02*
X15400000Y-42800000D01*
X46738095Y-21454819D02*
X47309523Y-21454819D01*
X47023809Y-22454819D02*
X47023809Y-21454819D01*
X47642857Y-22454819D02*
X47642857Y-21454819D01*
X47642857Y-21454819D02*
X48023809Y-21454819D01*
X48023809Y-21454819D02*
X48119047Y-21502438D01*
X48119047Y-21502438D02*
X48166666Y-21550057D01*
X48166666Y-21550057D02*
X48214285Y-21645295D01*
X48214285Y-21645295D02*
X48214285Y-21788152D01*
X48214285Y-21788152D02*
X48166666Y-21883390D01*
X48166666Y-21883390D02*
X48119047Y-21931009D01*
X48119047Y-21931009D02*
X48023809Y-21978628D01*
X48023809Y-21978628D02*
X47642857Y-21978628D01*
X48595238Y-21550057D02*
X48642857Y-21502438D01*
X48642857Y-21502438D02*
X48738095Y-21454819D01*
X48738095Y-21454819D02*
X48976190Y-21454819D01*
X48976190Y-21454819D02*
X49071428Y-21502438D01*
X49071428Y-21502438D02*
X49119047Y-21550057D01*
X49119047Y-21550057D02*
X49166666Y-21645295D01*
X49166666Y-21645295D02*
X49166666Y-21740533D01*
X49166666Y-21740533D02*
X49119047Y-21883390D01*
X49119047Y-21883390D02*
X48547619Y-22454819D01*
X48547619Y-22454819D02*
X49166666Y-22454819D01*
X78466667Y-42907200D02*
X78609524Y-42954819D01*
X78609524Y-42954819D02*
X78847619Y-42954819D01*
X78847619Y-42954819D02*
X78942857Y-42907200D01*
X78942857Y-42907200D02*
X78990476Y-42859580D01*
X78990476Y-42859580D02*
X79038095Y-42764342D01*
X79038095Y-42764342D02*
X79038095Y-42669104D01*
X79038095Y-42669104D02*
X78990476Y-42573866D01*
X78990476Y-42573866D02*
X78942857Y-42526247D01*
X78942857Y-42526247D02*
X78847619Y-42478628D01*
X78847619Y-42478628D02*
X78657143Y-42431009D01*
X78657143Y-42431009D02*
X78561905Y-42383390D01*
X78561905Y-42383390D02*
X78514286Y-42335771D01*
X78514286Y-42335771D02*
X78466667Y-42240533D01*
X78466667Y-42240533D02*
X78466667Y-42145295D01*
X78466667Y-42145295D02*
X78514286Y-42050057D01*
X78514286Y-42050057D02*
X78561905Y-42002438D01*
X78561905Y-42002438D02*
X78657143Y-41954819D01*
X78657143Y-41954819D02*
X78895238Y-41954819D01*
X78895238Y-41954819D02*
X79038095Y-42002438D01*
X79371429Y-41954819D02*
X79609524Y-42954819D01*
X79609524Y-42954819D02*
X79800000Y-42240533D01*
X79800000Y-42240533D02*
X79990476Y-42954819D01*
X79990476Y-42954819D02*
X80228572Y-41954819D01*
X81133333Y-42954819D02*
X80561905Y-42954819D01*
X80847619Y-42954819D02*
X80847619Y-41954819D01*
X80847619Y-41954819D02*
X80752381Y-42097676D01*
X80752381Y-42097676D02*
X80657143Y-42192914D01*
X80657143Y-42192914D02*
X80561905Y-42240533D01*
X29333333Y-45954819D02*
X29000000Y-45478628D01*
X28761905Y-45954819D02*
X28761905Y-44954819D01*
X28761905Y-44954819D02*
X29142857Y-44954819D01*
X29142857Y-44954819D02*
X29238095Y-45002438D01*
X29238095Y-45002438D02*
X29285714Y-45050057D01*
X29285714Y-45050057D02*
X29333333Y-45145295D01*
X29333333Y-45145295D02*
X29333333Y-45288152D01*
X29333333Y-45288152D02*
X29285714Y-45383390D01*
X29285714Y-45383390D02*
X29238095Y-45431009D01*
X29238095Y-45431009D02*
X29142857Y-45478628D01*
X29142857Y-45478628D02*
X28761905Y-45478628D01*
X29666667Y-44954819D02*
X30333333Y-44954819D01*
X30333333Y-44954819D02*
X29904762Y-45954819D01*
X84414819Y-39833333D02*
X85129104Y-39833333D01*
X85129104Y-39833333D02*
X85271961Y-39880952D01*
X85271961Y-39880952D02*
X85367200Y-39976190D01*
X85367200Y-39976190D02*
X85414819Y-40119047D01*
X85414819Y-40119047D02*
X85414819Y-40214285D01*
X84510057Y-39404761D02*
X84462438Y-39357142D01*
X84462438Y-39357142D02*
X84414819Y-39261904D01*
X84414819Y-39261904D02*
X84414819Y-39023809D01*
X84414819Y-39023809D02*
X84462438Y-38928571D01*
X84462438Y-38928571D02*
X84510057Y-38880952D01*
X84510057Y-38880952D02*
X84605295Y-38833333D01*
X84605295Y-38833333D02*
X84700533Y-38833333D01*
X84700533Y-38833333D02*
X84843390Y-38880952D01*
X84843390Y-38880952D02*
X85414819Y-39452380D01*
X85414819Y-39452380D02*
X85414819Y-38833333D01*
X44738095Y-39954819D02*
X45309523Y-39954819D01*
X45023809Y-40954819D02*
X45023809Y-39954819D01*
X45642857Y-40954819D02*
X45642857Y-39954819D01*
X45642857Y-39954819D02*
X46023809Y-39954819D01*
X46023809Y-39954819D02*
X46119047Y-40002438D01*
X46119047Y-40002438D02*
X46166666Y-40050057D01*
X46166666Y-40050057D02*
X46214285Y-40145295D01*
X46214285Y-40145295D02*
X46214285Y-40288152D01*
X46214285Y-40288152D02*
X46166666Y-40383390D01*
X46166666Y-40383390D02*
X46119047Y-40431009D01*
X46119047Y-40431009D02*
X46023809Y-40478628D01*
X46023809Y-40478628D02*
X45642857Y-40478628D01*
X46690476Y-40954819D02*
X46880952Y-40954819D01*
X46880952Y-40954819D02*
X46976190Y-40907200D01*
X46976190Y-40907200D02*
X47023809Y-40859580D01*
X47023809Y-40859580D02*
X47119047Y-40716723D01*
X47119047Y-40716723D02*
X47166666Y-40526247D01*
X47166666Y-40526247D02*
X47166666Y-40145295D01*
X47166666Y-40145295D02*
X47119047Y-40050057D01*
X47119047Y-40050057D02*
X47071428Y-40002438D01*
X47071428Y-40002438D02*
X46976190Y-39954819D01*
X46976190Y-39954819D02*
X46785714Y-39954819D01*
X46785714Y-39954819D02*
X46690476Y-40002438D01*
X46690476Y-40002438D02*
X46642857Y-40050057D01*
X46642857Y-40050057D02*
X46595238Y-40145295D01*
X46595238Y-40145295D02*
X46595238Y-40383390D01*
X46595238Y-40383390D02*
X46642857Y-40478628D01*
X46642857Y-40478628D02*
X46690476Y-40526247D01*
X46690476Y-40526247D02*
X46785714Y-40573866D01*
X46785714Y-40573866D02*
X46976190Y-40573866D01*
X46976190Y-40573866D02*
X47071428Y-40526247D01*
X47071428Y-40526247D02*
X47119047Y-40478628D01*
X47119047Y-40478628D02*
X47166666Y-40383390D01*
X78038095Y-15006819D02*
X78609523Y-15006819D01*
X78323809Y-16006819D02*
X78323809Y-15006819D01*
X78942857Y-16006819D02*
X78942857Y-15006819D01*
X78942857Y-15006819D02*
X79323809Y-15006819D01*
X79323809Y-15006819D02*
X79419047Y-15054438D01*
X79419047Y-15054438D02*
X79466666Y-15102057D01*
X79466666Y-15102057D02*
X79514285Y-15197295D01*
X79514285Y-15197295D02*
X79514285Y-15340152D01*
X79514285Y-15340152D02*
X79466666Y-15435390D01*
X79466666Y-15435390D02*
X79419047Y-15483009D01*
X79419047Y-15483009D02*
X79323809Y-15530628D01*
X79323809Y-15530628D02*
X78942857Y-15530628D01*
X80085714Y-15435390D02*
X79990476Y-15387771D01*
X79990476Y-15387771D02*
X79942857Y-15340152D01*
X79942857Y-15340152D02*
X79895238Y-15244914D01*
X79895238Y-15244914D02*
X79895238Y-15197295D01*
X79895238Y-15197295D02*
X79942857Y-15102057D01*
X79942857Y-15102057D02*
X79990476Y-15054438D01*
X79990476Y-15054438D02*
X80085714Y-15006819D01*
X80085714Y-15006819D02*
X80276190Y-15006819D01*
X80276190Y-15006819D02*
X80371428Y-15054438D01*
X80371428Y-15054438D02*
X80419047Y-15102057D01*
X80419047Y-15102057D02*
X80466666Y-15197295D01*
X80466666Y-15197295D02*
X80466666Y-15244914D01*
X80466666Y-15244914D02*
X80419047Y-15340152D01*
X80419047Y-15340152D02*
X80371428Y-15387771D01*
X80371428Y-15387771D02*
X80276190Y-15435390D01*
X80276190Y-15435390D02*
X80085714Y-15435390D01*
X80085714Y-15435390D02*
X79990476Y-15483009D01*
X79990476Y-15483009D02*
X79942857Y-15530628D01*
X79942857Y-15530628D02*
X79895238Y-15625866D01*
X79895238Y-15625866D02*
X79895238Y-15816342D01*
X79895238Y-15816342D02*
X79942857Y-15911580D01*
X79942857Y-15911580D02*
X79990476Y-15959200D01*
X79990476Y-15959200D02*
X80085714Y-16006819D01*
X80085714Y-16006819D02*
X80276190Y-16006819D01*
X80276190Y-16006819D02*
X80371428Y-15959200D01*
X80371428Y-15959200D02*
X80419047Y-15911580D01*
X80419047Y-15911580D02*
X80466666Y-15816342D01*
X80466666Y-15816342D02*
X80466666Y-15625866D01*
X80466666Y-15625866D02*
X80419047Y-15530628D01*
X80419047Y-15530628D02*
X80371428Y-15483009D01*
X80371428Y-15483009D02*
X80276190Y-15435390D01*
X44327374Y-50291864D02*
X44898802Y-50291864D01*
X44613088Y-51291864D02*
X44613088Y-50291864D01*
X45232136Y-51291864D02*
X45232136Y-50291864D01*
X45232136Y-50291864D02*
X45613088Y-50291864D01*
X45613088Y-50291864D02*
X45708326Y-50339483D01*
X45708326Y-50339483D02*
X45755945Y-50387102D01*
X45755945Y-50387102D02*
X45803564Y-50482340D01*
X45803564Y-50482340D02*
X45803564Y-50625197D01*
X45803564Y-50625197D02*
X45755945Y-50720435D01*
X45755945Y-50720435D02*
X45708326Y-50768054D01*
X45708326Y-50768054D02*
X45613088Y-50815673D01*
X45613088Y-50815673D02*
X45232136Y-50815673D01*
X46136898Y-50291864D02*
X46803564Y-50291864D01*
X46803564Y-50291864D02*
X46374993Y-51291864D01*
X51238095Y-39954819D02*
X51809523Y-39954819D01*
X51523809Y-40954819D02*
X51523809Y-39954819D01*
X52142857Y-40954819D02*
X52142857Y-39954819D01*
X52142857Y-39954819D02*
X52523809Y-39954819D01*
X52523809Y-39954819D02*
X52619047Y-40002438D01*
X52619047Y-40002438D02*
X52666666Y-40050057D01*
X52666666Y-40050057D02*
X52714285Y-40145295D01*
X52714285Y-40145295D02*
X52714285Y-40288152D01*
X52714285Y-40288152D02*
X52666666Y-40383390D01*
X52666666Y-40383390D02*
X52619047Y-40431009D01*
X52619047Y-40431009D02*
X52523809Y-40478628D01*
X52523809Y-40478628D02*
X52142857Y-40478628D01*
X53571428Y-39954819D02*
X53380952Y-39954819D01*
X53380952Y-39954819D02*
X53285714Y-40002438D01*
X53285714Y-40002438D02*
X53238095Y-40050057D01*
X53238095Y-40050057D02*
X53142857Y-40192914D01*
X53142857Y-40192914D02*
X53095238Y-40383390D01*
X53095238Y-40383390D02*
X53095238Y-40764342D01*
X53095238Y-40764342D02*
X53142857Y-40859580D01*
X53142857Y-40859580D02*
X53190476Y-40907200D01*
X53190476Y-40907200D02*
X53285714Y-40954819D01*
X53285714Y-40954819D02*
X53476190Y-40954819D01*
X53476190Y-40954819D02*
X53571428Y-40907200D01*
X53571428Y-40907200D02*
X53619047Y-40859580D01*
X53619047Y-40859580D02*
X53666666Y-40764342D01*
X53666666Y-40764342D02*
X53666666Y-40526247D01*
X53666666Y-40526247D02*
X53619047Y-40431009D01*
X53619047Y-40431009D02*
X53571428Y-40383390D01*
X53571428Y-40383390D02*
X53476190Y-40335771D01*
X53476190Y-40335771D02*
X53285714Y-40335771D01*
X53285714Y-40335771D02*
X53190476Y-40383390D01*
X53190476Y-40383390D02*
X53142857Y-40431009D01*
X53142857Y-40431009D02*
X53095238Y-40526247D01*
X48538095Y-33006819D02*
X49109523Y-33006819D01*
X48823809Y-34006819D02*
X48823809Y-33006819D01*
X49442857Y-34006819D02*
X49442857Y-33006819D01*
X49442857Y-33006819D02*
X49823809Y-33006819D01*
X49823809Y-33006819D02*
X49919047Y-33054438D01*
X49919047Y-33054438D02*
X49966666Y-33102057D01*
X49966666Y-33102057D02*
X50014285Y-33197295D01*
X50014285Y-33197295D02*
X50014285Y-33340152D01*
X50014285Y-33340152D02*
X49966666Y-33435390D01*
X49966666Y-33435390D02*
X49919047Y-33483009D01*
X49919047Y-33483009D02*
X49823809Y-33530628D01*
X49823809Y-33530628D02*
X49442857Y-33530628D01*
X50919047Y-33006819D02*
X50442857Y-33006819D01*
X50442857Y-33006819D02*
X50395238Y-33483009D01*
X50395238Y-33483009D02*
X50442857Y-33435390D01*
X50442857Y-33435390D02*
X50538095Y-33387771D01*
X50538095Y-33387771D02*
X50776190Y-33387771D01*
X50776190Y-33387771D02*
X50871428Y-33435390D01*
X50871428Y-33435390D02*
X50919047Y-33483009D01*
X50919047Y-33483009D02*
X50966666Y-33578247D01*
X50966666Y-33578247D02*
X50966666Y-33816342D01*
X50966666Y-33816342D02*
X50919047Y-33911580D01*
X50919047Y-33911580D02*
X50871428Y-33959200D01*
X50871428Y-33959200D02*
X50776190Y-34006819D01*
X50776190Y-34006819D02*
X50538095Y-34006819D01*
X50538095Y-34006819D02*
X50442857Y-33959200D01*
X50442857Y-33959200D02*
X50395238Y-33911580D01*
X28538095Y-33006819D02*
X29109523Y-33006819D01*
X28823809Y-34006819D02*
X28823809Y-33006819D01*
X29442857Y-34006819D02*
X29442857Y-33006819D01*
X29442857Y-33006819D02*
X29823809Y-33006819D01*
X29823809Y-33006819D02*
X29919047Y-33054438D01*
X29919047Y-33054438D02*
X29966666Y-33102057D01*
X29966666Y-33102057D02*
X30014285Y-33197295D01*
X30014285Y-33197295D02*
X30014285Y-33340152D01*
X30014285Y-33340152D02*
X29966666Y-33435390D01*
X29966666Y-33435390D02*
X29919047Y-33483009D01*
X29919047Y-33483009D02*
X29823809Y-33530628D01*
X29823809Y-33530628D02*
X29442857Y-33530628D01*
X30871428Y-33340152D02*
X30871428Y-34006819D01*
X30633333Y-32959200D02*
X30395238Y-33673485D01*
X30395238Y-33673485D02*
X31014285Y-33673485D01*
X30954819Y-38761904D02*
X30954819Y-38190476D01*
X31954819Y-38476190D02*
X30954819Y-38476190D01*
X31954819Y-37857142D02*
X30954819Y-37857142D01*
X30954819Y-37857142D02*
X30954819Y-37476190D01*
X30954819Y-37476190D02*
X31002438Y-37380952D01*
X31002438Y-37380952D02*
X31050057Y-37333333D01*
X31050057Y-37333333D02*
X31145295Y-37285714D01*
X31145295Y-37285714D02*
X31288152Y-37285714D01*
X31288152Y-37285714D02*
X31383390Y-37333333D01*
X31383390Y-37333333D02*
X31431009Y-37380952D01*
X31431009Y-37380952D02*
X31478628Y-37476190D01*
X31478628Y-37476190D02*
X31478628Y-37857142D01*
X30954819Y-36952380D02*
X30954819Y-36333333D01*
X30954819Y-36333333D02*
X31335771Y-36666666D01*
X31335771Y-36666666D02*
X31335771Y-36523809D01*
X31335771Y-36523809D02*
X31383390Y-36428571D01*
X31383390Y-36428571D02*
X31431009Y-36380952D01*
X31431009Y-36380952D02*
X31526247Y-36333333D01*
X31526247Y-36333333D02*
X31764342Y-36333333D01*
X31764342Y-36333333D02*
X31859580Y-36380952D01*
X31859580Y-36380952D02*
X31907200Y-36428571D01*
X31907200Y-36428571D02*
X31954819Y-36523809D01*
X31954819Y-36523809D02*
X31954819Y-36809523D01*
X31954819Y-36809523D02*
X31907200Y-36904761D01*
X31907200Y-36904761D02*
X31859580Y-36952380D01*
X39738095Y-19454819D02*
X40309523Y-19454819D01*
X40023809Y-20454819D02*
X40023809Y-19454819D01*
X40642857Y-20454819D02*
X40642857Y-19454819D01*
X40642857Y-19454819D02*
X41023809Y-19454819D01*
X41023809Y-19454819D02*
X41119047Y-19502438D01*
X41119047Y-19502438D02*
X41166666Y-19550057D01*
X41166666Y-19550057D02*
X41214285Y-19645295D01*
X41214285Y-19645295D02*
X41214285Y-19788152D01*
X41214285Y-19788152D02*
X41166666Y-19883390D01*
X41166666Y-19883390D02*
X41119047Y-19931009D01*
X41119047Y-19931009D02*
X41023809Y-19978628D01*
X41023809Y-19978628D02*
X40642857Y-19978628D01*
X42166666Y-20454819D02*
X41595238Y-20454819D01*
X41880952Y-20454819D02*
X41880952Y-19454819D01*
X41880952Y-19454819D02*
X41785714Y-19597676D01*
X41785714Y-19597676D02*
X41690476Y-19692914D01*
X41690476Y-19692914D02*
X41595238Y-19740533D01*
X28857142Y-50684819D02*
X28523809Y-50208628D01*
X28285714Y-50684819D02*
X28285714Y-49684819D01*
X28285714Y-49684819D02*
X28666666Y-49684819D01*
X28666666Y-49684819D02*
X28761904Y-49732438D01*
X28761904Y-49732438D02*
X28809523Y-49780057D01*
X28809523Y-49780057D02*
X28857142Y-49875295D01*
X28857142Y-49875295D02*
X28857142Y-50018152D01*
X28857142Y-50018152D02*
X28809523Y-50113390D01*
X28809523Y-50113390D02*
X28761904Y-50161009D01*
X28761904Y-50161009D02*
X28666666Y-50208628D01*
X28666666Y-50208628D02*
X28285714Y-50208628D01*
X29238095Y-49780057D02*
X29285714Y-49732438D01*
X29285714Y-49732438D02*
X29380952Y-49684819D01*
X29380952Y-49684819D02*
X29619047Y-49684819D01*
X29619047Y-49684819D02*
X29714285Y-49732438D01*
X29714285Y-49732438D02*
X29761904Y-49780057D01*
X29761904Y-49780057D02*
X29809523Y-49875295D01*
X29809523Y-49875295D02*
X29809523Y-49970533D01*
X29809523Y-49970533D02*
X29761904Y-50113390D01*
X29761904Y-50113390D02*
X29190476Y-50684819D01*
X29190476Y-50684819D02*
X29809523Y-50684819D01*
X30761904Y-50684819D02*
X30190476Y-50684819D01*
X30476190Y-50684819D02*
X30476190Y-49684819D01*
X30476190Y-49684819D02*
X30380952Y-49827676D01*
X30380952Y-49827676D02*
X30285714Y-49922914D01*
X30285714Y-49922914D02*
X30190476Y-49970533D01*
X54857142Y-41859580D02*
X54809523Y-41907200D01*
X54809523Y-41907200D02*
X54666666Y-41954819D01*
X54666666Y-41954819D02*
X54571428Y-41954819D01*
X54571428Y-41954819D02*
X54428571Y-41907200D01*
X54428571Y-41907200D02*
X54333333Y-41811961D01*
X54333333Y-41811961D02*
X54285714Y-41716723D01*
X54285714Y-41716723D02*
X54238095Y-41526247D01*
X54238095Y-41526247D02*
X54238095Y-41383390D01*
X54238095Y-41383390D02*
X54285714Y-41192914D01*
X54285714Y-41192914D02*
X54333333Y-41097676D01*
X54333333Y-41097676D02*
X54428571Y-41002438D01*
X54428571Y-41002438D02*
X54571428Y-40954819D01*
X54571428Y-40954819D02*
X54666666Y-40954819D01*
X54666666Y-40954819D02*
X54809523Y-41002438D01*
X54809523Y-41002438D02*
X54857142Y-41050057D01*
X55190476Y-40954819D02*
X55809523Y-40954819D01*
X55809523Y-40954819D02*
X55476190Y-41335771D01*
X55476190Y-41335771D02*
X55619047Y-41335771D01*
X55619047Y-41335771D02*
X55714285Y-41383390D01*
X55714285Y-41383390D02*
X55761904Y-41431009D01*
X55761904Y-41431009D02*
X55809523Y-41526247D01*
X55809523Y-41526247D02*
X55809523Y-41764342D01*
X55809523Y-41764342D02*
X55761904Y-41859580D01*
X55761904Y-41859580D02*
X55714285Y-41907200D01*
X55714285Y-41907200D02*
X55619047Y-41954819D01*
X55619047Y-41954819D02*
X55333333Y-41954819D01*
X55333333Y-41954819D02*
X55238095Y-41907200D01*
X55238095Y-41907200D02*
X55190476Y-41859580D01*
X56142857Y-40954819D02*
X56809523Y-40954819D01*
X56809523Y-40954819D02*
X56380952Y-41954819D01*
X13157142Y-41159580D02*
X13109523Y-41207200D01*
X13109523Y-41207200D02*
X12966666Y-41254819D01*
X12966666Y-41254819D02*
X12871428Y-41254819D01*
X12871428Y-41254819D02*
X12728571Y-41207200D01*
X12728571Y-41207200D02*
X12633333Y-41111961D01*
X12633333Y-41111961D02*
X12585714Y-41016723D01*
X12585714Y-41016723D02*
X12538095Y-40826247D01*
X12538095Y-40826247D02*
X12538095Y-40683390D01*
X12538095Y-40683390D02*
X12585714Y-40492914D01*
X12585714Y-40492914D02*
X12633333Y-40397676D01*
X12633333Y-40397676D02*
X12728571Y-40302438D01*
X12728571Y-40302438D02*
X12871428Y-40254819D01*
X12871428Y-40254819D02*
X12966666Y-40254819D01*
X12966666Y-40254819D02*
X13109523Y-40302438D01*
X13109523Y-40302438D02*
X13157142Y-40350057D01*
X13490476Y-40254819D02*
X14109523Y-40254819D01*
X14109523Y-40254819D02*
X13776190Y-40635771D01*
X13776190Y-40635771D02*
X13919047Y-40635771D01*
X13919047Y-40635771D02*
X14014285Y-40683390D01*
X14014285Y-40683390D02*
X14061904Y-40731009D01*
X14061904Y-40731009D02*
X14109523Y-40826247D01*
X14109523Y-40826247D02*
X14109523Y-41064342D01*
X14109523Y-41064342D02*
X14061904Y-41159580D01*
X14061904Y-41159580D02*
X14014285Y-41207200D01*
X14014285Y-41207200D02*
X13919047Y-41254819D01*
X13919047Y-41254819D02*
X13633333Y-41254819D01*
X13633333Y-41254819D02*
X13538095Y-41207200D01*
X13538095Y-41207200D02*
X13490476Y-41159580D01*
X14490476Y-40350057D02*
X14538095Y-40302438D01*
X14538095Y-40302438D02*
X14633333Y-40254819D01*
X14633333Y-40254819D02*
X14871428Y-40254819D01*
X14871428Y-40254819D02*
X14966666Y-40302438D01*
X14966666Y-40302438D02*
X15014285Y-40350057D01*
X15014285Y-40350057D02*
X15061904Y-40445295D01*
X15061904Y-40445295D02*
X15061904Y-40540533D01*
X15061904Y-40540533D02*
X15014285Y-40683390D01*
X15014285Y-40683390D02*
X14442857Y-41254819D01*
X14442857Y-41254819D02*
X15061904Y-41254819D01*
X39198095Y-34966069D02*
X39198095Y-35775592D01*
X39198095Y-35775592D02*
X39245714Y-35870830D01*
X39245714Y-35870830D02*
X39293333Y-35918450D01*
X39293333Y-35918450D02*
X39388571Y-35966069D01*
X39388571Y-35966069D02*
X39579047Y-35966069D01*
X39579047Y-35966069D02*
X39674285Y-35918450D01*
X39674285Y-35918450D02*
X39721904Y-35870830D01*
X39721904Y-35870830D02*
X39769523Y-35775592D01*
X39769523Y-35775592D02*
X39769523Y-34966069D01*
X40150476Y-34966069D02*
X40769523Y-34966069D01*
X40769523Y-34966069D02*
X40436190Y-35347021D01*
X40436190Y-35347021D02*
X40579047Y-35347021D01*
X40579047Y-35347021D02*
X40674285Y-35394640D01*
X40674285Y-35394640D02*
X40721904Y-35442259D01*
X40721904Y-35442259D02*
X40769523Y-35537497D01*
X40769523Y-35537497D02*
X40769523Y-35775592D01*
X40769523Y-35775592D02*
X40721904Y-35870830D01*
X40721904Y-35870830D02*
X40674285Y-35918450D01*
X40674285Y-35918450D02*
X40579047Y-35966069D01*
X40579047Y-35966069D02*
X40293333Y-35966069D01*
X40293333Y-35966069D02*
X40198095Y-35918450D01*
X40198095Y-35918450D02*
X40150476Y-35870830D01*
X44954580Y-38266666D02*
X45002200Y-38314285D01*
X45002200Y-38314285D02*
X45049819Y-38457142D01*
X45049819Y-38457142D02*
X45049819Y-38552380D01*
X45049819Y-38552380D02*
X45002200Y-38695237D01*
X45002200Y-38695237D02*
X44906961Y-38790475D01*
X44906961Y-38790475D02*
X44811723Y-38838094D01*
X44811723Y-38838094D02*
X44621247Y-38885713D01*
X44621247Y-38885713D02*
X44478390Y-38885713D01*
X44478390Y-38885713D02*
X44287914Y-38838094D01*
X44287914Y-38838094D02*
X44192676Y-38790475D01*
X44192676Y-38790475D02*
X44097438Y-38695237D01*
X44097438Y-38695237D02*
X44049819Y-38552380D01*
X44049819Y-38552380D02*
X44049819Y-38457142D01*
X44049819Y-38457142D02*
X44097438Y-38314285D01*
X44097438Y-38314285D02*
X44145057Y-38266666D01*
X44383152Y-37409523D02*
X45049819Y-37409523D01*
X44002200Y-37647618D02*
X44716485Y-37885713D01*
X44716485Y-37885713D02*
X44716485Y-37266666D01*
X13157142Y-45054819D02*
X12823809Y-44578628D01*
X12585714Y-45054819D02*
X12585714Y-44054819D01*
X12585714Y-44054819D02*
X12966666Y-44054819D01*
X12966666Y-44054819D02*
X13061904Y-44102438D01*
X13061904Y-44102438D02*
X13109523Y-44150057D01*
X13109523Y-44150057D02*
X13157142Y-44245295D01*
X13157142Y-44245295D02*
X13157142Y-44388152D01*
X13157142Y-44388152D02*
X13109523Y-44483390D01*
X13109523Y-44483390D02*
X13061904Y-44531009D01*
X13061904Y-44531009D02*
X12966666Y-44578628D01*
X12966666Y-44578628D02*
X12585714Y-44578628D01*
X13538095Y-44150057D02*
X13585714Y-44102438D01*
X13585714Y-44102438D02*
X13680952Y-44054819D01*
X13680952Y-44054819D02*
X13919047Y-44054819D01*
X13919047Y-44054819D02*
X14014285Y-44102438D01*
X14014285Y-44102438D02*
X14061904Y-44150057D01*
X14061904Y-44150057D02*
X14109523Y-44245295D01*
X14109523Y-44245295D02*
X14109523Y-44340533D01*
X14109523Y-44340533D02*
X14061904Y-44483390D01*
X14061904Y-44483390D02*
X13490476Y-45054819D01*
X13490476Y-45054819D02*
X14109523Y-45054819D01*
X14728571Y-44054819D02*
X14823809Y-44054819D01*
X14823809Y-44054819D02*
X14919047Y-44102438D01*
X14919047Y-44102438D02*
X14966666Y-44150057D01*
X14966666Y-44150057D02*
X15014285Y-44245295D01*
X15014285Y-44245295D02*
X15061904Y-44435771D01*
X15061904Y-44435771D02*
X15061904Y-44673866D01*
X15061904Y-44673866D02*
X15014285Y-44864342D01*
X15014285Y-44864342D02*
X14966666Y-44959580D01*
X14966666Y-44959580D02*
X14919047Y-45007200D01*
X14919047Y-45007200D02*
X14823809Y-45054819D01*
X14823809Y-45054819D02*
X14728571Y-45054819D01*
X14728571Y-45054819D02*
X14633333Y-45007200D01*
X14633333Y-45007200D02*
X14585714Y-44959580D01*
X14585714Y-44959580D02*
X14538095Y-44864342D01*
X14538095Y-44864342D02*
X14490476Y-44673866D01*
X14490476Y-44673866D02*
X14490476Y-44435771D01*
X14490476Y-44435771D02*
X14538095Y-44245295D01*
X14538095Y-44245295D02*
X14585714Y-44150057D01*
X14585714Y-44150057D02*
X14633333Y-44102438D01*
X14633333Y-44102438D02*
X14728571Y-44054819D01*
X68654819Y-36433333D02*
X69369104Y-36433333D01*
X69369104Y-36433333D02*
X69511961Y-36480952D01*
X69511961Y-36480952D02*
X69607200Y-36576190D01*
X69607200Y-36576190D02*
X69654819Y-36719047D01*
X69654819Y-36719047D02*
X69654819Y-36814285D01*
X69654819Y-35957142D02*
X68654819Y-35957142D01*
X68654819Y-35957142D02*
X68654819Y-35576190D01*
X68654819Y-35576190D02*
X68702438Y-35480952D01*
X68702438Y-35480952D02*
X68750057Y-35433333D01*
X68750057Y-35433333D02*
X68845295Y-35385714D01*
X68845295Y-35385714D02*
X68988152Y-35385714D01*
X68988152Y-35385714D02*
X69083390Y-35433333D01*
X69083390Y-35433333D02*
X69131009Y-35480952D01*
X69131009Y-35480952D02*
X69178628Y-35576190D01*
X69178628Y-35576190D02*
X69178628Y-35957142D01*
X68750057Y-35004761D02*
X68702438Y-34957142D01*
X68702438Y-34957142D02*
X68654819Y-34861904D01*
X68654819Y-34861904D02*
X68654819Y-34623809D01*
X68654819Y-34623809D02*
X68702438Y-34528571D01*
X68702438Y-34528571D02*
X68750057Y-34480952D01*
X68750057Y-34480952D02*
X68845295Y-34433333D01*
X68845295Y-34433333D02*
X68940533Y-34433333D01*
X68940533Y-34433333D02*
X69083390Y-34480952D01*
X69083390Y-34480952D02*
X69654819Y-35052380D01*
X69654819Y-35052380D02*
X69654819Y-34433333D01*
X25833333Y-37254819D02*
X25500000Y-36778628D01*
X25261905Y-37254819D02*
X25261905Y-36254819D01*
X25261905Y-36254819D02*
X25642857Y-36254819D01*
X25642857Y-36254819D02*
X25738095Y-36302438D01*
X25738095Y-36302438D02*
X25785714Y-36350057D01*
X25785714Y-36350057D02*
X25833333Y-36445295D01*
X25833333Y-36445295D02*
X25833333Y-36588152D01*
X25833333Y-36588152D02*
X25785714Y-36683390D01*
X25785714Y-36683390D02*
X25738095Y-36731009D01*
X25738095Y-36731009D02*
X25642857Y-36778628D01*
X25642857Y-36778628D02*
X25261905Y-36778628D01*
X26785714Y-37254819D02*
X26214286Y-37254819D01*
X26500000Y-37254819D02*
X26500000Y-36254819D01*
X26500000Y-36254819D02*
X26404762Y-36397676D01*
X26404762Y-36397676D02*
X26309524Y-36492914D01*
X26309524Y-36492914D02*
X26214286Y-36540533D01*
X16613096Y-39854819D02*
X16613096Y-40664342D01*
X16613096Y-40664342D02*
X16660715Y-40759580D01*
X16660715Y-40759580D02*
X16708334Y-40807200D01*
X16708334Y-40807200D02*
X16803572Y-40854819D01*
X16803572Y-40854819D02*
X16994048Y-40854819D01*
X16994048Y-40854819D02*
X17089286Y-40807200D01*
X17089286Y-40807200D02*
X17136905Y-40759580D01*
X17136905Y-40759580D02*
X17184524Y-40664342D01*
X17184524Y-40664342D02*
X17184524Y-39854819D01*
X17613096Y-39950057D02*
X17660715Y-39902438D01*
X17660715Y-39902438D02*
X17755953Y-39854819D01*
X17755953Y-39854819D02*
X17994048Y-39854819D01*
X17994048Y-39854819D02*
X18089286Y-39902438D01*
X18089286Y-39902438D02*
X18136905Y-39950057D01*
X18136905Y-39950057D02*
X18184524Y-40045295D01*
X18184524Y-40045295D02*
X18184524Y-40140533D01*
X18184524Y-40140533D02*
X18136905Y-40283390D01*
X18136905Y-40283390D02*
X17565477Y-40854819D01*
X17565477Y-40854819D02*
X18184524Y-40854819D01*
X61654819Y-30842857D02*
X61178628Y-31176190D01*
X61654819Y-31414285D02*
X60654819Y-31414285D01*
X60654819Y-31414285D02*
X60654819Y-31033333D01*
X60654819Y-31033333D02*
X60702438Y-30938095D01*
X60702438Y-30938095D02*
X60750057Y-30890476D01*
X60750057Y-30890476D02*
X60845295Y-30842857D01*
X60845295Y-30842857D02*
X60988152Y-30842857D01*
X60988152Y-30842857D02*
X61083390Y-30890476D01*
X61083390Y-30890476D02*
X61131009Y-30938095D01*
X61131009Y-30938095D02*
X61178628Y-31033333D01*
X61178628Y-31033333D02*
X61178628Y-31414285D01*
X61654819Y-29890476D02*
X61654819Y-30461904D01*
X61654819Y-30176190D02*
X60654819Y-30176190D01*
X60654819Y-30176190D02*
X60797676Y-30271428D01*
X60797676Y-30271428D02*
X60892914Y-30366666D01*
X60892914Y-30366666D02*
X60940533Y-30461904D01*
X61654819Y-28938095D02*
X61654819Y-29509523D01*
X61654819Y-29223809D02*
X60654819Y-29223809D01*
X60654819Y-29223809D02*
X60797676Y-29319047D01*
X60797676Y-29319047D02*
X60892914Y-29414285D01*
X60892914Y-29414285D02*
X60940533Y-29509523D01*
X57609580Y-29392857D02*
X57657200Y-29440476D01*
X57657200Y-29440476D02*
X57704819Y-29583333D01*
X57704819Y-29583333D02*
X57704819Y-29678571D01*
X57704819Y-29678571D02*
X57657200Y-29821428D01*
X57657200Y-29821428D02*
X57561961Y-29916666D01*
X57561961Y-29916666D02*
X57466723Y-29964285D01*
X57466723Y-29964285D02*
X57276247Y-30011904D01*
X57276247Y-30011904D02*
X57133390Y-30011904D01*
X57133390Y-30011904D02*
X56942914Y-29964285D01*
X56942914Y-29964285D02*
X56847676Y-29916666D01*
X56847676Y-29916666D02*
X56752438Y-29821428D01*
X56752438Y-29821428D02*
X56704819Y-29678571D01*
X56704819Y-29678571D02*
X56704819Y-29583333D01*
X56704819Y-29583333D02*
X56752438Y-29440476D01*
X56752438Y-29440476D02*
X56800057Y-29392857D01*
X57704819Y-28440476D02*
X57704819Y-29011904D01*
X57704819Y-28726190D02*
X56704819Y-28726190D01*
X56704819Y-28726190D02*
X56847676Y-28821428D01*
X56847676Y-28821428D02*
X56942914Y-28916666D01*
X56942914Y-28916666D02*
X56990533Y-29011904D01*
X57133390Y-27869047D02*
X57085771Y-27964285D01*
X57085771Y-27964285D02*
X57038152Y-28011904D01*
X57038152Y-28011904D02*
X56942914Y-28059523D01*
X56942914Y-28059523D02*
X56895295Y-28059523D01*
X56895295Y-28059523D02*
X56800057Y-28011904D01*
X56800057Y-28011904D02*
X56752438Y-27964285D01*
X56752438Y-27964285D02*
X56704819Y-27869047D01*
X56704819Y-27869047D02*
X56704819Y-27678571D01*
X56704819Y-27678571D02*
X56752438Y-27583333D01*
X56752438Y-27583333D02*
X56800057Y-27535714D01*
X56800057Y-27535714D02*
X56895295Y-27488095D01*
X56895295Y-27488095D02*
X56942914Y-27488095D01*
X56942914Y-27488095D02*
X57038152Y-27535714D01*
X57038152Y-27535714D02*
X57085771Y-27583333D01*
X57085771Y-27583333D02*
X57133390Y-27678571D01*
X57133390Y-27678571D02*
X57133390Y-27869047D01*
X57133390Y-27869047D02*
X57181009Y-27964285D01*
X57181009Y-27964285D02*
X57228628Y-28011904D01*
X57228628Y-28011904D02*
X57323866Y-28059523D01*
X57323866Y-28059523D02*
X57514342Y-28059523D01*
X57514342Y-28059523D02*
X57609580Y-28011904D01*
X57609580Y-28011904D02*
X57657200Y-27964285D01*
X57657200Y-27964285D02*
X57704819Y-27869047D01*
X57704819Y-27869047D02*
X57704819Y-27678571D01*
X57704819Y-27678571D02*
X57657200Y-27583333D01*
X57657200Y-27583333D02*
X57609580Y-27535714D01*
X57609580Y-27535714D02*
X57514342Y-27488095D01*
X57514342Y-27488095D02*
X57323866Y-27488095D01*
X57323866Y-27488095D02*
X57228628Y-27535714D01*
X57228628Y-27535714D02*
X57181009Y-27583333D01*
X57181009Y-27583333D02*
X57133390Y-27678571D01*
X69638095Y-26854819D02*
X69638095Y-27664342D01*
X69638095Y-27664342D02*
X69685714Y-27759580D01*
X69685714Y-27759580D02*
X69733333Y-27807200D01*
X69733333Y-27807200D02*
X69828571Y-27854819D01*
X69828571Y-27854819D02*
X70019047Y-27854819D01*
X70019047Y-27854819D02*
X70114285Y-27807200D01*
X70114285Y-27807200D02*
X70161904Y-27759580D01*
X70161904Y-27759580D02*
X70209523Y-27664342D01*
X70209523Y-27664342D02*
X70209523Y-26854819D01*
X71209523Y-27854819D02*
X70638095Y-27854819D01*
X70923809Y-27854819D02*
X70923809Y-26854819D01*
X70923809Y-26854819D02*
X70828571Y-26997676D01*
X70828571Y-26997676D02*
X70733333Y-27092914D01*
X70733333Y-27092914D02*
X70638095Y-27140533D01*
X48609580Y-29392857D02*
X48657200Y-29440476D01*
X48657200Y-29440476D02*
X48704819Y-29583333D01*
X48704819Y-29583333D02*
X48704819Y-29678571D01*
X48704819Y-29678571D02*
X48657200Y-29821428D01*
X48657200Y-29821428D02*
X48561961Y-29916666D01*
X48561961Y-29916666D02*
X48466723Y-29964285D01*
X48466723Y-29964285D02*
X48276247Y-30011904D01*
X48276247Y-30011904D02*
X48133390Y-30011904D01*
X48133390Y-30011904D02*
X47942914Y-29964285D01*
X47942914Y-29964285D02*
X47847676Y-29916666D01*
X47847676Y-29916666D02*
X47752438Y-29821428D01*
X47752438Y-29821428D02*
X47704819Y-29678571D01*
X47704819Y-29678571D02*
X47704819Y-29583333D01*
X47704819Y-29583333D02*
X47752438Y-29440476D01*
X47752438Y-29440476D02*
X47800057Y-29392857D01*
X47800057Y-29011904D02*
X47752438Y-28964285D01*
X47752438Y-28964285D02*
X47704819Y-28869047D01*
X47704819Y-28869047D02*
X47704819Y-28630952D01*
X47704819Y-28630952D02*
X47752438Y-28535714D01*
X47752438Y-28535714D02*
X47800057Y-28488095D01*
X47800057Y-28488095D02*
X47895295Y-28440476D01*
X47895295Y-28440476D02*
X47990533Y-28440476D01*
X47990533Y-28440476D02*
X48133390Y-28488095D01*
X48133390Y-28488095D02*
X48704819Y-29059523D01*
X48704819Y-29059523D02*
X48704819Y-28440476D01*
X48704819Y-27488095D02*
X48704819Y-28059523D01*
X48704819Y-27773809D02*
X47704819Y-27773809D01*
X47704819Y-27773809D02*
X47847676Y-27869047D01*
X47847676Y-27869047D02*
X47942914Y-27964285D01*
X47942914Y-27964285D02*
X47990533Y-28059523D01*
X53740230Y-37265033D02*
X53406897Y-36788842D01*
X53168802Y-37265033D02*
X53168802Y-36265033D01*
X53168802Y-36265033D02*
X53549754Y-36265033D01*
X53549754Y-36265033D02*
X53644992Y-36312652D01*
X53644992Y-36312652D02*
X53692611Y-36360271D01*
X53692611Y-36360271D02*
X53740230Y-36455509D01*
X53740230Y-36455509D02*
X53740230Y-36598366D01*
X53740230Y-36598366D02*
X53692611Y-36693604D01*
X53692611Y-36693604D02*
X53644992Y-36741223D01*
X53644992Y-36741223D02*
X53549754Y-36788842D01*
X53549754Y-36788842D02*
X53168802Y-36788842D01*
X54073564Y-36265033D02*
X54692611Y-36265033D01*
X54692611Y-36265033D02*
X54359278Y-36645985D01*
X54359278Y-36645985D02*
X54502135Y-36645985D01*
X54502135Y-36645985D02*
X54597373Y-36693604D01*
X54597373Y-36693604D02*
X54644992Y-36741223D01*
X54644992Y-36741223D02*
X54692611Y-36836461D01*
X54692611Y-36836461D02*
X54692611Y-37074556D01*
X54692611Y-37074556D02*
X54644992Y-37169794D01*
X54644992Y-37169794D02*
X54597373Y-37217414D01*
X54597373Y-37217414D02*
X54502135Y-37265033D01*
X54502135Y-37265033D02*
X54216421Y-37265033D01*
X54216421Y-37265033D02*
X54121183Y-37217414D01*
X54121183Y-37217414D02*
X54073564Y-37169794D01*
X34109580Y-29392857D02*
X34157200Y-29440476D01*
X34157200Y-29440476D02*
X34204819Y-29583333D01*
X34204819Y-29583333D02*
X34204819Y-29678571D01*
X34204819Y-29678571D02*
X34157200Y-29821428D01*
X34157200Y-29821428D02*
X34061961Y-29916666D01*
X34061961Y-29916666D02*
X33966723Y-29964285D01*
X33966723Y-29964285D02*
X33776247Y-30011904D01*
X33776247Y-30011904D02*
X33633390Y-30011904D01*
X33633390Y-30011904D02*
X33442914Y-29964285D01*
X33442914Y-29964285D02*
X33347676Y-29916666D01*
X33347676Y-29916666D02*
X33252438Y-29821428D01*
X33252438Y-29821428D02*
X33204819Y-29678571D01*
X33204819Y-29678571D02*
X33204819Y-29583333D01*
X33204819Y-29583333D02*
X33252438Y-29440476D01*
X33252438Y-29440476D02*
X33300057Y-29392857D01*
X34204819Y-28440476D02*
X34204819Y-29011904D01*
X34204819Y-28726190D02*
X33204819Y-28726190D01*
X33204819Y-28726190D02*
X33347676Y-28821428D01*
X33347676Y-28821428D02*
X33442914Y-28916666D01*
X33442914Y-28916666D02*
X33490533Y-29011904D01*
X33538152Y-27583333D02*
X34204819Y-27583333D01*
X33157200Y-27821428D02*
X33871485Y-28059523D01*
X33871485Y-28059523D02*
X33871485Y-27440476D01*
X28109580Y-29642857D02*
X28157200Y-29690476D01*
X28157200Y-29690476D02*
X28204819Y-29833333D01*
X28204819Y-29833333D02*
X28204819Y-29928571D01*
X28204819Y-29928571D02*
X28157200Y-30071428D01*
X28157200Y-30071428D02*
X28061961Y-30166666D01*
X28061961Y-30166666D02*
X27966723Y-30214285D01*
X27966723Y-30214285D02*
X27776247Y-30261904D01*
X27776247Y-30261904D02*
X27633390Y-30261904D01*
X27633390Y-30261904D02*
X27442914Y-30214285D01*
X27442914Y-30214285D02*
X27347676Y-30166666D01*
X27347676Y-30166666D02*
X27252438Y-30071428D01*
X27252438Y-30071428D02*
X27204819Y-29928571D01*
X27204819Y-29928571D02*
X27204819Y-29833333D01*
X27204819Y-29833333D02*
X27252438Y-29690476D01*
X27252438Y-29690476D02*
X27300057Y-29642857D01*
X28204819Y-28690476D02*
X28204819Y-29261904D01*
X28204819Y-28976190D02*
X27204819Y-28976190D01*
X27204819Y-28976190D02*
X27347676Y-29071428D01*
X27347676Y-29071428D02*
X27442914Y-29166666D01*
X27442914Y-29166666D02*
X27490533Y-29261904D01*
X27204819Y-27833333D02*
X27204819Y-28023809D01*
X27204819Y-28023809D02*
X27252438Y-28119047D01*
X27252438Y-28119047D02*
X27300057Y-28166666D01*
X27300057Y-28166666D02*
X27442914Y-28261904D01*
X27442914Y-28261904D02*
X27633390Y-28309523D01*
X27633390Y-28309523D02*
X28014342Y-28309523D01*
X28014342Y-28309523D02*
X28109580Y-28261904D01*
X28109580Y-28261904D02*
X28157200Y-28214285D01*
X28157200Y-28214285D02*
X28204819Y-28119047D01*
X28204819Y-28119047D02*
X28204819Y-27928571D01*
X28204819Y-27928571D02*
X28157200Y-27833333D01*
X28157200Y-27833333D02*
X28109580Y-27785714D01*
X28109580Y-27785714D02*
X28014342Y-27738095D01*
X28014342Y-27738095D02*
X27776247Y-27738095D01*
X27776247Y-27738095D02*
X27681009Y-27785714D01*
X27681009Y-27785714D02*
X27633390Y-27833333D01*
X27633390Y-27833333D02*
X27585771Y-27928571D01*
X27585771Y-27928571D02*
X27585771Y-28119047D01*
X27585771Y-28119047D02*
X27633390Y-28214285D01*
X27633390Y-28214285D02*
X27681009Y-28261904D01*
X27681009Y-28261904D02*
X27776247Y-28309523D01*
X37404761Y-33300057D02*
X37309523Y-33252438D01*
X37309523Y-33252438D02*
X37214285Y-33157200D01*
X37214285Y-33157200D02*
X37071428Y-33014342D01*
X37071428Y-33014342D02*
X36976190Y-32966723D01*
X36976190Y-32966723D02*
X36880952Y-32966723D01*
X36928571Y-33204819D02*
X36833333Y-33157200D01*
X36833333Y-33157200D02*
X36738095Y-33061961D01*
X36738095Y-33061961D02*
X36690476Y-32871485D01*
X36690476Y-32871485D02*
X36690476Y-32538152D01*
X36690476Y-32538152D02*
X36738095Y-32347676D01*
X36738095Y-32347676D02*
X36833333Y-32252438D01*
X36833333Y-32252438D02*
X36928571Y-32204819D01*
X36928571Y-32204819D02*
X37119047Y-32204819D01*
X37119047Y-32204819D02*
X37214285Y-32252438D01*
X37214285Y-32252438D02*
X37309523Y-32347676D01*
X37309523Y-32347676D02*
X37357142Y-32538152D01*
X37357142Y-32538152D02*
X37357142Y-32871485D01*
X37357142Y-32871485D02*
X37309523Y-33061961D01*
X37309523Y-33061961D02*
X37214285Y-33157200D01*
X37214285Y-33157200D02*
X37119047Y-33204819D01*
X37119047Y-33204819D02*
X36928571Y-33204819D01*
X38309523Y-33204819D02*
X37738095Y-33204819D01*
X38023809Y-33204819D02*
X38023809Y-32204819D01*
X38023809Y-32204819D02*
X37928571Y-32347676D01*
X37928571Y-32347676D02*
X37833333Y-32442914D01*
X37833333Y-32442914D02*
X37738095Y-32490533D01*
X69762142Y-13954819D02*
X69428809Y-13478628D01*
X69190714Y-13954819D02*
X69190714Y-12954819D01*
X69190714Y-12954819D02*
X69571666Y-12954819D01*
X69571666Y-12954819D02*
X69666904Y-13002438D01*
X69666904Y-13002438D02*
X69714523Y-13050057D01*
X69714523Y-13050057D02*
X69762142Y-13145295D01*
X69762142Y-13145295D02*
X69762142Y-13288152D01*
X69762142Y-13288152D02*
X69714523Y-13383390D01*
X69714523Y-13383390D02*
X69666904Y-13431009D01*
X69666904Y-13431009D02*
X69571666Y-13478628D01*
X69571666Y-13478628D02*
X69190714Y-13478628D01*
X70714523Y-13954819D02*
X70143095Y-13954819D01*
X70428809Y-13954819D02*
X70428809Y-12954819D01*
X70428809Y-12954819D02*
X70333571Y-13097676D01*
X70333571Y-13097676D02*
X70238333Y-13192914D01*
X70238333Y-13192914D02*
X70143095Y-13240533D01*
X71047857Y-12954819D02*
X71666904Y-12954819D01*
X71666904Y-12954819D02*
X71333571Y-13335771D01*
X71333571Y-13335771D02*
X71476428Y-13335771D01*
X71476428Y-13335771D02*
X71571666Y-13383390D01*
X71571666Y-13383390D02*
X71619285Y-13431009D01*
X71619285Y-13431009D02*
X71666904Y-13526247D01*
X71666904Y-13526247D02*
X71666904Y-13764342D01*
X71666904Y-13764342D02*
X71619285Y-13859580D01*
X71619285Y-13859580D02*
X71571666Y-13907200D01*
X71571666Y-13907200D02*
X71476428Y-13954819D01*
X71476428Y-13954819D02*
X71190714Y-13954819D01*
X71190714Y-13954819D02*
X71095476Y-13907200D01*
X71095476Y-13907200D02*
X71047857Y-13859580D01*
X32833333Y-46159580D02*
X32785714Y-46207200D01*
X32785714Y-46207200D02*
X32642857Y-46254819D01*
X32642857Y-46254819D02*
X32547619Y-46254819D01*
X32547619Y-46254819D02*
X32404762Y-46207200D01*
X32404762Y-46207200D02*
X32309524Y-46111961D01*
X32309524Y-46111961D02*
X32261905Y-46016723D01*
X32261905Y-46016723D02*
X32214286Y-45826247D01*
X32214286Y-45826247D02*
X32214286Y-45683390D01*
X32214286Y-45683390D02*
X32261905Y-45492914D01*
X32261905Y-45492914D02*
X32309524Y-45397676D01*
X32309524Y-45397676D02*
X32404762Y-45302438D01*
X32404762Y-45302438D02*
X32547619Y-45254819D01*
X32547619Y-45254819D02*
X32642857Y-45254819D01*
X32642857Y-45254819D02*
X32785714Y-45302438D01*
X32785714Y-45302438D02*
X32833333Y-45350057D01*
X33690476Y-45254819D02*
X33500000Y-45254819D01*
X33500000Y-45254819D02*
X33404762Y-45302438D01*
X33404762Y-45302438D02*
X33357143Y-45350057D01*
X33357143Y-45350057D02*
X33261905Y-45492914D01*
X33261905Y-45492914D02*
X33214286Y-45683390D01*
X33214286Y-45683390D02*
X33214286Y-46064342D01*
X33214286Y-46064342D02*
X33261905Y-46159580D01*
X33261905Y-46159580D02*
X33309524Y-46207200D01*
X33309524Y-46207200D02*
X33404762Y-46254819D01*
X33404762Y-46254819D02*
X33595238Y-46254819D01*
X33595238Y-46254819D02*
X33690476Y-46207200D01*
X33690476Y-46207200D02*
X33738095Y-46159580D01*
X33738095Y-46159580D02*
X33785714Y-46064342D01*
X33785714Y-46064342D02*
X33785714Y-45826247D01*
X33785714Y-45826247D02*
X33738095Y-45731009D01*
X33738095Y-45731009D02*
X33690476Y-45683390D01*
X33690476Y-45683390D02*
X33595238Y-45635771D01*
X33595238Y-45635771D02*
X33404762Y-45635771D01*
X33404762Y-45635771D02*
X33309524Y-45683390D01*
X33309524Y-45683390D02*
X33261905Y-45731009D01*
X33261905Y-45731009D02*
X33214286Y-45826247D01*
X40833333Y-28454819D02*
X40500000Y-27978628D01*
X40261905Y-28454819D02*
X40261905Y-27454819D01*
X40261905Y-27454819D02*
X40642857Y-27454819D01*
X40642857Y-27454819D02*
X40738095Y-27502438D01*
X40738095Y-27502438D02*
X40785714Y-27550057D01*
X40785714Y-27550057D02*
X40833333Y-27645295D01*
X40833333Y-27645295D02*
X40833333Y-27788152D01*
X40833333Y-27788152D02*
X40785714Y-27883390D01*
X40785714Y-27883390D02*
X40738095Y-27931009D01*
X40738095Y-27931009D02*
X40642857Y-27978628D01*
X40642857Y-27978628D02*
X40261905Y-27978628D01*
X41738095Y-27454819D02*
X41261905Y-27454819D01*
X41261905Y-27454819D02*
X41214286Y-27931009D01*
X41214286Y-27931009D02*
X41261905Y-27883390D01*
X41261905Y-27883390D02*
X41357143Y-27835771D01*
X41357143Y-27835771D02*
X41595238Y-27835771D01*
X41595238Y-27835771D02*
X41690476Y-27883390D01*
X41690476Y-27883390D02*
X41738095Y-27931009D01*
X41738095Y-27931009D02*
X41785714Y-28026247D01*
X41785714Y-28026247D02*
X41785714Y-28264342D01*
X41785714Y-28264342D02*
X41738095Y-28359580D01*
X41738095Y-28359580D02*
X41690476Y-28407200D01*
X41690476Y-28407200D02*
X41595238Y-28454819D01*
X41595238Y-28454819D02*
X41357143Y-28454819D01*
X41357143Y-28454819D02*
X41261905Y-28407200D01*
X41261905Y-28407200D02*
X41214286Y-28359580D01*
X25833333Y-39254819D02*
X25500000Y-38778628D01*
X25261905Y-39254819D02*
X25261905Y-38254819D01*
X25261905Y-38254819D02*
X25642857Y-38254819D01*
X25642857Y-38254819D02*
X25738095Y-38302438D01*
X25738095Y-38302438D02*
X25785714Y-38350057D01*
X25785714Y-38350057D02*
X25833333Y-38445295D01*
X25833333Y-38445295D02*
X25833333Y-38588152D01*
X25833333Y-38588152D02*
X25785714Y-38683390D01*
X25785714Y-38683390D02*
X25738095Y-38731009D01*
X25738095Y-38731009D02*
X25642857Y-38778628D01*
X25642857Y-38778628D02*
X25261905Y-38778628D01*
X26214286Y-38350057D02*
X26261905Y-38302438D01*
X26261905Y-38302438D02*
X26357143Y-38254819D01*
X26357143Y-38254819D02*
X26595238Y-38254819D01*
X26595238Y-38254819D02*
X26690476Y-38302438D01*
X26690476Y-38302438D02*
X26738095Y-38350057D01*
X26738095Y-38350057D02*
X26785714Y-38445295D01*
X26785714Y-38445295D02*
X26785714Y-38540533D01*
X26785714Y-38540533D02*
X26738095Y-38683390D01*
X26738095Y-38683390D02*
X26166667Y-39254819D01*
X26166667Y-39254819D02*
X26785714Y-39254819D01*
X63454819Y-30842857D02*
X62978628Y-31176190D01*
X63454819Y-31414285D02*
X62454819Y-31414285D01*
X62454819Y-31414285D02*
X62454819Y-31033333D01*
X62454819Y-31033333D02*
X62502438Y-30938095D01*
X62502438Y-30938095D02*
X62550057Y-30890476D01*
X62550057Y-30890476D02*
X62645295Y-30842857D01*
X62645295Y-30842857D02*
X62788152Y-30842857D01*
X62788152Y-30842857D02*
X62883390Y-30890476D01*
X62883390Y-30890476D02*
X62931009Y-30938095D01*
X62931009Y-30938095D02*
X62978628Y-31033333D01*
X62978628Y-31033333D02*
X62978628Y-31414285D01*
X63454819Y-29890476D02*
X63454819Y-30461904D01*
X63454819Y-30176190D02*
X62454819Y-30176190D01*
X62454819Y-30176190D02*
X62597676Y-30271428D01*
X62597676Y-30271428D02*
X62692914Y-30366666D01*
X62692914Y-30366666D02*
X62740533Y-30461904D01*
X62788152Y-29033333D02*
X63454819Y-29033333D01*
X62407200Y-29271428D02*
X63121485Y-29509523D01*
X63121485Y-29509523D02*
X63121485Y-28890476D01*
X16557142Y-42454819D02*
X16223809Y-41978628D01*
X15985714Y-42454819D02*
X15985714Y-41454819D01*
X15985714Y-41454819D02*
X16366666Y-41454819D01*
X16366666Y-41454819D02*
X16461904Y-41502438D01*
X16461904Y-41502438D02*
X16509523Y-41550057D01*
X16509523Y-41550057D02*
X16557142Y-41645295D01*
X16557142Y-41645295D02*
X16557142Y-41788152D01*
X16557142Y-41788152D02*
X16509523Y-41883390D01*
X16509523Y-41883390D02*
X16461904Y-41931009D01*
X16461904Y-41931009D02*
X16366666Y-41978628D01*
X16366666Y-41978628D02*
X15985714Y-41978628D01*
X17509523Y-42454819D02*
X16938095Y-42454819D01*
X17223809Y-42454819D02*
X17223809Y-41454819D01*
X17223809Y-41454819D02*
X17128571Y-41597676D01*
X17128571Y-41597676D02*
X17033333Y-41692914D01*
X17033333Y-41692914D02*
X16938095Y-41740533D01*
X17985714Y-42454819D02*
X18176190Y-42454819D01*
X18176190Y-42454819D02*
X18271428Y-42407200D01*
X18271428Y-42407200D02*
X18319047Y-42359580D01*
X18319047Y-42359580D02*
X18414285Y-42216723D01*
X18414285Y-42216723D02*
X18461904Y-42026247D01*
X18461904Y-42026247D02*
X18461904Y-41645295D01*
X18461904Y-41645295D02*
X18414285Y-41550057D01*
X18414285Y-41550057D02*
X18366666Y-41502438D01*
X18366666Y-41502438D02*
X18271428Y-41454819D01*
X18271428Y-41454819D02*
X18080952Y-41454819D01*
X18080952Y-41454819D02*
X17985714Y-41502438D01*
X17985714Y-41502438D02*
X17938095Y-41550057D01*
X17938095Y-41550057D02*
X17890476Y-41645295D01*
X17890476Y-41645295D02*
X17890476Y-41883390D01*
X17890476Y-41883390D02*
X17938095Y-41978628D01*
X17938095Y-41978628D02*
X17985714Y-42026247D01*
X17985714Y-42026247D02*
X18080952Y-42073866D01*
X18080952Y-42073866D02*
X18271428Y-42073866D01*
X18271428Y-42073866D02*
X18366666Y-42026247D01*
X18366666Y-42026247D02*
X18414285Y-41978628D01*
X18414285Y-41978628D02*
X18461904Y-41883390D01*
X67638095Y-37054819D02*
X67638095Y-37864342D01*
X67638095Y-37864342D02*
X67685714Y-37959580D01*
X67685714Y-37959580D02*
X67733333Y-38007200D01*
X67733333Y-38007200D02*
X67828571Y-38054819D01*
X67828571Y-38054819D02*
X68019047Y-38054819D01*
X68019047Y-38054819D02*
X68114285Y-38007200D01*
X68114285Y-38007200D02*
X68161904Y-37959580D01*
X68161904Y-37959580D02*
X68209523Y-37864342D01*
X68209523Y-37864342D02*
X68209523Y-37054819D01*
X69114285Y-37388152D02*
X69114285Y-38054819D01*
X68876190Y-37007200D02*
X68638095Y-37721485D01*
X68638095Y-37721485D02*
X69257142Y-37721485D01*
X49859580Y-47666666D02*
X49907200Y-47714285D01*
X49907200Y-47714285D02*
X49954819Y-47857142D01*
X49954819Y-47857142D02*
X49954819Y-47952380D01*
X49954819Y-47952380D02*
X49907200Y-48095237D01*
X49907200Y-48095237D02*
X49811961Y-48190475D01*
X49811961Y-48190475D02*
X49716723Y-48238094D01*
X49716723Y-48238094D02*
X49526247Y-48285713D01*
X49526247Y-48285713D02*
X49383390Y-48285713D01*
X49383390Y-48285713D02*
X49192914Y-48238094D01*
X49192914Y-48238094D02*
X49097676Y-48190475D01*
X49097676Y-48190475D02*
X49002438Y-48095237D01*
X49002438Y-48095237D02*
X48954819Y-47952380D01*
X48954819Y-47952380D02*
X48954819Y-47857142D01*
X48954819Y-47857142D02*
X49002438Y-47714285D01*
X49002438Y-47714285D02*
X49050057Y-47666666D01*
X48954819Y-47333332D02*
X48954819Y-46666666D01*
X48954819Y-46666666D02*
X49954819Y-47095237D01*
X76866666Y-24454819D02*
X76866666Y-25169104D01*
X76866666Y-25169104D02*
X76819047Y-25311961D01*
X76819047Y-25311961D02*
X76723809Y-25407200D01*
X76723809Y-25407200D02*
X76580952Y-25454819D01*
X76580952Y-25454819D02*
X76485714Y-25454819D01*
X77866666Y-25454819D02*
X77295238Y-25454819D01*
X77580952Y-25454819D02*
X77580952Y-24454819D01*
X77580952Y-24454819D02*
X77485714Y-24597676D01*
X77485714Y-24597676D02*
X77390476Y-24692914D01*
X77390476Y-24692914D02*
X77295238Y-24740533D01*
X51609580Y-29392857D02*
X51657200Y-29440476D01*
X51657200Y-29440476D02*
X51704819Y-29583333D01*
X51704819Y-29583333D02*
X51704819Y-29678571D01*
X51704819Y-29678571D02*
X51657200Y-29821428D01*
X51657200Y-29821428D02*
X51561961Y-29916666D01*
X51561961Y-29916666D02*
X51466723Y-29964285D01*
X51466723Y-29964285D02*
X51276247Y-30011904D01*
X51276247Y-30011904D02*
X51133390Y-30011904D01*
X51133390Y-30011904D02*
X50942914Y-29964285D01*
X50942914Y-29964285D02*
X50847676Y-29916666D01*
X50847676Y-29916666D02*
X50752438Y-29821428D01*
X50752438Y-29821428D02*
X50704819Y-29678571D01*
X50704819Y-29678571D02*
X50704819Y-29583333D01*
X50704819Y-29583333D02*
X50752438Y-29440476D01*
X50752438Y-29440476D02*
X50800057Y-29392857D01*
X50800057Y-29011904D02*
X50752438Y-28964285D01*
X50752438Y-28964285D02*
X50704819Y-28869047D01*
X50704819Y-28869047D02*
X50704819Y-28630952D01*
X50704819Y-28630952D02*
X50752438Y-28535714D01*
X50752438Y-28535714D02*
X50800057Y-28488095D01*
X50800057Y-28488095D02*
X50895295Y-28440476D01*
X50895295Y-28440476D02*
X50990533Y-28440476D01*
X50990533Y-28440476D02*
X51133390Y-28488095D01*
X51133390Y-28488095D02*
X51704819Y-29059523D01*
X51704819Y-29059523D02*
X51704819Y-28440476D01*
X50704819Y-27821428D02*
X50704819Y-27726190D01*
X50704819Y-27726190D02*
X50752438Y-27630952D01*
X50752438Y-27630952D02*
X50800057Y-27583333D01*
X50800057Y-27583333D02*
X50895295Y-27535714D01*
X50895295Y-27535714D02*
X51085771Y-27488095D01*
X51085771Y-27488095D02*
X51323866Y-27488095D01*
X51323866Y-27488095D02*
X51514342Y-27535714D01*
X51514342Y-27535714D02*
X51609580Y-27583333D01*
X51609580Y-27583333D02*
X51657200Y-27630952D01*
X51657200Y-27630952D02*
X51704819Y-27726190D01*
X51704819Y-27726190D02*
X51704819Y-27821428D01*
X51704819Y-27821428D02*
X51657200Y-27916666D01*
X51657200Y-27916666D02*
X51609580Y-27964285D01*
X51609580Y-27964285D02*
X51514342Y-28011904D01*
X51514342Y-28011904D02*
X51323866Y-28059523D01*
X51323866Y-28059523D02*
X51085771Y-28059523D01*
X51085771Y-28059523D02*
X50895295Y-28011904D01*
X50895295Y-28011904D02*
X50800057Y-27964285D01*
X50800057Y-27964285D02*
X50752438Y-27916666D01*
X50752438Y-27916666D02*
X50704819Y-27821428D01*
X49859580Y-45166666D02*
X49907200Y-45214285D01*
X49907200Y-45214285D02*
X49954819Y-45357142D01*
X49954819Y-45357142D02*
X49954819Y-45452380D01*
X49954819Y-45452380D02*
X49907200Y-45595237D01*
X49907200Y-45595237D02*
X49811961Y-45690475D01*
X49811961Y-45690475D02*
X49716723Y-45738094D01*
X49716723Y-45738094D02*
X49526247Y-45785713D01*
X49526247Y-45785713D02*
X49383390Y-45785713D01*
X49383390Y-45785713D02*
X49192914Y-45738094D01*
X49192914Y-45738094D02*
X49097676Y-45690475D01*
X49097676Y-45690475D02*
X49002438Y-45595237D01*
X49002438Y-45595237D02*
X48954819Y-45452380D01*
X48954819Y-45452380D02*
X48954819Y-45357142D01*
X48954819Y-45357142D02*
X49002438Y-45214285D01*
X49002438Y-45214285D02*
X49050057Y-45166666D01*
X49383390Y-44595237D02*
X49335771Y-44690475D01*
X49335771Y-44690475D02*
X49288152Y-44738094D01*
X49288152Y-44738094D02*
X49192914Y-44785713D01*
X49192914Y-44785713D02*
X49145295Y-44785713D01*
X49145295Y-44785713D02*
X49050057Y-44738094D01*
X49050057Y-44738094D02*
X49002438Y-44690475D01*
X49002438Y-44690475D02*
X48954819Y-44595237D01*
X48954819Y-44595237D02*
X48954819Y-44404761D01*
X48954819Y-44404761D02*
X49002438Y-44309523D01*
X49002438Y-44309523D02*
X49050057Y-44261904D01*
X49050057Y-44261904D02*
X49145295Y-44214285D01*
X49145295Y-44214285D02*
X49192914Y-44214285D01*
X49192914Y-44214285D02*
X49288152Y-44261904D01*
X49288152Y-44261904D02*
X49335771Y-44309523D01*
X49335771Y-44309523D02*
X49383390Y-44404761D01*
X49383390Y-44404761D02*
X49383390Y-44595237D01*
X49383390Y-44595237D02*
X49431009Y-44690475D01*
X49431009Y-44690475D02*
X49478628Y-44738094D01*
X49478628Y-44738094D02*
X49573866Y-44785713D01*
X49573866Y-44785713D02*
X49764342Y-44785713D01*
X49764342Y-44785713D02*
X49859580Y-44738094D01*
X49859580Y-44738094D02*
X49907200Y-44690475D01*
X49907200Y-44690475D02*
X49954819Y-44595237D01*
X49954819Y-44595237D02*
X49954819Y-44404761D01*
X49954819Y-44404761D02*
X49907200Y-44309523D01*
X49907200Y-44309523D02*
X49859580Y-44261904D01*
X49859580Y-44261904D02*
X49764342Y-44214285D01*
X49764342Y-44214285D02*
X49573866Y-44214285D01*
X49573866Y-44214285D02*
X49478628Y-44261904D01*
X49478628Y-44261904D02*
X49431009Y-44309523D01*
X49431009Y-44309523D02*
X49383390Y-44404761D01*
X13157142Y-43359580D02*
X13109523Y-43407200D01*
X13109523Y-43407200D02*
X12966666Y-43454819D01*
X12966666Y-43454819D02*
X12871428Y-43454819D01*
X12871428Y-43454819D02*
X12728571Y-43407200D01*
X12728571Y-43407200D02*
X12633333Y-43311961D01*
X12633333Y-43311961D02*
X12585714Y-43216723D01*
X12585714Y-43216723D02*
X12538095Y-43026247D01*
X12538095Y-43026247D02*
X12538095Y-42883390D01*
X12538095Y-42883390D02*
X12585714Y-42692914D01*
X12585714Y-42692914D02*
X12633333Y-42597676D01*
X12633333Y-42597676D02*
X12728571Y-42502438D01*
X12728571Y-42502438D02*
X12871428Y-42454819D01*
X12871428Y-42454819D02*
X12966666Y-42454819D01*
X12966666Y-42454819D02*
X13109523Y-42502438D01*
X13109523Y-42502438D02*
X13157142Y-42550057D01*
X13490476Y-42454819D02*
X14109523Y-42454819D01*
X14109523Y-42454819D02*
X13776190Y-42835771D01*
X13776190Y-42835771D02*
X13919047Y-42835771D01*
X13919047Y-42835771D02*
X14014285Y-42883390D01*
X14014285Y-42883390D02*
X14061904Y-42931009D01*
X14061904Y-42931009D02*
X14109523Y-43026247D01*
X14109523Y-43026247D02*
X14109523Y-43264342D01*
X14109523Y-43264342D02*
X14061904Y-43359580D01*
X14061904Y-43359580D02*
X14014285Y-43407200D01*
X14014285Y-43407200D02*
X13919047Y-43454819D01*
X13919047Y-43454819D02*
X13633333Y-43454819D01*
X13633333Y-43454819D02*
X13538095Y-43407200D01*
X13538095Y-43407200D02*
X13490476Y-43359580D01*
X14966666Y-42788152D02*
X14966666Y-43454819D01*
X14728571Y-42407200D02*
X14490476Y-43121485D01*
X14490476Y-43121485D02*
X15109523Y-43121485D01*
X23854819Y-42442857D02*
X23378628Y-42776190D01*
X23854819Y-43014285D02*
X22854819Y-43014285D01*
X22854819Y-43014285D02*
X22854819Y-42633333D01*
X22854819Y-42633333D02*
X22902438Y-42538095D01*
X22902438Y-42538095D02*
X22950057Y-42490476D01*
X22950057Y-42490476D02*
X23045295Y-42442857D01*
X23045295Y-42442857D02*
X23188152Y-42442857D01*
X23188152Y-42442857D02*
X23283390Y-42490476D01*
X23283390Y-42490476D02*
X23331009Y-42538095D01*
X23331009Y-42538095D02*
X23378628Y-42633333D01*
X23378628Y-42633333D02*
X23378628Y-43014285D01*
X23854819Y-41490476D02*
X23854819Y-42061904D01*
X23854819Y-41776190D02*
X22854819Y-41776190D01*
X22854819Y-41776190D02*
X22997676Y-41871428D01*
X22997676Y-41871428D02*
X23092914Y-41966666D01*
X23092914Y-41966666D02*
X23140533Y-42061904D01*
X22854819Y-41157142D02*
X22854819Y-40490476D01*
X22854819Y-40490476D02*
X23854819Y-40919047D01*
X49954819Y-50642857D02*
X49478628Y-50976190D01*
X49954819Y-51214285D02*
X48954819Y-51214285D01*
X48954819Y-51214285D02*
X48954819Y-50833333D01*
X48954819Y-50833333D02*
X49002438Y-50738095D01*
X49002438Y-50738095D02*
X49050057Y-50690476D01*
X49050057Y-50690476D02*
X49145295Y-50642857D01*
X49145295Y-50642857D02*
X49288152Y-50642857D01*
X49288152Y-50642857D02*
X49383390Y-50690476D01*
X49383390Y-50690476D02*
X49431009Y-50738095D01*
X49431009Y-50738095D02*
X49478628Y-50833333D01*
X49478628Y-50833333D02*
X49478628Y-51214285D01*
X49954819Y-49690476D02*
X49954819Y-50261904D01*
X49954819Y-49976190D02*
X48954819Y-49976190D01*
X48954819Y-49976190D02*
X49097676Y-50071428D01*
X49097676Y-50071428D02*
X49192914Y-50166666D01*
X49192914Y-50166666D02*
X49240533Y-50261904D01*
X48954819Y-48785714D02*
X48954819Y-49261904D01*
X48954819Y-49261904D02*
X49431009Y-49309523D01*
X49431009Y-49309523D02*
X49383390Y-49261904D01*
X49383390Y-49261904D02*
X49335771Y-49166666D01*
X49335771Y-49166666D02*
X49335771Y-48928571D01*
X49335771Y-48928571D02*
X49383390Y-48833333D01*
X49383390Y-48833333D02*
X49431009Y-48785714D01*
X49431009Y-48785714D02*
X49526247Y-48738095D01*
X49526247Y-48738095D02*
X49764342Y-48738095D01*
X49764342Y-48738095D02*
X49859580Y-48785714D01*
X49859580Y-48785714D02*
X49907200Y-48833333D01*
X49907200Y-48833333D02*
X49954819Y-48928571D01*
X49954819Y-48928571D02*
X49954819Y-49166666D01*
X49954819Y-49166666D02*
X49907200Y-49261904D01*
X49907200Y-49261904D02*
X49859580Y-49309523D01*
X65704761Y-27550057D02*
X65609523Y-27502438D01*
X65609523Y-27502438D02*
X65514285Y-27407200D01*
X65514285Y-27407200D02*
X65371428Y-27264342D01*
X65371428Y-27264342D02*
X65276190Y-27216723D01*
X65276190Y-27216723D02*
X65180952Y-27216723D01*
X65228571Y-27454819D02*
X65133333Y-27407200D01*
X65133333Y-27407200D02*
X65038095Y-27311961D01*
X65038095Y-27311961D02*
X64990476Y-27121485D01*
X64990476Y-27121485D02*
X64990476Y-26788152D01*
X64990476Y-26788152D02*
X65038095Y-26597676D01*
X65038095Y-26597676D02*
X65133333Y-26502438D01*
X65133333Y-26502438D02*
X65228571Y-26454819D01*
X65228571Y-26454819D02*
X65419047Y-26454819D01*
X65419047Y-26454819D02*
X65514285Y-26502438D01*
X65514285Y-26502438D02*
X65609523Y-26597676D01*
X65609523Y-26597676D02*
X65657142Y-26788152D01*
X65657142Y-26788152D02*
X65657142Y-27121485D01*
X65657142Y-27121485D02*
X65609523Y-27311961D01*
X65609523Y-27311961D02*
X65514285Y-27407200D01*
X65514285Y-27407200D02*
X65419047Y-27454819D01*
X65419047Y-27454819D02*
X65228571Y-27454819D01*
X66228571Y-26883390D02*
X66133333Y-26835771D01*
X66133333Y-26835771D02*
X66085714Y-26788152D01*
X66085714Y-26788152D02*
X66038095Y-26692914D01*
X66038095Y-26692914D02*
X66038095Y-26645295D01*
X66038095Y-26645295D02*
X66085714Y-26550057D01*
X66085714Y-26550057D02*
X66133333Y-26502438D01*
X66133333Y-26502438D02*
X66228571Y-26454819D01*
X66228571Y-26454819D02*
X66419047Y-26454819D01*
X66419047Y-26454819D02*
X66514285Y-26502438D01*
X66514285Y-26502438D02*
X66561904Y-26550057D01*
X66561904Y-26550057D02*
X66609523Y-26645295D01*
X66609523Y-26645295D02*
X66609523Y-26692914D01*
X66609523Y-26692914D02*
X66561904Y-26788152D01*
X66561904Y-26788152D02*
X66514285Y-26835771D01*
X66514285Y-26835771D02*
X66419047Y-26883390D01*
X66419047Y-26883390D02*
X66228571Y-26883390D01*
X66228571Y-26883390D02*
X66133333Y-26931009D01*
X66133333Y-26931009D02*
X66085714Y-26978628D01*
X66085714Y-26978628D02*
X66038095Y-27073866D01*
X66038095Y-27073866D02*
X66038095Y-27264342D01*
X66038095Y-27264342D02*
X66085714Y-27359580D01*
X66085714Y-27359580D02*
X66133333Y-27407200D01*
X66133333Y-27407200D02*
X66228571Y-27454819D01*
X66228571Y-27454819D02*
X66419047Y-27454819D01*
X66419047Y-27454819D02*
X66514285Y-27407200D01*
X66514285Y-27407200D02*
X66561904Y-27359580D01*
X66561904Y-27359580D02*
X66609523Y-27264342D01*
X66609523Y-27264342D02*
X66609523Y-27073866D01*
X66609523Y-27073866D02*
X66561904Y-26978628D01*
X66561904Y-26978628D02*
X66514285Y-26931009D01*
X66514285Y-26931009D02*
X66419047Y-26883390D01*
X37404761Y-18050057D02*
X37309523Y-18002438D01*
X37309523Y-18002438D02*
X37214285Y-17907200D01*
X37214285Y-17907200D02*
X37071428Y-17764342D01*
X37071428Y-17764342D02*
X36976190Y-17716723D01*
X36976190Y-17716723D02*
X36880952Y-17716723D01*
X36928571Y-17954819D02*
X36833333Y-17907200D01*
X36833333Y-17907200D02*
X36738095Y-17811961D01*
X36738095Y-17811961D02*
X36690476Y-17621485D01*
X36690476Y-17621485D02*
X36690476Y-17288152D01*
X36690476Y-17288152D02*
X36738095Y-17097676D01*
X36738095Y-17097676D02*
X36833333Y-17002438D01*
X36833333Y-17002438D02*
X36928571Y-16954819D01*
X36928571Y-16954819D02*
X37119047Y-16954819D01*
X37119047Y-16954819D02*
X37214285Y-17002438D01*
X37214285Y-17002438D02*
X37309523Y-17097676D01*
X37309523Y-17097676D02*
X37357142Y-17288152D01*
X37357142Y-17288152D02*
X37357142Y-17621485D01*
X37357142Y-17621485D02*
X37309523Y-17811961D01*
X37309523Y-17811961D02*
X37214285Y-17907200D01*
X37214285Y-17907200D02*
X37119047Y-17954819D01*
X37119047Y-17954819D02*
X36928571Y-17954819D01*
X37738095Y-17050057D02*
X37785714Y-17002438D01*
X37785714Y-17002438D02*
X37880952Y-16954819D01*
X37880952Y-16954819D02*
X38119047Y-16954819D01*
X38119047Y-16954819D02*
X38214285Y-17002438D01*
X38214285Y-17002438D02*
X38261904Y-17050057D01*
X38261904Y-17050057D02*
X38309523Y-17145295D01*
X38309523Y-17145295D02*
X38309523Y-17240533D01*
X38309523Y-17240533D02*
X38261904Y-17383390D01*
X38261904Y-17383390D02*
X37690476Y-17954819D01*
X37690476Y-17954819D02*
X38309523Y-17954819D01*
X63454819Y-34042857D02*
X62978628Y-34376190D01*
X63454819Y-34614285D02*
X62454819Y-34614285D01*
X62454819Y-34614285D02*
X62454819Y-34233333D01*
X62454819Y-34233333D02*
X62502438Y-34138095D01*
X62502438Y-34138095D02*
X62550057Y-34090476D01*
X62550057Y-34090476D02*
X62645295Y-34042857D01*
X62645295Y-34042857D02*
X62788152Y-34042857D01*
X62788152Y-34042857D02*
X62883390Y-34090476D01*
X62883390Y-34090476D02*
X62931009Y-34138095D01*
X62931009Y-34138095D02*
X62978628Y-34233333D01*
X62978628Y-34233333D02*
X62978628Y-34614285D01*
X63454819Y-33090476D02*
X63454819Y-33661904D01*
X63454819Y-33376190D02*
X62454819Y-33376190D01*
X62454819Y-33376190D02*
X62597676Y-33471428D01*
X62597676Y-33471428D02*
X62692914Y-33566666D01*
X62692914Y-33566666D02*
X62740533Y-33661904D01*
X62454819Y-32233333D02*
X62454819Y-32423809D01*
X62454819Y-32423809D02*
X62502438Y-32519047D01*
X62502438Y-32519047D02*
X62550057Y-32566666D01*
X62550057Y-32566666D02*
X62692914Y-32661904D01*
X62692914Y-32661904D02*
X62883390Y-32709523D01*
X62883390Y-32709523D02*
X63264342Y-32709523D01*
X63264342Y-32709523D02*
X63359580Y-32661904D01*
X63359580Y-32661904D02*
X63407200Y-32614285D01*
X63407200Y-32614285D02*
X63454819Y-32519047D01*
X63454819Y-32519047D02*
X63454819Y-32328571D01*
X63454819Y-32328571D02*
X63407200Y-32233333D01*
X63407200Y-32233333D02*
X63359580Y-32185714D01*
X63359580Y-32185714D02*
X63264342Y-32138095D01*
X63264342Y-32138095D02*
X63026247Y-32138095D01*
X63026247Y-32138095D02*
X62931009Y-32185714D01*
X62931009Y-32185714D02*
X62883390Y-32233333D01*
X62883390Y-32233333D02*
X62835771Y-32328571D01*
X62835771Y-32328571D02*
X62835771Y-32519047D01*
X62835771Y-32519047D02*
X62883390Y-32614285D01*
X62883390Y-32614285D02*
X62931009Y-32661904D01*
X62931009Y-32661904D02*
X63026247Y-32709523D01*
X53692658Y-39191676D02*
X53359325Y-38715485D01*
X53121230Y-39191676D02*
X53121230Y-38191676D01*
X53121230Y-38191676D02*
X53502182Y-38191676D01*
X53502182Y-38191676D02*
X53597420Y-38239295D01*
X53597420Y-38239295D02*
X53645039Y-38286914D01*
X53645039Y-38286914D02*
X53692658Y-38382152D01*
X53692658Y-38382152D02*
X53692658Y-38525009D01*
X53692658Y-38525009D02*
X53645039Y-38620247D01*
X53645039Y-38620247D02*
X53597420Y-38667866D01*
X53597420Y-38667866D02*
X53502182Y-38715485D01*
X53502182Y-38715485D02*
X53121230Y-38715485D01*
X54549801Y-38525009D02*
X54549801Y-39191676D01*
X54311706Y-38144057D02*
X54073611Y-38858342D01*
X54073611Y-38858342D02*
X54692658Y-38858342D01*
X54609580Y-29392857D02*
X54657200Y-29440476D01*
X54657200Y-29440476D02*
X54704819Y-29583333D01*
X54704819Y-29583333D02*
X54704819Y-29678571D01*
X54704819Y-29678571D02*
X54657200Y-29821428D01*
X54657200Y-29821428D02*
X54561961Y-29916666D01*
X54561961Y-29916666D02*
X54466723Y-29964285D01*
X54466723Y-29964285D02*
X54276247Y-30011904D01*
X54276247Y-30011904D02*
X54133390Y-30011904D01*
X54133390Y-30011904D02*
X53942914Y-29964285D01*
X53942914Y-29964285D02*
X53847676Y-29916666D01*
X53847676Y-29916666D02*
X53752438Y-29821428D01*
X53752438Y-29821428D02*
X53704819Y-29678571D01*
X53704819Y-29678571D02*
X53704819Y-29583333D01*
X53704819Y-29583333D02*
X53752438Y-29440476D01*
X53752438Y-29440476D02*
X53800057Y-29392857D01*
X54704819Y-28440476D02*
X54704819Y-29011904D01*
X54704819Y-28726190D02*
X53704819Y-28726190D01*
X53704819Y-28726190D02*
X53847676Y-28821428D01*
X53847676Y-28821428D02*
X53942914Y-28916666D01*
X53942914Y-28916666D02*
X53990533Y-29011904D01*
X54704819Y-27964285D02*
X54704819Y-27773809D01*
X54704819Y-27773809D02*
X54657200Y-27678571D01*
X54657200Y-27678571D02*
X54609580Y-27630952D01*
X54609580Y-27630952D02*
X54466723Y-27535714D01*
X54466723Y-27535714D02*
X54276247Y-27488095D01*
X54276247Y-27488095D02*
X53895295Y-27488095D01*
X53895295Y-27488095D02*
X53800057Y-27535714D01*
X53800057Y-27535714D02*
X53752438Y-27583333D01*
X53752438Y-27583333D02*
X53704819Y-27678571D01*
X53704819Y-27678571D02*
X53704819Y-27869047D01*
X53704819Y-27869047D02*
X53752438Y-27964285D01*
X53752438Y-27964285D02*
X53800057Y-28011904D01*
X53800057Y-28011904D02*
X53895295Y-28059523D01*
X53895295Y-28059523D02*
X54133390Y-28059523D01*
X54133390Y-28059523D02*
X54228628Y-28011904D01*
X54228628Y-28011904D02*
X54276247Y-27964285D01*
X54276247Y-27964285D02*
X54323866Y-27869047D01*
X54323866Y-27869047D02*
X54323866Y-27678571D01*
X54323866Y-27678571D02*
X54276247Y-27583333D01*
X54276247Y-27583333D02*
X54228628Y-27535714D01*
X54228628Y-27535714D02*
X54133390Y-27488095D01*
X44404761Y-33300057D02*
X44309523Y-33252438D01*
X44309523Y-33252438D02*
X44214285Y-33157200D01*
X44214285Y-33157200D02*
X44071428Y-33014342D01*
X44071428Y-33014342D02*
X43976190Y-32966723D01*
X43976190Y-32966723D02*
X43880952Y-32966723D01*
X43928571Y-33204819D02*
X43833333Y-33157200D01*
X43833333Y-33157200D02*
X43738095Y-33061961D01*
X43738095Y-33061961D02*
X43690476Y-32871485D01*
X43690476Y-32871485D02*
X43690476Y-32538152D01*
X43690476Y-32538152D02*
X43738095Y-32347676D01*
X43738095Y-32347676D02*
X43833333Y-32252438D01*
X43833333Y-32252438D02*
X43928571Y-32204819D01*
X43928571Y-32204819D02*
X44119047Y-32204819D01*
X44119047Y-32204819D02*
X44214285Y-32252438D01*
X44214285Y-32252438D02*
X44309523Y-32347676D01*
X44309523Y-32347676D02*
X44357142Y-32538152D01*
X44357142Y-32538152D02*
X44357142Y-32871485D01*
X44357142Y-32871485D02*
X44309523Y-33061961D01*
X44309523Y-33061961D02*
X44214285Y-33157200D01*
X44214285Y-33157200D02*
X44119047Y-33204819D01*
X44119047Y-33204819D02*
X43928571Y-33204819D01*
X44690476Y-32204819D02*
X45309523Y-32204819D01*
X45309523Y-32204819D02*
X44976190Y-32585771D01*
X44976190Y-32585771D02*
X45119047Y-32585771D01*
X45119047Y-32585771D02*
X45214285Y-32633390D01*
X45214285Y-32633390D02*
X45261904Y-32681009D01*
X45261904Y-32681009D02*
X45309523Y-32776247D01*
X45309523Y-32776247D02*
X45309523Y-33014342D01*
X45309523Y-33014342D02*
X45261904Y-33109580D01*
X45261904Y-33109580D02*
X45214285Y-33157200D01*
X45214285Y-33157200D02*
X45119047Y-33204819D01*
X45119047Y-33204819D02*
X44833333Y-33204819D01*
X44833333Y-33204819D02*
X44738095Y-33157200D01*
X44738095Y-33157200D02*
X44690476Y-33109580D01*
X30859580Y-43142857D02*
X30907200Y-43190476D01*
X30907200Y-43190476D02*
X30954819Y-43333333D01*
X30954819Y-43333333D02*
X30954819Y-43428571D01*
X30954819Y-43428571D02*
X30907200Y-43571428D01*
X30907200Y-43571428D02*
X30811961Y-43666666D01*
X30811961Y-43666666D02*
X30716723Y-43714285D01*
X30716723Y-43714285D02*
X30526247Y-43761904D01*
X30526247Y-43761904D02*
X30383390Y-43761904D01*
X30383390Y-43761904D02*
X30192914Y-43714285D01*
X30192914Y-43714285D02*
X30097676Y-43666666D01*
X30097676Y-43666666D02*
X30002438Y-43571428D01*
X30002438Y-43571428D02*
X29954819Y-43428571D01*
X29954819Y-43428571D02*
X29954819Y-43333333D01*
X29954819Y-43333333D02*
X30002438Y-43190476D01*
X30002438Y-43190476D02*
X30050057Y-43142857D01*
X29954819Y-42809523D02*
X29954819Y-42190476D01*
X29954819Y-42190476D02*
X30335771Y-42523809D01*
X30335771Y-42523809D02*
X30335771Y-42380952D01*
X30335771Y-42380952D02*
X30383390Y-42285714D01*
X30383390Y-42285714D02*
X30431009Y-42238095D01*
X30431009Y-42238095D02*
X30526247Y-42190476D01*
X30526247Y-42190476D02*
X30764342Y-42190476D01*
X30764342Y-42190476D02*
X30859580Y-42238095D01*
X30859580Y-42238095D02*
X30907200Y-42285714D01*
X30907200Y-42285714D02*
X30954819Y-42380952D01*
X30954819Y-42380952D02*
X30954819Y-42666666D01*
X30954819Y-42666666D02*
X30907200Y-42761904D01*
X30907200Y-42761904D02*
X30859580Y-42809523D01*
X29954819Y-41285714D02*
X29954819Y-41761904D01*
X29954819Y-41761904D02*
X30431009Y-41809523D01*
X30431009Y-41809523D02*
X30383390Y-41761904D01*
X30383390Y-41761904D02*
X30335771Y-41666666D01*
X30335771Y-41666666D02*
X30335771Y-41428571D01*
X30335771Y-41428571D02*
X30383390Y-41333333D01*
X30383390Y-41333333D02*
X30431009Y-41285714D01*
X30431009Y-41285714D02*
X30526247Y-41238095D01*
X30526247Y-41238095D02*
X30764342Y-41238095D01*
X30764342Y-41238095D02*
X30859580Y-41285714D01*
X30859580Y-41285714D02*
X30907200Y-41333333D01*
X30907200Y-41333333D02*
X30954819Y-41428571D01*
X30954819Y-41428571D02*
X30954819Y-41666666D01*
X30954819Y-41666666D02*
X30907200Y-41761904D01*
X30907200Y-41761904D02*
X30859580Y-41809523D01*
X32357142Y-50759580D02*
X32309523Y-50807200D01*
X32309523Y-50807200D02*
X32166666Y-50854819D01*
X32166666Y-50854819D02*
X32071428Y-50854819D01*
X32071428Y-50854819D02*
X31928571Y-50807200D01*
X31928571Y-50807200D02*
X31833333Y-50711961D01*
X31833333Y-50711961D02*
X31785714Y-50616723D01*
X31785714Y-50616723D02*
X31738095Y-50426247D01*
X31738095Y-50426247D02*
X31738095Y-50283390D01*
X31738095Y-50283390D02*
X31785714Y-50092914D01*
X31785714Y-50092914D02*
X31833333Y-49997676D01*
X31833333Y-49997676D02*
X31928571Y-49902438D01*
X31928571Y-49902438D02*
X32071428Y-49854819D01*
X32071428Y-49854819D02*
X32166666Y-49854819D01*
X32166666Y-49854819D02*
X32309523Y-49902438D01*
X32309523Y-49902438D02*
X32357142Y-49950057D01*
X33309523Y-50854819D02*
X32738095Y-50854819D01*
X33023809Y-50854819D02*
X33023809Y-49854819D01*
X33023809Y-49854819D02*
X32928571Y-49997676D01*
X32928571Y-49997676D02*
X32833333Y-50092914D01*
X32833333Y-50092914D02*
X32738095Y-50140533D01*
X33928571Y-49854819D02*
X34023809Y-49854819D01*
X34023809Y-49854819D02*
X34119047Y-49902438D01*
X34119047Y-49902438D02*
X34166666Y-49950057D01*
X34166666Y-49950057D02*
X34214285Y-50045295D01*
X34214285Y-50045295D02*
X34261904Y-50235771D01*
X34261904Y-50235771D02*
X34261904Y-50473866D01*
X34261904Y-50473866D02*
X34214285Y-50664342D01*
X34214285Y-50664342D02*
X34166666Y-50759580D01*
X34166666Y-50759580D02*
X34119047Y-50807200D01*
X34119047Y-50807200D02*
X34023809Y-50854819D01*
X34023809Y-50854819D02*
X33928571Y-50854819D01*
X33928571Y-50854819D02*
X33833333Y-50807200D01*
X33833333Y-50807200D02*
X33785714Y-50759580D01*
X33785714Y-50759580D02*
X33738095Y-50664342D01*
X33738095Y-50664342D02*
X33690476Y-50473866D01*
X33690476Y-50473866D02*
X33690476Y-50235771D01*
X33690476Y-50235771D02*
X33738095Y-50045295D01*
X33738095Y-50045295D02*
X33785714Y-49950057D01*
X33785714Y-49950057D02*
X33833333Y-49902438D01*
X33833333Y-49902438D02*
X33928571Y-49854819D01*
X61654819Y-34092857D02*
X61178628Y-34426190D01*
X61654819Y-34664285D02*
X60654819Y-34664285D01*
X60654819Y-34664285D02*
X60654819Y-34283333D01*
X60654819Y-34283333D02*
X60702438Y-34188095D01*
X60702438Y-34188095D02*
X60750057Y-34140476D01*
X60750057Y-34140476D02*
X60845295Y-34092857D01*
X60845295Y-34092857D02*
X60988152Y-34092857D01*
X60988152Y-34092857D02*
X61083390Y-34140476D01*
X61083390Y-34140476D02*
X61131009Y-34188095D01*
X61131009Y-34188095D02*
X61178628Y-34283333D01*
X61178628Y-34283333D02*
X61178628Y-34664285D01*
X61654819Y-33140476D02*
X61654819Y-33711904D01*
X61654819Y-33426190D02*
X60654819Y-33426190D01*
X60654819Y-33426190D02*
X60797676Y-33521428D01*
X60797676Y-33521428D02*
X60892914Y-33616666D01*
X60892914Y-33616666D02*
X60940533Y-33711904D01*
X60750057Y-32759523D02*
X60702438Y-32711904D01*
X60702438Y-32711904D02*
X60654819Y-32616666D01*
X60654819Y-32616666D02*
X60654819Y-32378571D01*
X60654819Y-32378571D02*
X60702438Y-32283333D01*
X60702438Y-32283333D02*
X60750057Y-32235714D01*
X60750057Y-32235714D02*
X60845295Y-32188095D01*
X60845295Y-32188095D02*
X60940533Y-32188095D01*
X60940533Y-32188095D02*
X61083390Y-32235714D01*
X61083390Y-32235714D02*
X61654819Y-32807142D01*
X61654819Y-32807142D02*
X61654819Y-32188095D01*
X35784580Y-42566666D02*
X35832200Y-42614285D01*
X35832200Y-42614285D02*
X35879819Y-42757142D01*
X35879819Y-42757142D02*
X35879819Y-42852380D01*
X35879819Y-42852380D02*
X35832200Y-42995237D01*
X35832200Y-42995237D02*
X35736961Y-43090475D01*
X35736961Y-43090475D02*
X35641723Y-43138094D01*
X35641723Y-43138094D02*
X35451247Y-43185713D01*
X35451247Y-43185713D02*
X35308390Y-43185713D01*
X35308390Y-43185713D02*
X35117914Y-43138094D01*
X35117914Y-43138094D02*
X35022676Y-43090475D01*
X35022676Y-43090475D02*
X34927438Y-42995237D01*
X34927438Y-42995237D02*
X34879819Y-42852380D01*
X34879819Y-42852380D02*
X34879819Y-42757142D01*
X34879819Y-42757142D02*
X34927438Y-42614285D01*
X34927438Y-42614285D02*
X34975057Y-42566666D01*
X34879819Y-41661904D02*
X34879819Y-42138094D01*
X34879819Y-42138094D02*
X35356009Y-42185713D01*
X35356009Y-42185713D02*
X35308390Y-42138094D01*
X35308390Y-42138094D02*
X35260771Y-42042856D01*
X35260771Y-42042856D02*
X35260771Y-41804761D01*
X35260771Y-41804761D02*
X35308390Y-41709523D01*
X35308390Y-41709523D02*
X35356009Y-41661904D01*
X35356009Y-41661904D02*
X35451247Y-41614285D01*
X35451247Y-41614285D02*
X35689342Y-41614285D01*
X35689342Y-41614285D02*
X35784580Y-41661904D01*
X35784580Y-41661904D02*
X35832200Y-41709523D01*
X35832200Y-41709523D02*
X35879819Y-41804761D01*
X35879819Y-41804761D02*
X35879819Y-42042856D01*
X35879819Y-42042856D02*
X35832200Y-42138094D01*
X35832200Y-42138094D02*
X35784580Y-42185713D01*
X20357142Y-38959580D02*
X20309523Y-39007200D01*
X20309523Y-39007200D02*
X20166666Y-39054819D01*
X20166666Y-39054819D02*
X20071428Y-39054819D01*
X20071428Y-39054819D02*
X19928571Y-39007200D01*
X19928571Y-39007200D02*
X19833333Y-38911961D01*
X19833333Y-38911961D02*
X19785714Y-38816723D01*
X19785714Y-38816723D02*
X19738095Y-38626247D01*
X19738095Y-38626247D02*
X19738095Y-38483390D01*
X19738095Y-38483390D02*
X19785714Y-38292914D01*
X19785714Y-38292914D02*
X19833333Y-38197676D01*
X19833333Y-38197676D02*
X19928571Y-38102438D01*
X19928571Y-38102438D02*
X20071428Y-38054819D01*
X20071428Y-38054819D02*
X20166666Y-38054819D01*
X20166666Y-38054819D02*
X20309523Y-38102438D01*
X20309523Y-38102438D02*
X20357142Y-38150057D01*
X20738095Y-38150057D02*
X20785714Y-38102438D01*
X20785714Y-38102438D02*
X20880952Y-38054819D01*
X20880952Y-38054819D02*
X21119047Y-38054819D01*
X21119047Y-38054819D02*
X21214285Y-38102438D01*
X21214285Y-38102438D02*
X21261904Y-38150057D01*
X21261904Y-38150057D02*
X21309523Y-38245295D01*
X21309523Y-38245295D02*
X21309523Y-38340533D01*
X21309523Y-38340533D02*
X21261904Y-38483390D01*
X21261904Y-38483390D02*
X20690476Y-39054819D01*
X20690476Y-39054819D02*
X21309523Y-39054819D01*
X21642857Y-38054819D02*
X22309523Y-38054819D01*
X22309523Y-38054819D02*
X21880952Y-39054819D01*
X35614580Y-38266666D02*
X35662200Y-38314285D01*
X35662200Y-38314285D02*
X35709819Y-38457142D01*
X35709819Y-38457142D02*
X35709819Y-38552380D01*
X35709819Y-38552380D02*
X35662200Y-38695237D01*
X35662200Y-38695237D02*
X35566961Y-38790475D01*
X35566961Y-38790475D02*
X35471723Y-38838094D01*
X35471723Y-38838094D02*
X35281247Y-38885713D01*
X35281247Y-38885713D02*
X35138390Y-38885713D01*
X35138390Y-38885713D02*
X34947914Y-38838094D01*
X34947914Y-38838094D02*
X34852676Y-38790475D01*
X34852676Y-38790475D02*
X34757438Y-38695237D01*
X34757438Y-38695237D02*
X34709819Y-38552380D01*
X34709819Y-38552380D02*
X34709819Y-38457142D01*
X34709819Y-38457142D02*
X34757438Y-38314285D01*
X34757438Y-38314285D02*
X34805057Y-38266666D01*
X34709819Y-37933332D02*
X34709819Y-37314285D01*
X34709819Y-37314285D02*
X35090771Y-37647618D01*
X35090771Y-37647618D02*
X35090771Y-37504761D01*
X35090771Y-37504761D02*
X35138390Y-37409523D01*
X35138390Y-37409523D02*
X35186009Y-37361904D01*
X35186009Y-37361904D02*
X35281247Y-37314285D01*
X35281247Y-37314285D02*
X35519342Y-37314285D01*
X35519342Y-37314285D02*
X35614580Y-37361904D01*
X35614580Y-37361904D02*
X35662200Y-37409523D01*
X35662200Y-37409523D02*
X35709819Y-37504761D01*
X35709819Y-37504761D02*
X35709819Y-37790475D01*
X35709819Y-37790475D02*
X35662200Y-37885713D01*
X35662200Y-37885713D02*
X35614580Y-37933332D01*
X43454819Y-50642857D02*
X42978628Y-50976190D01*
X43454819Y-51214285D02*
X42454819Y-51214285D01*
X42454819Y-51214285D02*
X42454819Y-50833333D01*
X42454819Y-50833333D02*
X42502438Y-50738095D01*
X42502438Y-50738095D02*
X42550057Y-50690476D01*
X42550057Y-50690476D02*
X42645295Y-50642857D01*
X42645295Y-50642857D02*
X42788152Y-50642857D01*
X42788152Y-50642857D02*
X42883390Y-50690476D01*
X42883390Y-50690476D02*
X42931009Y-50738095D01*
X42931009Y-50738095D02*
X42978628Y-50833333D01*
X42978628Y-50833333D02*
X42978628Y-51214285D01*
X43454819Y-49690476D02*
X43454819Y-50261904D01*
X43454819Y-49976190D02*
X42454819Y-49976190D01*
X42454819Y-49976190D02*
X42597676Y-50071428D01*
X42597676Y-50071428D02*
X42692914Y-50166666D01*
X42692914Y-50166666D02*
X42740533Y-50261904D01*
X42454819Y-49071428D02*
X42454819Y-48976190D01*
X42454819Y-48976190D02*
X42502438Y-48880952D01*
X42502438Y-48880952D02*
X42550057Y-48833333D01*
X42550057Y-48833333D02*
X42645295Y-48785714D01*
X42645295Y-48785714D02*
X42835771Y-48738095D01*
X42835771Y-48738095D02*
X43073866Y-48738095D01*
X43073866Y-48738095D02*
X43264342Y-48785714D01*
X43264342Y-48785714D02*
X43359580Y-48833333D01*
X43359580Y-48833333D02*
X43407200Y-48880952D01*
X43407200Y-48880952D02*
X43454819Y-48976190D01*
X43454819Y-48976190D02*
X43454819Y-49071428D01*
X43454819Y-49071428D02*
X43407200Y-49166666D01*
X43407200Y-49166666D02*
X43359580Y-49214285D01*
X43359580Y-49214285D02*
X43264342Y-49261904D01*
X43264342Y-49261904D02*
X43073866Y-49309523D01*
X43073866Y-49309523D02*
X42835771Y-49309523D01*
X42835771Y-49309523D02*
X42645295Y-49261904D01*
X42645295Y-49261904D02*
X42550057Y-49214285D01*
X42550057Y-49214285D02*
X42502438Y-49166666D01*
X42502438Y-49166666D02*
X42454819Y-49071428D01*
X45109580Y-45166666D02*
X45157200Y-45214285D01*
X45157200Y-45214285D02*
X45204819Y-45357142D01*
X45204819Y-45357142D02*
X45204819Y-45452380D01*
X45204819Y-45452380D02*
X45157200Y-45595237D01*
X45157200Y-45595237D02*
X45061961Y-45690475D01*
X45061961Y-45690475D02*
X44966723Y-45738094D01*
X44966723Y-45738094D02*
X44776247Y-45785713D01*
X44776247Y-45785713D02*
X44633390Y-45785713D01*
X44633390Y-45785713D02*
X44442914Y-45738094D01*
X44442914Y-45738094D02*
X44347676Y-45690475D01*
X44347676Y-45690475D02*
X44252438Y-45595237D01*
X44252438Y-45595237D02*
X44204819Y-45452380D01*
X44204819Y-45452380D02*
X44204819Y-45357142D01*
X44204819Y-45357142D02*
X44252438Y-45214285D01*
X44252438Y-45214285D02*
X44300057Y-45166666D01*
X45204819Y-44690475D02*
X45204819Y-44499999D01*
X45204819Y-44499999D02*
X45157200Y-44404761D01*
X45157200Y-44404761D02*
X45109580Y-44357142D01*
X45109580Y-44357142D02*
X44966723Y-44261904D01*
X44966723Y-44261904D02*
X44776247Y-44214285D01*
X44776247Y-44214285D02*
X44395295Y-44214285D01*
X44395295Y-44214285D02*
X44300057Y-44261904D01*
X44300057Y-44261904D02*
X44252438Y-44309523D01*
X44252438Y-44309523D02*
X44204819Y-44404761D01*
X44204819Y-44404761D02*
X44204819Y-44595237D01*
X44204819Y-44595237D02*
X44252438Y-44690475D01*
X44252438Y-44690475D02*
X44300057Y-44738094D01*
X44300057Y-44738094D02*
X44395295Y-44785713D01*
X44395295Y-44785713D02*
X44633390Y-44785713D01*
X44633390Y-44785713D02*
X44728628Y-44738094D01*
X44728628Y-44738094D02*
X44776247Y-44690475D01*
X44776247Y-44690475D02*
X44823866Y-44595237D01*
X44823866Y-44595237D02*
X44823866Y-44404761D01*
X44823866Y-44404761D02*
X44776247Y-44309523D01*
X44776247Y-44309523D02*
X44728628Y-44261904D01*
X44728628Y-44261904D02*
X44633390Y-44214285D01*
X20454819Y-25333333D02*
X21169104Y-25333333D01*
X21169104Y-25333333D02*
X21311961Y-25380952D01*
X21311961Y-25380952D02*
X21407200Y-25476190D01*
X21407200Y-25476190D02*
X21454819Y-25619047D01*
X21454819Y-25619047D02*
X21454819Y-25714285D01*
X20454819Y-24952380D02*
X20454819Y-24333333D01*
X20454819Y-24333333D02*
X20835771Y-24666666D01*
X20835771Y-24666666D02*
X20835771Y-24523809D01*
X20835771Y-24523809D02*
X20883390Y-24428571D01*
X20883390Y-24428571D02*
X20931009Y-24380952D01*
X20931009Y-24380952D02*
X21026247Y-24333333D01*
X21026247Y-24333333D02*
X21264342Y-24333333D01*
X21264342Y-24333333D02*
X21359580Y-24380952D01*
X21359580Y-24380952D02*
X21407200Y-24428571D01*
X21407200Y-24428571D02*
X21454819Y-24523809D01*
X21454819Y-24523809D02*
X21454819Y-24809523D01*
X21454819Y-24809523D02*
X21407200Y-24904761D01*
X21407200Y-24904761D02*
X21359580Y-24952380D01*
X23364700Y-31971428D02*
X23364700Y-30828571D01*
X23364700Y-19671428D02*
X23364700Y-18528571D01*
X23936128Y-19099999D02*
X22793271Y-19099999D01*
X16557142Y-39159580D02*
X16509523Y-39207200D01*
X16509523Y-39207200D02*
X16366666Y-39254819D01*
X16366666Y-39254819D02*
X16271428Y-39254819D01*
X16271428Y-39254819D02*
X16128571Y-39207200D01*
X16128571Y-39207200D02*
X16033333Y-39111961D01*
X16033333Y-39111961D02*
X15985714Y-39016723D01*
X15985714Y-39016723D02*
X15938095Y-38826247D01*
X15938095Y-38826247D02*
X15938095Y-38683390D01*
X15938095Y-38683390D02*
X15985714Y-38492914D01*
X15985714Y-38492914D02*
X16033333Y-38397676D01*
X16033333Y-38397676D02*
X16128571Y-38302438D01*
X16128571Y-38302438D02*
X16271428Y-38254819D01*
X16271428Y-38254819D02*
X16366666Y-38254819D01*
X16366666Y-38254819D02*
X16509523Y-38302438D01*
X16509523Y-38302438D02*
X16557142Y-38350057D01*
X16890476Y-38254819D02*
X17509523Y-38254819D01*
X17509523Y-38254819D02*
X17176190Y-38635771D01*
X17176190Y-38635771D02*
X17319047Y-38635771D01*
X17319047Y-38635771D02*
X17414285Y-38683390D01*
X17414285Y-38683390D02*
X17461904Y-38731009D01*
X17461904Y-38731009D02*
X17509523Y-38826247D01*
X17509523Y-38826247D02*
X17509523Y-39064342D01*
X17509523Y-39064342D02*
X17461904Y-39159580D01*
X17461904Y-39159580D02*
X17414285Y-39207200D01*
X17414285Y-39207200D02*
X17319047Y-39254819D01*
X17319047Y-39254819D02*
X17033333Y-39254819D01*
X17033333Y-39254819D02*
X16938095Y-39207200D01*
X16938095Y-39207200D02*
X16890476Y-39159580D01*
X17842857Y-38254819D02*
X18461904Y-38254819D01*
X18461904Y-38254819D02*
X18128571Y-38635771D01*
X18128571Y-38635771D02*
X18271428Y-38635771D01*
X18271428Y-38635771D02*
X18366666Y-38683390D01*
X18366666Y-38683390D02*
X18414285Y-38731009D01*
X18414285Y-38731009D02*
X18461904Y-38826247D01*
X18461904Y-38826247D02*
X18461904Y-39064342D01*
X18461904Y-39064342D02*
X18414285Y-39159580D01*
X18414285Y-39159580D02*
X18366666Y-39207200D01*
X18366666Y-39207200D02*
X18271428Y-39254819D01*
X18271428Y-39254819D02*
X17985714Y-39254819D01*
X17985714Y-39254819D02*
X17890476Y-39207200D01*
X17890476Y-39207200D02*
X17842857Y-39159580D01*
X32259580Y-43142857D02*
X32307200Y-43190476D01*
X32307200Y-43190476D02*
X32354819Y-43333333D01*
X32354819Y-43333333D02*
X32354819Y-43428571D01*
X32354819Y-43428571D02*
X32307200Y-43571428D01*
X32307200Y-43571428D02*
X32211961Y-43666666D01*
X32211961Y-43666666D02*
X32116723Y-43714285D01*
X32116723Y-43714285D02*
X31926247Y-43761904D01*
X31926247Y-43761904D02*
X31783390Y-43761904D01*
X31783390Y-43761904D02*
X31592914Y-43714285D01*
X31592914Y-43714285D02*
X31497676Y-43666666D01*
X31497676Y-43666666D02*
X31402438Y-43571428D01*
X31402438Y-43571428D02*
X31354819Y-43428571D01*
X31354819Y-43428571D02*
X31354819Y-43333333D01*
X31354819Y-43333333D02*
X31402438Y-43190476D01*
X31402438Y-43190476D02*
X31450057Y-43142857D01*
X31354819Y-42809523D02*
X31354819Y-42190476D01*
X31354819Y-42190476D02*
X31735771Y-42523809D01*
X31735771Y-42523809D02*
X31735771Y-42380952D01*
X31735771Y-42380952D02*
X31783390Y-42285714D01*
X31783390Y-42285714D02*
X31831009Y-42238095D01*
X31831009Y-42238095D02*
X31926247Y-42190476D01*
X31926247Y-42190476D02*
X32164342Y-42190476D01*
X32164342Y-42190476D02*
X32259580Y-42238095D01*
X32259580Y-42238095D02*
X32307200Y-42285714D01*
X32307200Y-42285714D02*
X32354819Y-42380952D01*
X32354819Y-42380952D02*
X32354819Y-42666666D01*
X32354819Y-42666666D02*
X32307200Y-42761904D01*
X32307200Y-42761904D02*
X32259580Y-42809523D01*
X31354819Y-41333333D02*
X31354819Y-41523809D01*
X31354819Y-41523809D02*
X31402438Y-41619047D01*
X31402438Y-41619047D02*
X31450057Y-41666666D01*
X31450057Y-41666666D02*
X31592914Y-41761904D01*
X31592914Y-41761904D02*
X31783390Y-41809523D01*
X31783390Y-41809523D02*
X32164342Y-41809523D01*
X32164342Y-41809523D02*
X32259580Y-41761904D01*
X32259580Y-41761904D02*
X32307200Y-41714285D01*
X32307200Y-41714285D02*
X32354819Y-41619047D01*
X32354819Y-41619047D02*
X32354819Y-41428571D01*
X32354819Y-41428571D02*
X32307200Y-41333333D01*
X32307200Y-41333333D02*
X32259580Y-41285714D01*
X32259580Y-41285714D02*
X32164342Y-41238095D01*
X32164342Y-41238095D02*
X31926247Y-41238095D01*
X31926247Y-41238095D02*
X31831009Y-41285714D01*
X31831009Y-41285714D02*
X31783390Y-41333333D01*
X31783390Y-41333333D02*
X31735771Y-41428571D01*
X31735771Y-41428571D02*
X31735771Y-41619047D01*
X31735771Y-41619047D02*
X31783390Y-41714285D01*
X31783390Y-41714285D02*
X31831009Y-41761904D01*
X31831009Y-41761904D02*
X31926247Y-41809523D01*
X73689761Y-15870057D02*
X73594523Y-15822438D01*
X73594523Y-15822438D02*
X73499285Y-15727200D01*
X73499285Y-15727200D02*
X73356428Y-15584342D01*
X73356428Y-15584342D02*
X73261190Y-15536723D01*
X73261190Y-15536723D02*
X73165952Y-15536723D01*
X73213571Y-15774819D02*
X73118333Y-15727200D01*
X73118333Y-15727200D02*
X73023095Y-15631961D01*
X73023095Y-15631961D02*
X72975476Y-15441485D01*
X72975476Y-15441485D02*
X72975476Y-15108152D01*
X72975476Y-15108152D02*
X73023095Y-14917676D01*
X73023095Y-14917676D02*
X73118333Y-14822438D01*
X73118333Y-14822438D02*
X73213571Y-14774819D01*
X73213571Y-14774819D02*
X73404047Y-14774819D01*
X73404047Y-14774819D02*
X73499285Y-14822438D01*
X73499285Y-14822438D02*
X73594523Y-14917676D01*
X73594523Y-14917676D02*
X73642142Y-15108152D01*
X73642142Y-15108152D02*
X73642142Y-15441485D01*
X73642142Y-15441485D02*
X73594523Y-15631961D01*
X73594523Y-15631961D02*
X73499285Y-15727200D01*
X73499285Y-15727200D02*
X73404047Y-15774819D01*
X73404047Y-15774819D02*
X73213571Y-15774819D01*
X74499285Y-14774819D02*
X74308809Y-14774819D01*
X74308809Y-14774819D02*
X74213571Y-14822438D01*
X74213571Y-14822438D02*
X74165952Y-14870057D01*
X74165952Y-14870057D02*
X74070714Y-15012914D01*
X74070714Y-15012914D02*
X74023095Y-15203390D01*
X74023095Y-15203390D02*
X74023095Y-15584342D01*
X74023095Y-15584342D02*
X74070714Y-15679580D01*
X74070714Y-15679580D02*
X74118333Y-15727200D01*
X74118333Y-15727200D02*
X74213571Y-15774819D01*
X74213571Y-15774819D02*
X74404047Y-15774819D01*
X74404047Y-15774819D02*
X74499285Y-15727200D01*
X74499285Y-15727200D02*
X74546904Y-15679580D01*
X74546904Y-15679580D02*
X74594523Y-15584342D01*
X74594523Y-15584342D02*
X74594523Y-15346247D01*
X74594523Y-15346247D02*
X74546904Y-15251009D01*
X74546904Y-15251009D02*
X74499285Y-15203390D01*
X74499285Y-15203390D02*
X74404047Y-15155771D01*
X74404047Y-15155771D02*
X74213571Y-15155771D01*
X74213571Y-15155771D02*
X74118333Y-15203390D01*
X74118333Y-15203390D02*
X74070714Y-15251009D01*
X74070714Y-15251009D02*
X74023095Y-15346247D01*
X20357142Y-42359580D02*
X20309523Y-42407200D01*
X20309523Y-42407200D02*
X20166666Y-42454819D01*
X20166666Y-42454819D02*
X20071428Y-42454819D01*
X20071428Y-42454819D02*
X19928571Y-42407200D01*
X19928571Y-42407200D02*
X19833333Y-42311961D01*
X19833333Y-42311961D02*
X19785714Y-42216723D01*
X19785714Y-42216723D02*
X19738095Y-42026247D01*
X19738095Y-42026247D02*
X19738095Y-41883390D01*
X19738095Y-41883390D02*
X19785714Y-41692914D01*
X19785714Y-41692914D02*
X19833333Y-41597676D01*
X19833333Y-41597676D02*
X19928571Y-41502438D01*
X19928571Y-41502438D02*
X20071428Y-41454819D01*
X20071428Y-41454819D02*
X20166666Y-41454819D01*
X20166666Y-41454819D02*
X20309523Y-41502438D01*
X20309523Y-41502438D02*
X20357142Y-41550057D01*
X20738095Y-41550057D02*
X20785714Y-41502438D01*
X20785714Y-41502438D02*
X20880952Y-41454819D01*
X20880952Y-41454819D02*
X21119047Y-41454819D01*
X21119047Y-41454819D02*
X21214285Y-41502438D01*
X21214285Y-41502438D02*
X21261904Y-41550057D01*
X21261904Y-41550057D02*
X21309523Y-41645295D01*
X21309523Y-41645295D02*
X21309523Y-41740533D01*
X21309523Y-41740533D02*
X21261904Y-41883390D01*
X21261904Y-41883390D02*
X20690476Y-42454819D01*
X20690476Y-42454819D02*
X21309523Y-42454819D01*
X21880952Y-41883390D02*
X21785714Y-41835771D01*
X21785714Y-41835771D02*
X21738095Y-41788152D01*
X21738095Y-41788152D02*
X21690476Y-41692914D01*
X21690476Y-41692914D02*
X21690476Y-41645295D01*
X21690476Y-41645295D02*
X21738095Y-41550057D01*
X21738095Y-41550057D02*
X21785714Y-41502438D01*
X21785714Y-41502438D02*
X21880952Y-41454819D01*
X21880952Y-41454819D02*
X22071428Y-41454819D01*
X22071428Y-41454819D02*
X22166666Y-41502438D01*
X22166666Y-41502438D02*
X22214285Y-41550057D01*
X22214285Y-41550057D02*
X22261904Y-41645295D01*
X22261904Y-41645295D02*
X22261904Y-41692914D01*
X22261904Y-41692914D02*
X22214285Y-41788152D01*
X22214285Y-41788152D02*
X22166666Y-41835771D01*
X22166666Y-41835771D02*
X22071428Y-41883390D01*
X22071428Y-41883390D02*
X21880952Y-41883390D01*
X21880952Y-41883390D02*
X21785714Y-41931009D01*
X21785714Y-41931009D02*
X21738095Y-41978628D01*
X21738095Y-41978628D02*
X21690476Y-42073866D01*
X21690476Y-42073866D02*
X21690476Y-42264342D01*
X21690476Y-42264342D02*
X21738095Y-42359580D01*
X21738095Y-42359580D02*
X21785714Y-42407200D01*
X21785714Y-42407200D02*
X21880952Y-42454819D01*
X21880952Y-42454819D02*
X22071428Y-42454819D01*
X22071428Y-42454819D02*
X22166666Y-42407200D01*
X22166666Y-42407200D02*
X22214285Y-42359580D01*
X22214285Y-42359580D02*
X22261904Y-42264342D01*
X22261904Y-42264342D02*
X22261904Y-42073866D01*
X22261904Y-42073866D02*
X22214285Y-41978628D01*
X22214285Y-41978628D02*
X22166666Y-41931009D01*
X22166666Y-41931009D02*
X22071428Y-41883390D01*
X44404761Y-17800057D02*
X44309523Y-17752438D01*
X44309523Y-17752438D02*
X44214285Y-17657200D01*
X44214285Y-17657200D02*
X44071428Y-17514342D01*
X44071428Y-17514342D02*
X43976190Y-17466723D01*
X43976190Y-17466723D02*
X43880952Y-17466723D01*
X43928571Y-17704819D02*
X43833333Y-17657200D01*
X43833333Y-17657200D02*
X43738095Y-17561961D01*
X43738095Y-17561961D02*
X43690476Y-17371485D01*
X43690476Y-17371485D02*
X43690476Y-17038152D01*
X43690476Y-17038152D02*
X43738095Y-16847676D01*
X43738095Y-16847676D02*
X43833333Y-16752438D01*
X43833333Y-16752438D02*
X43928571Y-16704819D01*
X43928571Y-16704819D02*
X44119047Y-16704819D01*
X44119047Y-16704819D02*
X44214285Y-16752438D01*
X44214285Y-16752438D02*
X44309523Y-16847676D01*
X44309523Y-16847676D02*
X44357142Y-17038152D01*
X44357142Y-17038152D02*
X44357142Y-17371485D01*
X44357142Y-17371485D02*
X44309523Y-17561961D01*
X44309523Y-17561961D02*
X44214285Y-17657200D01*
X44214285Y-17657200D02*
X44119047Y-17704819D01*
X44119047Y-17704819D02*
X43928571Y-17704819D01*
X45214285Y-17038152D02*
X45214285Y-17704819D01*
X44976190Y-16657200D02*
X44738095Y-17371485D01*
X44738095Y-17371485D02*
X45357142Y-17371485D01*
X66404761Y-16050057D02*
X66309523Y-16002438D01*
X66309523Y-16002438D02*
X66214285Y-15907200D01*
X66214285Y-15907200D02*
X66071428Y-15764342D01*
X66071428Y-15764342D02*
X65976190Y-15716723D01*
X65976190Y-15716723D02*
X65880952Y-15716723D01*
X65928571Y-15954819D02*
X65833333Y-15907200D01*
X65833333Y-15907200D02*
X65738095Y-15811961D01*
X65738095Y-15811961D02*
X65690476Y-15621485D01*
X65690476Y-15621485D02*
X65690476Y-15288152D01*
X65690476Y-15288152D02*
X65738095Y-15097676D01*
X65738095Y-15097676D02*
X65833333Y-15002438D01*
X65833333Y-15002438D02*
X65928571Y-14954819D01*
X65928571Y-14954819D02*
X66119047Y-14954819D01*
X66119047Y-14954819D02*
X66214285Y-15002438D01*
X66214285Y-15002438D02*
X66309523Y-15097676D01*
X66309523Y-15097676D02*
X66357142Y-15288152D01*
X66357142Y-15288152D02*
X66357142Y-15621485D01*
X66357142Y-15621485D02*
X66309523Y-15811961D01*
X66309523Y-15811961D02*
X66214285Y-15907200D01*
X66214285Y-15907200D02*
X66119047Y-15954819D01*
X66119047Y-15954819D02*
X65928571Y-15954819D01*
X67261904Y-14954819D02*
X66785714Y-14954819D01*
X66785714Y-14954819D02*
X66738095Y-15431009D01*
X66738095Y-15431009D02*
X66785714Y-15383390D01*
X66785714Y-15383390D02*
X66880952Y-15335771D01*
X66880952Y-15335771D02*
X67119047Y-15335771D01*
X67119047Y-15335771D02*
X67214285Y-15383390D01*
X67214285Y-15383390D02*
X67261904Y-15431009D01*
X67261904Y-15431009D02*
X67309523Y-15526247D01*
X67309523Y-15526247D02*
X67309523Y-15764342D01*
X67309523Y-15764342D02*
X67261904Y-15859580D01*
X67261904Y-15859580D02*
X67214285Y-15907200D01*
X67214285Y-15907200D02*
X67119047Y-15954819D01*
X67119047Y-15954819D02*
X66880952Y-15954819D01*
X66880952Y-15954819D02*
X66785714Y-15907200D01*
X66785714Y-15907200D02*
X66738095Y-15859580D01*
X20833333Y-40854819D02*
X20357143Y-40854819D01*
X20357143Y-40854819D02*
X20357143Y-39854819D01*
X21119048Y-39950057D02*
X21166667Y-39902438D01*
X21166667Y-39902438D02*
X21261905Y-39854819D01*
X21261905Y-39854819D02*
X21500000Y-39854819D01*
X21500000Y-39854819D02*
X21595238Y-39902438D01*
X21595238Y-39902438D02*
X21642857Y-39950057D01*
X21642857Y-39950057D02*
X21690476Y-40045295D01*
X21690476Y-40045295D02*
X21690476Y-40140533D01*
X21690476Y-40140533D02*
X21642857Y-40283390D01*
X21642857Y-40283390D02*
X21071429Y-40854819D01*
X21071429Y-40854819D02*
X21690476Y-40854819D01*
X36404761Y-48550057D02*
X36309523Y-48502438D01*
X36309523Y-48502438D02*
X36214285Y-48407200D01*
X36214285Y-48407200D02*
X36071428Y-48264342D01*
X36071428Y-48264342D02*
X35976190Y-48216723D01*
X35976190Y-48216723D02*
X35880952Y-48216723D01*
X35928571Y-48454819D02*
X35833333Y-48407200D01*
X35833333Y-48407200D02*
X35738095Y-48311961D01*
X35738095Y-48311961D02*
X35690476Y-48121485D01*
X35690476Y-48121485D02*
X35690476Y-47788152D01*
X35690476Y-47788152D02*
X35738095Y-47597676D01*
X35738095Y-47597676D02*
X35833333Y-47502438D01*
X35833333Y-47502438D02*
X35928571Y-47454819D01*
X35928571Y-47454819D02*
X36119047Y-47454819D01*
X36119047Y-47454819D02*
X36214285Y-47502438D01*
X36214285Y-47502438D02*
X36309523Y-47597676D01*
X36309523Y-47597676D02*
X36357142Y-47788152D01*
X36357142Y-47788152D02*
X36357142Y-48121485D01*
X36357142Y-48121485D02*
X36309523Y-48311961D01*
X36309523Y-48311961D02*
X36214285Y-48407200D01*
X36214285Y-48407200D02*
X36119047Y-48454819D01*
X36119047Y-48454819D02*
X35928571Y-48454819D01*
X36690476Y-47454819D02*
X37357142Y-47454819D01*
X37357142Y-47454819D02*
X36928571Y-48454819D01*
X26759580Y-49442857D02*
X26807200Y-49490476D01*
X26807200Y-49490476D02*
X26854819Y-49633333D01*
X26854819Y-49633333D02*
X26854819Y-49728571D01*
X26854819Y-49728571D02*
X26807200Y-49871428D01*
X26807200Y-49871428D02*
X26711961Y-49966666D01*
X26711961Y-49966666D02*
X26616723Y-50014285D01*
X26616723Y-50014285D02*
X26426247Y-50061904D01*
X26426247Y-50061904D02*
X26283390Y-50061904D01*
X26283390Y-50061904D02*
X26092914Y-50014285D01*
X26092914Y-50014285D02*
X25997676Y-49966666D01*
X25997676Y-49966666D02*
X25902438Y-49871428D01*
X25902438Y-49871428D02*
X25854819Y-49728571D01*
X25854819Y-49728571D02*
X25854819Y-49633333D01*
X25854819Y-49633333D02*
X25902438Y-49490476D01*
X25902438Y-49490476D02*
X25950057Y-49442857D01*
X25950057Y-49061904D02*
X25902438Y-49014285D01*
X25902438Y-49014285D02*
X25854819Y-48919047D01*
X25854819Y-48919047D02*
X25854819Y-48680952D01*
X25854819Y-48680952D02*
X25902438Y-48585714D01*
X25902438Y-48585714D02*
X25950057Y-48538095D01*
X25950057Y-48538095D02*
X26045295Y-48490476D01*
X26045295Y-48490476D02*
X26140533Y-48490476D01*
X26140533Y-48490476D02*
X26283390Y-48538095D01*
X26283390Y-48538095D02*
X26854819Y-49109523D01*
X26854819Y-49109523D02*
X26854819Y-48490476D01*
X26854819Y-48014285D02*
X26854819Y-47823809D01*
X26854819Y-47823809D02*
X26807200Y-47728571D01*
X26807200Y-47728571D02*
X26759580Y-47680952D01*
X26759580Y-47680952D02*
X26616723Y-47585714D01*
X26616723Y-47585714D02*
X26426247Y-47538095D01*
X26426247Y-47538095D02*
X26045295Y-47538095D01*
X26045295Y-47538095D02*
X25950057Y-47585714D01*
X25950057Y-47585714D02*
X25902438Y-47633333D01*
X25902438Y-47633333D02*
X25854819Y-47728571D01*
X25854819Y-47728571D02*
X25854819Y-47919047D01*
X25854819Y-47919047D02*
X25902438Y-48014285D01*
X25902438Y-48014285D02*
X25950057Y-48061904D01*
X25950057Y-48061904D02*
X26045295Y-48109523D01*
X26045295Y-48109523D02*
X26283390Y-48109523D01*
X26283390Y-48109523D02*
X26378628Y-48061904D01*
X26378628Y-48061904D02*
X26426247Y-48014285D01*
X26426247Y-48014285D02*
X26473866Y-47919047D01*
X26473866Y-47919047D02*
X26473866Y-47728571D01*
X26473866Y-47728571D02*
X26426247Y-47633333D01*
X26426247Y-47633333D02*
X26378628Y-47585714D01*
X26378628Y-47585714D02*
X26283390Y-47538095D01*
X26854819Y-46242857D02*
X26378628Y-46576190D01*
X26854819Y-46814285D02*
X25854819Y-46814285D01*
X25854819Y-46814285D02*
X25854819Y-46433333D01*
X25854819Y-46433333D02*
X25902438Y-46338095D01*
X25902438Y-46338095D02*
X25950057Y-46290476D01*
X25950057Y-46290476D02*
X26045295Y-46242857D01*
X26045295Y-46242857D02*
X26188152Y-46242857D01*
X26188152Y-46242857D02*
X26283390Y-46290476D01*
X26283390Y-46290476D02*
X26331009Y-46338095D01*
X26331009Y-46338095D02*
X26378628Y-46433333D01*
X26378628Y-46433333D02*
X26378628Y-46814285D01*
X26854819Y-45290476D02*
X26854819Y-45861904D01*
X26854819Y-45576190D02*
X25854819Y-45576190D01*
X25854819Y-45576190D02*
X25997676Y-45671428D01*
X25997676Y-45671428D02*
X26092914Y-45766666D01*
X26092914Y-45766666D02*
X26140533Y-45861904D01*
X26283390Y-44719047D02*
X26235771Y-44814285D01*
X26235771Y-44814285D02*
X26188152Y-44861904D01*
X26188152Y-44861904D02*
X26092914Y-44909523D01*
X26092914Y-44909523D02*
X26045295Y-44909523D01*
X26045295Y-44909523D02*
X25950057Y-44861904D01*
X25950057Y-44861904D02*
X25902438Y-44814285D01*
X25902438Y-44814285D02*
X25854819Y-44719047D01*
X25854819Y-44719047D02*
X25854819Y-44528571D01*
X25854819Y-44528571D02*
X25902438Y-44433333D01*
X25902438Y-44433333D02*
X25950057Y-44385714D01*
X25950057Y-44385714D02*
X26045295Y-44338095D01*
X26045295Y-44338095D02*
X26092914Y-44338095D01*
X26092914Y-44338095D02*
X26188152Y-44385714D01*
X26188152Y-44385714D02*
X26235771Y-44433333D01*
X26235771Y-44433333D02*
X26283390Y-44528571D01*
X26283390Y-44528571D02*
X26283390Y-44719047D01*
X26283390Y-44719047D02*
X26331009Y-44814285D01*
X26331009Y-44814285D02*
X26378628Y-44861904D01*
X26378628Y-44861904D02*
X26473866Y-44909523D01*
X26473866Y-44909523D02*
X26664342Y-44909523D01*
X26664342Y-44909523D02*
X26759580Y-44861904D01*
X26759580Y-44861904D02*
X26807200Y-44814285D01*
X26807200Y-44814285D02*
X26854819Y-44719047D01*
X26854819Y-44719047D02*
X26854819Y-44528571D01*
X26854819Y-44528571D02*
X26807200Y-44433333D01*
X26807200Y-44433333D02*
X26759580Y-44385714D01*
X26759580Y-44385714D02*
X26664342Y-44338095D01*
X26664342Y-44338095D02*
X26473866Y-44338095D01*
X26473866Y-44338095D02*
X26378628Y-44385714D01*
X26378628Y-44385714D02*
X26331009Y-44433333D01*
X26331009Y-44433333D02*
X26283390Y-44528571D01*
X72966666Y-24354819D02*
X72966666Y-25069104D01*
X72966666Y-25069104D02*
X72919047Y-25211961D01*
X72919047Y-25211961D02*
X72823809Y-25307200D01*
X72823809Y-25307200D02*
X72680952Y-25354819D01*
X72680952Y-25354819D02*
X72585714Y-25354819D01*
X73442857Y-25354819D02*
X73442857Y-24354819D01*
X73442857Y-24354819D02*
X73823809Y-24354819D01*
X73823809Y-24354819D02*
X73919047Y-24402438D01*
X73919047Y-24402438D02*
X73966666Y-24450057D01*
X73966666Y-24450057D02*
X74014285Y-24545295D01*
X74014285Y-24545295D02*
X74014285Y-24688152D01*
X74014285Y-24688152D02*
X73966666Y-24783390D01*
X73966666Y-24783390D02*
X73919047Y-24831009D01*
X73919047Y-24831009D02*
X73823809Y-24878628D01*
X73823809Y-24878628D02*
X73442857Y-24878628D01*
X74966666Y-25354819D02*
X74395238Y-25354819D01*
X74680952Y-25354819D02*
X74680952Y-24354819D01*
X74680952Y-24354819D02*
X74585714Y-24497676D01*
X74585714Y-24497676D02*
X74490476Y-24592914D01*
X74490476Y-24592914D02*
X74395238Y-24640533D01*
X25109580Y-29642857D02*
X25157200Y-29690476D01*
X25157200Y-29690476D02*
X25204819Y-29833333D01*
X25204819Y-29833333D02*
X25204819Y-29928571D01*
X25204819Y-29928571D02*
X25157200Y-30071428D01*
X25157200Y-30071428D02*
X25061961Y-30166666D01*
X25061961Y-30166666D02*
X24966723Y-30214285D01*
X24966723Y-30214285D02*
X24776247Y-30261904D01*
X24776247Y-30261904D02*
X24633390Y-30261904D01*
X24633390Y-30261904D02*
X24442914Y-30214285D01*
X24442914Y-30214285D02*
X24347676Y-30166666D01*
X24347676Y-30166666D02*
X24252438Y-30071428D01*
X24252438Y-30071428D02*
X24204819Y-29928571D01*
X24204819Y-29928571D02*
X24204819Y-29833333D01*
X24204819Y-29833333D02*
X24252438Y-29690476D01*
X24252438Y-29690476D02*
X24300057Y-29642857D01*
X25204819Y-28690476D02*
X25204819Y-29261904D01*
X25204819Y-28976190D02*
X24204819Y-28976190D01*
X24204819Y-28976190D02*
X24347676Y-29071428D01*
X24347676Y-29071428D02*
X24442914Y-29166666D01*
X24442914Y-29166666D02*
X24490533Y-29261904D01*
X24204819Y-28357142D02*
X24204819Y-27690476D01*
X24204819Y-27690476D02*
X25204819Y-28119047D01*
X52604819Y-43666666D02*
X52128628Y-43999999D01*
X52604819Y-44238094D02*
X51604819Y-44238094D01*
X51604819Y-44238094D02*
X51604819Y-43857142D01*
X51604819Y-43857142D02*
X51652438Y-43761904D01*
X51652438Y-43761904D02*
X51700057Y-43714285D01*
X51700057Y-43714285D02*
X51795295Y-43666666D01*
X51795295Y-43666666D02*
X51938152Y-43666666D01*
X51938152Y-43666666D02*
X52033390Y-43714285D01*
X52033390Y-43714285D02*
X52081009Y-43761904D01*
X52081009Y-43761904D02*
X52128628Y-43857142D01*
X52128628Y-43857142D02*
X52128628Y-44238094D01*
X52033390Y-43095237D02*
X51985771Y-43190475D01*
X51985771Y-43190475D02*
X51938152Y-43238094D01*
X51938152Y-43238094D02*
X51842914Y-43285713D01*
X51842914Y-43285713D02*
X51795295Y-43285713D01*
X51795295Y-43285713D02*
X51700057Y-43238094D01*
X51700057Y-43238094D02*
X51652438Y-43190475D01*
X51652438Y-43190475D02*
X51604819Y-43095237D01*
X51604819Y-43095237D02*
X51604819Y-42904761D01*
X51604819Y-42904761D02*
X51652438Y-42809523D01*
X51652438Y-42809523D02*
X51700057Y-42761904D01*
X51700057Y-42761904D02*
X51795295Y-42714285D01*
X51795295Y-42714285D02*
X51842914Y-42714285D01*
X51842914Y-42714285D02*
X51938152Y-42761904D01*
X51938152Y-42761904D02*
X51985771Y-42809523D01*
X51985771Y-42809523D02*
X52033390Y-42904761D01*
X52033390Y-42904761D02*
X52033390Y-43095237D01*
X52033390Y-43095237D02*
X52081009Y-43190475D01*
X52081009Y-43190475D02*
X52128628Y-43238094D01*
X52128628Y-43238094D02*
X52223866Y-43285713D01*
X52223866Y-43285713D02*
X52414342Y-43285713D01*
X52414342Y-43285713D02*
X52509580Y-43238094D01*
X52509580Y-43238094D02*
X52557200Y-43190475D01*
X52557200Y-43190475D02*
X52604819Y-43095237D01*
X52604819Y-43095237D02*
X52604819Y-42904761D01*
X52604819Y-42904761D02*
X52557200Y-42809523D01*
X52557200Y-42809523D02*
X52509580Y-42761904D01*
X52509580Y-42761904D02*
X52414342Y-42714285D01*
X52414342Y-42714285D02*
X52223866Y-42714285D01*
X52223866Y-42714285D02*
X52128628Y-42761904D01*
X52128628Y-42761904D02*
X52081009Y-42809523D01*
X52081009Y-42809523D02*
X52033390Y-42904761D01*
X44833333Y-42954819D02*
X44500000Y-42478628D01*
X44261905Y-42954819D02*
X44261905Y-41954819D01*
X44261905Y-41954819D02*
X44642857Y-41954819D01*
X44642857Y-41954819D02*
X44738095Y-42002438D01*
X44738095Y-42002438D02*
X44785714Y-42050057D01*
X44785714Y-42050057D02*
X44833333Y-42145295D01*
X44833333Y-42145295D02*
X44833333Y-42288152D01*
X44833333Y-42288152D02*
X44785714Y-42383390D01*
X44785714Y-42383390D02*
X44738095Y-42431009D01*
X44738095Y-42431009D02*
X44642857Y-42478628D01*
X44642857Y-42478628D02*
X44261905Y-42478628D01*
X45309524Y-42954819D02*
X45500000Y-42954819D01*
X45500000Y-42954819D02*
X45595238Y-42907200D01*
X45595238Y-42907200D02*
X45642857Y-42859580D01*
X45642857Y-42859580D02*
X45738095Y-42716723D01*
X45738095Y-42716723D02*
X45785714Y-42526247D01*
X45785714Y-42526247D02*
X45785714Y-42145295D01*
X45785714Y-42145295D02*
X45738095Y-42050057D01*
X45738095Y-42050057D02*
X45690476Y-42002438D01*
X45690476Y-42002438D02*
X45595238Y-41954819D01*
X45595238Y-41954819D02*
X45404762Y-41954819D01*
X45404762Y-41954819D02*
X45309524Y-42002438D01*
X45309524Y-42002438D02*
X45261905Y-42050057D01*
X45261905Y-42050057D02*
X45214286Y-42145295D01*
X45214286Y-42145295D02*
X45214286Y-42383390D01*
X45214286Y-42383390D02*
X45261905Y-42478628D01*
X45261905Y-42478628D02*
X45309524Y-42526247D01*
X45309524Y-42526247D02*
X45404762Y-42573866D01*
X45404762Y-42573866D02*
X45595238Y-42573866D01*
X45595238Y-42573866D02*
X45690476Y-42526247D01*
X45690476Y-42526247D02*
X45738095Y-42478628D01*
X45738095Y-42478628D02*
X45785714Y-42383390D01*
X74854819Y-36433333D02*
X75569104Y-36433333D01*
X75569104Y-36433333D02*
X75711961Y-36480952D01*
X75711961Y-36480952D02*
X75807200Y-36576190D01*
X75807200Y-36576190D02*
X75854819Y-36719047D01*
X75854819Y-36719047D02*
X75854819Y-36814285D01*
X75854819Y-35957142D02*
X74854819Y-35957142D01*
X74854819Y-35957142D02*
X74854819Y-35576190D01*
X74854819Y-35576190D02*
X74902438Y-35480952D01*
X74902438Y-35480952D02*
X74950057Y-35433333D01*
X74950057Y-35433333D02*
X75045295Y-35385714D01*
X75045295Y-35385714D02*
X75188152Y-35385714D01*
X75188152Y-35385714D02*
X75283390Y-35433333D01*
X75283390Y-35433333D02*
X75331009Y-35480952D01*
X75331009Y-35480952D02*
X75378628Y-35576190D01*
X75378628Y-35576190D02*
X75378628Y-35957142D01*
X74854819Y-35052380D02*
X74854819Y-34433333D01*
X74854819Y-34433333D02*
X75235771Y-34766666D01*
X75235771Y-34766666D02*
X75235771Y-34623809D01*
X75235771Y-34623809D02*
X75283390Y-34528571D01*
X75283390Y-34528571D02*
X75331009Y-34480952D01*
X75331009Y-34480952D02*
X75426247Y-34433333D01*
X75426247Y-34433333D02*
X75664342Y-34433333D01*
X75664342Y-34433333D02*
X75759580Y-34480952D01*
X75759580Y-34480952D02*
X75807200Y-34528571D01*
X75807200Y-34528571D02*
X75854819Y-34623809D01*
X75854819Y-34623809D02*
X75854819Y-34909523D01*
X75854819Y-34909523D02*
X75807200Y-35004761D01*
X75807200Y-35004761D02*
X75759580Y-35052380D01*
X31109580Y-29642857D02*
X31157200Y-29690476D01*
X31157200Y-29690476D02*
X31204819Y-29833333D01*
X31204819Y-29833333D02*
X31204819Y-29928571D01*
X31204819Y-29928571D02*
X31157200Y-30071428D01*
X31157200Y-30071428D02*
X31061961Y-30166666D01*
X31061961Y-30166666D02*
X30966723Y-30214285D01*
X30966723Y-30214285D02*
X30776247Y-30261904D01*
X30776247Y-30261904D02*
X30633390Y-30261904D01*
X30633390Y-30261904D02*
X30442914Y-30214285D01*
X30442914Y-30214285D02*
X30347676Y-30166666D01*
X30347676Y-30166666D02*
X30252438Y-30071428D01*
X30252438Y-30071428D02*
X30204819Y-29928571D01*
X30204819Y-29928571D02*
X30204819Y-29833333D01*
X30204819Y-29833333D02*
X30252438Y-29690476D01*
X30252438Y-29690476D02*
X30300057Y-29642857D01*
X31204819Y-28690476D02*
X31204819Y-29261904D01*
X31204819Y-28976190D02*
X30204819Y-28976190D01*
X30204819Y-28976190D02*
X30347676Y-29071428D01*
X30347676Y-29071428D02*
X30442914Y-29166666D01*
X30442914Y-29166666D02*
X30490533Y-29261904D01*
X30204819Y-27785714D02*
X30204819Y-28261904D01*
X30204819Y-28261904D02*
X30681009Y-28309523D01*
X30681009Y-28309523D02*
X30633390Y-28261904D01*
X30633390Y-28261904D02*
X30585771Y-28166666D01*
X30585771Y-28166666D02*
X30585771Y-27928571D01*
X30585771Y-27928571D02*
X30633390Y-27833333D01*
X30633390Y-27833333D02*
X30681009Y-27785714D01*
X30681009Y-27785714D02*
X30776247Y-27738095D01*
X30776247Y-27738095D02*
X31014342Y-27738095D01*
X31014342Y-27738095D02*
X31109580Y-27785714D01*
X31109580Y-27785714D02*
X31157200Y-27833333D01*
X31157200Y-27833333D02*
X31204819Y-27928571D01*
X31204819Y-27928571D02*
X31204819Y-28166666D01*
X31204819Y-28166666D02*
X31157200Y-28261904D01*
X31157200Y-28261904D02*
X31109580Y-28309523D01*
X60333333Y-19774819D02*
X60000000Y-19298628D01*
X59761905Y-19774819D02*
X59761905Y-18774819D01*
X59761905Y-18774819D02*
X60142857Y-18774819D01*
X60142857Y-18774819D02*
X60238095Y-18822438D01*
X60238095Y-18822438D02*
X60285714Y-18870057D01*
X60285714Y-18870057D02*
X60333333Y-18965295D01*
X60333333Y-18965295D02*
X60333333Y-19108152D01*
X60333333Y-19108152D02*
X60285714Y-19203390D01*
X60285714Y-19203390D02*
X60238095Y-19251009D01*
X60238095Y-19251009D02*
X60142857Y-19298628D01*
X60142857Y-19298628D02*
X59761905Y-19298628D01*
X61190476Y-18774819D02*
X61000000Y-18774819D01*
X61000000Y-18774819D02*
X60904762Y-18822438D01*
X60904762Y-18822438D02*
X60857143Y-18870057D01*
X60857143Y-18870057D02*
X60761905Y-19012914D01*
X60761905Y-19012914D02*
X60714286Y-19203390D01*
X60714286Y-19203390D02*
X60714286Y-19584342D01*
X60714286Y-19584342D02*
X60761905Y-19679580D01*
X60761905Y-19679580D02*
X60809524Y-19727200D01*
X60809524Y-19727200D02*
X60904762Y-19774819D01*
X60904762Y-19774819D02*
X61095238Y-19774819D01*
X61095238Y-19774819D02*
X61190476Y-19727200D01*
X61190476Y-19727200D02*
X61238095Y-19679580D01*
X61238095Y-19679580D02*
X61285714Y-19584342D01*
X61285714Y-19584342D02*
X61285714Y-19346247D01*
X61285714Y-19346247D02*
X61238095Y-19251009D01*
X61238095Y-19251009D02*
X61190476Y-19203390D01*
X61190476Y-19203390D02*
X61095238Y-19155771D01*
X61095238Y-19155771D02*
X60904762Y-19155771D01*
X60904762Y-19155771D02*
X60809524Y-19203390D01*
X60809524Y-19203390D02*
X60761905Y-19251009D01*
X60761905Y-19251009D02*
X60714286Y-19346247D01*
D11*
%TO.C,SW1*%
X78150000Y-43900000D02*
X78150000Y-43600000D01*
X78150000Y-46100000D02*
X78150000Y-46400000D01*
X81450000Y-46400000D02*
X81450000Y-46100000D01*
X78150000Y-43600000D02*
X81450000Y-43600000D01*
X78150000Y-46400000D02*
X81450000Y-46400000D01*
X81450000Y-43600000D02*
X81450000Y-43900000D01*
%TO.C,R7*%
X29262742Y-46477500D02*
X29737258Y-46477500D01*
X29262742Y-47522500D02*
X29737258Y-47522500D01*
%TO.C,J2*%
X83530000Y-41405000D02*
X82895000Y-41405000D01*
X83530000Y-40770000D02*
X83530000Y-41405000D01*
%TO.C,TP9*%
X49000000Y-40500000D02*
G75*
G03*
X49000000Y-40500000I-700000J0D01*
G01*
%TO.C,TP8*%
X80000000Y-17000000D02*
G75*
G03*
X80000000Y-17000000I-700000J0D01*
G01*
%TO.C,TP7*%
X45589279Y-49337045D02*
G75*
G03*
X45589279Y-49337045I-700000J0D01*
G01*
%TO.C,TP6*%
X51000000Y-40500000D02*
G75*
G03*
X51000000Y-40500000I-700000J0D01*
G01*
%TO.C,TP5*%
X50500000Y-35000000D02*
G75*
G03*
X50500000Y-35000000I-700000J0D01*
G01*
%TO.C,TP4*%
X30500000Y-35000000D02*
G75*
G03*
X30500000Y-35000000I-700000J0D01*
G01*
%TO.C,TP3*%
X32000000Y-40000000D02*
G75*
G03*
X32000000Y-40000000I-700000J0D01*
G01*
%TO.C,TP1*%
X41500000Y-21500000D02*
G75*
G03*
X41500000Y-21500000I-700000J0D01*
G01*
%TO.C,R21*%
X29737258Y-49322500D02*
X29262742Y-49322500D01*
X29737258Y-48277500D02*
X29262742Y-48277500D01*
%TO.C,C37*%
X55359420Y-40510000D02*
X55640580Y-40510000D01*
X55359420Y-39490000D02*
X55640580Y-39490000D01*
%TO.C,C32*%
X13940580Y-47110000D02*
X13659420Y-47110000D01*
X13940580Y-46090000D02*
X13659420Y-46090000D01*
D10*
%TO.C,U3*%
X37635000Y-36436250D02*
X37635000Y-36661250D01*
X37635000Y-36436250D02*
X42285000Y-36436250D01*
X37635000Y-36661250D02*
X36560000Y-36661250D01*
X37635000Y-46386250D02*
X37635000Y-46061250D01*
X37635000Y-46386250D02*
X42285000Y-46386250D01*
X42285000Y-36436250D02*
X42285000Y-36761250D01*
X42285000Y-46386250D02*
X42285000Y-46061250D01*
D11*
%TO.C,C4*%
X45540000Y-38361252D02*
X45540000Y-37838748D01*
X47010000Y-38361252D02*
X47010000Y-37838748D01*
%TO.C,R20*%
X14037258Y-50922500D02*
X13562742Y-50922500D01*
X14037258Y-49877500D02*
X13562742Y-49877500D01*
%TO.C,JP2*%
X70700000Y-34200000D02*
X71300000Y-34200000D01*
X72000000Y-34900000D02*
X72000000Y-36300000D01*
X70000000Y-36300000D02*
X70000000Y-34900000D01*
X71300000Y-37000000D02*
X70700000Y-37000000D01*
X72000000Y-34900000D02*
G75*
G03*
X71300000Y-34200000I-699999J1D01*
G01*
X70700000Y-34200000D02*
G75*
G03*
X70000000Y-34900000I-1J-699999D01*
G01*
X71300000Y-37000000D02*
G75*
G03*
X72000000Y-36300000I0J700000D01*
G01*
X70000000Y-36300000D02*
G75*
G03*
X70700000Y-37000000I700000J0D01*
G01*
%TO.C,R1*%
X29177258Y-37352500D02*
X28702742Y-37352500D01*
X29177258Y-36307500D02*
X28702742Y-36307500D01*
%TO.C,R11*%
X60977500Y-23737258D02*
X60977500Y-23262742D01*
X62022500Y-23737258D02*
X62022500Y-23262742D01*
%TO.C,C18*%
X58110000Y-24288748D02*
X58110000Y-25711252D01*
X56290000Y-24288748D02*
X56290000Y-25711252D01*
%TO.C,U1*%
X69045000Y-23640000D02*
X69520000Y-23640000D01*
X71765000Y-23865000D02*
X71765000Y-23640000D01*
X69045000Y-23865000D02*
X69045000Y-23640000D01*
X71765000Y-26135000D02*
X71765000Y-26360000D01*
X69045000Y-26135000D02*
X69045000Y-26360000D01*
X71765000Y-26360000D02*
X71290000Y-26360000D01*
X69045000Y-26360000D02*
X69520000Y-26360000D01*
%TO.C,C21*%
X49110000Y-24288748D02*
X49110000Y-25711252D01*
X47290000Y-24288748D02*
X47290000Y-25711252D01*
%TO.C,R3*%
X50482742Y-36307500D02*
X50957258Y-36307500D01*
X50482742Y-37352500D02*
X50957258Y-37352500D01*
%TO.C,C14*%
X34660000Y-24288748D02*
X34660000Y-25711252D01*
X32840000Y-24288748D02*
X32840000Y-25711252D01*
%TO.C,C16*%
X28660000Y-24288748D02*
X28660000Y-25711252D01*
X26840000Y-24288748D02*
X26840000Y-25711252D01*
D12*
%TO.C,Q1*%
X35500000Y-31500000D02*
X39500000Y-31500000D01*
X35900000Y-31500000D02*
X35500000Y-31100000D01*
X39500000Y-31500000D02*
X39500000Y-25500000D01*
X35500000Y-25500000D02*
X35500000Y-31500000D01*
X39500000Y-25500000D02*
X35500000Y-25500000D01*
D11*
%TO.C,R13*%
X70642258Y-15762500D02*
X70167742Y-15762500D01*
X70642258Y-14717500D02*
X70167742Y-14717500D01*
%TO.C,C6*%
X33080580Y-47700000D02*
X32799420Y-47700000D01*
X33080580Y-46680000D02*
X32799420Y-46680000D01*
%TO.C,R5*%
X41710000Y-24272936D02*
X41710000Y-25727064D01*
X39890000Y-24272936D02*
X39890000Y-25727064D01*
%TO.C,R2*%
X29177258Y-39257500D02*
X28702742Y-39257500D01*
X29177258Y-38212500D02*
X28702742Y-38212500D01*
%TO.C,R14*%
X63522500Y-23262742D02*
X63522500Y-23737258D01*
X62477500Y-23262742D02*
X62477500Y-23737258D01*
%TO.C,R19*%
X17237258Y-50922500D02*
X16762742Y-50922500D01*
X17237258Y-49877500D02*
X16762742Y-49877500D01*
%TO.C,U4*%
X68115000Y-45980000D02*
X68115000Y-45505000D01*
X68590000Y-38760000D02*
X68115000Y-38760000D01*
X68590000Y-45980000D02*
X68115000Y-45980000D01*
X74860000Y-38760000D02*
X75335000Y-38760000D01*
X74860000Y-45980000D02*
X75335000Y-45980000D01*
X75335000Y-38760000D02*
X75335000Y-39235000D01*
X75335000Y-45980000D02*
X75335000Y-45505000D01*
%TO.C,C7*%
X47404420Y-47115000D02*
X47685580Y-47115000D01*
X47404420Y-48135000D02*
X47685580Y-48135000D01*
%TO.C,J1*%
X83150000Y-29670000D02*
X81450000Y-29670000D01*
X83150000Y-20330000D02*
X81450000Y-20330000D01*
%TO.C,C20*%
X52110000Y-24288748D02*
X52110000Y-25711252D01*
X50290000Y-24288748D02*
X50290000Y-25711252D01*
%TO.C,C8*%
X48690000Y-44944420D02*
X48690000Y-45225580D01*
X47670000Y-44944420D02*
X47670000Y-45225580D01*
%TO.C,C34*%
X13940580Y-49310000D02*
X13659420Y-49310000D01*
X13940580Y-48290000D02*
X13659420Y-48290000D01*
%TO.C,R17*%
X25322500Y-41562742D02*
X25322500Y-42037258D01*
X24277500Y-41562742D02*
X24277500Y-42037258D01*
%TO.C,R15*%
X47162742Y-48877500D02*
X47637258Y-48877500D01*
X47162742Y-49922500D02*
X47637258Y-49922500D01*
%TO.C,Q8*%
X67360000Y-24000000D02*
X67360000Y-22200000D01*
X67360000Y-24000000D02*
X67360000Y-24800000D01*
X64240000Y-24000000D02*
X64240000Y-23200000D01*
X64240000Y-24000000D02*
X64240000Y-24800000D01*
D12*
%TO.C,Q2*%
X35500000Y-24500000D02*
X39500000Y-24500000D01*
X35900000Y-24500000D02*
X35500000Y-24100000D01*
X39500000Y-24500000D02*
X39500000Y-18500000D01*
X35500000Y-18500000D02*
X35500000Y-24500000D01*
X39500000Y-18500000D02*
X35500000Y-18500000D01*
D11*
%TO.C,R16*%
X63522500Y-26562742D02*
X63522500Y-27037258D01*
X62477500Y-26562742D02*
X62477500Y-27037258D01*
%TO.C,R4*%
X50482742Y-39257500D02*
X50957258Y-39257500D01*
X50482742Y-38212500D02*
X50957258Y-38212500D01*
%TO.C,C19*%
X55110000Y-24288748D02*
X55110000Y-25711252D01*
X53290000Y-24288748D02*
X53290000Y-25711252D01*
D12*
%TO.C,Q3*%
X42500000Y-31500000D02*
X46500000Y-31500000D01*
X42900000Y-31500000D02*
X42500000Y-31100000D01*
X46500000Y-31500000D02*
X46500000Y-25500000D01*
X42500000Y-25500000D02*
X42500000Y-31500000D01*
X46500000Y-25500000D02*
X42500000Y-25500000D01*
D11*
%TO.C,C35*%
X26255000Y-42661252D02*
X26255000Y-42138748D01*
X27725000Y-42661252D02*
X27725000Y-42138748D01*
%TO.C,C10*%
X33080580Y-49310000D02*
X32799420Y-49310000D01*
X33080580Y-48290000D02*
X32799420Y-48290000D01*
%TO.C,R12*%
X60977500Y-26987258D02*
X60977500Y-26512742D01*
X62022500Y-26987258D02*
X62022500Y-26512742D01*
%TO.C,C5*%
X34485000Y-41688748D02*
X34485000Y-43111252D01*
X32665000Y-41688748D02*
X32665000Y-43111252D01*
%TO.C,C27*%
X21511252Y-45110000D02*
X20088748Y-45110000D01*
X21511252Y-43290000D02*
X20088748Y-43290000D01*
%TO.C,C3*%
X34310000Y-37838748D02*
X34310000Y-38361252D01*
X32840000Y-37838748D02*
X32840000Y-38361252D01*
%TO.C,R10*%
X43562742Y-47077500D02*
X44037258Y-47077500D01*
X43562742Y-48122500D02*
X44037258Y-48122500D01*
%TO.C,C9*%
X46785000Y-44944420D02*
X46785000Y-45225580D01*
X45765000Y-44944420D02*
X45765000Y-45225580D01*
%TO.C,J3*%
X4290000Y-32860000D02*
X18600000Y-32860000D01*
X4290000Y-32860000D02*
X4290000Y-17140000D01*
X22710000Y-26290000D02*
X22710000Y-22550000D01*
X4290000Y-17140000D02*
X18600000Y-17140000D01*
X18600000Y-32859999D02*
G75*
G03*
X22122957Y-30866806I1J4109998D01*
G01*
X22530413Y-20048352D02*
G75*
G03*
X18600000Y-17140000I-3930413J-1201648D01*
G01*
%TO.C,C33*%
X16859420Y-43890000D02*
X17140580Y-43890000D01*
X16859420Y-44910000D02*
X17140580Y-44910000D01*
%TO.C,C36*%
X28265000Y-42661252D02*
X28265000Y-42138748D01*
X29735000Y-42661252D02*
X29735000Y-42138748D01*
%TO.C,Q6*%
X71010000Y-21710000D02*
X76560000Y-21710000D01*
X72010000Y-16290000D02*
X76560000Y-16290000D01*
%TO.C,C28*%
X21511252Y-51510000D02*
X20088748Y-51510000D01*
X21511252Y-49690000D02*
X20088748Y-49690000D01*
D12*
%TO.C,Q4*%
X42500000Y-24500000D02*
X46500000Y-24500000D01*
X42900000Y-24500000D02*
X42500000Y-24100000D01*
X46500000Y-24500000D02*
X46500000Y-18500000D01*
X42500000Y-18500000D02*
X42500000Y-24500000D01*
X46500000Y-18500000D02*
X42500000Y-18500000D01*
D11*
%TO.C,Q5*%
X69275000Y-16290000D02*
X63725000Y-16290000D01*
X68275000Y-21710000D02*
X63725000Y-21710000D01*
%TO.C,L2*%
X20850000Y-45800000D02*
X21150000Y-45800000D01*
X20850000Y-49000000D02*
X21150000Y-49000000D01*
%TO.C,Q7*%
X39800000Y-47240000D02*
X38000000Y-47240000D01*
X39800000Y-47240000D02*
X40600000Y-47240000D01*
X39800000Y-50360000D02*
X39000000Y-50360000D01*
X39800000Y-50360000D02*
X40600000Y-50360000D01*
%TO.C,C29*%
X24065000Y-48661252D02*
X24065000Y-48138748D01*
X25535000Y-48661252D02*
X25535000Y-48138748D01*
%TO.C,R18*%
X25322500Y-44562742D02*
X25322500Y-45037258D01*
X24277500Y-44562742D02*
X24277500Y-45037258D01*
%TO.C,JP1*%
X72400000Y-23300000D02*
X72400000Y-22700000D01*
X73100000Y-22000000D02*
X74500000Y-22000000D01*
X74500000Y-24000000D02*
X73100000Y-24000000D01*
X75200000Y-22700000D02*
X75200000Y-23300000D01*
X73100000Y-22000000D02*
G75*
G03*
X72400000Y-22700000I-1J-699999D01*
G01*
X72400000Y-23300000D02*
G75*
G03*
X73100000Y-24000000I699999J-1D01*
G01*
X75200000Y-22700000D02*
G75*
G03*
X74500000Y-22000000I-700000J0D01*
G01*
X74500000Y-24000000D02*
G75*
G03*
X75200000Y-23300000I0J700000D01*
G01*
%TO.C,C17*%
X25660000Y-24288748D02*
X25660000Y-25711252D01*
X23840000Y-24288748D02*
X23840000Y-25711252D01*
%TO.C,R8*%
X50197500Y-43262742D02*
X50197500Y-43737258D01*
X51242500Y-43262742D02*
X51242500Y-43737258D01*
%TO.C,R9*%
X47307742Y-42022500D02*
X47782258Y-42022500D01*
X47307742Y-43067500D02*
X47782258Y-43067500D01*
%TO.C,JP3*%
X73300000Y-34200000D02*
X73900000Y-34200000D01*
X74600000Y-34900000D02*
X74600000Y-36300000D01*
X72600000Y-36300000D02*
X72600000Y-34900000D01*
X73900000Y-37000000D02*
X73300000Y-37000000D01*
X74600000Y-34900000D02*
G75*
G03*
X73900000Y-34200000I-699999J1D01*
G01*
X73300000Y-34200000D02*
G75*
G03*
X72600000Y-34900000I-1J-699999D01*
G01*
X73900000Y-37000000D02*
G75*
G03*
X74600000Y-36300000I0J700000D01*
G01*
X72600000Y-36300000D02*
G75*
G03*
X73300000Y-37000000I700000J0D01*
G01*
%TO.C,C15*%
X31660000Y-24288748D02*
X31660000Y-25711252D01*
X29840000Y-24288748D02*
X29840000Y-25711252D01*
%TO.C,R6*%
X61227064Y-18410000D02*
X59772936Y-18410000D01*
X61227064Y-16590000D02*
X59772936Y-16590000D01*
%TD*%
M02*
